<?xml version="1.0" encoding="utf-8" standalone="no"?>
<!DOCTYPE svg PUBLIC "-//W3C//DTD SVG 1.1//EN"
  "http://www.w3.org/Graphics/SVG/1.1/DTD/svg11.dtd">
<!-- Created with matplotlib (https://matplotlib.org/) -->
<svg height="216pt" version="1.1" viewBox="0 0 576 216" width="576pt" xmlns="http://www.w3.org/2000/svg" xmlns:xlink="http://www.w3.org/1999/xlink">
 <defs>
  <style type="text/css">
*{stroke-linecap:butt;stroke-linejoin:round;}
  </style>
 </defs>
 <g id="figure_1">
  <g id="patch_1">
   <path d="M 0 216 
L 576 216 
L 576 0 
L 0 0 
z
" style="fill:#ffffff;"/>
  </g>
  <g id="axes_1">
   <g id="patch_2">
    <path d="M 64.368 96.562936 
L 558.855 96.562936 
L 558.855 10.8 
L 64.368 10.8 
z
" style="fill:#ffffff;"/>
   </g>
   <g id="matplotlib.axis_1">
    <g id="xtick_1">
     <g id="line2d_1">
      <path clip-path="url(#pfb72c5ff2f)" d="M 64.368 96.562936 
L 64.368 10.8 
" style="fill:none;stroke:#cccccc;stroke-linecap:square;stroke-width:0.8;"/>
     </g>
     <g id="line2d_2">
      <defs>
       <path d="M 0 0 
L 0 -3.5 
" id="maf42b6da74" style="stroke:#000000;stroke-width:0.8;"/>
      </defs>
      <g>
       <use style="stroke:#000000;stroke-width:0.8;" x="64.368" xlink:href="#maf42b6da74" y="96.562936"/>
      </g>
     </g>
    </g>
    <g id="xtick_2">
     <g id="line2d_3">
      <path clip-path="url(#pfb72c5ff2f)" d="M 146.7825 96.562936 
L 146.7825 10.8 
" style="fill:none;stroke:#cccccc;stroke-linecap:square;stroke-width:0.8;"/>
     </g>
     <g id="line2d_4">
      <g>
       <use style="stroke:#000000;stroke-width:0.8;" x="146.7825" xlink:href="#maf42b6da74" y="96.562936"/>
      </g>
     </g>
    </g>
    <g id="xtick_3">
     <g id="line2d_5">
      <path clip-path="url(#pfb72c5ff2f)" d="M 229.197 96.562936 
L 229.197 10.8 
" style="fill:none;stroke:#cccccc;stroke-linecap:square;stroke-width:0.8;"/>
     </g>
     <g id="line2d_6">
      <g>
       <use style="stroke:#000000;stroke-width:0.8;" x="229.197" xlink:href="#maf42b6da74" y="96.562936"/>
      </g>
     </g>
    </g>
    <g id="xtick_4">
     <g id="line2d_7">
      <path clip-path="url(#pfb72c5ff2f)" d="M 311.6115 96.562936 
L 311.6115 10.8 
" style="fill:none;stroke:#cccccc;stroke-linecap:square;stroke-width:0.8;"/>
     </g>
     <g id="line2d_8">
      <g>
       <use style="stroke:#000000;stroke-width:0.8;" x="311.6115" xlink:href="#maf42b6da74" y="96.562936"/>
      </g>
     </g>
    </g>
    <g id="xtick_5">
     <g id="line2d_9">
      <path clip-path="url(#pfb72c5ff2f)" d="M 394.026 96.562936 
L 394.026 10.8 
" style="fill:none;stroke:#cccccc;stroke-linecap:square;stroke-width:0.8;"/>
     </g>
     <g id="line2d_10">
      <g>
       <use style="stroke:#000000;stroke-width:0.8;" x="394.026" xlink:href="#maf42b6da74" y="96.562936"/>
      </g>
     </g>
    </g>
    <g id="xtick_6">
     <g id="line2d_11">
      <path clip-path="url(#pfb72c5ff2f)" d="M 476.4405 96.562936 
L 476.4405 10.8 
" style="fill:none;stroke:#cccccc;stroke-linecap:square;stroke-width:0.8;"/>
     </g>
     <g id="line2d_12">
      <g>
       <use style="stroke:#000000;stroke-width:0.8;" x="476.4405" xlink:href="#maf42b6da74" y="96.562936"/>
      </g>
     </g>
    </g>
    <g id="xtick_7">
     <g id="line2d_13">
      <path clip-path="url(#pfb72c5ff2f)" d="M 558.855 96.562936 
L 558.855 10.8 
" style="fill:none;stroke:#cccccc;stroke-linecap:square;stroke-width:0.8;"/>
     </g>
     <g id="line2d_14">
      <g>
       <use style="stroke:#000000;stroke-width:0.8;" x="558.855" xlink:href="#maf42b6da74" y="96.562936"/>
      </g>
     </g>
    </g>
   </g>
   <g id="matplotlib.axis_2">
    <g id="ytick_1">
     <g id="line2d_15">
      <path clip-path="url(#pfb72c5ff2f)" d="M 64.368 91.179074 
L 558.855 91.179074 
" style="fill:none;stroke:#cccccc;stroke-linecap:square;stroke-width:0.8;"/>
     </g>
     <g id="line2d_16">
      <defs>
       <path d="M 0 0 
L 3.5 0 
" id="m16c3584cf3" style="stroke:#000000;stroke-width:0.8;"/>
      </defs>
      <g>
       <use style="stroke:#000000;stroke-width:0.8;" x="64.368" xlink:href="#m16c3584cf3" y="91.179074"/>
      </g>
     </g>
     <g id="text_1">
      <!-- 0.00 -->
      <defs>
       <path d="M 31.78125 66.40625 
Q 24.171875 66.40625 20.328125 58.90625 
Q 16.5 51.421875 16.5 36.375 
Q 16.5 21.390625 20.328125 13.890625 
Q 24.171875 6.390625 31.78125 6.390625 
Q 39.453125 6.390625 43.28125 13.890625 
Q 47.125 21.390625 47.125 36.375 
Q 47.125 51.421875 43.28125 58.90625 
Q 39.453125 66.40625 31.78125 66.40625 
z
M 31.78125 74.21875 
Q 44.046875 74.21875 50.515625 64.515625 
Q 56.984375 54.828125 56.984375 36.375 
Q 56.984375 17.96875 50.515625 8.265625 
Q 44.046875 -1.421875 31.78125 -1.421875 
Q 19.53125 -1.421875 13.0625 8.265625 
Q 6.59375 17.96875 6.59375 36.375 
Q 6.59375 54.828125 13.0625 64.515625 
Q 19.53125 74.21875 31.78125 74.21875 
z
" id="DejaVuSans-48"/>
       <path d="M 10.6875 12.40625 
L 21 12.40625 
L 21 0 
L 10.6875 0 
z
" id="DejaVuSans-46"/>
      </defs>
      <g transform="translate(43.0555 94.218449)scale(0.08 -0.08)">
       <use xlink:href="#DejaVuSans-48"/>
       <use x="63.623047" xlink:href="#DejaVuSans-46"/>
       <use x="95.410156" xlink:href="#DejaVuSans-48"/>
       <use x="159.033203" xlink:href="#DejaVuSans-48"/>
      </g>
     </g>
    </g>
    <g id="ytick_2">
     <g id="line2d_17">
      <path clip-path="url(#pfb72c5ff2f)" d="M 64.368 72.058884 
L 558.855 72.058884 
" style="fill:none;stroke:#cccccc;stroke-linecap:square;stroke-width:0.8;"/>
     </g>
     <g id="line2d_18">
      <g>
       <use style="stroke:#000000;stroke-width:0.8;" x="64.368" xlink:href="#m16c3584cf3" y="72.058884"/>
      </g>
     </g>
     <g id="text_2">
      <!-- 0.25 -->
      <defs>
       <path d="M 19.1875 8.296875 
L 53.609375 8.296875 
L 53.609375 0 
L 7.328125 0 
L 7.328125 8.296875 
Q 12.9375 14.109375 22.625 23.890625 
Q 32.328125 33.6875 34.8125 36.53125 
Q 39.546875 41.84375 41.421875 45.53125 
Q 43.3125 49.21875 43.3125 52.78125 
Q 43.3125 58.59375 39.234375 62.25 
Q 35.15625 65.921875 28.609375 65.921875 
Q 23.96875 65.921875 18.8125 64.3125 
Q 13.671875 62.703125 7.8125 59.421875 
L 7.8125 69.390625 
Q 13.765625 71.78125 18.9375 73 
Q 24.125 74.21875 28.421875 74.21875 
Q 39.75 74.21875 46.484375 68.546875 
Q 53.21875 62.890625 53.21875 53.421875 
Q 53.21875 48.921875 51.53125 44.890625 
Q 49.859375 40.875 45.40625 35.40625 
Q 44.1875 33.984375 37.640625 27.21875 
Q 31.109375 20.453125 19.1875 8.296875 
z
" id="DejaVuSans-50"/>
       <path d="M 10.796875 72.90625 
L 49.515625 72.90625 
L 49.515625 64.59375 
L 19.828125 64.59375 
L 19.828125 46.734375 
Q 21.96875 47.46875 24.109375 47.828125 
Q 26.265625 48.1875 28.421875 48.1875 
Q 40.625 48.1875 47.75 41.5 
Q 54.890625 34.8125 54.890625 23.390625 
Q 54.890625 11.625 47.5625 5.09375 
Q 40.234375 -1.421875 26.90625 -1.421875 
Q 22.3125 -1.421875 17.546875 -0.640625 
Q 12.796875 0.140625 7.71875 1.703125 
L 7.71875 11.625 
Q 12.109375 9.234375 16.796875 8.0625 
Q 21.484375 6.890625 26.703125 6.890625 
Q 35.15625 6.890625 40.078125 11.328125 
Q 45.015625 15.765625 45.015625 23.390625 
Q 45.015625 31 40.078125 35.4375 
Q 35.15625 39.890625 26.703125 39.890625 
Q 22.75 39.890625 18.8125 39.015625 
Q 14.890625 38.140625 10.796875 36.28125 
z
" id="DejaVuSans-53"/>
      </defs>
      <g transform="translate(43.0555 75.098259)scale(0.08 -0.08)">
       <use xlink:href="#DejaVuSans-48"/>
       <use x="63.623047" xlink:href="#DejaVuSans-46"/>
       <use x="95.410156" xlink:href="#DejaVuSans-50"/>
       <use x="159.033203" xlink:href="#DejaVuSans-53"/>
      </g>
     </g>
    </g>
    <g id="ytick_3">
     <g id="line2d_19">
      <path clip-path="url(#pfb72c5ff2f)" d="M 64.368 52.938695 
L 558.855 52.938695 
" style="fill:none;stroke:#cccccc;stroke-linecap:square;stroke-width:0.8;"/>
     </g>
     <g id="line2d_20">
      <g>
       <use style="stroke:#000000;stroke-width:0.8;" x="64.368" xlink:href="#m16c3584cf3" y="52.938695"/>
      </g>
     </g>
     <g id="text_3">
      <!-- 0.50 -->
      <g transform="translate(43.0555 55.97807)scale(0.08 -0.08)">
       <use xlink:href="#DejaVuSans-48"/>
       <use x="63.623047" xlink:href="#DejaVuSans-46"/>
       <use x="95.410156" xlink:href="#DejaVuSans-53"/>
       <use x="159.033203" xlink:href="#DejaVuSans-48"/>
      </g>
     </g>
    </g>
    <g id="ytick_4">
     <g id="line2d_21">
      <path clip-path="url(#pfb72c5ff2f)" d="M 64.368 33.818505 
L 558.855 33.818505 
" style="fill:none;stroke:#cccccc;stroke-linecap:square;stroke-width:0.8;"/>
     </g>
     <g id="line2d_22">
      <g>
       <use style="stroke:#000000;stroke-width:0.8;" x="64.368" xlink:href="#m16c3584cf3" y="33.818505"/>
      </g>
     </g>
     <g id="text_4">
      <!-- 0.75 -->
      <defs>
       <path d="M 8.203125 72.90625 
L 55.078125 72.90625 
L 55.078125 68.703125 
L 28.609375 0 
L 18.3125 0 
L 43.21875 64.59375 
L 8.203125 64.59375 
z
" id="DejaVuSans-55"/>
      </defs>
      <g transform="translate(43.0555 36.85788)scale(0.08 -0.08)">
       <use xlink:href="#DejaVuSans-48"/>
       <use x="63.623047" xlink:href="#DejaVuSans-46"/>
       <use x="95.410156" xlink:href="#DejaVuSans-55"/>
       <use x="159.033203" xlink:href="#DejaVuSans-53"/>
      </g>
     </g>
    </g>
    <g id="ytick_5">
     <g id="line2d_23">
      <path clip-path="url(#pfb72c5ff2f)" d="M 64.368 14.698315 
L 558.855 14.698315 
" style="fill:none;stroke:#cccccc;stroke-linecap:square;stroke-width:0.8;"/>
     </g>
     <g id="line2d_24">
      <g>
       <use style="stroke:#000000;stroke-width:0.8;" x="64.368" xlink:href="#m16c3584cf3" y="14.698315"/>
      </g>
     </g>
     <g id="text_5">
      <!-- 1.00 -->
      <defs>
       <path d="M 12.40625 8.296875 
L 28.515625 8.296875 
L 28.515625 63.921875 
L 10.984375 60.40625 
L 10.984375 69.390625 
L 28.421875 72.90625 
L 38.28125 72.90625 
L 38.28125 8.296875 
L 54.390625 8.296875 
L 54.390625 0 
L 12.40625 0 
z
" id="DejaVuSans-49"/>
      </defs>
      <g transform="translate(43.0555 17.73769)scale(0.08 -0.08)">
       <use xlink:href="#DejaVuSans-49"/>
       <use x="63.623047" xlink:href="#DejaVuSans-46"/>
       <use x="95.410156" xlink:href="#DejaVuSans-48"/>
       <use x="159.033203" xlink:href="#DejaVuSans-48"/>
      </g>
     </g>
    </g>
    <g id="text_6">
     <!-- h -->
     <defs>
      <path d="M 54.890625 33.015625 
L 54.890625 0 
L 45.90625 0 
L 45.90625 32.71875 
Q 45.90625 40.484375 42.875 44.328125 
Q 39.84375 48.1875 33.796875 48.1875 
Q 26.515625 48.1875 22.3125 43.546875 
Q 18.109375 38.921875 18.109375 30.90625 
L 18.109375 0 
L 9.078125 0 
L 9.078125 75.984375 
L 18.109375 75.984375 
L 18.109375 46.1875 
Q 21.34375 51.125 25.703125 53.5625 
Q 30.078125 56 35.796875 56 
Q 45.21875 56 50.046875 50.171875 
Q 54.890625 44.34375 54.890625 33.015625 
z
" id="DejaVuSans-104"/>
     </defs>
     <g transform="translate(5.02956 52.017718)scale(0.08 -0.08)">
      <use xlink:href="#DejaVuSans-104"/>
     </g>
    </g>
   </g>
   <g id="line2d_25">
    <path clip-path="url(#pfb72c5ff2f)" d="M 140.18934 96.562936 
L 140.18934 10.8 
" style="fill:none;stroke:#bfbf00;stroke-linecap:square;"/>
   </g>
   <g id="line2d_26">
    <path clip-path="url(#pfb72c5ff2f)" d="M 141.83763 96.562936 
L 141.83763 10.8 
" style="fill:none;stroke:#bfbf00;stroke-linecap:square;"/>
   </g>
   <g id="line2d_27">
    <path clip-path="url(#pfb72c5ff2f)" d="M 248.97648 96.562936 
L 248.97648 10.8 
" style="fill:none;stroke:#bfbf00;stroke-linecap:square;"/>
   </g>
   <g id="line2d_28">
    <path clip-path="url(#pfb72c5ff2f)" d="M 250.62477 96.562936 
L 250.62477 10.8 
" style="fill:none;stroke:#bfbf00;stroke-linecap:square;"/>
   </g>
   <g id="line2d_29">
    <path clip-path="url(#pfb72c5ff2f)" d="M 329.74269 96.562936 
L 329.74269 10.8 
" style="fill:none;stroke:#bfbf00;stroke-linecap:square;"/>
   </g>
   <g id="line2d_30">
    <path clip-path="url(#pfb72c5ff2f)" d="M 331.39098 96.562936 
L 331.39098 10.8 
" style="fill:none;stroke:#bfbf00;stroke-linecap:square;"/>
   </g>
   <g id="line2d_31">
    <path clip-path="url(#pfb72c5ff2f)" d="M 390.72942 96.562936 
L 390.72942 10.8 
" style="fill:none;stroke:#bfbf00;stroke-linecap:square;"/>
   </g>
   <g id="line2d_32">
    <path clip-path="url(#pfb72c5ff2f)" d="M 392.37771 96.562936 
L 392.37771 10.8 
" style="fill:none;stroke:#bfbf00;stroke-linecap:square;"/>
   </g>
   <g id="line2d_33">
    <path clip-path="url(#pfb72c5ff2f)" d="M 436.88154 96.562936 
L 436.88154 10.8 
" style="fill:none;stroke:#bfbf00;stroke-linecap:square;"/>
   </g>
   <g id="line2d_34">
    <path clip-path="url(#pfb72c5ff2f)" d="M 438.52983 96.562936 
L 438.52983 10.8 
" style="fill:none;stroke:#bfbf00;stroke-linecap:square;"/>
   </g>
   <g id="line2d_35">
    <path clip-path="url(#pfb72c5ff2f)" d="M 473.14392 96.562936 
L 473.14392 10.8 
" style="fill:none;stroke:#bfbf00;stroke-linecap:square;"/>
   </g>
   <g id="line2d_36">
    <path clip-path="url(#pfb72c5ff2f)" d="M 474.79221 96.562936 
L 474.79221 10.8 
" style="fill:none;stroke:#bfbf00;stroke-linecap:square;"/>
   </g>
   <g id="line2d_37">
    <path clip-path="url(#pfb72c5ff2f)" d="M 502.81314 96.562936 
L 502.81314 10.8 
" style="fill:none;stroke:#bfbf00;stroke-linecap:square;"/>
   </g>
   <g id="line2d_38">
    <path clip-path="url(#pfb72c5ff2f)" d="M 504.46143 96.562936 
L 504.46143 10.8 
" style="fill:none;stroke:#bfbf00;stroke-linecap:square;"/>
   </g>
   <g id="line2d_39">
    <path clip-path="url(#pfb72c5ff2f)" d="M 527.53749 96.562936 
L 527.53749 10.8 
" style="fill:none;stroke:#bfbf00;stroke-linecap:square;"/>
   </g>
   <g id="line2d_40">
    <path clip-path="url(#pfb72c5ff2f)" d="M 529.18578 96.562936 
L 529.18578 10.8 
" style="fill:none;stroke:#bfbf00;stroke-linecap:square;"/>
   </g>
   <g id="line2d_41">
    <path clip-path="url(#pfb72c5ff2f)" d="M 548.96526 96.562936 
L 548.96526 10.8 
" style="fill:none;stroke:#bfbf00;stroke-linecap:square;"/>
   </g>
   <g id="line2d_42">
    <path clip-path="url(#pfb72c5ff2f)" d="M 550.61355 96.562936 
L 550.61355 10.8 
" style="fill:none;stroke:#bfbf00;stroke-linecap:square;"/>
   </g>
   <g id="patch_3">
    <path d="M 64.368 96.562936 
L 64.368 10.8 
" style="fill:none;stroke:#000000;stroke-linecap:square;stroke-linejoin:miter;stroke-width:0.5;"/>
   </g>
   <g id="patch_4">
    <path d="M 558.855 96.562936 
L 558.855 10.8 
" style="fill:none;stroke:#000000;stroke-linecap:square;stroke-linejoin:miter;stroke-width:0.5;"/>
   </g>
   <g id="patch_5">
    <path d="M 64.368 96.562936 
L 558.855 96.562936 
" style="fill:none;stroke:#000000;stroke-linecap:square;stroke-linejoin:miter;stroke-width:0.5;"/>
   </g>
   <g id="patch_6">
    <path d="M 64.368 10.8 
L 558.855 10.8 
" style="fill:none;stroke:#000000;stroke-linecap:square;stroke-linejoin:miter;stroke-width:0.5;"/>
   </g>
   <g id="line2d_43">
    <path clip-path="url(#pfb72c5ff2f)" d="M 64.368 14.698315 
L 66.01629 14.698315 
L 67.66458 14.773343 
L 69.31287 14.923398 
L 70.96116 15.148481 
L 72.60945 15.448592 
L 74.25774 15.82373 
L 75.90603 16.273895 
L 77.55432 16.799089 
L 79.20261 17.39931 
L 80.8509 18.074558 
L 82.49919 18.824835 
L 84.14748 19.650139 
L 85.79577 20.55047 
L 87.44406 21.525829 
L 89.09235 22.576216 
L 90.74064 23.70163 
L 92.38893 24.902072 
L 94.03722 26.177542 
L 95.68551 27.528039 
L 97.3338 28.953564 
L 98.98209 30.454116 
L 100.63038 32.029697 
L 102.27867 33.680304 
L 103.92696 35.40594 
L 105.57525 37.206603 
L 107.22354 39.082293 
L 108.87183 41.033011 
L 110.52012 43.058757 
L 112.16841 45.159531 
L 113.8167 47.335332 
L 115.46499 49.586161 
L 117.11328 51.912017 
L 118.76157 54.312901 
L 120.40986 56.788813 
L 122.05815 59.339752 
L 123.70644 61.965719 
L 125.35473 64.666713 
L 127.00302 67.442735 
L 128.65131 70.293785 
L 130.2996 73.219862 
L 131.94789 76.220967 
L 133.59618 79.2971 
L 135.24447 82.44826 
L 136.89276 85.674448 
L 138.54105 88.975663 
L 140.18934 92.351907 
" style="fill:none;stroke:#0000ff;stroke-linecap:square;stroke-width:0.9;"/>
   </g>
   <g id="line2d_44">
    <path clip-path="url(#pfb72c5ff2f)" d="M 140.18934 91.179074 
L 141.83763 88.763185 
" style="fill:none;stroke:#0000ff;stroke-linecap:square;stroke-width:0.9;"/>
   </g>
   <g id="line2d_45">
    <path clip-path="url(#pfb72c5ff2f)" d="M 141.83763 88.763185 
L 143.48592 86.422323 
L 145.13421 84.156488 
L 146.7825 81.965667 
L 148.43079 79.849903 
L 150.07908 77.809167 
L 151.72737 75.843458 
L 153.37566 73.952701 
L 155.02395 72.137048 
L 156.67224 70.396422 
L 158.32053 68.730824 
L 159.96882 67.140254 
L 161.61711 65.624635 
L 163.2654 64.18412 
L 164.91369 62.818632 
L 166.56198 61.528172 
L 168.21027 60.31274 
L 169.85856 59.172259 
L 171.50685 58.106882 
L 173.15514 57.116533 
L 174.80343 56.201211 
L 176.45172 55.360917 
L 178.10001 54.595574 
L 179.7483 53.905335 
L 181.39659 53.290124 
L 183.04488 52.74994 
L 184.69317 52.284784 
L 186.34146 51.894579 
L 187.98975 51.579479 
L 189.63804 51.339406 
L 191.28633 51.17436 
L 192.93462 51.084342 
L 194.58291 51.069276 
L 196.2312 51.129313 
L 197.87949 51.264378 
L 199.52778 51.474471 
L 201.17607 51.759591 
L 202.82436 52.119662 
L 204.47265 52.554838 
L 206.12094 53.065041 
L 207.76923 53.650272 
L 209.41752 54.31053 
L 211.06581 55.04574 
L 212.7141 55.856053 
L 214.36239 56.741395 
L 216.01068 57.701763 
L 217.65897 58.73716 
L 219.30726 59.847508 
L 220.95555 61.032959 
L 222.60384 62.293439 
L 224.25213 63.628946 
L 225.90042 65.03948 
L 227.54871 66.524966 
L 229.197 68.085556 
L 230.84529 69.721174 
L 232.49358 71.431819 
L 234.14187 73.217491 
L 235.79016 75.078115 
L 237.43845 77.013843 
L 239.08674 79.024599 
L 240.73503 81.110382 
L 242.38332 83.271193 
L 244.03161 85.506986 
L 245.6799 87.817837 
L 247.32819 90.203715 
L 248.97648 92.664621 
" style="fill:none;stroke:#0000ff;stroke-linecap:square;stroke-width:0.9;"/>
   </g>
   <g id="line2d_46">
    <path clip-path="url(#pfb72c5ff2f)" d="M 248.97648 91.179074 
L 250.62477 89.403917 
" style="fill:none;stroke:#0000ff;stroke-linecap:square;stroke-width:0.9;"/>
   </g>
   <g id="line2d_47">
    <path clip-path="url(#pfb72c5ff2f)" d="M 250.62477 89.403917 
L 252.27306 87.703796 
L 253.92135 86.078695 
L 255.56964 84.528629 
L 257.21793 83.053605 
L 258.86622 81.653549 
L 260.51451 80.328596 
L 262.1628 79.078594 
L 263.81109 77.903697 
L 265.45938 76.803751 
L 267.10767 75.778909 
L 268.75596 74.829018 
L 270.40425 73.954231 
L 272.05254 73.154471 
L 273.70083 72.429663 
L 275.34912 71.779959 
L 276.99741 71.205206 
L 278.6457 70.705557 
L 280.29399 70.28086 
L 281.94228 69.931266 
L 283.59057 69.656624 
L 285.23886 69.457085 
L 286.88715 69.332498 
L 288.53544 69.283015 
L 290.18373 69.308483 
L 291.83202 69.409056 
L 293.48031 69.584655 
L 295.1286 69.835206 
L 296.77689 70.160861 
L 298.42518 70.561468 
L 300.07347 71.037178 
L 301.72176 71.587839 
L 303.37005 72.213605 
L 305.01834 72.914322 
L 306.66663 73.690143 
L 308.31492 74.540914 
L 309.96321 75.466791 
L 311.6115 76.467694 
L 313.25979 77.543549 
L 314.90808 78.694508 
L 316.55637 79.920418 
L 318.20466 81.221432 
L 319.85295 82.597398 
L 321.50124 84.048452 
L 323.14953 85.574511 
L 324.79782 87.175597 
L 326.44611 88.851719 
L 328.0944 90.602862 
L 329.74269 92.429037 
" style="fill:none;stroke:#0000ff;stroke-linecap:square;stroke-width:0.9;"/>
   </g>
   <g id="line2d_48">
    <path clip-path="url(#pfb72c5ff2f)" d="M 329.74269 91.179074 
L 331.39098 89.848232 
" style="fill:none;stroke:#0000ff;stroke-linecap:square;stroke-width:0.9;"/>
   </g>
   <g id="line2d_49">
    <path clip-path="url(#pfb72c5ff2f)" d="M 331.39098 89.848232 
L 333.03927 88.592418 
L 334.68756 87.41164 
L 336.33585 86.305881 
L 337.98414 85.27515 
L 339.63243 84.319446 
L 341.28072 83.438762 
L 342.92901 82.633114 
L 344.5773 81.902493 
L 346.22559 81.2469 
L 347.87388 80.666335 
L 349.52217 80.160797 
L 351.17046 79.730287 
L 352.81875 79.374804 
L 354.46704 79.094349 
L 356.11533 78.888922 
L 357.76362 78.758522 
L 359.41191 78.70315 
L 361.0602 78.722806 
L 362.70849 78.817489 
L 364.35678 78.9872 
L 366.00507 79.231938 
L 367.65336 79.551781 
L 369.30165 79.946575 
L 370.94994 80.416396 
L 372.59823 80.961245 
L 374.24652 81.581121 
L 375.89481 82.276025 
L 377.5431 83.045957 
L 379.19139 83.890894 
L 380.83968 84.810881 
L 382.48797 85.805895 
L 384.13626 86.875938 
L 385.78455 88.021008 
L 387.43284 89.241113 
L 389.08113 90.536237 
L 390.72942 91.906392 
" style="fill:none;stroke:#0000ff;stroke-linecap:square;stroke-width:0.9;"/>
   </g>
   <g id="line2d_50">
    <path clip-path="url(#pfb72c5ff2f)" d="M 390.72942 91.179074 
L 392.37771 90.167448 
" style="fill:none;stroke:#0000ff;stroke-linecap:square;stroke-width:0.9;"/>
   </g>
   <g id="line2d_51">
    <path clip-path="url(#pfb72c5ff2f)" d="M 392.37771 90.167448 
L 394.026 89.230849 
L 395.67429 88.369278 
L 397.32258 87.582727 
L 398.97087 86.871211 
L 400.61916 86.234723 
L 402.26745 85.673263 
L 403.91574 85.18683 
L 405.56403 84.775424 
L 407.21232 84.439039 
L 408.86061 84.177689 
L 410.5089 83.991367 
L 412.15719 83.880072 
L 413.80548 83.843805 
L 415.45377 83.882565 
L 417.10206 83.996353 
L 418.75035 84.185161 
L 420.39864 84.449004 
L 422.04693 84.787875 
L 423.69522 85.201774 
L 425.34351 85.6907 
L 426.9918 86.254654 
L 428.64009 86.893628 
L 430.28838 87.607637 
L 431.93667 88.396674 
L 433.58496 89.260738 
L 435.23325 90.19983 
L 436.88154 91.213947 
" style="fill:none;stroke:#0000ff;stroke-linecap:square;stroke-width:0.9;"/>
   </g>
   <g id="line2d_52">
    <path clip-path="url(#pfb72c5ff2f)" d="M 436.88154 91.179074 
L 438.52983 90.416672 
" style="fill:none;stroke:#0000ff;stroke-linecap:square;stroke-width:0.9;"/>
   </g>
   <g id="line2d_53">
    <path clip-path="url(#pfb72c5ff2f)" d="M 438.52983 90.416672 
L 440.17812 89.729297 
L 441.82641 89.116954 
L 443.4747 88.579631 
L 445.12299 88.117343 
L 446.77128 87.730075 
L 448.41957 87.417842 
L 450.06786 87.180629 
L 451.71615 87.018452 
L 453.36444 86.931295 
L 455.01273 86.919172 
L 456.66102 86.98207 
L 458.30931 87.120003 
L 459.9576 87.332956 
L 461.60589 87.620945 
L 463.25418 87.983953 
L 464.90247 88.421996 
L 466.55076 88.93506 
L 468.19905 89.523159 
L 469.84734 90.186277 
L 471.49563 90.924429 
L 473.14392 91.737607 
" style="fill:none;stroke:#0000ff;stroke-linecap:square;stroke-width:0.9;"/>
   </g>
   <g id="line2d_54">
    <path clip-path="url(#pfb72c5ff2f)" d="M 473.14392 91.179074 
L 474.79221 90.55733 
" style="fill:none;stroke:#0000ff;stroke-linecap:square;stroke-width:0.9;"/>
   </g>
   <g id="line2d_55">
    <path clip-path="url(#pfb72c5ff2f)" d="M 474.79221 90.55733 
L 476.4405 90.010616 
L 478.08879 89.538929 
L 479.73708 89.142262 
L 481.38537 88.820629 
L 483.03366 88.574025 
L 484.68195 88.402448 
L 486.33024 88.305899 
L 487.97853 88.284377 
L 489.62682 88.337875 
L 491.27511 88.466409 
L 492.9234 88.66997 
L 494.57169 88.948559 
L 496.21998 89.302175 
L 497.86827 89.730819 
L 499.51656 90.234491 
L 501.16485 90.813186 
L 502.81314 91.466911 
" style="fill:none;stroke:#0000ff;stroke-linecap:square;stroke-width:0.9;"/>
   </g>
   <g id="line2d_56">
    <path clip-path="url(#pfb72c5ff2f)" d="M 502.81314 91.179074 
L 504.46143 90.668947 
" style="fill:none;stroke:#0000ff;stroke-linecap:square;stroke-width:0.9;"/>
   </g>
   <g id="line2d_57">
    <path clip-path="url(#pfb72c5ff2f)" d="M 504.46143 90.668947 
L 506.10972 90.233848 
L 507.75801 89.873777 
L 509.4063 89.588733 
L 511.05459 89.378717 
L 512.70288 89.243721 
L 514.35117 89.18376 
L 515.99946 89.198827 
L 517.64775 89.288921 
L 519.29604 89.454043 
L 520.94433 89.694193 
L 522.59262 90.00937 
L 524.24091 90.399575 
L 525.8892 90.864805 
L 527.53749 91.405064 
" style="fill:none;stroke:#0000ff;stroke-linecap:square;stroke-width:0.9;"/>
   </g>
   <g id="line2d_58">
    <path clip-path="url(#pfb72c5ff2f)" d="M 527.53749 91.179074 
L 529.18578 90.748374 
" style="fill:none;stroke:#0000ff;stroke-linecap:square;stroke-width:0.9;"/>
   </g>
   <g id="line2d_59">
    <path clip-path="url(#pfb72c5ff2f)" d="M 529.18578 90.748374 
L 530.83407 90.392699 
L 532.48236 90.112053 
L 534.13065 89.906434 
L 535.77894 89.775843 
L 537.42723 89.72028 
L 539.07552 89.739745 
L 540.72381 89.834244 
L 542.3721 90.003764 
L 544.02039 90.248311 
L 545.66868 90.567884 
L 547.31697 90.962487 
L 548.96526 91.432117 
" style="fill:none;stroke:#0000ff;stroke-linecap:square;stroke-width:0.9;"/>
   </g>
   <g id="line2d_60">
    <path clip-path="url(#pfb72c5ff2f)" d="M 548.96526 91.179074 
L 550.61355 90.797814 
" style="fill:none;stroke:#0000ff;stroke-linecap:square;stroke-width:0.9;"/>
   </g>
   <g id="line2d_61">
    <path clip-path="url(#pfb72c5ff2f)" d="M 550.61355 90.797814 
L 552.26184 90.49158 
L 553.91013 90.260372 
L 555.55842 90.104198 
L 557.20671 90.023045 
L 558.855 90.016926 
" style="fill:none;stroke:#0000ff;stroke-linecap:square;stroke-width:0.9;"/>
   </g>
  </g>
  <g id="axes_2">
   <g id="patch_7">
    <path d="M 64.368 193.42 
L 558.855 193.42 
L 558.855 107.657064 
L 64.368 107.657064 
z
" style="fill:#ffffff;"/>
   </g>
   <g id="matplotlib.axis_3">
    <g id="xtick_8">
     <g id="line2d_62">
      <path clip-path="url(#pd07992fd0d)" d="M 64.368 193.42 
L 64.368 107.657064 
" style="fill:none;stroke:#cccccc;stroke-linecap:square;stroke-width:0.8;"/>
     </g>
     <g id="line2d_63">
      <g>
       <use style="stroke:#000000;stroke-width:0.8;" x="64.368" xlink:href="#maf42b6da74" y="193.42"/>
      </g>
     </g>
     <g id="text_7">
      <!-- 0.0 -->
      <g transform="translate(58.00675 202.99875)scale(0.08 -0.08)">
       <use xlink:href="#DejaVuSans-48"/>
       <use x="63.623047" xlink:href="#DejaVuSans-46"/>
       <use x="95.410156" xlink:href="#DejaVuSans-48"/>
      </g>
     </g>
    </g>
    <g id="xtick_9">
     <g id="line2d_64">
      <path clip-path="url(#pd07992fd0d)" d="M 146.7825 193.42 
L 146.7825 107.657064 
" style="fill:none;stroke:#cccccc;stroke-linecap:square;stroke-width:0.8;"/>
     </g>
     <g id="line2d_65">
      <g>
       <use style="stroke:#000000;stroke-width:0.8;" x="146.7825" xlink:href="#maf42b6da74" y="193.42"/>
      </g>
     </g>
     <g id="text_8">
      <!-- 0.5 -->
      <g transform="translate(140.42125 202.99875)scale(0.08 -0.08)">
       <use xlink:href="#DejaVuSans-48"/>
       <use x="63.623047" xlink:href="#DejaVuSans-46"/>
       <use x="95.410156" xlink:href="#DejaVuSans-53"/>
      </g>
     </g>
    </g>
    <g id="xtick_10">
     <g id="line2d_66">
      <path clip-path="url(#pd07992fd0d)" d="M 229.197 193.42 
L 229.197 107.657064 
" style="fill:none;stroke:#cccccc;stroke-linecap:square;stroke-width:0.8;"/>
     </g>
     <g id="line2d_67">
      <g>
       <use style="stroke:#000000;stroke-width:0.8;" x="229.197" xlink:href="#maf42b6da74" y="193.42"/>
      </g>
     </g>
     <g id="text_9">
      <!-- 1.0 -->
      <g transform="translate(222.83575 202.99875)scale(0.08 -0.08)">
       <use xlink:href="#DejaVuSans-49"/>
       <use x="63.623047" xlink:href="#DejaVuSans-46"/>
       <use x="95.410156" xlink:href="#DejaVuSans-48"/>
      </g>
     </g>
    </g>
    <g id="xtick_11">
     <g id="line2d_68">
      <path clip-path="url(#pd07992fd0d)" d="M 311.6115 193.42 
L 311.6115 107.657064 
" style="fill:none;stroke:#cccccc;stroke-linecap:square;stroke-width:0.8;"/>
     </g>
     <g id="line2d_69">
      <g>
       <use style="stroke:#000000;stroke-width:0.8;" x="311.6115" xlink:href="#maf42b6da74" y="193.42"/>
      </g>
     </g>
     <g id="text_10">
      <!-- 1.5 -->
      <g transform="translate(305.25025 202.99875)scale(0.08 -0.08)">
       <use xlink:href="#DejaVuSans-49"/>
       <use x="63.623047" xlink:href="#DejaVuSans-46"/>
       <use x="95.410156" xlink:href="#DejaVuSans-53"/>
      </g>
     </g>
    </g>
    <g id="xtick_12">
     <g id="line2d_70">
      <path clip-path="url(#pd07992fd0d)" d="M 394.026 193.42 
L 394.026 107.657064 
" style="fill:none;stroke:#cccccc;stroke-linecap:square;stroke-width:0.8;"/>
     </g>
     <g id="line2d_71">
      <g>
       <use style="stroke:#000000;stroke-width:0.8;" x="394.026" xlink:href="#maf42b6da74" y="193.42"/>
      </g>
     </g>
     <g id="text_11">
      <!-- 2.0 -->
      <g transform="translate(387.66475 202.99875)scale(0.08 -0.08)">
       <use xlink:href="#DejaVuSans-50"/>
       <use x="63.623047" xlink:href="#DejaVuSans-46"/>
       <use x="95.410156" xlink:href="#DejaVuSans-48"/>
      </g>
     </g>
    </g>
    <g id="xtick_13">
     <g id="line2d_72">
      <path clip-path="url(#pd07992fd0d)" d="M 476.4405 193.42 
L 476.4405 107.657064 
" style="fill:none;stroke:#cccccc;stroke-linecap:square;stroke-width:0.8;"/>
     </g>
     <g id="line2d_73">
      <g>
       <use style="stroke:#000000;stroke-width:0.8;" x="476.4405" xlink:href="#maf42b6da74" y="193.42"/>
      </g>
     </g>
     <g id="text_12">
      <!-- 2.5 -->
      <g transform="translate(470.07925 202.99875)scale(0.08 -0.08)">
       <use xlink:href="#DejaVuSans-50"/>
       <use x="63.623047" xlink:href="#DejaVuSans-46"/>
       <use x="95.410156" xlink:href="#DejaVuSans-53"/>
      </g>
     </g>
    </g>
    <g id="xtick_14">
     <g id="line2d_74">
      <path clip-path="url(#pd07992fd0d)" d="M 558.855 193.42 
L 558.855 107.657064 
" style="fill:none;stroke:#cccccc;stroke-linecap:square;stroke-width:0.8;"/>
     </g>
     <g id="line2d_75">
      <g>
       <use style="stroke:#000000;stroke-width:0.8;" x="558.855" xlink:href="#maf42b6da74" y="193.42"/>
      </g>
     </g>
     <g id="text_13">
      <!-- 3.0 -->
      <defs>
       <path d="M 40.578125 39.3125 
Q 47.65625 37.796875 51.625 33 
Q 55.609375 28.21875 55.609375 21.1875 
Q 55.609375 10.40625 48.1875 4.484375 
Q 40.765625 -1.421875 27.09375 -1.421875 
Q 22.515625 -1.421875 17.65625 -0.515625 
Q 12.796875 0.390625 7.625 2.203125 
L 7.625 11.71875 
Q 11.71875 9.328125 16.59375 8.109375 
Q 21.484375 6.890625 26.8125 6.890625 
Q 36.078125 6.890625 40.9375 10.546875 
Q 45.796875 14.203125 45.796875 21.1875 
Q 45.796875 27.640625 41.28125 31.265625 
Q 36.765625 34.90625 28.71875 34.90625 
L 20.21875 34.90625 
L 20.21875 43.015625 
L 29.109375 43.015625 
Q 36.375 43.015625 40.234375 45.921875 
Q 44.09375 48.828125 44.09375 54.296875 
Q 44.09375 59.90625 40.109375 62.90625 
Q 36.140625 65.921875 28.71875 65.921875 
Q 24.65625 65.921875 20.015625 65.03125 
Q 15.375 64.15625 9.8125 62.3125 
L 9.8125 71.09375 
Q 15.4375 72.65625 20.34375 73.4375 
Q 25.25 74.21875 29.59375 74.21875 
Q 40.828125 74.21875 47.359375 69.109375 
Q 53.90625 64.015625 53.90625 55.328125 
Q 53.90625 49.265625 50.4375 45.09375 
Q 46.96875 40.921875 40.578125 39.3125 
z
" id="DejaVuSans-51"/>
      </defs>
      <g transform="translate(552.49375 202.99875)scale(0.08 -0.08)">
       <use xlink:href="#DejaVuSans-51"/>
       <use x="63.623047" xlink:href="#DejaVuSans-46"/>
       <use x="95.410156" xlink:href="#DejaVuSans-48"/>
      </g>
     </g>
    </g>
   </g>
   <g id="matplotlib.axis_4">
    <g id="ytick_6">
     <g id="line2d_76">
      <path clip-path="url(#pd07992fd0d)" d="M 64.368 184.31202 
L 558.855 184.31202 
" style="fill:none;stroke:#cccccc;stroke-linecap:square;stroke-width:0.8;"/>
     </g>
     <g id="line2d_77">
      <g>
       <use style="stroke:#000000;stroke-width:0.8;" x="64.368" xlink:href="#m16c3584cf3" y="184.31202"/>
      </g>
     </g>
     <g id="text_14">
      <!-- −4 -->
      <defs>
       <path d="M 10.59375 35.5 
L 73.1875 35.5 
L 73.1875 27.203125 
L 10.59375 27.203125 
z
" id="DejaVuSans-8722"/>
       <path d="M 37.796875 64.3125 
L 12.890625 25.390625 
L 37.796875 25.390625 
z
M 35.203125 72.90625 
L 47.609375 72.90625 
L 47.609375 25.390625 
L 58.015625 25.390625 
L 58.015625 17.1875 
L 47.609375 17.1875 
L 47.609375 0 
L 37.796875 0 
L 37.796875 17.1875 
L 4.890625 17.1875 
L 4.890625 26.703125 
z
" id="DejaVuSans-52"/>
      </defs>
      <g transform="translate(49.07425 187.351395)scale(0.08 -0.08)">
       <use xlink:href="#DejaVuSans-8722"/>
       <use x="83.789062" xlink:href="#DejaVuSans-52"/>
      </g>
     </g>
    </g>
    <g id="ytick_7">
     <g id="line2d_78">
      <path clip-path="url(#pd07992fd0d)" d="M 64.368 163.985586 
L 558.855 163.985586 
" style="fill:none;stroke:#cccccc;stroke-linecap:square;stroke-width:0.8;"/>
     </g>
     <g id="line2d_79">
      <g>
       <use style="stroke:#000000;stroke-width:0.8;" x="64.368" xlink:href="#m16c3584cf3" y="163.985586"/>
      </g>
     </g>
     <g id="text_15">
      <!-- −2 -->
      <g transform="translate(49.07425 167.024961)scale(0.08 -0.08)">
       <use xlink:href="#DejaVuSans-8722"/>
       <use x="83.789062" xlink:href="#DejaVuSans-50"/>
      </g>
     </g>
    </g>
    <g id="ytick_8">
     <g id="line2d_80">
      <path clip-path="url(#pd07992fd0d)" d="M 64.368 143.659152 
L 558.855 143.659152 
" style="fill:none;stroke:#cccccc;stroke-linecap:square;stroke-width:0.8;"/>
     </g>
     <g id="line2d_81">
      <g>
       <use style="stroke:#000000;stroke-width:0.8;" x="64.368" xlink:href="#m16c3584cf3" y="143.659152"/>
      </g>
     </g>
     <g id="text_16">
      <!-- 0 -->
      <g transform="translate(55.778 146.698527)scale(0.08 -0.08)">
       <use xlink:href="#DejaVuSans-48"/>
      </g>
     </g>
    </g>
    <g id="ytick_9">
     <g id="line2d_82">
      <path clip-path="url(#pd07992fd0d)" d="M 64.368 123.332718 
L 558.855 123.332718 
" style="fill:none;stroke:#cccccc;stroke-linecap:square;stroke-width:0.8;"/>
     </g>
     <g id="line2d_83">
      <g>
       <use style="stroke:#000000;stroke-width:0.8;" x="64.368" xlink:href="#m16c3584cf3" y="123.332718"/>
      </g>
     </g>
     <g id="text_17">
      <!-- 2 -->
      <g transform="translate(55.778 126.372093)scale(0.08 -0.08)">
       <use xlink:href="#DejaVuSans-50"/>
      </g>
     </g>
    </g>
    <g id="text_18">
     <!-- v -->
     <defs>
      <path d="M 2.984375 54.6875 
L 12.5 54.6875 
L 29.59375 8.796875 
L 46.6875 54.6875 
L 56.203125 54.6875 
L 35.6875 0 
L 23.484375 0 
z
" id="DejaVuSans-118"/>
     </defs>
     <g transform="translate(5.02956 148.874782)scale(0.08 -0.08)">
      <use xlink:href="#DejaVuSans-118"/>
     </g>
    </g>
   </g>
   <g id="line2d_84">
    <path clip-path="url(#pd07992fd0d)" d="M 140.18934 193.42 
L 140.18934 107.657064 
" style="fill:none;stroke:#bfbf00;stroke-linecap:square;"/>
   </g>
   <g id="line2d_85">
    <path clip-path="url(#pd07992fd0d)" d="M 141.83763 193.42 
L 141.83763 107.657064 
" style="fill:none;stroke:#bfbf00;stroke-linecap:square;"/>
   </g>
   <g id="line2d_86">
    <path clip-path="url(#pd07992fd0d)" d="M 248.97648 193.42 
L 248.97648 107.657064 
" style="fill:none;stroke:#bfbf00;stroke-linecap:square;"/>
   </g>
   <g id="line2d_87">
    <path clip-path="url(#pd07992fd0d)" d="M 250.62477 193.42 
L 250.62477 107.657064 
" style="fill:none;stroke:#bfbf00;stroke-linecap:square;"/>
   </g>
   <g id="line2d_88">
    <path clip-path="url(#pd07992fd0d)" d="M 329.74269 193.42 
L 329.74269 107.657064 
" style="fill:none;stroke:#bfbf00;stroke-linecap:square;"/>
   </g>
   <g id="line2d_89">
    <path clip-path="url(#pd07992fd0d)" d="M 331.39098 193.42 
L 331.39098 107.657064 
" style="fill:none;stroke:#bfbf00;stroke-linecap:square;"/>
   </g>
   <g id="line2d_90">
    <path clip-path="url(#pd07992fd0d)" d="M 390.72942 193.42 
L 390.72942 107.657064 
" style="fill:none;stroke:#bfbf00;stroke-linecap:square;"/>
   </g>
   <g id="line2d_91">
    <path clip-path="url(#pd07992fd0d)" d="M 392.37771 193.42 
L 392.37771 107.657064 
" style="fill:none;stroke:#bfbf00;stroke-linecap:square;"/>
   </g>
   <g id="line2d_92">
    <path clip-path="url(#pd07992fd0d)" d="M 436.88154 193.42 
L 436.88154 107.657064 
" style="fill:none;stroke:#bfbf00;stroke-linecap:square;"/>
   </g>
   <g id="line2d_93">
    <path clip-path="url(#pd07992fd0d)" d="M 438.52983 193.42 
L 438.52983 107.657064 
" style="fill:none;stroke:#bfbf00;stroke-linecap:square;"/>
   </g>
   <g id="line2d_94">
    <path clip-path="url(#pd07992fd0d)" d="M 473.14392 193.42 
L 473.14392 107.657064 
" style="fill:none;stroke:#bfbf00;stroke-linecap:square;"/>
   </g>
   <g id="line2d_95">
    <path clip-path="url(#pd07992fd0d)" d="M 474.79221 193.42 
L 474.79221 107.657064 
" style="fill:none;stroke:#bfbf00;stroke-linecap:square;"/>
   </g>
   <g id="line2d_96">
    <path clip-path="url(#pd07992fd0d)" d="M 502.81314 193.42 
L 502.81314 107.657064 
" style="fill:none;stroke:#bfbf00;stroke-linecap:square;"/>
   </g>
   <g id="line2d_97">
    <path clip-path="url(#pd07992fd0d)" d="M 504.46143 193.42 
L 504.46143 107.657064 
" style="fill:none;stroke:#bfbf00;stroke-linecap:square;"/>
   </g>
   <g id="line2d_98">
    <path clip-path="url(#pd07992fd0d)" d="M 527.53749 193.42 
L 527.53749 107.657064 
" style="fill:none;stroke:#bfbf00;stroke-linecap:square;"/>
   </g>
   <g id="line2d_99">
    <path clip-path="url(#pd07992fd0d)" d="M 529.18578 193.42 
L 529.18578 107.657064 
" style="fill:none;stroke:#bfbf00;stroke-linecap:square;"/>
   </g>
   <g id="line2d_100">
    <path clip-path="url(#pd07992fd0d)" d="M 548.96526 193.42 
L 548.96526 107.657064 
" style="fill:none;stroke:#bfbf00;stroke-linecap:square;"/>
   </g>
   <g id="line2d_101">
    <path clip-path="url(#pd07992fd0d)" d="M 550.61355 193.42 
L 550.61355 107.657064 
" style="fill:none;stroke:#bfbf00;stroke-linecap:square;"/>
   </g>
   <g id="patch_8">
    <path d="M 64.368 193.42 
L 64.368 107.657064 
" style="fill:none;stroke:#000000;stroke-linecap:square;stroke-linejoin:miter;stroke-width:0.5;"/>
   </g>
   <g id="patch_9">
    <path d="M 558.855 193.42 
L 558.855 107.657064 
" style="fill:none;stroke:#000000;stroke-linecap:square;stroke-linejoin:miter;stroke-width:0.5;"/>
   </g>
   <g id="patch_10">
    <path d="M 64.368 193.42 
L 558.855 193.42 
" style="fill:none;stroke:#000000;stroke-linecap:square;stroke-linejoin:miter;stroke-width:0.5;"/>
   </g>
   <g id="patch_11">
    <path d="M 64.368 107.657064 
L 558.855 107.657064 
" style="fill:none;stroke:#000000;stroke-linecap:square;stroke-linejoin:miter;stroke-width:0.5;"/>
   </g>
   <g id="line2d_102">
    <path clip-path="url(#pd07992fd0d)" d="M 64.368 143.659152 
L 66.01629 144.656163 
L 67.66458 145.653175 
L 69.31287 146.650187 
L 70.96116 147.647198 
L 72.60945 148.64421 
L 74.25774 149.641221 
L 75.90603 150.638233 
L 77.55432 151.635245 
L 79.20261 152.632256 
L 80.8509 153.629268 
L 82.49919 154.626279 
L 84.14748 155.623291 
L 85.79577 156.620302 
L 87.44406 157.617314 
L 89.09235 158.614326 
L 90.74064 159.611337 
L 92.38893 160.608349 
L 94.03722 161.60536 
L 95.68551 162.602372 
L 97.3338 163.599384 
L 98.98209 164.596395 
L 100.63038 165.593407 
L 102.27867 166.590418 
L 103.92696 167.58743 
L 105.57525 168.584441 
L 107.22354 169.581453 
L 108.87183 170.578465 
L 110.52012 171.575476 
L 112.16841 172.572488 
L 113.8167 173.569499 
L 115.46499 174.566511 
L 117.11328 175.563523 
L 118.76157 176.560534 
L 120.40986 177.557546 
L 122.05815 178.554557 
L 123.70644 179.551569 
L 125.35473 180.54858 
L 127.00302 181.545592 
L 128.65131 182.542604 
L 130.2996 183.539615 
L 131.94789 184.536627 
L 133.59618 185.533638 
L 135.24447 186.53065 
L 136.89276 187.527662 
L 138.54105 188.524673 
L 140.18934 189.521685 
" style="fill:none;stroke:#0000ff;stroke-linecap:square;stroke-width:0.9;"/>
   </g>
   <g id="line2d_103">
    <path clip-path="url(#pd07992fd0d)" d="M 140.18934 111.555379 
L 141.83763 112.55239 
" style="fill:none;stroke:#0000ff;stroke-linecap:square;stroke-width:0.9;"/>
   </g>
   <g id="line2d_104">
    <path clip-path="url(#pd07992fd0d)" d="M 141.83763 112.55239 
L 143.48592 113.549402 
L 145.13421 114.546414 
L 146.7825 115.543425 
L 148.43079 116.540437 
L 150.07908 117.537448 
L 151.72737 118.53446 
L 153.37566 119.531472 
L 155.02395 120.528483 
L 156.67224 121.525495 
L 158.32053 122.522506 
L 159.96882 123.519518 
L 161.61711 124.516529 
L 163.2654 125.513541 
L 164.91369 126.510553 
L 166.56198 127.507564 
L 168.21027 128.504576 
L 169.85856 129.501587 
L 171.50685 130.498599 
L 173.15514 131.495611 
L 174.80343 132.492622 
L 176.45172 133.489634 
L 178.10001 134.486645 
L 179.7483 135.483657 
L 181.39659 136.480668 
L 183.04488 137.47768 
L 184.69317 138.474692 
L 186.34146 139.471703 
L 187.98975 140.468715 
L 189.63804 141.465726 
L 191.28633 142.462738 
L 192.93462 143.45975 
L 194.58291 144.456761 
L 196.2312 145.453773 
L 197.87949 146.450784 
L 199.52778 147.447796 
L 201.17607 148.444807 
L 202.82436 149.441819 
L 204.47265 150.438831 
L 206.12094 151.435842 
L 207.76923 152.432854 
L 209.41752 153.429865 
L 211.06581 154.426877 
L 212.7141 155.423889 
L 214.36239 156.4209 
L 216.01068 157.417912 
L 217.65897 158.414923 
L 219.30726 159.411935 
L 220.95555 160.408946 
L 222.60384 161.405958 
L 224.25213 162.40297 
L 225.90042 163.399981 
L 227.54871 164.396993 
L 229.197 165.394004 
L 230.84529 166.391016 
L 232.49358 167.388028 
L 234.14187 168.385039 
L 235.79016 169.382051 
L 237.43845 170.379062 
L 239.08674 171.376074 
L 240.73503 172.373085 
L 242.38332 173.370097 
L 244.03161 174.367109 
L 245.6799 175.36412 
L 247.32819 176.361132 
L 248.97648 177.358143 
" style="fill:none;stroke:#0000ff;stroke-linecap:square;stroke-width:0.9;"/>
   </g>
   <g id="line2d_105">
    <path clip-path="url(#pd07992fd0d)" d="M 248.97648 120.069817 
L 250.62477 121.066829 
" style="fill:none;stroke:#0000ff;stroke-linecap:square;stroke-width:0.9;"/>
   </g>
   <g id="line2d_106">
    <path clip-path="url(#pd07992fd0d)" d="M 250.62477 121.066829 
L 252.27306 122.06384 
L 253.92135 123.060852 
L 255.56964 124.057863 
L 257.21793 125.054875 
L 258.86622 126.051887 
L 260.51451 127.048898 
L 262.1628 128.04591 
L 263.81109 129.042921 
L 265.45938 130.039933 
L 267.10767 131.036945 
L 268.75596 132.033956 
L 270.40425 133.030968 
L 272.05254 134.02802 
L 273.70083 135.025032 
L 275.34912 136.022043 
L 276.99741 137.019055 
L 278.6457 138.016066 
L 280.29399 139.013078 
L 281.94228 140.010089 
L 283.59057 141.007101 
L 285.23886 142.004113 
L 286.88715 143.001124 
L 288.53544 143.998136 
L 290.18373 144.995147 
L 291.83202 145.992159 
L 293.48031 146.989171 
L 295.1286 147.986182 
L 296.77689 148.983194 
L 298.42518 149.980205 
L 300.07347 150.977217 
L 301.72176 151.974228 
L 303.37005 152.97124 
L 305.01834 153.968211 
L 306.66663 154.965223 
L 308.31492 155.962234 
L 309.96321 156.959246 
L 311.6115 157.956257 
L 313.25979 158.953269 
L 314.90808 159.95028 
L 316.55637 160.947292 
L 318.20466 161.944304 
L 319.85295 162.941315 
L 321.50124 163.938327 
L 323.14953 164.935338 
L 324.79782 165.93235 
L 326.44611 166.929362 
L 328.0944 167.926373 
L 329.74269 168.923385 
" style="fill:none;stroke:#0000ff;stroke-linecap:square;stroke-width:0.9;"/>
   </g>
   <g id="line2d_107">
    <path clip-path="url(#pd07992fd0d)" d="M 329.74269 125.974138 
L 331.39098 126.97115 
" style="fill:none;stroke:#0000ff;stroke-linecap:square;stroke-width:0.9;"/>
   </g>
   <g id="line2d_108">
    <path clip-path="url(#pd07992fd0d)" d="M 331.39098 126.97115 
L 333.03927 127.968161 
L 334.68756 128.965173 
L 336.33585 129.962184 
L 337.98414 130.959196 
L 339.63243 131.956208 
L 341.28072 132.953219 
L 342.92901 133.950251 
L 344.5773 134.947263 
L 346.22559 135.944274 
L 347.87388 136.941286 
L 349.52217 137.938297 
L 351.17046 138.935309 
L 352.81875 139.932321 
L 354.46704 140.929332 
L 356.11533 141.926344 
L 357.76362 142.923357 
L 359.41191 143.920369 
L 361.0602 144.917378 
L 362.70849 145.91439 
L 364.35678 146.911402 
L 366.00507 147.908413 
L 367.65336 148.905425 
L 369.30165 149.902436 
L 370.94994 150.899448 
L 372.59823 151.89646 
L 374.24652 152.893471 
L 375.89481 153.890462 
L 377.5431 154.887474 
L 379.19139 155.884486 
L 380.83968 156.881497 
L 382.48797 157.878509 
L 384.13626 158.87552 
L 385.78455 159.872532 
L 387.43284 160.869543 
L 389.08113 161.866555 
L 390.72942 162.863567 
" style="fill:none;stroke:#0000ff;stroke-linecap:square;stroke-width:0.9;"/>
   </g>
   <g id="line2d_109">
    <path clip-path="url(#pd07992fd0d)" d="M 390.72942 130.216062 
L 392.37771 131.213073 
" style="fill:none;stroke:#0000ff;stroke-linecap:square;stroke-width:0.9;"/>
   </g>
   <g id="line2d_110">
    <path clip-path="url(#pd07992fd0d)" d="M 392.37771 131.213073 
L 394.026 132.210085 
L 395.67429 133.207096 
L 397.32258 134.204088 
L 398.97087 135.201099 
L 400.61916 136.198111 
L 402.26745 137.195122 
L 403.91574 138.192134 
L 405.56403 139.189145 
L 407.21232 140.186157 
L 408.86061 141.183169 
L 410.5089 142.18018 
L 412.15719 143.177197 
L 413.80548 144.174208 
L 415.45377 145.171215 
L 417.10206 146.168227 
L 418.75035 147.165238 
L 420.39864 148.16225 
L 422.04693 149.159261 
L 423.69522 150.156273 
L 425.34351 151.153284 
L 426.9918 152.150296 
L 428.64009 153.147308 
L 430.28838 154.14434 
L 431.93667 155.141351 
L 433.58496 156.138363 
L 435.23325 157.135374 
L 436.88154 158.132386 
" style="fill:none;stroke:#0000ff;stroke-linecap:square;stroke-width:0.9;"/>
   </g>
   <g id="line2d_111">
    <path clip-path="url(#pd07992fd0d)" d="M 436.88154 133.527898 
L 438.52983 134.52491 
" style="fill:none;stroke:#0000ff;stroke-linecap:square;stroke-width:0.9;"/>
   </g>
   <g id="line2d_112">
    <path clip-path="url(#pd07992fd0d)" d="M 438.52983 134.52491 
L 440.17812 135.521921 
L 441.82641 136.518933 
L 443.4747 137.515945 
L 445.12299 138.512956 
L 446.77128 139.509968 
L 448.41957 140.506979 
L 450.06786 141.503991 
L 451.71615 142.501002 
L 453.36444 143.498015 
L 455.01273 144.495027 
L 456.66102 145.492037 
L 458.30931 146.489049 
L 459.9576 147.48606 
L 461.60589 148.483072 
L 463.25418 149.480084 
L 464.90247 150.477095 
L 466.55076 151.474107 
L 468.19905 152.471118 
L 469.84734 153.46813 
L 471.49563 154.465192 
L 473.14392 155.462204 
" style="fill:none;stroke:#0000ff;stroke-linecap:square;stroke-width:0.9;"/>
   </g>
   <g id="line2d_113">
    <path clip-path="url(#pd07992fd0d)" d="M 473.14392 135.397046 
L 474.79221 136.394058 
" style="fill:none;stroke:#0000ff;stroke-linecap:square;stroke-width:0.9;"/>
   </g>
   <g id="line2d_114">
    <path clip-path="url(#pd07992fd0d)" d="M 474.79221 136.394058 
L 476.4405 137.391069 
L 478.08879 138.388081 
L 479.73708 139.385092 
L 481.38537 140.382104 
L 483.03366 141.379115 
L 484.68195 142.376127 
L 486.33024 143.373143 
L 487.97853 144.370154 
L 489.62682 145.367162 
L 491.27511 146.364173 
L 492.9234 147.361185 
L 494.57169 148.358197 
L 496.21998 149.355208 
L 497.86827 150.35222 
L 499.51656 151.349231 
L 501.16485 152.346243 
L 502.81314 153.343254 
" style="fill:none;stroke:#0000ff;stroke-linecap:square;stroke-width:0.9;"/>
   </g>
   <g id="line2d_115">
    <path clip-path="url(#pd07992fd0d)" d="M 502.81314 136.880276 
L 504.46143 137.877288 
" style="fill:none;stroke:#0000ff;stroke-linecap:square;stroke-width:0.9;"/>
   </g>
   <g id="line2d_116">
    <path clip-path="url(#pd07992fd0d)" d="M 504.46143 137.877288 
L 506.10972 138.874299 
L 507.75801 139.871311 
L 509.4063 140.868322 
L 511.05459 141.865334 
L 512.70288 142.862347 
L 514.35117 143.859358 
L 515.99946 144.856369 
L 517.64775 145.85338 
L 519.29604 146.850392 
L 520.94433 147.847403 
L 522.59262 148.844415 
L 524.24091 149.841427 
L 525.8892 150.838438 
L 527.53749 151.83545 
" style="fill:none;stroke:#0000ff;stroke-linecap:square;stroke-width:0.9;"/>
   </g>
   <g id="line2d_117">
    <path clip-path="url(#pd07992fd0d)" d="M 527.53749 137.935746 
L 529.18578 138.932758 
" style="fill:none;stroke:#0000ff;stroke-linecap:square;stroke-width:0.9;"/>
   </g>
   <g id="line2d_118">
    <path clip-path="url(#pd07992fd0d)" d="M 529.18578 138.932758 
L 530.83407 139.92977 
L 532.48236 140.926781 
L 534.13065 141.923793 
L 535.77894 142.9208 
L 537.42723 143.917812 
L 539.07552 144.914827 
L 540.72381 145.911839 
L 542.3721 146.908851 
L 544.02039 147.905862 
L 545.66868 148.902874 
L 547.31697 149.899885 
L 548.96526 150.896897 
" style="fill:none;stroke:#0000ff;stroke-linecap:square;stroke-width:0.9;"/>
   </g>
   <g id="line2d_119">
    <path clip-path="url(#pd07992fd0d)" d="M 548.96526 138.592737 
L 550.61355 139.589749 
" style="fill:none;stroke:#0000ff;stroke-linecap:square;stroke-width:0.9;"/>
   </g>
   <g id="line2d_120">
    <path clip-path="url(#pd07992fd0d)" d="M 550.61355 139.589749 
L 552.26184 140.586761 
L 553.91013 141.583772 
L 555.55842 142.580784 
L 557.20671 143.577791 
L 558.855 144.574803 
" style="fill:none;stroke:#0000ff;stroke-linecap:square;stroke-width:0.9;"/>
   </g>
  </g>
 </g>
 <defs>
  <clipPath id="pfb72c5ff2f">
   <rect height="85.762936" width="494.487" x="64.368" y="10.8"/>
  </clipPath>
  <clipPath id="pd07992fd0d">
   <rect height="85.762936" width="494.487" x="64.368" y="107.657064"/>
  </clipPath>
 </defs>
</svg>
