<?xml version="1.0" encoding="UTF-8" standalone="no"?><!DOCTYPE svg PUBLIC "-//W3C//DTD SVG 1.1//EN" "http://www.w3.org/Graphics/SVG/1.1/DTD/svg11.dtd"><svg width="100%" height="100%" viewBox="0 0 36 36" version="1.1" xmlns="http://www.w3.org/2000/svg" xmlns:xlink="http://www.w3.org/1999/xlink" xml:space="preserve" xmlns:serif="http://www.serif.com/" style="fill-rule:evenodd;clip-rule:evenodd;stroke-linejoin:round;stroke-miterlimit:2;"><path d="M34.5,6.206l-0,23.588c-0,2.597 -2.109,4.706 -4.706,4.706l-23.588,0c-2.597,0 -4.706,-2.109 -4.706,-4.706l0,-23.588c0,-2.597 2.109,-4.706 4.706,-4.706l23.588,0c2.597,0 4.706,2.109 4.706,4.706Z" style="fill:#fff;fill-opacity:0.9;"/><g id="fmu"><g><path d="M3.306,27.818l0,-1.279l2.766,0l1.009,0.874l1.056,-0.874l24.559,0.002l0,1.278l-29.39,-0.001Z" style="fill:#cc193a;fill-rule:nonzero;"/></g><g><g id="u"><path d="M29.063,22.468c2.326,-0.008 3.63,-1.352 3.637,-3.737l0.015,-5.323l-1.577,-0l-0.012,5.461c0.025,1.071 -0.524,2.085 -1.995,2.085c-1.754,-0 -2.141,-1.271 -2.148,-2.102l-0,-5.444l-1.578,-0l0.008,5.315c0,2.38 1.33,3.753 3.65,3.745Z" style="fill:#2a3741;fill-rule:nonzero;"/></g><g id="m"><path d="M22.348,22.307l0,-5.354c0,-0.948 -0.481,-1.632 -1.429,-2.034c-0.288,-0.067 -0.492,-0.095 -0.651,-0.095c-0.84,-0 -1.486,0.43 -1.923,1.279c-0.112,0.288 -0.165,0.632 -0.165,1.038l0.012,5.166l-1.578,0l-0.012,-5.46c0,-0.978 -0.524,-2.023 -1.994,-2.023c-1.754,-0 -2.149,1.511 -2.149,2.04l0,5.443l-1.577,0l0.008,-5.315c-0,-2.38 1.33,-3.745 3.649,-3.745c1.053,0 1.977,0.419 2.747,1.245l0.119,0.129l0.119,-0.13c0.762,-0.84 1.707,-1.267 2.808,-1.267c3.553,-0 3.594,3.413 3.594,3.558l-0,5.525l-1.578,0Z" style="fill:#2a3741;fill-rule:nonzero;"/></g><g id="f"><path d="M6.246,26.05l0,-11.226l-2.96,0l0.031,-1.577l2.929,0l0,-1.035c0,-1.167 0.434,-2.169 1.288,-2.976c0.314,-0.238 0.665,-0.433 1.031,-0.57c0.42,-0.13 0.909,-0.199 1.446,-0.202l0,1.578c-1.026,0.01 -1.689,0.388 -1.972,1.124c-0.143,0.376 -0.215,0.728 -0.215,1.046l-0,1.035l3.066,0c-0.595,0.551 -0.925,1.297 -1.033,1.577l-2.033,0l-0,11.223l-0.82,0.658l-0.758,-0.655Z" style="fill:#2a3741;fill-rule:nonzero;"/></g></g></g></svg>