<?xml version="1.0" encoding="utf-8" standalone="no"?>
<!DOCTYPE svg PUBLIC "-//W3C//DTD SVG 1.1//EN"
  "http://www.w3.org/Graphics/SVG/1.1/DTD/svg11.dtd">
<!-- Created with matplotlib (https://matplotlib.org/) -->
<svg height="108pt" version="1.1" viewBox="0 0 576 108" width="576pt" xmlns="http://www.w3.org/2000/svg" xmlns:xlink="http://www.w3.org/1999/xlink">
 <defs>
  <style type="text/css">
*{stroke-linecap:butt;stroke-linejoin:round;}
  </style>
 </defs>
 <g id="figure_1">
  <g id="patch_1">
   <path d="M 0 108 
L 576 108 
L 576 0 
L 0 0 
z
" style="fill:#ffffff;"/>
  </g>
  <g id="axes_1">
   <g id="patch_2">
    <path d="M 64.368 85.42 
L 560.115 85.42 
L 560.115 10.8 
L 64.368 10.8 
z
" style="fill:#ffffff;"/>
   </g>
   <g id="matplotlib.axis_1">
    <g id="xtick_1">
     <g id="line2d_1">
      <path clip-path="url(#pca565ffd01)" d="M 64.368 85.42 
L 64.368 10.8 
" style="fill:none;stroke:#cccccc;stroke-linecap:square;stroke-width:0.8;"/>
     </g>
     <g id="line2d_2">
      <defs>
       <path d="M 0 0 
L 0 -3.5 
" id="mc0951a15eb" style="stroke:#000000;stroke-width:0.8;"/>
      </defs>
      <g>
       <use style="stroke:#000000;stroke-width:0.8;" x="64.368" xlink:href="#mc0951a15eb" y="85.42"/>
      </g>
     </g>
     <g id="text_1">
      <!-- 0 -->
      <defs>
       <path d="M 31.78125 66.40625 
Q 24.171875 66.40625 20.328125 58.90625 
Q 16.5 51.421875 16.5 36.375 
Q 16.5 21.390625 20.328125 13.890625 
Q 24.171875 6.390625 31.78125 6.390625 
Q 39.453125 6.390625 43.28125 13.890625 
Q 47.125 21.390625 47.125 36.375 
Q 47.125 51.421875 43.28125 58.90625 
Q 39.453125 66.40625 31.78125 66.40625 
z
M 31.78125 74.21875 
Q 44.046875 74.21875 50.515625 64.515625 
Q 56.984375 54.828125 56.984375 36.375 
Q 56.984375 17.96875 50.515625 8.265625 
Q 44.046875 -1.421875 31.78125 -1.421875 
Q 19.53125 -1.421875 13.0625 8.265625 
Q 6.59375 17.96875 6.59375 36.375 
Q 6.59375 54.828125 13.0625 64.515625 
Q 19.53125 74.21875 31.78125 74.21875 
z
" id="DejaVuSans-48"/>
      </defs>
      <g transform="translate(61.823 94.99875)scale(0.08 -0.08)">
       <use xlink:href="#DejaVuSans-48"/>
      </g>
     </g>
    </g>
    <g id="xtick_2">
     <g id="line2d_3">
      <path clip-path="url(#pca565ffd01)" d="M 163.5174 85.42 
L 163.5174 10.8 
" style="fill:none;stroke:#cccccc;stroke-linecap:square;stroke-width:0.8;"/>
     </g>
     <g id="line2d_4">
      <g>
       <use style="stroke:#000000;stroke-width:0.8;" x="163.5174" xlink:href="#mc0951a15eb" y="85.42"/>
      </g>
     </g>
     <g id="text_2">
      <!-- 2 -->
      <defs>
       <path d="M 19.1875 8.296875 
L 53.609375 8.296875 
L 53.609375 0 
L 7.328125 0 
L 7.328125 8.296875 
Q 12.9375 14.109375 22.625 23.890625 
Q 32.328125 33.6875 34.8125 36.53125 
Q 39.546875 41.84375 41.421875 45.53125 
Q 43.3125 49.21875 43.3125 52.78125 
Q 43.3125 58.59375 39.234375 62.25 
Q 35.15625 65.921875 28.609375 65.921875 
Q 23.96875 65.921875 18.8125 64.3125 
Q 13.671875 62.703125 7.8125 59.421875 
L 7.8125 69.390625 
Q 13.765625 71.78125 18.9375 73 
Q 24.125 74.21875 28.421875 74.21875 
Q 39.75 74.21875 46.484375 68.546875 
Q 53.21875 62.890625 53.21875 53.421875 
Q 53.21875 48.921875 51.53125 44.890625 
Q 49.859375 40.875 45.40625 35.40625 
Q 44.1875 33.984375 37.640625 27.21875 
Q 31.109375 20.453125 19.1875 8.296875 
z
" id="DejaVuSans-50"/>
      </defs>
      <g transform="translate(160.9724 94.99875)scale(0.08 -0.08)">
       <use xlink:href="#DejaVuSans-50"/>
      </g>
     </g>
    </g>
    <g id="xtick_3">
     <g id="line2d_5">
      <path clip-path="url(#pca565ffd01)" d="M 262.6668 85.42 
L 262.6668 10.8 
" style="fill:none;stroke:#cccccc;stroke-linecap:square;stroke-width:0.8;"/>
     </g>
     <g id="line2d_6">
      <g>
       <use style="stroke:#000000;stroke-width:0.8;" x="262.6668" xlink:href="#mc0951a15eb" y="85.42"/>
      </g>
     </g>
     <g id="text_3">
      <!-- 4 -->
      <defs>
       <path d="M 37.796875 64.3125 
L 12.890625 25.390625 
L 37.796875 25.390625 
z
M 35.203125 72.90625 
L 47.609375 72.90625 
L 47.609375 25.390625 
L 58.015625 25.390625 
L 58.015625 17.1875 
L 47.609375 17.1875 
L 47.609375 0 
L 37.796875 0 
L 37.796875 17.1875 
L 4.890625 17.1875 
L 4.890625 26.703125 
z
" id="DejaVuSans-52"/>
      </defs>
      <g transform="translate(260.1218 94.99875)scale(0.08 -0.08)">
       <use xlink:href="#DejaVuSans-52"/>
      </g>
     </g>
    </g>
    <g id="xtick_4">
     <g id="line2d_7">
      <path clip-path="url(#pca565ffd01)" d="M 361.8162 85.42 
L 361.8162 10.8 
" style="fill:none;stroke:#cccccc;stroke-linecap:square;stroke-width:0.8;"/>
     </g>
     <g id="line2d_8">
      <g>
       <use style="stroke:#000000;stroke-width:0.8;" x="361.8162" xlink:href="#mc0951a15eb" y="85.42"/>
      </g>
     </g>
     <g id="text_4">
      <!-- 6 -->
      <defs>
       <path d="M 33.015625 40.375 
Q 26.375 40.375 22.484375 35.828125 
Q 18.609375 31.296875 18.609375 23.390625 
Q 18.609375 15.53125 22.484375 10.953125 
Q 26.375 6.390625 33.015625 6.390625 
Q 39.65625 6.390625 43.53125 10.953125 
Q 47.40625 15.53125 47.40625 23.390625 
Q 47.40625 31.296875 43.53125 35.828125 
Q 39.65625 40.375 33.015625 40.375 
z
M 52.59375 71.296875 
L 52.59375 62.3125 
Q 48.875 64.0625 45.09375 64.984375 
Q 41.3125 65.921875 37.59375 65.921875 
Q 27.828125 65.921875 22.671875 59.328125 
Q 17.53125 52.734375 16.796875 39.40625 
Q 19.671875 43.65625 24.015625 45.921875 
Q 28.375 48.1875 33.59375 48.1875 
Q 44.578125 48.1875 50.953125 41.515625 
Q 57.328125 34.859375 57.328125 23.390625 
Q 57.328125 12.15625 50.6875 5.359375 
Q 44.046875 -1.421875 33.015625 -1.421875 
Q 20.359375 -1.421875 13.671875 8.265625 
Q 6.984375 17.96875 6.984375 36.375 
Q 6.984375 53.65625 15.1875 63.9375 
Q 23.390625 74.21875 37.203125 74.21875 
Q 40.921875 74.21875 44.703125 73.484375 
Q 48.484375 72.75 52.59375 71.296875 
z
" id="DejaVuSans-54"/>
      </defs>
      <g transform="translate(359.2712 94.99875)scale(0.08 -0.08)">
       <use xlink:href="#DejaVuSans-54"/>
      </g>
     </g>
    </g>
    <g id="xtick_5">
     <g id="line2d_9">
      <path clip-path="url(#pca565ffd01)" d="M 460.9656 85.42 
L 460.9656 10.8 
" style="fill:none;stroke:#cccccc;stroke-linecap:square;stroke-width:0.8;"/>
     </g>
     <g id="line2d_10">
      <g>
       <use style="stroke:#000000;stroke-width:0.8;" x="460.9656" xlink:href="#mc0951a15eb" y="85.42"/>
      </g>
     </g>
     <g id="text_5">
      <!-- 8 -->
      <defs>
       <path d="M 31.78125 34.625 
Q 24.75 34.625 20.71875 30.859375 
Q 16.703125 27.09375 16.703125 20.515625 
Q 16.703125 13.921875 20.71875 10.15625 
Q 24.75 6.390625 31.78125 6.390625 
Q 38.8125 6.390625 42.859375 10.171875 
Q 46.921875 13.96875 46.921875 20.515625 
Q 46.921875 27.09375 42.890625 30.859375 
Q 38.875 34.625 31.78125 34.625 
z
M 21.921875 38.8125 
Q 15.578125 40.375 12.03125 44.71875 
Q 8.5 49.078125 8.5 55.328125 
Q 8.5 64.0625 14.71875 69.140625 
Q 20.953125 74.21875 31.78125 74.21875 
Q 42.671875 74.21875 48.875 69.140625 
Q 55.078125 64.0625 55.078125 55.328125 
Q 55.078125 49.078125 51.53125 44.71875 
Q 48 40.375 41.703125 38.8125 
Q 48.828125 37.15625 52.796875 32.3125 
Q 56.78125 27.484375 56.78125 20.515625 
Q 56.78125 9.90625 50.3125 4.234375 
Q 43.84375 -1.421875 31.78125 -1.421875 
Q 19.734375 -1.421875 13.25 4.234375 
Q 6.78125 9.90625 6.78125 20.515625 
Q 6.78125 27.484375 10.78125 32.3125 
Q 14.796875 37.15625 21.921875 38.8125 
z
M 18.3125 54.390625 
Q 18.3125 48.734375 21.84375 45.5625 
Q 25.390625 42.390625 31.78125 42.390625 
Q 38.140625 42.390625 41.71875 45.5625 
Q 45.3125 48.734375 45.3125 54.390625 
Q 45.3125 60.0625 41.71875 63.234375 
Q 38.140625 66.40625 31.78125 66.40625 
Q 25.390625 66.40625 21.84375 63.234375 
Q 18.3125 60.0625 18.3125 54.390625 
z
" id="DejaVuSans-56"/>
      </defs>
      <g transform="translate(458.4206 94.99875)scale(0.08 -0.08)">
       <use xlink:href="#DejaVuSans-56"/>
      </g>
     </g>
    </g>
    <g id="xtick_6">
     <g id="line2d_11">
      <path clip-path="url(#pca565ffd01)" d="M 560.115 85.42 
L 560.115 10.8 
" style="fill:none;stroke:#cccccc;stroke-linecap:square;stroke-width:0.8;"/>
     </g>
     <g id="line2d_12">
      <g>
       <use style="stroke:#000000;stroke-width:0.8;" x="560.115" xlink:href="#mc0951a15eb" y="85.42"/>
      </g>
     </g>
     <g id="text_6">
      <!-- 10 -->
      <defs>
       <path d="M 12.40625 8.296875 
L 28.515625 8.296875 
L 28.515625 63.921875 
L 10.984375 60.40625 
L 10.984375 69.390625 
L 28.421875 72.90625 
L 38.28125 72.90625 
L 38.28125 8.296875 
L 54.390625 8.296875 
L 54.390625 0 
L 12.40625 0 
z
" id="DejaVuSans-49"/>
      </defs>
      <g transform="translate(555.025 94.99875)scale(0.08 -0.08)">
       <use xlink:href="#DejaVuSans-49"/>
       <use x="63.623047" xlink:href="#DejaVuSans-48"/>
      </g>
     </g>
    </g>
   </g>
   <g id="matplotlib.axis_2">
    <g id="ytick_1">
     <g id="line2d_13">
      <path clip-path="url(#pca565ffd01)" d="M 64.368 82.029984 
L 560.115 82.029984 
" style="fill:none;stroke:#cccccc;stroke-linecap:square;stroke-width:0.8;"/>
     </g>
     <g id="line2d_14">
      <defs>
       <path d="M 0 0 
L 3.5 0 
" id="m0d3e4f70c7" style="stroke:#000000;stroke-width:0.8;"/>
      </defs>
      <g>
       <use style="stroke:#000000;stroke-width:0.8;" x="64.368" xlink:href="#m0d3e4f70c7" y="82.029984"/>
      </g>
     </g>
     <g id="text_7">
      <!-- 0.0 -->
      <defs>
       <path d="M 10.6875 12.40625 
L 21 12.40625 
L 21 0 
L 10.6875 0 
z
" id="DejaVuSans-46"/>
      </defs>
      <g transform="translate(48.1455 85.069359)scale(0.08 -0.08)">
       <use xlink:href="#DejaVuSans-48"/>
       <use x="63.623047" xlink:href="#DejaVuSans-46"/>
       <use x="95.410156" xlink:href="#DejaVuSans-48"/>
      </g>
     </g>
    </g>
    <g id="ytick_2">
     <g id="line2d_15">
      <path clip-path="url(#pca565ffd01)" d="M 64.368 48.110901 
L 560.115 48.110901 
" style="fill:none;stroke:#cccccc;stroke-linecap:square;stroke-width:0.8;"/>
     </g>
     <g id="line2d_16">
      <g>
       <use style="stroke:#000000;stroke-width:0.8;" x="64.368" xlink:href="#m0d3e4f70c7" y="48.110901"/>
      </g>
     </g>
     <g id="text_8">
      <!-- 0.5 -->
      <defs>
       <path d="M 10.796875 72.90625 
L 49.515625 72.90625 
L 49.515625 64.59375 
L 19.828125 64.59375 
L 19.828125 46.734375 
Q 21.96875 47.46875 24.109375 47.828125 
Q 26.265625 48.1875 28.421875 48.1875 
Q 40.625 48.1875 47.75 41.5 
Q 54.890625 34.8125 54.890625 23.390625 
Q 54.890625 11.625 47.5625 5.09375 
Q 40.234375 -1.421875 26.90625 -1.421875 
Q 22.3125 -1.421875 17.546875 -0.640625 
Q 12.796875 0.140625 7.71875 1.703125 
L 7.71875 11.625 
Q 12.109375 9.234375 16.796875 8.0625 
Q 21.484375 6.890625 26.703125 6.890625 
Q 35.15625 6.890625 40.078125 11.328125 
Q 45.015625 15.765625 45.015625 23.390625 
Q 45.015625 31 40.078125 35.4375 
Q 35.15625 39.890625 26.703125 39.890625 
Q 22.75 39.890625 18.8125 39.015625 
Q 14.890625 38.140625 10.796875 36.28125 
z
" id="DejaVuSans-53"/>
      </defs>
      <g transform="translate(48.1455 51.150276)scale(0.08 -0.08)">
       <use xlink:href="#DejaVuSans-48"/>
       <use x="63.623047" xlink:href="#DejaVuSans-46"/>
       <use x="95.410156" xlink:href="#DejaVuSans-53"/>
      </g>
     </g>
    </g>
    <g id="ytick_3">
     <g id="line2d_17">
      <path clip-path="url(#pca565ffd01)" d="M 64.368 14.191818 
L 560.115 14.191818 
" style="fill:none;stroke:#cccccc;stroke-linecap:square;stroke-width:0.8;"/>
     </g>
     <g id="line2d_18">
      <g>
       <use style="stroke:#000000;stroke-width:0.8;" x="64.368" xlink:href="#m0d3e4f70c7" y="14.191818"/>
      </g>
     </g>
     <g id="text_9">
      <!-- 1.0 -->
      <g transform="translate(48.1455 17.231193)scale(0.08 -0.08)">
       <use xlink:href="#DejaVuSans-49"/>
       <use x="63.623047" xlink:href="#DejaVuSans-46"/>
       <use x="95.410156" xlink:href="#DejaVuSans-48"/>
      </g>
     </g>
    </g>
    <g id="text_10">
     <!-- x -->
     <defs>
      <path d="M 54.890625 54.6875 
L 35.109375 28.078125 
L 55.90625 0 
L 45.3125 0 
L 29.390625 21.484375 
L 13.484375 0 
L 2.875 0 
L 24.125 28.609375 
L 4.6875 54.6875 
L 15.28125 54.6875 
L 29.78125 35.203125 
L 44.28125 54.6875 
z
" id="DejaVuSans-120"/>
     </defs>
     <g transform="translate(4.87836 46.44625)scale(0.08 -0.08)">
      <use xlink:href="#DejaVuSans-120"/>
     </g>
    </g>
   </g>
   <g id="patch_3">
    <path d="M 64.368 85.42 
L 64.368 10.8 
" style="fill:none;stroke:#000000;stroke-linecap:square;stroke-linejoin:miter;stroke-width:0.5;"/>
   </g>
   <g id="patch_4">
    <path d="M 560.115 85.42 
L 560.115 10.8 
" style="fill:none;stroke:#000000;stroke-linecap:square;stroke-linejoin:miter;stroke-width:0.5;"/>
   </g>
   <g id="patch_5">
    <path d="M 64.368 85.42 
L 560.115 85.42 
" style="fill:none;stroke:#000000;stroke-linecap:square;stroke-linejoin:miter;stroke-width:0.5;"/>
   </g>
   <g id="patch_6">
    <path d="M 64.368 10.8 
L 560.115 10.8 
" style="fill:none;stroke:#000000;stroke-linecap:square;stroke-linejoin:miter;stroke-width:0.5;"/>
   </g>
   <g id="PathCollection_1">
    <defs>
     <path d="M 0 1.118034 
C 0.296506 1.118034 0.580908 1.000231 0.790569 0.790569 
C 1.000231 0.580908 1.118034 0.296506 1.118034 0 
C 1.118034 -0.296506 1.000231 -0.580908 0.790569 -0.790569 
C 0.580908 -1.000231 0.296506 -1.118034 0 -1.118034 
C -0.296506 -1.118034 -0.580908 -1.000231 -0.790569 -0.790569 
C -1.000231 -0.580908 -1.118034 -0.296506 -1.118034 0 
C -1.118034 0.296506 -1.000231 0.580908 -0.790569 0.790569 
C -0.580908 1.000231 -0.296506 1.118034 0 1.118034 
z
" id="mc864c019a4" style="stroke:#0000ff;"/>
    </defs>
    <g clip-path="url(#pca565ffd01)">
     <use style="fill:#0000ff;stroke:#0000ff;" x="64.368" xlink:href="#mc864c019a4" y="14.191818"/>
     <use style="fill:#0000ff;stroke:#0000ff;" x="69.32547" xlink:href="#mc864c019a4" y="20.975635"/>
     <use style="fill:#0000ff;stroke:#0000ff;" x="74.28294" xlink:href="#mc864c019a4" y="27.08107"/>
     <use style="fill:#0000ff;stroke:#0000ff;" x="79.24041" xlink:href="#mc864c019a4" y="32.575961"/>
     <use style="fill:#0000ff;stroke:#0000ff;" x="84.19788" xlink:href="#mc864c019a4" y="37.521363"/>
     <use style="fill:#0000ff;stroke:#0000ff;" x="89.15535" xlink:href="#mc864c019a4" y="41.972225"/>
     <use style="fill:#0000ff;stroke:#0000ff;" x="94.11282" xlink:href="#mc864c019a4" y="45.978001"/>
     <use style="fill:#0000ff;stroke:#0000ff;" x="99.07029" xlink:href="#mc864c019a4" y="49.583193"/>
     <use style="fill:#0000ff;stroke:#0000ff;" x="104.02776" xlink:href="#mc864c019a4" y="52.827892"/>
     <use style="fill:#0000ff;stroke:#0000ff;" x="108.98523" xlink:href="#mc864c019a4" y="55.748122"/>
     <use style="fill:#0000ff;stroke:#0000ff;" x="113.9427" xlink:href="#mc864c019a4" y="58.376308"/>
     <use style="fill:#0000ff;stroke:#0000ff;" x="118.90017" xlink:href="#mc864c019a4" y="60.741621"/>
     <use style="fill:#0000ff;stroke:#0000ff;" x="123.85764" xlink:href="#mc864c019a4" y="62.870451"/>
     <use style="fill:#0000ff;stroke:#0000ff;" x="128.81511" xlink:href="#mc864c019a4" y="64.786404"/>
     <use style="fill:#0000ff;stroke:#0000ff;" x="133.77258" xlink:href="#mc864c019a4" y="66.510782"/>
     <use style="fill:#0000ff;stroke:#0000ff;" x="138.73005" xlink:href="#mc864c019a4" y="68.062716"/>
     <use style="fill:#0000ff;stroke:#0000ff;" x="143.68752" xlink:href="#mc864c019a4" y="69.459436"/>
     <use style="fill:#0000ff;stroke:#0000ff;" x="148.64499" xlink:href="#mc864c019a4" y="70.716477"/>
     <use style="fill:#0000ff;stroke:#0000ff;" x="153.60246" xlink:href="#mc864c019a4" y="71.847814"/>
     <use style="fill:#0000ff;stroke:#0000ff;" x="158.55993" xlink:href="#mc864c019a4" y="72.866065"/>
     <use style="fill:#0000ff;stroke:#0000ff;" x="163.5174" xlink:href="#mc864c019a4" y="73.782423"/>
     <use style="fill:#0000ff;stroke:#0000ff;" x="168.47487" xlink:href="#mc864c019a4" y="74.607199"/>
     <use style="fill:#0000ff;stroke:#0000ff;" x="173.43234" xlink:href="#mc864c019a4" y="75.349478"/>
     <use style="fill:#0000ff;stroke:#0000ff;" x="178.38981" xlink:href="#mc864c019a4" y="76.017528"/>
     <use style="fill:#0000ff;stroke:#0000ff;" x="183.34728" xlink:href="#mc864c019a4" y="76.618777"/>
     <use style="fill:#0000ff;stroke:#0000ff;" x="188.30475" xlink:href="#mc864c019a4" y="77.159895"/>
     <use style="fill:#0000ff;stroke:#0000ff;" x="193.26222" xlink:href="#mc864c019a4" y="77.646906"/>
     <use style="fill:#0000ff;stroke:#0000ff;" x="198.21969" xlink:href="#mc864c019a4" y="78.085215"/>
     <use style="fill:#0000ff;stroke:#0000ff;" x="203.17716" xlink:href="#mc864c019a4" y="78.479687"/>
     <use style="fill:#0000ff;stroke:#0000ff;" x="208.13463" xlink:href="#mc864c019a4" y="78.834718"/>
     <use style="fill:#0000ff;stroke:#0000ff;" x="213.0921" xlink:href="#mc864c019a4" y="79.154242"/>
     <use style="fill:#0000ff;stroke:#0000ff;" x="218.04957" xlink:href="#mc864c019a4" y="79.441822"/>
     <use style="fill:#0000ff;stroke:#0000ff;" x="223.00704" xlink:href="#mc864c019a4" y="79.700638"/>
     <use style="fill:#0000ff;stroke:#0000ff;" x="227.96451" xlink:href="#mc864c019a4" y="79.933567"/>
     <use style="fill:#0000ff;stroke:#0000ff;" x="232.92198" xlink:href="#mc864c019a4" y="80.143214"/>
     <use style="fill:#0000ff;stroke:#0000ff;" x="237.87945" xlink:href="#mc864c019a4" y="80.331886"/>
     <use style="fill:#0000ff;stroke:#0000ff;" x="242.83692" xlink:href="#mc864c019a4" y="80.501698"/>
     <use style="fill:#0000ff;stroke:#0000ff;" x="247.79439" xlink:href="#mc864c019a4" y="80.654524"/>
     <use style="fill:#0000ff;stroke:#0000ff;" x="252.75186" xlink:href="#mc864c019a4" y="80.792073"/>
     <use style="fill:#0000ff;stroke:#0000ff;" x="257.70933" xlink:href="#mc864c019a4" y="80.915864"/>
     <use style="fill:#0000ff;stroke:#0000ff;" x="262.6668" xlink:href="#mc864c019a4" y="81.027275"/>
     <use style="fill:#0000ff;stroke:#0000ff;" x="267.62427" xlink:href="#mc864c019a4" y="81.127546"/>
     <use style="fill:#0000ff;stroke:#0000ff;" x="272.58174" xlink:href="#mc864c019a4" y="81.217791"/>
     <use style="fill:#0000ff;stroke:#0000ff;" x="277.53921" xlink:href="#mc864c019a4" y="81.299007"/>
     <use style="fill:#0000ff;stroke:#0000ff;" x="282.49668" xlink:href="#mc864c019a4" y="81.372107"/>
     <use style="fill:#0000ff;stroke:#0000ff;" x="287.45415" xlink:href="#mc864c019a4" y="81.437895"/>
     <use style="fill:#0000ff;stroke:#0000ff;" x="292.41162" xlink:href="#mc864c019a4" y="81.497103"/>
     <use style="fill:#0000ff;stroke:#0000ff;" x="297.36909" xlink:href="#mc864c019a4" y="81.550392"/>
     <use style="fill:#0000ff;stroke:#0000ff;" x="302.32656" xlink:href="#mc864c019a4" y="81.59835"/>
     <use style="fill:#0000ff;stroke:#0000ff;" x="307.28403" xlink:href="#mc864c019a4" y="81.641514"/>
     <use style="fill:#0000ff;stroke:#0000ff;" x="312.2415" xlink:href="#mc864c019a4" y="81.680361"/>
     <use style="fill:#0000ff;stroke:#0000ff;" x="317.19897" xlink:href="#mc864c019a4" y="81.715323"/>
     <use style="fill:#0000ff;stroke:#0000ff;" x="322.15644" xlink:href="#mc864c019a4" y="81.746789"/>
     <use style="fill:#0000ff;stroke:#0000ff;" x="327.11391" xlink:href="#mc864c019a4" y="81.775109"/>
     <use style="fill:#0000ff;stroke:#0000ff;" x="332.07138" xlink:href="#mc864c019a4" y="81.800596"/>
     <use style="fill:#0000ff;stroke:#0000ff;" x="337.02885" xlink:href="#mc864c019a4" y="81.823535"/>
     <use style="fill:#0000ff;stroke:#0000ff;" x="341.98632" xlink:href="#mc864c019a4" y="81.84418"/>
     <use style="fill:#0000ff;stroke:#0000ff;" x="346.94379" xlink:href="#mc864c019a4" y="81.862761"/>
     <use style="fill:#0000ff;stroke:#0000ff;" x="351.90126" xlink:href="#mc864c019a4" y="81.879483"/>
     <use style="fill:#0000ff;stroke:#0000ff;" x="356.85873" xlink:href="#mc864c019a4" y="81.894533"/>
     <use style="fill:#0000ff;stroke:#0000ff;" x="361.8162" xlink:href="#mc864c019a4" y="81.908078"/>
     <use style="fill:#0000ff;stroke:#0000ff;" x="366.77367" xlink:href="#mc864c019a4" y="81.920268"/>
     <use style="fill:#0000ff;stroke:#0000ff;" x="371.73114" xlink:href="#mc864c019a4" y="81.93124"/>
     <use style="fill:#0000ff;stroke:#0000ff;" x="376.68861" xlink:href="#mc864c019a4" y="81.941114"/>
     <use style="fill:#0000ff;stroke:#0000ff;" x="381.64608" xlink:href="#mc864c019a4" y="81.950001"/>
     <use style="fill:#0000ff;stroke:#0000ff;" x="386.60355" xlink:href="#mc864c019a4" y="81.957999"/>
     <use style="fill:#0000ff;stroke:#0000ff;" x="391.56102" xlink:href="#mc864c019a4" y="81.965198"/>
     <use style="fill:#0000ff;stroke:#0000ff;" x="396.51849" xlink:href="#mc864c019a4" y="81.971677"/>
     <use style="fill:#0000ff;stroke:#0000ff;" x="401.47596" xlink:href="#mc864c019a4" y="81.977507"/>
     <use style="fill:#0000ff;stroke:#0000ff;" x="406.43343" xlink:href="#mc864c019a4" y="81.982755"/>
     <use style="fill:#0000ff;stroke:#0000ff;" x="411.3909" xlink:href="#mc864c019a4" y="81.987478"/>
     <use style="fill:#0000ff;stroke:#0000ff;" x="416.34837" xlink:href="#mc864c019a4" y="81.991728"/>
     <use style="fill:#0000ff;stroke:#0000ff;" x="421.30584" xlink:href="#mc864c019a4" y="81.995554"/>
     <use style="fill:#0000ff;stroke:#0000ff;" x="426.26331" xlink:href="#mc864c019a4" y="81.998997"/>
     <use style="fill:#0000ff;stroke:#0000ff;" x="431.22078" xlink:href="#mc864c019a4" y="82.002096"/>
     <use style="fill:#0000ff;stroke:#0000ff;" x="436.17825" xlink:href="#mc864c019a4" y="82.004884"/>
     <use style="fill:#0000ff;stroke:#0000ff;" x="441.13572" xlink:href="#mc864c019a4" y="82.007394"/>
     <use style="fill:#0000ff;stroke:#0000ff;" x="446.09319" xlink:href="#mc864c019a4" y="82.009653"/>
     <use style="fill:#0000ff;stroke:#0000ff;" x="451.05066" xlink:href="#mc864c019a4" y="82.011686"/>
     <use style="fill:#0000ff;stroke:#0000ff;" x="456.00813" xlink:href="#mc864c019a4" y="82.013516"/>
     <use style="fill:#0000ff;stroke:#0000ff;" x="460.9656" xlink:href="#mc864c019a4" y="82.015163"/>
     <use style="fill:#0000ff;stroke:#0000ff;" x="465.92307" xlink:href="#mc864c019a4" y="82.016645"/>
     <use style="fill:#0000ff;stroke:#0000ff;" x="470.88054" xlink:href="#mc864c019a4" y="82.017979"/>
     <use style="fill:#0000ff;stroke:#0000ff;" x="475.83801" xlink:href="#mc864c019a4" y="82.019179"/>
     <use style="fill:#0000ff;stroke:#0000ff;" x="480.79548" xlink:href="#mc864c019a4" y="82.02026"/>
     <use style="fill:#0000ff;stroke:#0000ff;" x="485.75295" xlink:href="#mc864c019a4" y="82.021232"/>
     <use style="fill:#0000ff;stroke:#0000ff;" x="490.71042" xlink:href="#mc864c019a4" y="82.022107"/>
     <use style="fill:#0000ff;stroke:#0000ff;" x="495.66789" xlink:href="#mc864c019a4" y="82.022895"/>
     <use style="fill:#0000ff;stroke:#0000ff;" x="500.62536" xlink:href="#mc864c019a4" y="82.023604"/>
     <use style="fill:#0000ff;stroke:#0000ff;" x="505.58283" xlink:href="#mc864c019a4" y="82.024242"/>
     <use style="fill:#0000ff;stroke:#0000ff;" x="510.5403" xlink:href="#mc864c019a4" y="82.024816"/>
     <use style="fill:#0000ff;stroke:#0000ff;" x="515.49777" xlink:href="#mc864c019a4" y="82.025333"/>
     <use style="fill:#0000ff;stroke:#0000ff;" x="520.45524" xlink:href="#mc864c019a4" y="82.025798"/>
     <use style="fill:#0000ff;stroke:#0000ff;" x="525.41271" xlink:href="#mc864c019a4" y="82.026216"/>
     <use style="fill:#0000ff;stroke:#0000ff;" x="530.37018" xlink:href="#mc864c019a4" y="82.026593"/>
     <use style="fill:#0000ff;stroke:#0000ff;" x="535.32765" xlink:href="#mc864c019a4" y="82.026932"/>
     <use style="fill:#0000ff;stroke:#0000ff;" x="540.28512" xlink:href="#mc864c019a4" y="82.027237"/>
     <use style="fill:#0000ff;stroke:#0000ff;" x="545.24259" xlink:href="#mc864c019a4" y="82.027512"/>
     <use style="fill:#0000ff;stroke:#0000ff;" x="550.20006" xlink:href="#mc864c019a4" y="82.027759"/>
     <use style="fill:#0000ff;stroke:#0000ff;" x="555.15753" xlink:href="#mc864c019a4" y="82.027982"/>
     <use style="fill:#0000ff;stroke:#0000ff;" x="560.115" xlink:href="#mc864c019a4" y="82.028182"/>
    </g>
   </g>
   <g id="line2d_19">
    <path clip-path="url(#pca565ffd01)" d="M 64.368 14.191818 
L 69.32547 20.975635 
L 74.28294 27.08107 
L 79.24041 32.575961 
L 84.19788 37.521363 
L 89.15535 41.972225 
L 94.11282 45.978001 
L 99.07029 49.583193 
L 104.02776 52.827892 
L 108.98523 55.748122 
L 113.9427 58.376308 
L 118.90017 60.741621 
L 123.85764 62.870451 
L 128.81511 64.786404 
L 133.77258 66.510782 
L 138.73005 68.062716 
L 143.68752 69.459436 
L 148.64499 70.716477 
L 153.60246 71.847814 
L 158.55993 72.866065 
L 163.5174 73.782423 
L 168.47487 74.607199 
L 173.43234 75.349478 
L 178.38981 76.017528 
L 183.34728 76.618777 
L 188.30475 77.159895 
L 193.26222 77.646906 
L 198.21969 78.085215 
L 203.17716 78.479687 
L 208.13463 78.834718 
L 213.0921 79.154242 
L 218.04957 79.441822 
L 223.00704 79.700638 
L 227.96451 79.933567 
L 232.92198 80.143214 
L 237.87945 80.331886 
L 242.83692 80.501698 
L 247.79439 80.654524 
L 252.75186 80.792073 
L 257.70933 80.915864 
L 262.6668 81.027275 
L 267.62427 81.127546 
L 272.58174 81.217791 
L 277.53921 81.299007 
L 282.49668 81.372107 
L 287.45415 81.437895 
L 292.41162 81.497103 
L 297.36909 81.550392 
L 302.32656 81.59835 
L 307.28403 81.641514 
L 312.2415 81.680361 
L 317.19897 81.715323 
L 322.15644 81.746789 
L 327.11391 81.775109 
L 332.07138 81.800596 
L 337.02885 81.823535 
L 341.98632 81.84418 
L 346.94379 81.862761 
L 351.90126 81.879483 
L 356.85873 81.894533 
L 361.8162 81.908078 
L 366.77367 81.920268 
L 371.73114 81.93124 
L 376.68861 81.941114 
L 381.64608 81.950001 
L 386.60355 81.957999 
L 391.56102 81.965198 
L 396.51849 81.971677 
L 401.47596 81.977507 
L 406.43343 81.982755 
L 411.3909 81.987478 
L 416.34837 81.991728 
L 421.30584 81.995554 
L 426.26331 81.998997 
L 431.22078 82.002096 
L 436.17825 82.004884 
L 441.13572 82.007394 
L 446.09319 82.009653 
L 451.05066 82.011686 
L 456.00813 82.013516 
L 460.9656 82.015163 
L 465.92307 82.016645 
L 470.88054 82.017979 
L 475.83801 82.019179 
L 480.79548 82.02026 
L 485.75295 82.021232 
L 490.71042 82.022107 
L 495.66789 82.022895 
L 500.62536 82.023604 
L 505.58283 82.024242 
L 510.5403 82.024816 
L 515.49777 82.025333 
L 520.45524 82.025798 
L 525.41271 82.026216 
L 530.37018 82.026593 
L 535.32765 82.026932 
L 540.28512 82.027237 
L 545.24259 82.027512 
L 550.20006 82.027759 
L 555.15753 82.027982 
L 560.115 82.028182 
" style="fill:none;stroke:#0000ff;stroke-linecap:square;stroke-width:0.9;"/>
   </g>
  </g>
 </g>
 <defs>
  <clipPath id="pca565ffd01">
   <rect height="74.62" width="495.747" x="64.368" y="10.8"/>
  </clipPath>
 </defs>
</svg>
