<?xml version="1.0" encoding="utf-8" standalone="no"?>
<!DOCTYPE svg PUBLIC "-//W3C//DTD SVG 1.1//EN"
  "http://www.w3.org/Graphics/SVG/1.1/DTD/svg11.dtd">
<!-- Created with matplotlib (http://matplotlib.org/) -->
<svg height="108pt" version="1.1" viewBox="0 0 576 108" width="576pt" xmlns="http://www.w3.org/2000/svg" xmlns:xlink="http://www.w3.org/1999/xlink">
 <defs>
  <style type="text/css">
*{stroke-linecap:butt;stroke-linejoin:round;}
  </style>
 </defs>
 <g id="figure_1">
  <g id="patch_1">
   <path d="M 0 108 
L 576 108 
L 576 0 
L 0 0 
z
" style="fill:#ffffff;"/>
  </g>
  <g id="axes_1">
   <g id="patch_2">
    <path d="M 64.368 86.5 
L 561.161715 86.5 
L 561.161715 12.24 
L 64.368 12.24 
z
" style="fill:#ffffff;"/>
   </g>
   <g id="matplotlib.axis_1">
    <g id="xtick_1">
     <g id="line2d_1">
      <path clip-path="url(#p8f852162f2)" d="M 65.482797 86.5 
L 65.482797 12.24 
" style="fill:none;stroke:#cccccc;stroke-linecap:square;stroke-width:0.8;"/>
     </g>
     <g id="line2d_2">
      <defs>
       <path d="M 0 0 
L 0 -3.5 
" id="me4d8333bc4" style="stroke:#000000;stroke-width:0.8;"/>
      </defs>
      <g>
       <use style="stroke:#000000;stroke-width:0.8;" x="65.482797" xlink:href="#me4d8333bc4" y="86.5"/>
      </g>
     </g>
     <g id="text_1">
      <!-- 0 -->
      <defs>
       <path d="M 31.78125 66.40625 
Q 24.171875 66.40625 20.328125 58.90625 
Q 16.5 51.421875 16.5 36.375 
Q 16.5 21.390625 20.328125 13.890625 
Q 24.171875 6.390625 31.78125 6.390625 
Q 39.453125 6.390625 43.28125 13.890625 
Q 47.125 21.390625 47.125 36.375 
Q 47.125 51.421875 43.28125 58.90625 
Q 39.453125 66.40625 31.78125 66.40625 
z
M 31.78125 74.21875 
Q 44.046875 74.21875 50.515625 64.515625 
Q 56.984375 54.828125 56.984375 36.375 
Q 56.984375 17.96875 50.515625 8.265625 
Q 44.046875 -1.421875 31.78125 -1.421875 
Q 19.53125 -1.421875 13.0625 8.265625 
Q 6.59375 17.96875 6.59375 36.375 
Q 6.59375 54.828125 13.0625 64.515625 
Q 19.53125 74.21875 31.78125 74.21875 
z
" id="DejaVuSans-30"/>
      </defs>
      <g transform="translate(62.937797 96.07875)scale(0.08 -0.08)">
       <use xlink:href="#DejaVuSans-30"/>
      </g>
     </g>
    </g>
    <g id="xtick_2">
     <g id="line2d_3">
      <path clip-path="url(#p8f852162f2)" d="M 164.395621 86.5 
L 164.395621 12.24 
" style="fill:none;stroke:#cccccc;stroke-linecap:square;stroke-width:0.8;"/>
     </g>
     <g id="line2d_4">
      <g>
       <use style="stroke:#000000;stroke-width:0.8;" x="164.395621" xlink:href="#me4d8333bc4" y="86.5"/>
      </g>
     </g>
     <g id="text_2">
      <!-- 2 -->
      <defs>
       <path d="M 19.1875 8.296875 
L 53.609375 8.296875 
L 53.609375 0 
L 7.328125 0 
L 7.328125 8.296875 
Q 12.9375 14.109375 22.625 23.890625 
Q 32.328125 33.6875 34.8125 36.53125 
Q 39.546875 41.84375 41.421875 45.53125 
Q 43.3125 49.21875 43.3125 52.78125 
Q 43.3125 58.59375 39.234375 62.25 
Q 35.15625 65.921875 28.609375 65.921875 
Q 23.96875 65.921875 18.8125 64.3125 
Q 13.671875 62.703125 7.8125 59.421875 
L 7.8125 69.390625 
Q 13.765625 71.78125 18.9375 73 
Q 24.125 74.21875 28.421875 74.21875 
Q 39.75 74.21875 46.484375 68.546875 
Q 53.21875 62.890625 53.21875 53.421875 
Q 53.21875 48.921875 51.53125 44.890625 
Q 49.859375 40.875 45.40625 35.40625 
Q 44.1875 33.984375 37.640625 27.21875 
Q 31.109375 20.453125 19.1875 8.296875 
z
" id="DejaVuSans-32"/>
      </defs>
      <g transform="translate(161.850621 96.07875)scale(0.08 -0.08)">
       <use xlink:href="#DejaVuSans-32"/>
      </g>
     </g>
    </g>
    <g id="xtick_3">
     <g id="line2d_5">
      <path clip-path="url(#p8f852162f2)" d="M 263.308445 86.5 
L 263.308445 12.24 
" style="fill:none;stroke:#cccccc;stroke-linecap:square;stroke-width:0.8;"/>
     </g>
     <g id="line2d_6">
      <g>
       <use style="stroke:#000000;stroke-width:0.8;" x="263.308445" xlink:href="#me4d8333bc4" y="86.5"/>
      </g>
     </g>
     <g id="text_3">
      <!-- 4 -->
      <defs>
       <path d="M 37.796875 64.3125 
L 12.890625 25.390625 
L 37.796875 25.390625 
z
M 35.203125 72.90625 
L 47.609375 72.90625 
L 47.609375 25.390625 
L 58.015625 25.390625 
L 58.015625 17.1875 
L 47.609375 17.1875 
L 47.609375 0 
L 37.796875 0 
L 37.796875 17.1875 
L 4.890625 17.1875 
L 4.890625 26.703125 
z
" id="DejaVuSans-34"/>
      </defs>
      <g transform="translate(260.763445 96.07875)scale(0.08 -0.08)">
       <use xlink:href="#DejaVuSans-34"/>
      </g>
     </g>
    </g>
    <g id="xtick_4">
     <g id="line2d_7">
      <path clip-path="url(#p8f852162f2)" d="M 362.221269 86.5 
L 362.221269 12.24 
" style="fill:none;stroke:#cccccc;stroke-linecap:square;stroke-width:0.8;"/>
     </g>
     <g id="line2d_8">
      <g>
       <use style="stroke:#000000;stroke-width:0.8;" x="362.221269" xlink:href="#me4d8333bc4" y="86.5"/>
      </g>
     </g>
     <g id="text_4">
      <!-- 6 -->
      <defs>
       <path d="M 33.015625 40.375 
Q 26.375 40.375 22.484375 35.828125 
Q 18.609375 31.296875 18.609375 23.390625 
Q 18.609375 15.53125 22.484375 10.953125 
Q 26.375 6.390625 33.015625 6.390625 
Q 39.65625 6.390625 43.53125 10.953125 
Q 47.40625 15.53125 47.40625 23.390625 
Q 47.40625 31.296875 43.53125 35.828125 
Q 39.65625 40.375 33.015625 40.375 
z
M 52.59375 71.296875 
L 52.59375 62.3125 
Q 48.875 64.0625 45.09375 64.984375 
Q 41.3125 65.921875 37.59375 65.921875 
Q 27.828125 65.921875 22.671875 59.328125 
Q 17.53125 52.734375 16.796875 39.40625 
Q 19.671875 43.65625 24.015625 45.921875 
Q 28.375 48.1875 33.59375 48.1875 
Q 44.578125 48.1875 50.953125 41.515625 
Q 57.328125 34.859375 57.328125 23.390625 
Q 57.328125 12.15625 50.6875 5.359375 
Q 44.046875 -1.421875 33.015625 -1.421875 
Q 20.359375 -1.421875 13.671875 8.265625 
Q 6.984375 17.96875 6.984375 36.375 
Q 6.984375 53.65625 15.1875 63.9375 
Q 23.390625 74.21875 37.203125 74.21875 
Q 40.921875 74.21875 44.703125 73.484375 
Q 48.484375 72.75 52.59375 71.296875 
z
" id="DejaVuSans-36"/>
      </defs>
      <g transform="translate(359.676269 96.07875)scale(0.08 -0.08)">
       <use xlink:href="#DejaVuSans-36"/>
      </g>
     </g>
    </g>
    <g id="xtick_5">
     <g id="line2d_9">
      <path clip-path="url(#p8f852162f2)" d="M 461.134093 86.5 
L 461.134093 12.24 
" style="fill:none;stroke:#cccccc;stroke-linecap:square;stroke-width:0.8;"/>
     </g>
     <g id="line2d_10">
      <g>
       <use style="stroke:#000000;stroke-width:0.8;" x="461.134093" xlink:href="#me4d8333bc4" y="86.5"/>
      </g>
     </g>
     <g id="text_5">
      <!-- 8 -->
      <defs>
       <path d="M 31.78125 34.625 
Q 24.75 34.625 20.71875 30.859375 
Q 16.703125 27.09375 16.703125 20.515625 
Q 16.703125 13.921875 20.71875 10.15625 
Q 24.75 6.390625 31.78125 6.390625 
Q 38.8125 6.390625 42.859375 10.171875 
Q 46.921875 13.96875 46.921875 20.515625 
Q 46.921875 27.09375 42.890625 30.859375 
Q 38.875 34.625 31.78125 34.625 
z
M 21.921875 38.8125 
Q 15.578125 40.375 12.03125 44.71875 
Q 8.5 49.078125 8.5 55.328125 
Q 8.5 64.0625 14.71875 69.140625 
Q 20.953125 74.21875 31.78125 74.21875 
Q 42.671875 74.21875 48.875 69.140625 
Q 55.078125 64.0625 55.078125 55.328125 
Q 55.078125 49.078125 51.53125 44.71875 
Q 48 40.375 41.703125 38.8125 
Q 48.828125 37.15625 52.796875 32.3125 
Q 56.78125 27.484375 56.78125 20.515625 
Q 56.78125 9.90625 50.3125 4.234375 
Q 43.84375 -1.421875 31.78125 -1.421875 
Q 19.734375 -1.421875 13.25 4.234375 
Q 6.78125 9.90625 6.78125 20.515625 
Q 6.78125 27.484375 10.78125 32.3125 
Q 14.796875 37.15625 21.921875 38.8125 
z
M 18.3125 54.390625 
Q 18.3125 48.734375 21.84375 45.5625 
Q 25.390625 42.390625 31.78125 42.390625 
Q 38.140625 42.390625 41.71875 45.5625 
Q 45.3125 48.734375 45.3125 54.390625 
Q 45.3125 60.0625 41.71875 63.234375 
Q 38.140625 66.40625 31.78125 66.40625 
Q 25.390625 66.40625 21.84375 63.234375 
Q 18.3125 60.0625 18.3125 54.390625 
z
" id="DejaVuSans-38"/>
      </defs>
      <g transform="translate(458.589093 96.07875)scale(0.08 -0.08)">
       <use xlink:href="#DejaVuSans-38"/>
      </g>
     </g>
    </g>
    <g id="xtick_6">
     <g id="line2d_11">
      <path clip-path="url(#p8f852162f2)" d="M 560.046917 86.5 
L 560.046917 12.24 
" style="fill:none;stroke:#cccccc;stroke-linecap:square;stroke-width:0.8;"/>
     </g>
     <g id="line2d_12">
      <g>
       <use style="stroke:#000000;stroke-width:0.8;" x="560.046917" xlink:href="#me4d8333bc4" y="86.5"/>
      </g>
     </g>
     <g id="text_6">
      <!-- 10 -->
      <defs>
       <path d="M 12.40625 8.296875 
L 28.515625 8.296875 
L 28.515625 63.921875 
L 10.984375 60.40625 
L 10.984375 69.390625 
L 28.421875 72.90625 
L 38.28125 72.90625 
L 38.28125 8.296875 
L 54.390625 8.296875 
L 54.390625 0 
L 12.40625 0 
z
" id="DejaVuSans-31"/>
      </defs>
      <g transform="translate(554.956917 96.07875)scale(0.08 -0.08)">
       <use xlink:href="#DejaVuSans-31"/>
       <use x="63.623047" xlink:href="#DejaVuSans-30"/>
      </g>
     </g>
    </g>
   </g>
   <g id="matplotlib.axis_2">
    <g id="ytick_1">
     <g id="line2d_13">
      <path clip-path="url(#p8f852162f2)" d="M 64.368 82.90444 
L 561.161715 82.90444 
" style="fill:none;stroke:#cccccc;stroke-linecap:square;stroke-width:0.8;"/>
     </g>
     <g id="line2d_14">
      <defs>
       <path d="M 0 0 
L 3.5 0 
" id="medfb3ef6fa" style="stroke:#000000;stroke-width:0.8;"/>
      </defs>
      <g>
       <use style="stroke:#000000;stroke-width:0.8;" x="64.368" xlink:href="#medfb3ef6fa" y="82.90444"/>
      </g>
     </g>
     <g id="text_7">
      <!-- 0.0 -->
      <defs>
       <path d="M 10.6875 12.40625 
L 21 12.40625 
L 21 0 
L 10.6875 0 
z
" id="DejaVuSans-2e"/>
      </defs>
      <g transform="translate(48.1455 85.943815)scale(0.08 -0.08)">
       <use xlink:href="#DejaVuSans-30"/>
       <use x="63.623047" xlink:href="#DejaVuSans-2e"/>
       <use x="95.410156" xlink:href="#DejaVuSans-30"/>
      </g>
     </g>
    </g>
    <g id="ytick_2">
     <g id="line2d_15">
      <path clip-path="url(#p8f852162f2)" d="M 64.368 49.371522 
L 561.161715 49.371522 
" style="fill:none;stroke:#cccccc;stroke-linecap:square;stroke-width:0.8;"/>
     </g>
     <g id="line2d_16">
      <g>
       <use style="stroke:#000000;stroke-width:0.8;" x="64.368" xlink:href="#medfb3ef6fa" y="49.371522"/>
      </g>
     </g>
     <g id="text_8">
      <!-- 0.5 -->
      <defs>
       <path d="M 10.796875 72.90625 
L 49.515625 72.90625 
L 49.515625 64.59375 
L 19.828125 64.59375 
L 19.828125 46.734375 
Q 21.96875 47.46875 24.109375 47.828125 
Q 26.265625 48.1875 28.421875 48.1875 
Q 40.625 48.1875 47.75 41.5 
Q 54.890625 34.8125 54.890625 23.390625 
Q 54.890625 11.625 47.5625 5.09375 
Q 40.234375 -1.421875 26.90625 -1.421875 
Q 22.3125 -1.421875 17.546875 -0.640625 
Q 12.796875 0.140625 7.71875 1.703125 
L 7.71875 11.625 
Q 12.109375 9.234375 16.796875 8.0625 
Q 21.484375 6.890625 26.703125 6.890625 
Q 35.15625 6.890625 40.078125 11.328125 
Q 45.015625 15.765625 45.015625 23.390625 
Q 45.015625 31 40.078125 35.4375 
Q 35.15625 39.890625 26.703125 39.890625 
Q 22.75 39.890625 18.8125 39.015625 
Q 14.890625 38.140625 10.796875 36.28125 
z
" id="DejaVuSans-35"/>
      </defs>
      <g transform="translate(48.1455 52.410897)scale(0.08 -0.08)">
       <use xlink:href="#DejaVuSans-30"/>
       <use x="63.623047" xlink:href="#DejaVuSans-2e"/>
       <use x="95.410156" xlink:href="#DejaVuSans-35"/>
      </g>
     </g>
    </g>
    <g id="ytick_3">
     <g id="line2d_17">
      <path clip-path="url(#p8f852162f2)" d="M 64.368 15.838605 
L 561.161715 15.838605 
" style="fill:none;stroke:#cccccc;stroke-linecap:square;stroke-width:0.8;"/>
     </g>
     <g id="line2d_18">
      <g>
       <use style="stroke:#000000;stroke-width:0.8;" x="64.368" xlink:href="#medfb3ef6fa" y="15.838605"/>
      </g>
     </g>
     <g id="text_9">
      <!-- 1.0 -->
      <g transform="translate(48.1455 18.87798)scale(0.08 -0.08)">
       <use xlink:href="#DejaVuSans-31"/>
       <use x="63.623047" xlink:href="#DejaVuSans-2e"/>
       <use x="95.410156" xlink:href="#DejaVuSans-30"/>
      </g>
     </g>
    </g>
    <g id="text_10">
     <!-- x -->
     <defs>
      <path d="M 54.890625 54.6875 
L 35.109375 28.078125 
L 55.90625 0 
L 45.3125 0 
L 29.390625 21.484375 
L 13.484375 0 
L 2.875 0 
L 24.125 28.609375 
L 4.6875 54.6875 
L 15.28125 54.6875 
L 29.78125 35.203125 
L 44.28125 54.6875 
z
" id="DejaVuSans-78"/>
     </defs>
     <g transform="translate(4.752754 47.70625)scale(0.08 -0.08)">
      <use xlink:href="#DejaVuSans-78"/>
     </g>
    </g>
   </g>
   <g id="patch_3">
    <path d="M 64.368 86.5 
L 64.368 12.24 
" style="fill:none;stroke:#000000;stroke-linecap:square;stroke-linejoin:miter;stroke-width:0.5;"/>
   </g>
   <g id="patch_4">
    <path d="M 561.161715 86.5 
L 561.161715 12.24 
" style="fill:none;stroke:#000000;stroke-linecap:square;stroke-linejoin:miter;stroke-width:0.5;"/>
   </g>
   <g id="patch_5">
    <path d="M 64.368 86.5 
L 561.161715 86.5 
" style="fill:none;stroke:#000000;stroke-linecap:square;stroke-linejoin:miter;stroke-width:0.5;"/>
   </g>
   <g id="patch_6">
    <path d="M 64.368 12.24 
L 561.161715 12.24 
" style="fill:none;stroke:#000000;stroke-linecap:square;stroke-linejoin:miter;stroke-width:0.5;"/>
   </g>
   <g id="PathCollection_1">
    <defs>
     <path d="M 0 1.118034 
C 0.296506 1.118034 0.580908 1.000231 0.790569 0.790569 
C 1.000231 0.580908 1.118034 0.296506 1.118034 0 
C 1.118034 -0.296506 1.000231 -0.580908 0.790569 -0.790569 
C 0.580908 -1.000231 0.296506 -1.118034 0 -1.118034 
C -0.296506 -1.118034 -0.580908 -1.000231 -0.790569 -0.790569 
C -1.000231 -0.580908 -1.118034 -0.296506 -1.118034 0 
C -1.118034 0.296506 -1.000231 0.580908 -0.790569 0.790569 
C -0.580908 1.000231 -0.296506 1.118034 0 1.118034 
z
" id="m66d2c422ba" style="stroke:#0000ff;"/>
    </defs>
    <g clip-path="url(#p8f852162f2)">
     <use style="fill:#0000ff;stroke:#0000ff;" x="65.482797" xlink:href="#m66d2c422ba" y="15.838605"/>
     <use style="fill:#0000ff;stroke:#0000ff;" x="75.37408" xlink:href="#m66d2c422ba" y="27.997842"/>
     <use style="fill:#0000ff;stroke:#0000ff;" x="85.265362" xlink:href="#m66d2c422ba" y="37.952357"/>
     <use style="fill:#0000ff;stroke:#0000ff;" x="95.156645" xlink:href="#m66d2c422ba" y="46.100319"/>
     <use style="fill:#0000ff;stroke:#0000ff;" x="105.047927" xlink:href="#m66d2c422ba" y="52.771291"/>
     <use style="fill:#0000ff;stroke:#0000ff;" x="114.939209" xlink:href="#m66d2c422ba" y="58.233803"/>
     <use style="fill:#0000ff;stroke:#0000ff;" x="124.830492" xlink:href="#m66d2c422ba" y="62.706557"/>
     <use style="fill:#0000ff;stroke:#0000ff;" x="134.721774" xlink:href="#m66d2c422ba" y="66.368486"/>
     <use style="fill:#0000ff;stroke:#0000ff;" x="144.613057" xlink:href="#m66d2c422ba" y="69.366329"/>
     <use style="fill:#0000ff;stroke:#0000ff;" x="154.504339" xlink:href="#m66d2c422ba" y="71.82067"/>
     <use style="fill:#0000ff;stroke:#0000ff;" x="164.395621" xlink:href="#m66d2c422ba" y="73.83003"/>
     <use style="fill:#0000ff;stroke:#0000ff;" x="174.286904" xlink:href="#m66d2c422ba" y="75.475088"/>
     <use style="fill:#0000ff;stroke:#0000ff;" x="184.178186" xlink:href="#m66d2c422ba" y="76.821642"/>
     <use style="fill:#0000ff;stroke:#0000ff;" x="194.069469" xlink:href="#m66d2c422ba" y="77.923983"/>
     <use style="fill:#0000ff;stroke:#0000ff;" x="203.960751" xlink:href="#m66d2c422ba" y="78.826689"/>
     <use style="fill:#0000ff;stroke:#0000ff;" x="213.852033" xlink:href="#m66d2c422ba" y="79.565976"/>
     <use style="fill:#0000ff;stroke:#0000ff;" x="223.743316" xlink:href="#m66d2c422ba" y="80.171218"/>
     <use style="fill:#0000ff;stroke:#0000ff;" x="233.634598" xlink:href="#m66d2c422ba" y="80.6666"/>
     <use style="fill:#0000ff;stroke:#0000ff;" x="243.525881" xlink:href="#m66d2c422ba" y="81.072188"/>
     <use style="fill:#0000ff;stroke:#0000ff;" x="253.417163" xlink:href="#m66d2c422ba" y="81.404378"/>
     <use style="fill:#0000ff;stroke:#0000ff;" x="263.308445" xlink:href="#m66d2c422ba" y="81.67639"/>
     <use style="fill:#0000ff;stroke:#0000ff;" x="273.199728" xlink:href="#m66d2c422ba" y="81.898982"/>
     <use style="fill:#0000ff;stroke:#0000ff;" x="283.09101" xlink:href="#m66d2c422ba" y="82.081173"/>
     <use style="fill:#0000ff;stroke:#0000ff;" x="292.982293" xlink:href="#m66d2c422ba" y="82.230408"/>
     <use style="fill:#0000ff;stroke:#0000ff;" x="302.873575" xlink:href="#m66d2c422ba" y="82.352639"/>
     <use style="fill:#0000ff;stroke:#0000ff;" x="312.764857" xlink:href="#m66d2c422ba" y="82.452708"/>
     <use style="fill:#0000ff;stroke:#0000ff;" x="322.65614" xlink:href="#m66d2c422ba" y="82.534608"/>
     <use style="fill:#0000ff;stroke:#0000ff;" x="332.547422" xlink:href="#m66d2c422ba" y="82.601651"/>
     <use style="fill:#0000ff;stroke:#0000ff;" x="342.438705" xlink:href="#m66d2c422ba" y="82.656543"/>
     <use style="fill:#0000ff;stroke:#0000ff;" x="352.329987" xlink:href="#m66d2c422ba" y="82.70149"/>
     <use style="fill:#0000ff;stroke:#0000ff;" x="362.221269" xlink:href="#m66d2c422ba" y="82.738283"/>
     <use style="fill:#0000ff;stroke:#0000ff;" x="372.112552" xlink:href="#m66d2c422ba" y="82.768399"/>
     <use style="fill:#0000ff;stroke:#0000ff;" x="382.003834" xlink:href="#m66d2c422ba" y="82.793054"/>
     <use style="fill:#0000ff;stroke:#0000ff;" x="391.895117" xlink:href="#m66d2c422ba" y="82.813243"/>
     <use style="fill:#0000ff;stroke:#0000ff;" x="401.786399" xlink:href="#m66d2c422ba" y="82.829774"/>
     <use style="fill:#0000ff;stroke:#0000ff;" x="411.677681" xlink:href="#m66d2c422ba" y="82.843309"/>
     <use style="fill:#0000ff;stroke:#0000ff;" x="421.568964" xlink:href="#m66d2c422ba" y="82.854388"/>
     <use style="fill:#0000ff;stroke:#0000ff;" x="431.460246" xlink:href="#m66d2c422ba" y="82.86346"/>
     <use style="fill:#0000ff;stroke:#0000ff;" x="441.351529" xlink:href="#m66d2c422ba" y="82.870888"/>
     <use style="fill:#0000ff;stroke:#0000ff;" x="451.242811" xlink:href="#m66d2c422ba" y="82.876969"/>
     <use style="fill:#0000ff;stroke:#0000ff;" x="461.134093" xlink:href="#m66d2c422ba" y="82.881949"/>
     <use style="fill:#0000ff;stroke:#0000ff;" x="471.025376" xlink:href="#m66d2c422ba" y="82.886025"/>
     <use style="fill:#0000ff;stroke:#0000ff;" x="480.916658" xlink:href="#m66d2c422ba" y="82.889363"/>
     <use style="fill:#0000ff;stroke:#0000ff;" x="490.80794" xlink:href="#m66d2c422ba" y="82.892096"/>
     <use style="fill:#0000ff;stroke:#0000ff;" x="500.699223" xlink:href="#m66d2c422ba" y="82.894333"/>
     <use style="fill:#0000ff;stroke:#0000ff;" x="510.590505" xlink:href="#m66d2c422ba" y="82.896165"/>
     <use style="fill:#0000ff;stroke:#0000ff;" x="520.481788" xlink:href="#m66d2c422ba" y="82.897665"/>
     <use style="fill:#0000ff;stroke:#0000ff;" x="530.37307" xlink:href="#m66d2c422ba" y="82.898893"/>
     <use style="fill:#0000ff;stroke:#0000ff;" x="540.264352" xlink:href="#m66d2c422ba" y="82.899898"/>
     <use style="fill:#0000ff;stroke:#0000ff;" x="550.155635" xlink:href="#m66d2c422ba" y="82.900721"/>
     <use style="fill:#0000ff;stroke:#0000ff;" x="560.046917" xlink:href="#m66d2c422ba" y="82.901395"/>
    </g>
   </g>
   <g id="line2d_19">
    <path clip-path="url(#p8f852162f2)" d="M 65.482797 15.838605 
L 75.37408 27.997842 
L 85.265362 37.952357 
L 95.156645 46.100319 
L 105.047927 52.771291 
L 114.939209 58.233803 
L 124.830492 62.706557 
L 134.721774 66.368486 
L 144.613057 69.366329 
L 154.504339 71.82067 
L 164.395621 73.83003 
L 174.286904 75.475088 
L 184.178186 76.821642 
L 194.069469 77.923983 
L 203.960751 78.826689 
L 213.852033 79.565976 
L 223.743316 80.171218 
L 233.634598 80.6666 
L 243.525881 81.072188 
L 253.417163 81.404378 
L 263.308445 81.67639 
L 273.199728 81.898982 
L 283.09101 82.081173 
L 292.982293 82.230408 
L 302.873575 82.352639 
L 312.764857 82.452708 
L 322.65614 82.534608 
L 332.547422 82.601651 
L 342.438705 82.656543 
L 352.329987 82.70149 
L 362.221269 82.738283 
L 372.112552 82.768399 
L 382.003834 82.793054 
L 391.895117 82.813243 
L 401.786399 82.829774 
L 411.677681 82.843309 
L 421.568964 82.854388 
L 431.460246 82.86346 
L 441.351529 82.870888 
L 451.242811 82.876969 
L 461.134093 82.881949 
L 471.025376 82.886025 
L 480.916658 82.889363 
L 490.80794 82.892096 
L 500.699223 82.894333 
L 510.590505 82.896165 
L 520.481788 82.897665 
L 530.37307 82.898893 
L 540.264352 82.899898 
L 550.155635 82.900721 
L 560.046917 82.901395 
" style="fill:none;stroke:#0000ff;stroke-linecap:square;stroke-width:0.9;"/>
   </g>
  </g>
 </g>
 <defs>
  <clipPath id="p8f852162f2">
   <rect height="74.26" width="496.793715" x="64.368" y="12.24"/>
  </clipPath>
 </defs>
</svg>
