<svg width="2605" height="1816" xmlns="http://www.w3.org/2000/svg" xmlns:xlink="http://www.w3.org/1999/xlink" xml:space="preserve" overflow="hidden"><defs><clipPath id="clip0"><rect x="1285" y="142" width="2605" height="1816"/></clipPath></defs><g clip-path="url(#clip0)" transform="translate(-1285 -142)"><rect x="1286" y="143" width="2602" height="1813" fill="#FFFFFF"/><g><path d="M1387.5 1905.5 3615.5 1905.5M1387.5 1746.56 3615.5 1746.56M1387.5 1427.55 3615.5 1427.55M1387.5 1268.54 3615.5 1268.54M1387.5 1109.54 3615.5 1109.54M1387.5 949.531 3615.5 949.531M1387.5 790.526 3615.5 790.526M1387.5 631.521 3615.5 631.521M1387.5 471.516 3615.5 471.516M1387.5 312.5 3615.5 312.5" stroke="#D9D9D9" stroke-width="3.4375" stroke-linejoin="round" stroke-miterlimit="10" fill="none"/></g><g><path d="M1387.5 1586.5 3615.5 1586.5" stroke="#D9D9D9" stroke-width="3.4375" stroke-linejoin="round" stroke-miterlimit="10" fill="none" fill-rule="evenodd"/></g><g><path d="M1388 1587 1391.05 1587 1393.05 1587 1395.05 1587 1397.05 1587 1399.05 1587 1402.05 1587 1404.05 1587 1406.05 1587 1408.05 1587 1411.05 1587 1413.05 1585.05 1415.05 1584.05 1417.05 1582.05 1419.05 1581.05 1422.05 1579.05 1424.05 1578.05 1426.05 1576.05 1428.05 1575.05 1431.05 1573.05 1433.05 1572.05 1435.05 1570.05 1437.05 1567.05 1439.05 1564.05 1442.05 1561.05 1444.05 1558.05 1446.05 1555.05 1448.05 1553.05 1451.05 1550.05 1453.05 1547.05 1455.05 1544.05 1457.05 1541.05 1460.05 1539.05 1462.05 1534.05 1464.05 1530.05 1466.05 1526.05 1468.05 1522.05 1471.05 1518.05 1473.05 1513.05 1475.05 1509.05 1477.05 1505.05 1480.05 1501.05 1482.05 1498.05 1484.05 1494.05 1486.05 1488.05 1488.05 1483.05 1491.05 1478.05 1493.05 1472.05 1495.05 1467.05 1497.05 1462.05 1500.05 1457.05 1502.05 1452.05 1504.05 1447.05 1506.05 1442.05 1508.05 1437.05 1511.05 1430.05 1513.05 1424.05 1515.05 1418.05 1517.05 1411.05 1520.05 1405.05 1522.05 1399.05 1524.05 1393.05 1526.05 1387.05 1529.05 1381.05 1531.05 1375.05 1533.05 1369.04 1535.05 1362.04 1537.05 1354.04 1540.05 1347.04 1542.05 1340.04 1544.05 1333.04 1546.05 1326.04 1549.05 1319.04 1551.05 1312.04 1553.05 1305.04 1555.05 1299.04 1557.05 1292.04 1560.05 1284.04 1562.05 1276.04 1564.05 1268.04 1566.05 1260.04 1569.05 1252.04 1571.05 1244.04 1573.05 1236.04 1575.05 1229.04 1578.05 1221.04 1580.05 1213.04 1582.05 1206.04 1584.05 1202.04 1586.05 1198.04 1589.05 1194.04 1591.05 1190.04 1593.05 1186.04 1595.05 1182.04 1598.05 1178.04 1600.05 1174.04 1602.05 1170.04 1604.05 1166.04 1606.05 1163.04 1609.05 1160.04 1611.05 1158.04 1613.05 1156.04 1615.05 1154.04 1618.05 1152.04 1620.05 1150.04 1622.05 1148.04 1624.05 1146.04 1626.05 1144.04 1629.05 1142.04 1631.05 1140.04 1633.05 1140.04 1635.05 1140.04 1638.05 1139.04 1640.05 1139.04 1642.05 1139.04 1644.05 1138.04 1647.05 1138.04 1649.05 1138.04 1651.05 1138.04 1653.05 1137.04 1655.05 1137 1658.05 1138.04 1660.05 1140.04 1662.05 1141.04 1664.05 1142.04 1667.05 1143.04 1669.05 1145.04 1671.05 1146.04 1673.05 1147.04 1675.06 1148.04 1678.06 1150.04 1680.06 1151.04 1682.06 1154.04 1684.06 1156.04 1687.06 1159.04 1689.06 1162.04 1691.06 1164.04 1693.06 1167.04 1696.06 1170.04 1698.06 1172.04 1700.06 1175.04 1702.06 1177.04 1704.06 1180.04 1707.06 1184.04 1709.06 1188.04 1711.06 1192.04 1713.06 1196.04 1716.06 1200.04 1718.06 1204.04 1720.06 1207.04 1722.06 1211.04 1724.06 1215.04 1727.06 1219.04 1729.06 1222.04 1731.06 1228.04 1733.06 1233.04 1736.06 1238.04 1738.06 1243.04 1740.06 1248.04 1742.06 1253.04 1744.06 1258.04 1747.06 1263.04 1749.06 1268.04 1751.06 1272.04 1753.06 1277.04 1756.06 1279.04 1758.06 1280.04 1760.06 1282.04 1762.06 1283.04 1765.06 1285.04 1767.06 1286.04 1769.06 1287.04 1771.06 1289.04 1773.06 1290.04 1776.06 1292.04 1778.06 1293.04 1780.06 1293.04 1782.06 1292.04 1785.06 1292.04 1787.06 1292.04 1789.06 1292.04 1791.06 1291.04 1793.06 1291.04 1796.06 1291.04 1798.06 1291.04 1800.06 1291.04 1802.06 1290.04 1805.06 1289.04 1807.06 1287.04 1809.06 1285.04 1811.06 1283.04 1813.06 1281.04 1816.06 1280.04 1818.06 1278.04 1820.06 1276.04 1822.06 1275.04 1825.06 1273.04 1827.06 1271.04 1829.06 1268.04 1831.06 1265.04 1834.06 1262.04 1836.06 1259.04 1838.06 1256.04 1840.06 1253.04 1842.06 1250.04 1845.06 1247.04 1847.06 1244.04 1849.06 1241.04 1851.06 1238.04 1854.06 1238.04 1856.06 1238.04 1858.06 1239.04 1860.06 1239.04 1862.06 1239.04 1865.06 1240.04 1867.06 1240.04 1869.06 1240.04 1871.06 1240.04 1874.06 1241.04 1876.06 1241.04 1878.06 1243.04 1880.06 1245.04 1883.06 1246.04 1885.06 1248.04 1887.06 1250.04 1889.06 1252.04 1891.06 1254.04 1894.06 1255.04 1896.06 1257.04 1898.06 1259.04 1900.06 1260.04 1903.06 1264.04 1905.06 1267.04 1907.06 1270.04 1909.06 1273.04 1911.06 1276.04 1914.06 1280.04 1916.06 1283.04 1918.06 1286.04 1920.06 1289.04 1923.06 1292.04 1925.06 1295.04 1927.06 1294.04 1929.06 1294.04 1931.06 1294.04 1934.06 1294.04 1936.06 1293.04 1938.06 1293.04 1940.06 1293.04 1943.06 1293.04 1945.06 1292.04 1947.06 1292.04 1949.06 1292.04 1952.06 1290.04 1954.06 1288.04 1956.06 1286.04 1958.06 1285.04 1960.06 1283.04 1963.06 1281.04 1965.06 1279.04 1967.06 1278.04 1969.06 1276.04 1972.06 1274.04 1974.06 1273.04 1976.06 1270.04 1978.06 1266.04 1980.06 1263.04 1983.07 1260.04 1985.07 1257.04 1987.07 1254.04 1989.07 1251.04 1992.07 1248.04 1994.07 1245.04 1996.07 1242.04 1998.07 1239.04 2001.07 1239.04 2003.07 1240.04 2005.07 1240.04 2007.07 1240.04 2009.07 1240.04 2012.07 1241.04 2014.07 1241.04 2016.07 1241.04 2018.07 1241.04 2021.07 1242.04 2023.07 1242.04 2025.07 1244.04 2027.07 1246.04 2029.07 1248.04 2032.07 1249.04 2034.07 1251.04 2036.07 1253.04 2038.07 1255.04 2041.07 1256.04 2043.07 1258.04 2045.07 1260.04 2047.07 1261.04 2049.07 1265.04 2052.07 1268.04 2054.07 1271.04 2056.07 1274.04 2058.07 1277.04 2061.07 1280.04 2063.07 1284.04 2065.07 1287.04 2067.07 1290.04 2070.07 1293.04 2072.07 1296.04 2074.07 1295.04 2076.07 1295.04 2078.07 1295.04 2081.07 1294.04 2083.07 1294.04 2085.07 1294.04 2087.07 1294.04 2090.07 1293.04 2092.07 1293.04 2094.07 1293.04 2096.07 1293.04 2098.07 1291.04 2101.07 1289.04 2103.07 1287.04 2105.07 1285.04 2107.07 1284.04 2110.07 1282.04 2112.07 1280.04 2114.07 1278.04 2116.07 1277.04 2118.07 1275.04 2121.07 1273.04 2123.07 1270.04 2125.07 1267.04 2127.07 1264.04 2130.07 1261.04 2132.07 1258.04 2134.07 1254.04 2136.07 1251.04 2139.07 1248.04 2141.07 1245.04 2143.07 1242.04 2145.07 1240.04 2147.07 1240.04 2150.07 1240.04 2152.07 1240.04 2154.07 1241.04 2156.07 1241.04 2159.07 1241.04 2161.07 1242.04 2163.07 1242.04 2165.07 1242.04 2167.07 1242.04 2170.07 1243.04 2172.07 1244.04 2174.07 1246.04 2176.07 1248.04 2179.07 1250.04 2181.07 1252.04 2183.07 1253.04 2185.07 1255.04 2188.07 1257.04 2190.07 1259.04 2192.07 1260.04 2194.07 1262.04 2196.07 1265.04 2199.07 1268.04 2201.07 1272.04 2203.07 1275.04 2205.07 1278.04 2208.07 1281.04 2210.07 1284.04 2212.07 1287.04 2214.07 1290.04 2216.07 1293.04 2219.07 1296.04 2221.07 1296.04 2223.07 1295.04 2225.07 1295.04 2228.07 1295.04 2230.07 1295.04 2232.07 1294.04 2234.07 1294.04 2236.07 1294.04 2239.07 1294.04 2241.07 1293.04 2243.07 1293.04 2245.07 1291.04 2248.07 1289.04 2250.07 1288.04 2252.07 1286.04 2254.07 1284.04 2257.07 1282.04 2259.07 1281.04 2261.07 1279.04 2263.07 1277.04 2265.07 1275.04 2268.07 1274.04 2270.07 1271.04 2272.07 1267.04 2274.07 1264.04 2277.07 1261.04 2279.07 1258.04 2281.07 1255.04 2283.07 1252.04 2285.07 1249.04 2288.08 1246.04 2290.08 1243.04 2292.08 1240.04 2294.08 1240.04 2297.08 1240.04 2299.08 1241.04 2301.08 1241.04 2303.08 1241.04 2306.08 1242.04 2308.08 1242.04 2310.08 1242.04 2312.08 1242.04 2314.08 1243.04 2317.08 1243.04 2319.08 1245.04 2321.08 1247.04 2323.08 1248.04 2326.08 1250.04 2328.08 1252.04 2330.08 1254.04 2332.08 1255.04 2334.08 1257.04 2337.08 1259.04 2339.08 1261.04 2341.08 1262.04 2343.08 1265.04 2346.08 1269.04 2348.08 1272.04 2350.08 1275.04 2352.08 1278.04 2354.08 1281.04 2357.08 1284.04 2359.08 1287.04 2361.08 1290.04 2363.08 1293.04 2366.08 1296.04 2368.08 1296.04 2370.08 1296.04 2372.08 1295.04 2375.08 1295.04 2377.08 1295.04 2379.08 1295.04 2381.08 1294.04 2383.08 1294.04 2386.08 1294.04 2388.08 1294.04 2390.08 1293.04 2392.08 1291.04 2395.08 1290.04 2397.08 1288.04 2399.08 1286.04 2401.08 1284.04 2403.08 1282.04 2406.08 1281.04 2408.08 1279.04 2410.08 1277.04 2412.08 1276.04 2415.08 1274.04 2417.08 1271.04 2419.08 1268.04 2421.08 1264.04 2423.08 1261.04 2426.08 1258.04 2428.08 1255.04 2430.08 1252.04 2432.08 1249.04 2435.08 1246.04 2437.08 1243.04 2439.08 1240.04 2441.08 1240.04 2444.08 1241.04 2446.08 1241.04 2448.08 1241.04 2450.08 1241.04 2452.08 1242.04 2455.08 1242.04 2457.08 1242.04 2459.08 1243.04 2461.08 1243.04 2464.08 1243.04 2466.08 1245.04 2468.08 1247.04 2470.08 1248.04 2472.08 1250.04 2475.08 1252.04 2477.08 1254.04 2479.08 1256.04 2481.08 1257.04 2484.08 1259.04 2486.08 1261.04 2488.08 1262.04 2490.08 1266.04 2493.08 1269.04 2495.08 1272.04 2497.08 1275.04 2499.08 1278.04 2501.08 1281.04 2504.08 1284.04 2506.08 1287.04 2508.08 1290.04 2510.08 1293.04 2513.08 1296.04 2515.08 1296.04 2517.08 1296.04 2519.08 1295.04 2521.08 1295.04 2524.08 1295.04 2526.08 1295.04 2528.08 1294.04 2530.08 1294.04 2533.08 1294.04 2535.08 1294.04 2537.08 1293.04 2539.08 1292.04 2541.08 1290.04 2544.08 1288.04 2546.08 1286.04 2548.08 1284.04 2550.08 1283.04 2553.08 1281.04 2555.08 1279.04 2557.08 1277.04 2559.08 1276.04 2562.08 1274.04 2564.08 1271.04 2566.08 1268.04 2568.08 1264.04 2570.08 1261.04 2573.08 1258.04 2575.08 1255.04 2577.08 1252.04 2579.08 1249.04 2582.08 1246.04 2584.08 1243.04 2586.08 1240.04 2588.08 1240.04 2590.08 1241.04 2593.08 1241.04 2595.09 1241.04 2597.09 1242.04 2599.09 1242.04 2602.09 1242.04 2604.09 1242.04 2606.09 1243.04 2608.09 1243.04 2611.09 1243.04 2613.09 1245.04 2615.09 1247.04 2617.09 1249.04 2619.09 1250.04 2622.09 1252.04 2624.09 1254.04 2626.09 1256.04 2628.09 1257.04 2631.09 1259.04 2633.09 1261.04 2635.09 1262.04 2637.09 1266.04 2639.09 1269.04 2642.09 1272.04 2644.09 1275.04 2646.09 1278.04 2648.09 1281.04 2651.09 1284.04 2653.09 1287.04 2655.09 1290.04 2657.09 1293.04 2659.09 1296.04 2662.09 1296.04 2664.09 1296.04 2666.09 1296.04 2668.09 1295.04 2671.09 1295.04 2673.09 1295.04 2675.09 1294.04 2677.09 1294.04 2680.09 1294.04 2682.09 1294.04 2684.09 1293.04 2686.09 1292.04 2688.09 1290.04 2691.09 1288.04 2693.09 1286.04 2695.09 1284.04 2697.09 1283.04 2700.09 1281.04 2702.09 1279.04 2704.09 1277.04 2706.09 1276.04 2708.09 1274.04 2711.09 1271.04 2713.09 1268.04 2715.09 1264.04 2717.09 1261.04 2720.09 1258.04 2722.09 1255.04 2724.09 1252.04 2726.09 1249.04 2728.09 1246.04 2731.09 1243.04 2733.09 1240.04 2735.09 1240.04 2737.09 1241.04 2740.09 1241.04 2742.09 1241.04 2744.09 1242.04 2746.09 1242.04 2749.09 1242.04 2751.09 1242.04 2753.09 1243.04 2755.09 1243.04 2757.09 1243.04 2760.09 1245.04 2762.09 1247.04 2764.09 1249.04 2766.09 1250.04 2769.09 1252.04 2771.09 1254.04 2773.09 1256.04 2775.09 1257.04 2777.09 1259.04 2780.09 1261.04 2782.09 1262.04 2784.09 1266.04 2786.09 1269.04 2789.09 1272.04 2791.09 1275.04 2793.09 1278.04 2795.09 1281.04 2798.09 1284.04 2800.09 1288.04 2802.09 1290.04 2804.09 1293.04 2806.09 1296.04 2809.09 1296.04 2811.09 1296.04 2813.09 1296.04 2815.09 1295.04 2818.09 1295.04 2820.09 1295.04 2822.09 1294.04 2824.09 1294.04 2826.09 1294.04 2829.09 1294.04 2831.09 1293.04 2833.09 1292.04 2835.09 1290.04 2838.09 1288.04 2840.09 1286.04 2842.09 1284.04 2844.09 1283.04 2846.09 1281.04 2849.09 1279.04 2851.09 1278.04 2853.09 1276.04 2855.09 1274.04 2858.09 1271.04 2860.09 1268.04 2862.09 1265.04 2864.09 1261.04 2867.09 1258.04 2869.09 1255.04 2871.09 1252.04 2873.09 1249.04 2875.09 1246.04 2878.09 1243.04 2880.09 1240.04 2882.09 1240.04 2884.09 1241.04 2887.09 1241.04 2889.09 1241.04 2891.09 1242.04 2893.09 1242.04 2895.09 1242.04 2898.1 1242.04 2900.1 1243.04 2902.1 1243.04 2904.1 1243.04 2907.1 1245.04 2909.1 1247.04 2911.1 1249.04 2913.1 1250.04 2916.1 1252.04 2918.1 1254.04 2920.1 1256.04 2922.1 1257.04 2924.1 1259.04 2927.1 1261.04 2929.1 1262.04 2931.1 1266.04 2933.1 1269.04 2936.1 1272.04 2938.1 1275.04 2940.1 1278.04 2942.1 1281.04 2944.1 1284.04 2947.1 1288.04 2949.1 1291.04 2951.1 1293.04 2953.1 1296.04 2956.1 1296.04 2958.1 1296.04 2960.1 1296.04 2962.1 1295.04 2964.1 1295.04 2967.1 1295.04 2969.1 1295.04 2971.1 1294.04 2973.1 1294.04 2976.1 1294.04 2978.1 1293.04 2980.1 1292.04 2982.1 1290.04 2985.1 1288.04 2987.1 1286.04 2989.1 1284.04 2991.1 1283.04 2993.1 1281.04 2996.1 1279.04 2998.1 1278.04 3000.1 1276.04 3002.1 1274.04 3005.1 1271.04 3007.1 1268.04 3009.1 1265.04 3011.1 1261.04 3013.1 1258.04 3016.1 1255.04 3018.1 1252.04 3020.1 1249.04 3022.1 1246.04 3025.1 1243.04 3027.1 1240.04 3029.1 1241.04 3031.1 1241.04 3034.1 1241.04 3036.1 1241.04 3038.1 1242.04 3040.1 1242.04 3042.1 1242.04 3045.1 1242.04 3047.1 1243.04 3049.1 1243.04 3051.1 1243.04 3054.1 1245.04 3056.1 1247.04 3058.1 1249.04 3060.1 1250.04 3062.1 1252.04 3065.1 1254.04 3067.1 1256.04 3069.1 1257.04 3071.1 1259.04 3074.1 1261.04 3076.1 1262.04 3078.1 1266.04 3080.1 1269.04 3082.1 1272.04 3085.1 1275.04 3087.1 1278.04 3089.1 1281.04 3091.1 1285.04 3094.1 1288.04 3096.1 1291.04 3098.1 1293.04 3100.1 1296.04 3103.1 1296.04 3105.1 1296.04 3107.1 1296.04 3109.1 1295.04 3111.1 1295.04 3114.1 1295.04 3116.1 1295.04 3118.1 1294.04 3120.1 1294.04 3123.1 1294.04 3125.1 1293.04 3127.1 1292.04 3129.1 1290.04 3131.1 1288.04 3134.1 1286.04 3136.1 1284.04 3138.1 1283.04 3140.1 1281.04 3143.1 1279.04 3145.1 1278.04 3147.1 1276.04 3149.1 1274.04 3151.1 1271.04 3154.1 1268.04 3156.1 1265.04 3158.1 1261.04 3160.1 1258.04 3163.1 1255.04 3165.1 1252.04 3167.1 1249.04 3169.1 1246.04 3172.1 1243.04 3174.1 1240.04 3176.1 1241.04 3178.1 1241.04 3180.1 1241.04 3183.1 1241.04 3185.1 1242.04 3187.1 1242.04 3189.1 1242.04 3192.1 1242.04 3194.1 1243.04 3196.1 1243.04 3198.1 1243.04 3200.1 1245.04 3203.1 1247.04 3205.11 1249.04 3207.11 1250.04 3209.11 1252.04 3212.11 1254.04 3214.11 1256.04 3216.11 1257.04 3218.11 1259.04 3221.11 1261.04 3223.11 1262.04 3225.11 1266.04 3227.11 1269.04 3229.11 1272.04 3232.11 1275.04 3234.11 1278.04 3236.11 1281.04 3238.11 1285.04 3241.11 1288.04 3243.11 1291.04 3245.11 1293.04 3247.11 1296.04 3249.11 1296.04 3252.11 1296.04 3254.11 1296.04 3256.11 1295.04 3258.11 1295.04 3261.11 1295.04 3263.11 1295.04 3265.11 1294.04 3267.11 1294.04 3269.11 1294.04 3272.11 1293.04 3274.11 1292.04 3276.11 1290.04 3278.11 1288.04 3281.11 1286.04 3283.11 1284.04 3285.11 1283.04 3287.11 1281.04 3290.11 1279.04 3292.11 1278.04 3294.11 1276.04 3296.11 1274.04 3298.11 1271.04 3301.11 1268.04 3303.11 1265.04 3305.11 1261.04 3307.11 1258.04 3310.11 1255.04 3312.11 1252.04 3314.11 1249.04 3316.11 1246.04 3318.11 1243.04 3321.11 1240.04 3323.11 1241.04 3325.11 1241.04 3327.11 1241.04 3330.11 1241.04 3332.11 1242.04 3334.11 1242.04 3336.11 1242.04 3339.11 1242.04 3341.11 1243.04 3343.11 1243.04 3345.11 1243.04 3347.11 1245.04 3350.11 1247.04 3352.11 1249.04 3354.11 1250.04 3356.11 1252.04 3359.11 1254.04 3361.11 1256.04 3363.11 1257.04 3365.11 1259.04 3367.11 1261.04 3370.11 1262.04 3372.11 1266.04 3374.11 1269.04 3376.11 1272.04 3379.11 1275.04 3381.11 1278.04 3383.11 1281.04 3385.11 1285.04 3387.11 1288.04 3390.11 1291.04 3392.11 1293.04 3394.11 1296.04 3396.11 1296.04 3399.11 1296.04 3401.11 1296.04 3403.11 1295.04 3405.11 1295.04 3408.11 1295.04 3410.11 1295.04 3412.11 1294.04 3414.11 1294.04 3416.11 1294.04 3419.11 1293.04 3421.11 1292.04 3423.11 1290.04 3425.11 1288.04 3428.11 1286.04 3430.11 1284.04 3432.11 1283.04 3434.11 1281.04 3436.11 1279.04 3439.11 1278.04 3441.11 1276.04 3443.11 1274.04 3445.11 1271.04 3448.11 1268.04 3450.11 1265.04 3452.11 1261.04 3454.11 1258.04 3456.11 1255.04 3459.11 1252.04 3461.11 1249.04 3463.11 1246.04 3465.11 1243.04 3468.11 1240.04 3470.11 1241.04 3472.11 1241.04 3474.11 1241.04 3477.11 1241.04 3479.11 1242.04 3481.11 1242.04 3483.11 1242.04 3485.11 1242.04 3488.11 1243.04 3490.11 1243.04 3492.11 1243.04 3494.11 1245.04 3497.11 1247.04 3499.11 1249.04 3501.11 1250.04 3503.11 1252.04 3505.12 1254.04 3508.12 1256.04 3510.12 1257.04 3512.12 1259.04 3514.12 1261.04 3517.12 1262.04 3519.12 1266.04 3521.12 1269.04 3523.12 1272.04 3526.12 1275.04 3528.12 1278.04 3530.12 1281.04 3532.12 1285.04 3534.12 1288.04 3537.12 1291.04 3539.12 1293.04 3541.12 1296.04 3543.12 1296.04 3546.12 1296.04 3548.12 1296.04 3550.12 1295.04 3552.12 1295.04 3554.12 1295.04 3557.12 1295.04 3559.12 1294.04 3561.12 1294.04 3563.12 1294.04 3566.12 1293.04 3568.12 1292.04 3570.12 1290.04 3572.12 1288.04 3574.12 1286.04 3577.12 1284.04 3579.12 1283.04 3581.12 1281.04 3583.12 1279.04 3586.12 1278.04 3588.12 1276.04 3590.12 1274.04 3592.12 1271.04 3595.12 1268.04 3597.12 1265.04 3599.12 1261.04 3601.12 1258.04 3603.12 1255.04 3606.12 1252.04 3608.12 1249.04 3610.12 1246.04 3612.12 1243.04 3615 1240.04" stroke="#ED7D31" stroke-width="10.3125" stroke-linecap="round" stroke-linejoin="round" stroke-miterlimit="10" fill="none"/></g><g><path d="M1388 1587 1391.05 1587 1393.05 1587 1395.05 1587 1397.05 1587 1399.05 1587 1402.05 1587 1404.05 1587 1406.05 1587 1408.05 1587 1411.05 1587 1413.05 1587 1415.05 1587 1417.05 1587 1419.05 1587 1422.05 1587 1424.05 1587 1426.05 1587 1428.05 1587 1431.05 1587 1433.05 1587 1435.05 1587 1437.05 1587 1439.05 1587 1442.05 1587 1444.05 1587 1446.05 1587 1448.05 1587 1451.05 1587 1453.05 1587 1455.05 1587 1457.05 1587 1460.05 1587 1462.05 1587 1464.05 1587 1466.05 1587 1468.05 1587 1471.05 1587 1473.05 1587 1475.05 1587 1477.05 1587 1480.05 1587 1482.05 1587 1484.05 1587 1486.05 1587 1488.05 1587 1491.05 1587 1493.05 1587 1495.05 1587 1497.05 1587 1500.05 1587 1502.05 1587 1504.05 1587 1506.05 1587 1508.05 1587 1511.05 1587 1513.05 1587 1515.05 1587 1517.05 1587 1520.05 1587 1522.05 1587 1524.05 1587 1526.05 1587 1529.05 1587 1531.05 1587 1533.05 1587 1535.05 1587 1537.05 1587 1540.05 1587 1542.05 1587 1544.05 1587 1546.05 1587 1549.05 1587 1551.05 1587 1553.05 1587 1555.05 1587 1557.05 1587 1560.05 1587 1562.05 1587 1564.05 1587 1566.05 1587 1569.05 1587 1571.05 1587 1573.05 1587 1575.05 1587 1578.05 1587 1580.05 1587 1582.05 1587 1584.05 1587 1586.05 1587 1589.05 1587 1591.05 1587 1593.05 1587 1595.05 1587 1598.05 1587 1600.05 1587 1602.05 1587 1604.05 1587 1606.05 1587 1609.05 1587 1611.05 1587 1613.05 1587 1615.05 1587 1618.05 1587 1620.05 1587 1622.05 1587 1624.05 1587 1626.05 1587 1629.05 1587 1631.05 1587 1633.05 1587 1635.05 1587 1638.05 1587 1640.05 1587 1642.05 1587 1644.05 1587 1647.05 1587 1649.05 1587 1651.05 1587 1653.05 1587 1655.05 1587 1658.05 1587 1660.05 1587 1662.05 1587 1664.05 1587 1667.05 1587 1669.05 1587 1671.05 1587 1673.05 1587 1675.06 1587 1678.06 1587 1680.06 1587 1682.06 1587 1684.06 1587 1687.06 1587 1689.06 1587 1691.06 1587 1693.06 1587 1696.06 1587 1698.06 1587 1700.06 1587 1702.06 1587 1704.06 1587 1707.06 1587 1709.06 1587 1711.06 1587 1713.06 1587 1716.06 1587 1718.06 1587 1720.06 1587 1722.06 1587 1724.06 1587 1727.06 1587 1729.06 1587 1731.06 1587 1733.06 1587 1736.06 1587 1738.06 1587 1740.06 1587 1742.06 1587 1744.06 1587 1747.06 1587 1749.06 1587 1751.06 1587 1753.06 1587 1756.06 1587 1758.06 1587 1760.06 1587 1762.06 1587 1765.06 1587 1767.06 1587 1769.06 1587 1771.06 1587 1773.06 1587 1776.06 1587 1778.06 1587 1780.06 1587 1782.06 1587 1785.06 1587 1787.06 1587 1789.06 1587 1791.06 1587 1793.06 1587 1796.06 1587 1798.06 1587 1800.06 1587 1802.06 1587 1805.06 1587 1807.06 1587 1809.06 1587 1811.06 1587 1813.06 1587 1816.06 1587 1818.06 1587 1820.06 1587 1822.06 1587 1825.06 1587 1827.06 1587 1829.06 1587 1831.06 1587 1834.06 1587 1836.06 1587 1838.06 1587 1840.06 1587 1842.06 1587 1845.06 1587 1847.06 1587 1849.06 1587 1851.06 1587 1854.06 1587 1856.06 1587 1858.06 1587 1860.06 1587 1862.06 1587 1865.06 1587 1867.06 1587 1869.06 1587 1871.06 1587 1874.06 1587 1876.06 1587 1878.06 1587 1880.06 1587 1883.06 1587 1885.06 1587 1887.06 1587 1889.06 1587 1891.06 1587 1894.06 1587 1896.06 1587 1898.06 1587 1900.06 1587 1903.06 1587 1905.06 1587 1907.06 1587 1909.06 1587 1911.06 1587 1914.06 1587 1916.06 1587 1918.06 1587 1920.06 1587 1923.06 1587 1925.06 1587 1927.06 1587 1929.06 1587 1931.06 1587 1934.06 1587 1936.06 1587 1938.06 1587 1940.06 1587 1943.06 1587 1945.06 1587 1947.06 1587 1949.06 1587 1952.06 1587 1954.06 1587 1956.06 1587 1958.06 1587 1960.06 1587 1963.06 1587 1965.06 1587 1967.06 1587 1969.06 1587 1972.06 1587 1974.06 1587 1976.06 1587 1978.06 1587 1980.06 1587 1983.07 1587 1985.07 1587 1987.07 1587 1989.07 1587 1992.07 1587 1994.07 1587 1996.07 1587 1998.07 1587 2001.07 1587 2003.07 1587 2005.07 1587 2007.07 1587 2009.07 1587 2012.07 1587 2014.07 1587 2016.07 1587 2018.07 1587 2021.07 1587 2023.07 1587 2025.07 1587 2027.07 1587 2029.07 1587 2032.07 1587 2034.07 1587 2036.07 1587 2038.07 1587 2041.07 1587 2043.07 1587 2045.07 1587 2047.07 1587 2049.07 1587 2052.07 1587 2054.07 1587 2056.07 1587 2058.07 1587 2061.07 1587 2063.07 1587 2065.07 1587 2067.07 1587 2070.07 1587 2072.07 1587 2074.07 1587 2076.07 1587 2078.07 1587 2081.07 1587 2083.07 1587 2085.07 1587 2087.07 1587 2090.07 1587 2092.07 1587 2094.07 1587 2096.07 1587 2098.07 1587 2101.07 1587 2103.07 1587 2105.07 1587 2107.07 1587 2110.07 1587 2112.07 1587 2114.07 1587 2116.07 1587 2118.07 1587 2121.07 1587 2123.07 1587 2125.07 1587 2127.07 1587 2130.07 1587 2132.07 1587 2134.07 1587 2136.07 1587 2139.07 1587 2141.07 1587 2143.07 1587 2145.07 1587 2147.07 1587 2150.07 1587 2152.07 1587 2154.07 1587 2156.07 1587 2159.07 1587 2161.07 1587 2163.07 1587 2165.07 1587 2167.07 1587 2170.07 1587 2172.07 1587 2174.07 1587 2176.07 1587 2179.07 1587 2181.07 1587 2183.07 1587 2185.07 1587 2188.07 1587 2190.07 1587 2192.07 1587 2194.07 1587 2196.07 1587 2199.07 1587 2201.07 1587 2203.07 1587 2205.07 1587 2208.07 1587 2210.07 1587 2212.07 1587 2214.07 1587 2216.07 1587 2219.07 1587 2221.07 1587 2223.07 1587 2225.07 1587 2228.07 1587 2230.07 1587 2232.07 1587 2234.07 1587 2236.07 1587 2239.07 1587 2241.07 1587 2243.07 1587 2245.07 1587 2248.07 1587 2250.07 1587 2252.07 1587 2254.07 1587 2257.07 1587 2259.07 1587 2261.07 1587 2263.07 1587 2265.07 1587 2268.07 1587 2270.07 1587 2272.07 1587 2274.07 1587 2277.07 1587 2279.07 1587 2281.07 1587 2283.07 1587 2285.07 1587 2288.08 1587 2290.08 1587 2292.08 1587 2294.08 1587 2297.08 1587 2299.08 1587 2301.08 1587 2303.08 1587 2306.08 1587 2308.08 1587 2310.08 1587 2312.08 1587 2314.08 1587 2317.08 1587 2319.08 1587 2321.08 1587 2323.08 1587 2326.08 1587 2328.08 1587 2330.08 1587 2332.08 1587 2334.08 1587 2337.08 1587 2339.08 1587 2341.08 1587 2343.08 1587 2346.08 1587 2348.08 1587 2350.08 1587 2352.08 1587 2354.08 1587 2357.08 1587 2359.08 1587 2361.08 1587 2363.08 1587 2366.08 1587 2368.08 1587 2370.08 1587 2372.08 1587 2375.08 1587 2377.08 1587 2379.08 1587 2381.08 1587 2383.08 1587 2386.08 1587 2388.08 1587 2390.08 1587 2392.08 1587 2395.08 1587 2397.08 1587 2399.08 1587 2401.08 1587 2403.08 1587 2406.08 1587 2408.08 1587 2410.08 1587 2412.08 1587 2415.08 1587 2417.08 1587 2419.08 1587 2421.08 1587 2423.08 1587 2426.08 1587 2428.08 1587 2430.08 1587 2432.08 1587 2435.08 1587 2437.08 1587 2439.08 1587 2441.08 1587 2444.08 1587 2446.08 1587 2448.08 1587 2450.08 1587 2452.08 1587 2455.08 1587 2457.08 1587 2459.08 1587 2461.08 1587 2464.08 1587 2466.08 1587 2468.08 1587 2470.08 1587 2472.08 1587 2475.08 1587 2477.08 1587 2479.08 1587 2481.08 1587 2484.08 1587 2486.08 1587 2488.08 1587 2490.08 1587 2493.08 1587 2495.08 1587 2497.08 1587 2499.08 1587 2501.08 1587 2504.08 1587 2506.08 1587 2508.08 1587 2510.08 1587 2513.08 1587 2515.08 1587 2517.08 1587 2519.08 1587 2521.08 1587 2524.08 1587 2526.08 1587 2528.08 1587 2530.08 1587 2533.08 1587 2535.08 1587 2537.08 1587 2539.08 1587 2541.08 1587 2544.08 1587 2546.08 1587 2548.08 1587 2550.08 1587 2553.08 1587 2555.08 1587 2557.08 1587 2559.08 1587 2562.08 1587 2564.08 1587 2566.08 1587 2568.08 1587 2570.08 1587 2573.08 1587 2575.08 1587 2577.08 1587 2579.08 1587 2582.08 1587 2584.08 1587 2586.08 1587 2588.08 1587 2590.08 1587 2593.08 1587 2595.09 1587 2597.09 1587 2599.09 1587 2602.09 1587 2604.09 1587 2606.09 1587 2608.09 1587 2611.09 1587 2613.09 1587 2615.09 1587 2617.09 1587 2619.09 1587 2622.09 1587 2624.09 1587 2626.09 1587 2628.09 1587 2631.09 1587 2633.09 1587 2635.09 1587 2637.09 1587 2639.09 1587 2642.09 1587 2644.09 1587 2646.09 1587 2648.09 1587 2651.09 1587 2653.09 1587 2655.09 1587 2657.09 1587 2659.09 1587 2662.09 1587 2664.09 1587 2666.09 1587 2668.09 1587 2671.09 1587 2673.09 1587 2675.09 1587 2677.09 1587 2680.09 1587 2682.09 1587 2684.09 1587 2686.09 1587 2688.09 1587 2691.09 1587 2693.09 1587 2695.09 1587 2697.09 1587 2700.09 1587 2702.09 1587 2704.09 1587 2706.09 1587 2708.09 1587 2711.09 1587 2713.09 1587 2715.09 1587 2717.09 1587 2720.09 1587 2722.09 1587 2724.09 1587 2726.09 1587 2728.09 1587 2731.09 1587 2733.09 1587 2735.09 1587 2737.09 1587 2740.09 1587 2742.09 1587 2744.09 1587 2746.09 1587 2749.09 1587 2751.09 1587 2753.09 1587 2755.09 1587 2757.09 1587 2760.09 1587 2762.09 1587 2764.09 1587 2766.09 1587 2769.09 1587 2771.09 1587 2773.09 1587 2775.09 1587 2777.09 1587 2780.09 1587 2782.09 1587 2784.09 1587 2786.09 1587 2789.09 1587 2791.09 1587 2793.09 1587 2795.09 1587 2798.09 1587 2800.09 1587 2802.09 1587 2804.09 1587 2806.09 1587 2809.09 1587 2811.09 1587 2813.09 1587 2815.09 1587 2818.09 1587 2820.09 1587 2822.09 1587 2824.09 1587 2826.09 1587 2829.09 1587 2831.09 1587 2833.09 1587 2835.09 1587 2838.09 1587 2840.09 1587 2842.09 1587 2844.09 1587 2846.09 1587 2849.09 1587 2851.09 1587 2853.09 1587 2855.09 1587 2858.09 1587 2860.09 1587 2862.09 1587 2864.09 1587 2867.09 1587 2869.09 1587 2871.09 1587 2873.09 1587 2875.09 1587 2878.09 1587 2880.09 1587 2882.09 1587 2884.09 1587 2887.09 1587 2889.09 1587 2891.09 1587 2893.09 1587 2895.09 1587 2898.1 1587 2900.1 1587 2902.1 1587 2904.1 1587 2907.1 1587 2909.1 1587 2911.1 1587 2913.1 1587 2916.1 1587 2918.1 1587 2920.1 1587 2922.1 1587 2924.1 1587 2927.1 1587 2929.1 1587 2931.1 1587 2933.1 1587 2936.1 1587 2938.1 1587 2940.1 1587 2942.1 1587 2944.1 1587 2947.1 1587 2949.1 1587 2951.1 1587 2953.1 1587 2956.1 1587 2958.1 1587 2960.1 1587 2962.1 1587 2964.1 1587 2967.1 1587 2969.1 1587 2971.1 1587 2973.1 1587 2976.1 1587 2978.1 1587 2980.1 1587 2982.1 1587 2985.1 1587 2987.1 1587 2989.1 1587 2991.1 1587 2993.1 1587 2996.1 1587 2998.1 1587 3000.1 1587 3002.1 1587 3005.1 1587 3007.1 1587 3009.1 1587 3011.1 1587 3013.1 1587 3016.1 1587 3018.1 1587 3020.1 1587 3022.1 1587 3025.1 1587 3027.1 1587 3029.1 1587 3031.1 1587 3034.1 1587 3036.1 1587 3038.1 1587 3040.1 1587 3042.1 1587 3045.1 1587 3047.1 1587 3049.1 1587 3051.1 1587 3054.1 1587 3056.1 1587 3058.1 1587 3060.1 1587 3062.1 1587 3065.1 1587 3067.1 1587 3069.1 1587 3071.1 1587 3074.1 1587 3076.1 1587 3078.1 1587 3080.1 1587 3082.1 1587 3085.1 1587 3087.1 1587 3089.1 1587 3091.1 1587 3094.1 1587 3096.1 1587 3098.1 1587 3100.1 1587 3103.1 1587 3105.1 1587 3107.1 1587 3109.1 1587 3111.1 1587 3114.1 1587 3116.1 1587 3118.1 1587 3120.1 1587 3123.1 1587 3125.1 1587 3127.1 1587 3129.1 1587 3131.1 1587 3134.1 1587 3136.1 1587 3138.1 1587 3140.1 1587 3143.1 1587 3145.1 1587 3147.1 1587 3149.1 1587 3151.1 1587 3154.1 1587 3156.1 1587 3158.1 1587 3160.1 1587 3163.1 1587 3165.1 1587 3167.1 1587 3169.1 1587 3172.1 1587 3174.1 1587 3176.1 1587 3178.1 1587 3180.1 1587 3183.1 1587 3185.1 1587 3187.1 1587 3189.1 1587 3192.1 1587 3194.1 1587 3196.1 1587 3198.1 1587 3200.1 1587 3203.1 1587 3205.11 1587 3207.11 1587 3209.11 1587 3212.11 1587 3214.11 1587 3216.11 1587 3218.11 1587 3221.11 1587 3223.11 1587 3225.11 1587 3227.11 1587 3229.11 1587 3232.11 1587 3234.11 1587 3236.11 1587 3238.11 1587 3241.11 1587 3243.11 1587 3245.11 1587 3247.11 1587 3249.11 1587 3252.11 1587 3254.11 1587 3256.11 1587 3258.11 1587 3261.11 1587 3263.11 1587 3265.11 1587 3267.11 1587 3269.11 1587 3272.11 1587 3274.11 1587 3276.11 1587 3278.11 1587 3281.11 1587 3283.11 1587 3285.11 1587 3287.11 1587 3290.11 1587 3292.11 1587 3294.11 1587 3296.11 1587 3298.11 1587 3301.11 1587 3303.11 1587 3305.11 1587 3307.11 1587 3310.11 1587 3312.11 1587 3314.11 1587 3316.11 1587 3318.11 1587 3321.11 1587 3323.11 1587 3325.11 1587 3327.11 1587 3330.11 1587 3332.11 1587 3334.11 1587 3336.11 1587 3339.11 1587 3341.11 1587 3343.11 1587 3345.11 1587 3347.11 1587 3350.11 1587 3352.11 1587 3354.11 1587 3356.11 1587 3359.11 1587 3361.11 1587 3363.11 1587 3365.11 1587 3367.11 1587 3370.11 1587 3372.11 1587 3374.11 1587 3376.11 1587 3379.11 1587 3381.11 1587 3383.11 1587 3385.11 1587 3387.11 1587 3390.11 1587 3392.11 1587 3394.11 1587 3396.11 1587 3399.11 1587 3401.11 1587 3403.11 1587 3405.11 1587 3408.11 1587 3410.11 1587 3412.11 1587 3414.11 1587 3416.11 1587 3419.11 1587 3421.11 1587 3423.11 1587 3425.11 1587 3428.11 1587 3430.11 1587 3432.11 1587 3434.11 1587 3436.11 1587 3439.11 1587 3441.11 1587 3443.11 1587 3445.11 1587 3448.11 1587 3450.11 1587 3452.11 1587 3454.11 1587 3456.11 1587 3459.11 1587 3461.11 1587 3463.11 1587 3465.11 1587 3468.11 1587 3470.11 1587 3472.11 1587 3474.11 1587 3477.11 1587 3479.11 1587 3481.11 1587 3483.11 1587 3485.11 1587 3488.11 1587 3490.11 1587 3492.11 1587 3494.11 1587 3497.11 1587 3499.11 1587 3501.11 1587 3503.11 1587 3505.12 1587 3508.12 1587 3510.12 1587 3512.12 1587 3514.12 1587 3517.12 1587 3519.12 1587 3521.12 1587 3523.12 1587 3526.12 1587 3528.12 1587 3530.12 1587 3532.12 1587 3534.12 1587 3537.12 1587 3539.12 1587 3541.12 1587 3543.12 1587 3546.12 1587 3548.12 1587 3550.12 1587 3552.12 1587 3554.12 1587 3557.12 1587 3559.12 1587 3561.12 1587 3563.12 1587 3566.12 1587 3568.12 1587 3570.12 1587 3572.12 1587 3574.12 1587 3577.12 1587 3579.12 1587 3581.12 1587 3583.12 1587 3586.12 1587 3588.12 1587 3590.12 1587 3592.12 1587 3595.12 1587 3597.12 1587 3599.12 1587 3601.12 1587 3603.12 1587 3606.12 1587 3608.12 1587 3610.12 1587 3612.12 1587 3615 1587" stroke="#A5A5A5" stroke-width="10.3125" stroke-linecap="round" stroke-linejoin="round" stroke-miterlimit="10" fill="none"/></g><g><path d="M1388 1587 1391.05 1587 1393.05 1587 1395.05 1587 1397.05 1587 1399.05 1587 1402.05 1587 1404.05 1587 1406.05 1587 1408.05 1587 1411.05 1587 1413.05 1585.05 1415.05 1584.05 1417.05 1582.05 1419.05 1581.05 1422.05 1579.05 1424.05 1578.05 1426.05 1576.05 1428.05 1575.05 1431.05 1573.05 1433.05 1572.05 1435.05 1570.05 1437.05 1567.05 1439.05 1564.05 1442.05 1561.05 1444.05 1558.05 1446.05 1555.05 1448.05 1553.05 1451.05 1550.05 1453.05 1547.05 1455.05 1544.05 1457.05 1541.05 1460.05 1539.05 1462.05 1534.05 1464.05 1530.05 1466.05 1526.05 1468.05 1522.05 1471.05 1518.05 1473.05 1513.05 1475.05 1509.05 1477.05 1505.05 1480.05 1501.05 1482.05 1498.05 1484.05 1494.05 1486.05 1488.05 1488.05 1483.05 1491.05 1478.05 1493.05 1472.05 1495.05 1467.05 1497.05 1462.05 1500.05 1457.05 1502.05 1452.05 1504.05 1447.05 1506.05 1442.05 1508.05 1437.05 1511.05 1430.05 1513.05 1424.05 1515.05 1418.05 1517.05 1411.05 1520.05 1405.05 1522.05 1399.05 1524.05 1393.05 1526.05 1387.05 1529.05 1381.05 1531.05 1375.05 1533.05 1369.04 1535.05 1362.04 1537.05 1354.04 1540.05 1347.04 1542.05 1340.04 1544.05 1333.04 1546.05 1326.04 1549.05 1319.04 1551.05 1312.04 1553.05 1305.04 1555.05 1299.04 1557.05 1292.04 1560.05 1284.04 1562.05 1276.04 1564.05 1268.04 1566.05 1260.04 1569.05 1252.04 1571.05 1244.04 1573.05 1236.04 1575.05 1229.04 1578.05 1221.04 1580.05 1213.04 1582.05 1206.04 1584.05 1202.04 1586.05 1198.04 1589.05 1194.04 1591.05 1190.04 1593.05 1186.04 1595.05 1182.04 1598.05 1178.04 1600.05 1174.04 1602.05 1170.04 1604.05 1166.04 1606.05 1163.04 1609.05 1160.04 1611.05 1158.04 1613.05 1156.04 1615.05 1154.04 1618.05 1152.04 1620.05 1150.04 1622.05 1148.04 1624.05 1146.04 1626.05 1144.04 1629.05 1142.04 1631.05 1140.04 1633.05 1140.04 1635.05 1140.04 1638.05 1139.04 1640.05 1139.04 1642.05 1139.04 1644.05 1138.04 1647.05 1138.04 1649.05 1138.04 1651.05 1138.04 1653.05 1137.04 1655.05 1137 1658.05 1138.04 1660.05 1140.04 1662.05 1141.04 1664.05 1142.04 1667.05 1143.04 1669.05 1145.04 1671.05 1146.04 1673.05 1147.04 1675.06 1148.04 1678.06 1150.04 1680.06 1151.04 1682.06 1154.04 1684.06 1156.04 1687.06 1159.04 1689.06 1162.04 1691.06 1164.04 1693.06 1167.04 1696.06 1170.04 1698.06 1172.04 1700.06 1175.04 1702.06 1177.04 1704.06 1180.04 1707.06 1184.04 1709.06 1188.04 1711.06 1192.04 1713.06 1196.04 1716.06 1200.04 1718.06 1204.04 1720.06 1207.04 1722.06 1211.04 1724.06 1215.04 1727.06 1219.04 1729.06 1222.04 1731.06 1228.04 1733.06 1233.04 1736.06 1238.04 1738.06 1243.04 1740.06 1248.04 1742.06 1253.04 1744.06 1258.04 1747.06 1263.04 1749.06 1268.04 1751.06 1272.04 1753.06 1277.04 1756.06 1279.04 1758.06 1280.04 1760.06 1282.04 1762.06 1283.04 1765.06 1285.04 1767.06 1286.04 1769.06 1287.04 1771.06 1289.04 1773.06 1290.04 1776.06 1292.04 1778.06 1293.04 1780.06 1293.04 1782.06 1292.04 1785.06 1292.04 1787.06 1292.04 1789.06 1292.04 1791.06 1291.04 1793.06 1291.04 1796.06 1291.04 1798.06 1291.04 1800.06 1291.04 1802.06 1290.04 1805.06 1289.04 1807.06 1287.04 1809.06 1285.04 1811.06 1283.04 1813.06 1281.04 1816.06 1280.04 1818.06 1278.04 1820.06 1276.04 1822.06 1275.04 1825.06 1273.04 1827.06 1271.04 1829.06 1268.04 1831.06 1265.04 1834.06 1262.04 1836.06 1259.04 1838.06 1256.04 1840.06 1253.04 1842.06 1250.04 1845.06 1247.04 1847.06 1244.04 1849.06 1241.04 1851.06 1238.04 1854.06 1238.04 1856.06 1238.04 1858.06 1239.04 1860.06 1239.04 1862.06 1239.04 1865.06 1240.04 1867.06 1240.04 1869.06 1240.04 1871.06 1240.04 1874.06 1241.04 1876.06 1241.04 1878.06 1243.04 1880.06 1245.04 1883.06 1246.04 1885.06 1248.04 1887.06 1250.04 1889.06 1252.04 1891.06 1254.04 1894.06 1255.04 1896.06 1257.04 1898.06 1259.04 1900.06 1260.04 1903.06 1264.04 1905.06 1267.04 1907.06 1270.04 1909.06 1273.04 1911.06 1276.04 1914.06 1280.04 1916.06 1283.04 1918.06 1286.04 1920.06 1289.04 1923.06 1292.04 1925.06 1295.04 1927.06 1294.04 1929.06 1294.04 1931.06 1294.04 1934.06 1294.04 1936.06 1293.04 1938.06 1293.04 1940.06 1293.04 1943.06 1293.04 1945.06 1292.04 1947.06 1292.04 1949.06 1292.04 1952.06 1290.04 1954.06 1288.04 1956.06 1286.04 1958.06 1285.04 1960.06 1283.04 1963.06 1281.04 1965.06 1279.04 1967.06 1278.04 1969.06 1276.04 1972.06 1274.04 1974.06 1273.04 1976.06 1270.04 1978.06 1266.04 1980.06 1263.04 1983.07 1260.04 1985.07 1257.04 1987.07 1254.04 1989.07 1251.04 1992.07 1248.04 1994.07 1245.04 1996.07 1242.04 1998.07 1239.04 2001.07 1239.04 2003.07 1240.04 2005.07 1240.04 2007.07 1240.04 2009.07 1240.04 2012.07 1241.04 2014.07 1241.04 2016.07 1241.04 2018.07 1241.04 2021.07 1242.04 2023.07 1242.04 2025.07 1244.04 2027.07 1246.04 2029.07 1248.04 2032.07 1249.04 2034.07 1251.04 2036.07 1253.04 2038.07 1255.04 2041.07 1256.04 2043.07 1258.04 2045.07 1260.04 2047.07 1261.04 2049.07 1265.04 2052.07 1268.04 2054.07 1271.04 2056.07 1274.04 2058.07 1277.04 2061.07 1280.04 2063.07 1284.04 2065.07 1287.04 2067.07 1290.04 2070.07 1293.04 2072.07 1296.04 2074.07 1295.04 2076.07 1295.04 2078.07 1295.04 2081.07 1294.04 2083.07 1294.04 2085.07 1294.04 2087.07 1294.04 2090.07 1293.04 2092.07 1293.04 2094.07 1293.04 2096.07 1293.04 2098.07 1291.04 2101.07 1289.04 2103.07 1287.04 2105.07 1285.04 2107.07 1284.04 2110.07 1282.04 2112.07 1280.04 2114.07 1278.04 2116.07 1277.04 2118.07 1275.04 2121.07 1273.04 2123.07 1270.04 2125.07 1267.04 2127.07 1264.04 2130.07 1261.04 2132.07 1258.04 2134.07 1254.04 2136.07 1251.04 2139.07 1248.04 2141.07 1245.04 2143.07 1242.04 2145.07 1240.04 2147.07 1240.04 2150.07 1240.04 2152.07 1240.04 2154.07 1241.04 2156.07 1241.04 2159.07 1241.04 2161.07 1242.04 2163.07 1242.04 2165.07 1242.04 2167.07 1242.04 2170.07 1243.04 2172.07 1244.04 2174.07 1246.04 2176.07 1248.04 2179.07 1250.04 2181.07 1252.04 2183.07 1253.04 2185.07 1255.04 2188.07 1257.04 2190.07 1259.04 2192.07 1260.04 2194.07 1262.04 2196.07 1265.04 2199.07 1268.04 2201.07 1272.04 2203.07 1275.04 2205.07 1278.04 2208.07 1281.04 2210.07 1284.04 2212.07 1287.04 2214.07 1290.04 2216.07 1293.04 2219.07 1296.04 2221.07 1296.04 2223.07 1295.04 2225.07 1295.04 2228.07 1295.04 2230.07 1295.04 2232.07 1294.04 2234.07 1294.04 2236.07 1294.04 2239.07 1294.04 2241.07 1293.04 2243.07 1293.04 2245.07 1291.04 2248.07 1289.04 2250.07 1288.04 2252.07 1286.04 2254.07 1284.04 2257.07 1282.04 2259.07 1281.04 2261.07 1279.04 2263.07 1277.04 2265.07 1275.04 2268.07 1274.04 2270.07 1271.04 2272.07 1267.04 2274.07 1264.04 2277.07 1261.04 2279.07 1258.04 2281.07 1255.04 2283.07 1252.04 2285.07 1249.04 2288.08 1246.04 2290.08 1243.04 2292.08 1240.04 2294.08 1240.04 2297.08 1240.04 2299.08 1241.04 2301.08 1241.04 2303.08 1241.04 2306.08 1242.04 2308.08 1242.04 2310.08 1242.04 2312.08 1242.04 2314.08 1243.04 2317.08 1243.04 2319.08 1245.04 2321.08 1247.04 2323.08 1248.04 2326.08 1250.04 2328.08 1252.04 2330.08 1254.04 2332.08 1255.04 2334.08 1257.04 2337.08 1259.04 2339.08 1261.04 2341.08 1262.04 2343.08 1265.04 2346.08 1269.04 2348.08 1272.04 2350.08 1275.04 2352.08 1278.04 2354.08 1281.04 2357.08 1284.04 2359.08 1287.04 2361.08 1290.04 2363.08 1293.04 2366.08 1296.04 2368.08 1296.04 2370.08 1296.04 2372.08 1295.04 2375.08 1295.04 2377.08 1295.04 2379.08 1295.04 2381.08 1294.04 2383.08 1294.04 2386.08 1294.04 2388.08 1294.04 2390.08 1293.04 2392.08 1291.04 2395.08 1290.04 2397.08 1288.04 2399.08 1286.04 2401.08 1284.04 2403.08 1282.04 2406.08 1281.04 2408.08 1279.04 2410.08 1277.04 2412.08 1276.04 2415.08 1274.04 2417.08 1271.04 2419.08 1268.04 2421.08 1264.04 2423.08 1261.04 2426.08 1258.04 2428.08 1255.04 2430.08 1252.04 2432.08 1249.04 2435.08 1246.04 2437.08 1243.04 2439.08 1240.04 2441.08 1240.04 2444.08 1241.04 2446.08 1241.04 2448.08 1241.04 2450.08 1241.04 2452.08 1242.04 2455.08 1242.04 2457.08 1242.04 2459.08 1243.04 2461.08 1243.04 2464.08 1243.04 2466.08 1245.04 2468.08 1247.04 2470.08 1248.04 2472.08 1250.04 2475.08 1252.04 2477.08 1254.04 2479.08 1256.04 2481.08 1257.04 2484.08 1259.04 2486.08 1261.04 2488.08 1262.04 2490.08 1266.04 2493.08 1269.04 2495.08 1272.04 2497.08 1275.04 2499.08 1278.04 2501.08 1281.04 2504.08 1284.04 2506.08 1287.04 2508.08 1290.04 2510.08 1293.04 2513.08 1296.04 2515.08 1296.04 2517.08 1296.04 2519.08 1295.04 2521.08 1295.04 2524.08 1295.04 2526.08 1295.04 2528.08 1294.04 2530.08 1294.04 2533.08 1294.04 2535.08 1294.04 2537.08 1293.04 2539.08 1292.04 2541.08 1290.04 2544.08 1288.04 2546.08 1286.04 2548.08 1284.04 2550.08 1283.04 2553.08 1281.04 2555.08 1279.04 2557.08 1277.04 2559.08 1276.04 2562.08 1274.04 2564.08 1271.04 2566.08 1268.04 2568.08 1264.04 2570.08 1261.04 2573.08 1258.04 2575.08 1255.04 2577.08 1252.04 2579.08 1249.04 2582.08 1246.04 2584.08 1243.04 2586.08 1240.04 2588.08 1240.04 2590.08 1241.04 2593.08 1241.04 2595.09 1241.04 2597.09 1242.04 2599.09 1242.04 2602.09 1242.04 2604.09 1242.04 2606.09 1243.04 2608.09 1243.04 2611.09 1243.04 2613.09 1245.04 2615.09 1247.04 2617.09 1249.04 2619.09 1250.04 2622.09 1252.04 2624.09 1254.04 2626.09 1256.04 2628.09 1257.04 2631.09 1259.04 2633.09 1261.04 2635.09 1262.04 2637.09 1266.04 2639.09 1269.04 2642.09 1272.04 2644.09 1275.04 2646.09 1278.04 2648.09 1281.04 2651.09 1284.04 2653.09 1287.04 2655.09 1290.04 2657.09 1293.04 2659.09 1296.04 2662.09 1296.04 2664.09 1296.04 2666.09 1296.04 2668.09 1295.04 2671.09 1295.04 2673.09 1295.04 2675.09 1294.04 2677.09 1294.04 2680.09 1294.04 2682.09 1294.04 2684.09 1293.04 2686.09 1292.04 2688.09 1290.04 2691.09 1288.04 2693.09 1286.04 2695.09 1284.04 2697.09 1283.04 2700.09 1281.04 2702.09 1279.04 2704.09 1277.04 2706.09 1276.04 2708.09 1274.04 2711.09 1271.04 2713.09 1268.04 2715.09 1264.04 2717.09 1261.04 2720.09 1258.04 2722.09 1255.04 2724.09 1252.04 2726.09 1249.04 2728.09 1246.04 2731.09 1243.04 2733.09 1240.04 2735.09 1240.04 2737.09 1241.04 2740.09 1241.04 2742.09 1241.04 2744.09 1242.04 2746.09 1242.04 2749.09 1242.04 2751.09 1242.04 2753.09 1243.04 2755.09 1243.04 2757.09 1243.04 2760.09 1245.04 2762.09 1247.04 2764.09 1249.04 2766.09 1250.04 2769.09 1252.04 2771.09 1254.04 2773.09 1256.04 2775.09 1257.04 2777.09 1259.04 2780.09 1261.04 2782.09 1262.04 2784.09 1266.04 2786.09 1269.04 2789.09 1272.04 2791.09 1275.04 2793.09 1278.04 2795.09 1281.04 2798.09 1284.04 2800.09 1288.04 2802.09 1290.04 2804.09 1293.04 2806.09 1296.04 2809.09 1296.04 2811.09 1296.04 2813.09 1296.04 2815.09 1295.04 2818.09 1295.04 2820.09 1295.04 2822.09 1294.04 2824.09 1294.04 2826.09 1294.04 2829.09 1294.04 2831.09 1293.04 2833.09 1292.04 2835.09 1290.04 2838.09 1288.04 2840.09 1286.04 2842.09 1284.04 2844.09 1283.04 2846.09 1281.04 2849.09 1279.04 2851.09 1278.04 2853.09 1276.04 2855.09 1274.04 2858.09 1271.04 2860.09 1268.04 2862.09 1265.04 2864.09 1261.04 2867.09 1258.04 2869.09 1255.04 2871.09 1252.04 2873.09 1249.04 2875.09 1246.04 2878.09 1243.04 2880.09 1240.04 2882.09 1240.04 2884.09 1241.04 2887.09 1241.04 2889.09 1241.04 2891.09 1242.04 2893.09 1242.04 2895.09 1242.04 2898.1 1242.04 2900.1 1243.04 2902.1 1243.04 2904.1 1243.04 2907.1 1245.04 2909.1 1247.04 2911.1 1249.04 2913.1 1250.04 2916.1 1252.04 2918.1 1254.04 2920.1 1256.04 2922.1 1257.04 2924.1 1259.04 2927.1 1261.04 2929.1 1262.04 2931.1 1266.04 2933.1 1269.04 2936.1 1272.04 2938.1 1275.04 2940.1 1278.04 2942.1 1281.04 2944.1 1284.04 2947.1 1288.04 2949.1 1291.04 2951.1 1293.04 2953.1 1296.04 2956.1 1296.04 2958.1 1296.04 2960.1 1296.04 2962.1 1295.04 2964.1 1295.04 2967.1 1295.04 2969.1 1295.04 2971.1 1294.04 2973.1 1294.04 2976.1 1294.04 2978.1 1293.04 2980.1 1292.04 2982.1 1290.04 2985.1 1288.04 2987.1 1286.04 2989.1 1284.04 2991.1 1283.04 2993.1 1281.04 2996.1 1279.04 2998.1 1278.04 3000.1 1276.04 3002.1 1274.04 3005.1 1271.04 3007.1 1268.04 3009.1 1265.04 3011.1 1261.04 3013.1 1258.04 3016.1 1255.04 3018.1 1252.04 3020.1 1249.04 3022.1 1246.04 3025.1 1243.04 3027.1 1240.04 3029.1 1241.04 3031.1 1241.04 3034.1 1241.04 3036.1 1241.04 3038.1 1242.04 3040.1 1242.04 3042.1 1242.04 3045.1 1242.04 3047.1 1243.04 3049.1 1243.04 3051.1 1243.04 3054.1 1245.04 3056.1 1247.04 3058.1 1249.04 3060.1 1250.04 3062.1 1252.04 3065.1 1254.04 3067.1 1256.04 3069.1 1257.04 3071.1 1259.04 3074.1 1261.04 3076.1 1262.04 3078.1 1266.04 3080.1 1269.04 3082.1 1272.04 3085.1 1275.04 3087.1 1278.04 3089.1 1281.04 3091.1 1285.04 3094.1 1288.04 3096.1 1291.04 3098.1 1293.04 3100.1 1296.04 3103.1 1296.04 3105.1 1296.04 3107.1 1296.04 3109.1 1295.04 3111.1 1295.04 3114.1 1295.04 3116.1 1295.04 3118.1 1294.04 3120.1 1294.04 3123.1 1294.04 3125.1 1293.04 3127.1 1292.04 3129.1 1290.04 3131.1 1288.04 3134.1 1286.04 3136.1 1284.04 3138.1 1283.04 3140.1 1281.04 3143.1 1279.04 3145.1 1278.04 3147.1 1276.04 3149.1 1274.04 3151.1 1271.04 3154.1 1268.04 3156.1 1265.04 3158.1 1261.04 3160.1 1258.04 3163.1 1255.04 3165.1 1252.04 3167.1 1249.04 3169.1 1246.04 3172.1 1243.04 3174.1 1240.04 3176.1 1241.04 3178.1 1241.04 3180.1 1241.04 3183.1 1241.04 3185.1 1242.04 3187.1 1242.04 3189.1 1242.04 3192.1 1242.04 3194.1 1243.04 3196.1 1243.04 3198.1 1243.04 3200.1 1245.04 3203.1 1247.04 3205.11 1249.04 3207.11 1250.04 3209.11 1252.04 3212.11 1254.04 3214.11 1256.04 3216.11 1257.04 3218.11 1259.04 3221.11 1261.04 3223.11 1262.04 3225.11 1266.04 3227.11 1269.04 3229.11 1272.04 3232.11 1275.04 3234.11 1278.04 3236.11 1281.04 3238.11 1285.04 3241.11 1288.04 3243.11 1291.04 3245.11 1293.04 3247.11 1296.04 3249.11 1296.04 3252.11 1296.04 3254.11 1296.04 3256.11 1295.04 3258.11 1295.04 3261.11 1295.04 3263.11 1295.04 3265.11 1294.04 3267.11 1294.04 3269.11 1294.04 3272.11 1293.04 3274.11 1292.04 3276.11 1290.04 3278.11 1288.04 3281.11 1286.04 3283.11 1284.04 3285.11 1283.04 3287.11 1281.04 3290.11 1279.04 3292.11 1278.04 3294.11 1276.04 3296.11 1274.04 3298.11 1271.04 3301.11 1268.04 3303.11 1265.04 3305.11 1261.04 3307.11 1258.04 3310.11 1255.04 3312.11 1252.04 3314.11 1249.04 3316.11 1246.04 3318.11 1243.04 3321.11 1240.04 3323.11 1241.04 3325.11 1241.04 3327.11 1241.04 3330.11 1241.04 3332.11 1242.04 3334.11 1242.04 3336.11 1242.04 3339.11 1242.04 3341.11 1243.04 3343.11 1243.04 3345.11 1243.04 3347.11 1245.04 3350.11 1247.04 3352.11 1249.04 3354.11 1250.04 3356.11 1252.04 3359.11 1254.04 3361.11 1256.04 3363.11 1257.04 3365.11 1259.04 3367.11 1261.04 3370.11 1262.04 3372.11 1266.04 3374.11 1269.04 3376.11 1272.04 3379.11 1275.04 3381.11 1278.04 3383.11 1281.04 3385.11 1285.04 3387.11 1288.04 3390.11 1291.04 3392.11 1293.04 3394.11 1296.04 3396.11 1296.04 3399.11 1296.04 3401.11 1296.04 3403.11 1295.04 3405.11 1295.04 3408.11 1295.04 3410.11 1295.04 3412.11 1294.04 3414.11 1294.04 3416.11 1294.04 3419.11 1293.04 3421.11 1292.04 3423.11 1290.04 3425.11 1288.04 3428.11 1286.04 3430.11 1284.04 3432.11 1283.04 3434.11 1281.04 3436.11 1279.04 3439.11 1278.04 3441.11 1276.04 3443.11 1274.04 3445.11 1271.04 3448.11 1268.04 3450.11 1265.04 3452.11 1261.04 3454.11 1258.04 3456.11 1255.04 3459.11 1252.04 3461.11 1249.04 3463.11 1246.04 3465.11 1243.04 3468.11 1240.04 3470.11 1241.04 3472.11 1241.04 3474.11 1241.04 3477.11 1241.04 3479.11 1242.04 3481.11 1242.04 3483.11 1242.04 3485.11 1242.04 3488.11 1243.04 3490.11 1243.04 3492.11 1243.04 3494.11 1245.04 3497.11 1247.04 3499.11 1249.04 3501.11 1250.04 3503.11 1252.04 3505.12 1254.04 3508.12 1256.04 3510.12 1257.04 3512.12 1259.04 3514.12 1261.04 3517.12 1262.04 3519.12 1266.04 3521.12 1269.04 3523.12 1272.04 3526.12 1275.04 3528.12 1278.04 3530.12 1281.04 3532.12 1285.04 3534.12 1288.04 3537.12 1291.04 3539.12 1293.04 3541.12 1296.04 3543.12 1296.04 3546.12 1296.04 3548.12 1296.04 3550.12 1295.04 3552.12 1295.04 3554.12 1295.04 3557.12 1295.04 3559.12 1294.04 3561.12 1294.04 3563.12 1294.04 3566.12 1293.04 3568.12 1292.04 3570.12 1290.04 3572.12 1288.04 3574.12 1286.04 3577.12 1284.04 3579.12 1283.04 3581.12 1281.04 3583.12 1279.04 3586.12 1278.04 3588.12 1276.04 3590.12 1274.04 3592.12 1271.04 3595.12 1268.04 3597.12 1265.04 3599.12 1261.04 3601.12 1258.04 3603.12 1255.04 3606.12 1252.04 3608.12 1249.04 3610.12 1246.04 3612.12 1243.04 3615 1240.04" stroke="#FFC000" stroke-width="10.3125" stroke-linecap="round" stroke-linejoin="round" stroke-miterlimit="10" fill="none"/></g><g><path d="M1388 1587.05 1391.05 1587.05 1393.05 1587.05 1395.05 1587.05 1397.05 1587.05 1399.05 1587.05 1402.05 1587.05 1404.05 1587.05 1406.05 1587.05 1408.05 1587.05 1411.05 1587.05 1413.05 1428.05 1415.05 1428.05 1417.05 1428.05 1419.05 1428.05 1422.05 1428.05 1424.05 1428.05 1426.05 1428.05 1428.05 1428.05 1431.05 1428.05 1433.05 1428.05 1435.05 1428.05 1437.05 1268.04 1439.05 1268.04 1442.05 1268.04 1444.05 1268.04 1446.05 1268.04 1448.05 1268.04 1451.05 1268.04 1453.05 1268.04 1455.05 1268.04 1457.05 1268.04 1460.05 1268.04 1462.05 1109.04 1464.05 1109.04 1466.05 1109.04 1468.05 1109.04 1471.05 1109.04 1473.05 1109.04 1475.05 1109.04 1477.05 1109.04 1480.05 1109.04 1482.05 1109.04 1484.05 1109.04 1486.05 950.031 1488.05 950.031 1491.05 950.031 1493.05 950.031 1495.05 950.031 1497.05 950.031 1500.05 950.031 1502.05 950.031 1504.05 950.031 1506.05 950.031 1508.05 950.031 1511.05 790.026 1513.05 790.026 1515.05 790.026 1517.05 790.026 1520.05 790.026 1522.05 790.026 1524.05 790.026 1526.05 790.026 1529.05 790.026 1531.05 790.026 1533.05 790.026 1535.05 631.021 1537.05 631.021 1540.05 631.021 1542.05 631.021 1544.05 631.021 1546.05 631.021 1549.05 631.021 1551.05 631.021 1553.05 631.021 1555.05 631.021 1557.05 631.021 1560.05 472 1562.05 472 1564.05 472 1566.05 631.021 1569.05 631.021 1571.05 631.021 1573.05 631.021 1575.05 631.021 1578.05 631.021 1580.05 631.021 1582.05 631.021 1584.05 790.026 1586.05 790.026 1589.05 790.026 1591.05 790.026 1593.05 790.026 1595.05 790.026 1598.05 790.026 1600.05 790.026 1602.05 790.026 1604.05 790.026 1606.05 790.026 1609.05 950.031 1611.05 950.031 1613.05 950.031 1615.05 950.031 1618.05 950.031 1620.05 950.031 1622.05 950.031 1624.05 950.031 1626.05 950.031 1629.05 950.031 1631.05 950.031 1633.05 1109.04 1635.05 1109.04 1638.05 1109.04 1640.05 1109.04 1642.05 1109.04 1644.05 1109.04 1647.05 1109.04 1649.05 1109.04 1651.05 1109.04 1653.05 1109.04 1655.05 1109.04 1658.05 1268.04 1660.05 1268.04 1662.05 1268.04 1664.05 1268.04 1667.05 1268.04 1669.05 1268.04 1671.05 1268.04 1673.05 1268.04 1675.06 1268.04 1678.06 1268.04 1680.06 1268.04 1682.06 1428.05 1684.06 1428.05 1687.06 1428.05 1689.06 1428.05 1691.06 1428.05 1693.06 1428.05 1696.06 1428.05 1698.06 1428.05 1700.06 1428.05 1702.06 1428.05 1704.06 1428.05 1707.06 1587.05 1709.06 1587.05 1711.06 1587.05 1713.06 1587.05 1716.06 1587.05 1718.06 1587.05 1720.06 1587.05 1722.06 1587.05 1724.06 1587.05 1727.06 1587.05 1729.06 1587.05 1731.06 1746 1733.06 1746 1736.06 1746 1738.06 1746 1740.06 1746 1742.06 1746 1744.06 1746 1747.06 1746 1749.06 1746 1751.06 1746 1753.06 1587.05 1756.06 1428.05 1758.06 1428.05 1760.06 1428.05 1762.06 1428.05 1765.06 1428.05 1767.06 1428.05 1769.06 1428.05 1771.06 1428.05 1773.06 1428.05 1776.06 1428.05 1778.06 1428.05 1780.06 1268.04 1782.06 1268.04 1785.06 1268.04 1787.06 1268.04 1789.06 1268.04 1791.06 1268.04 1793.06 1268.04 1796.06 1268.04 1798.06 1268.04 1800.06 1268.04 1802.06 1268.04 1805.06 1109.04 1807.06 1109.04 1809.06 1109.04 1811.06 1109.04 1813.06 1109.04 1816.06 1109.04 1818.06 1109.04 1820.06 1109.04 1822.06 1109.04 1825.06 1109.04 1827.06 1109.04 1829.06 950.031 1831.06 1109.04 1834.06 1109.04 1836.06 1109.04 1838.06 1109.04 1840.06 1109.04 1842.06 1109.04 1845.06 1109.04 1847.06 1109.04 1849.06 1109.04 1851.06 1109.04 1854.06 1268.04 1856.06 1268.04 1858.06 1268.04 1860.06 1268.04 1862.06 1268.04 1865.06 1268.04 1867.06 1268.04 1869.06 1268.04 1871.06 1268.04 1874.06 1268.04 1876.06 1268.04 1878.06 1428.05 1880.06 1428.05 1883.06 1428.05 1885.06 1428.05 1887.06 1428.05 1889.06 1428.05 1891.06 1428.05 1894.06 1428.05 1896.06 1428.05 1898.06 1428.05 1900.06 1428.05 1903.06 1587.05 1905.06 1587.05 1907.06 1587.05 1909.06 1428.05 1911.06 1428.05 1914.06 1428.05 1916.06 1428.05 1918.06 1428.05 1920.06 1428.05 1923.06 1428.05 1925.06 1428.05 1927.06 1268.04 1929.06 1268.04 1931.06 1268.04 1934.06 1268.04 1936.06 1268.04 1938.06 1268.04 1940.06 1268.04 1943.06 1268.04 1945.06 1268.04 1947.06 1268.04 1949.06 1268.04 1952.06 1109.04 1954.06 1109.04 1956.06 1109.04 1958.06 1109.04 1960.06 1109.04 1963.06 1109.04 1965.06 1109.04 1967.06 1109.04 1969.06 1109.04 1972.06 1109.04 1974.06 1109.04 1976.06 950.031 1978.06 950.031 1980.06 1109.04 1983.07 1109.04 1985.07 1109.04 1987.07 1109.04 1989.07 1109.04 1992.07 1109.04 1994.07 1109.04 1996.07 1109.04 1998.07 1109.04 2001.07 1268.04 2003.07 1268.04 2005.07 1268.04 2007.07 1268.04 2009.07 1268.04 2012.07 1268.04 2014.07 1268.04 2016.07 1268.04 2018.07 1268.04 2021.07 1268.04 2023.07 1268.04 2025.07 1428.05 2027.07 1428.05 2029.07 1428.05 2032.07 1428.05 2034.07 1428.05 2036.07 1428.05 2038.07 1428.05 2041.07 1428.05 2043.07 1428.05 2045.07 1428.05 2047.07 1428.05 2049.07 1587.05 2052.07 1587.05 2054.07 1587.05 2056.07 1428.05 2058.07 1428.05 2061.07 1428.05 2063.07 1428.05 2065.07 1428.05 2067.07 1428.05 2070.07 1428.05 2072.07 1428.05 2074.07 1268.04 2076.07 1268.04 2078.07 1268.04 2081.07 1268.04 2083.07 1268.04 2085.07 1268.04 2087.07 1268.04 2090.07 1268.04 2092.07 1268.04 2094.07 1268.04 2096.07 1268.04 2098.07 1109.04 2101.07 1109.04 2103.07 1109.04 2105.07 1109.04 2107.07 1109.04 2110.07 1109.04 2112.07 1109.04 2114.07 1109.04 2116.07 1109.04 2118.07 1109.04 2121.07 1109.04 2123.07 950.031 2125.07 950.031 2127.07 1109.04 2130.07 1109.04 2132.07 1109.04 2134.07 1109.04 2136.07 1109.04 2139.07 1109.04 2141.07 1109.04 2143.07 1109.04 2145.07 1109.04 2147.07 1268.04 2150.07 1268.04 2152.07 1268.04 2154.07 1268.04 2156.07 1268.04 2159.07 1268.04 2161.07 1268.04 2163.07 1268.04 2165.07 1268.04 2167.07 1268.04 2170.07 1268.04 2172.07 1428.05 2174.07 1428.05 2176.07 1428.05 2179.07 1428.05 2181.07 1428.05 2183.07 1428.05 2185.07 1428.05 2188.07 1428.05 2190.07 1428.05 2192.07 1428.05 2194.07 1428.05 2196.07 1587.05 2199.07 1587.05 2201.07 1428.05 2203.07 1428.05 2205.07 1428.05 2208.07 1428.05 2210.07 1428.05 2212.07 1428.05 2214.07 1428.05 2216.07 1428.05 2219.07 1428.05 2221.07 1268.04 2223.07 1268.04 2225.07 1268.04 2228.07 1268.04 2230.07 1268.04 2232.07 1268.04 2234.07 1268.04 2236.07 1268.04 2239.07 1268.04 2241.07 1268.04 2243.07 1268.04 2245.07 1109.04 2248.07 1109.04 2250.07 1109.04 2252.07 1109.04 2254.07 1109.04 2257.07 1109.04 2259.07 1109.04 2261.07 1109.04 2263.07 1109.04 2265.07 1109.04 2268.07 1109.04 2270.07 950.031 2272.07 950.031 2274.07 1109.04 2277.07 1109.04 2279.07 1109.04 2281.07 1109.04 2283.07 1109.04 2285.07 1109.04 2288.08 1109.04 2290.08 1109.04 2292.08 1109.04 2294.08 1268.04 2297.08 1268.04 2299.08 1268.04 2301.08 1268.04 2303.08 1268.04 2306.08 1268.04 2308.08 1268.04 2310.08 1268.04 2312.08 1268.04 2314.08 1268.04 2317.08 1268.04 2319.08 1428.05 2321.08 1428.05 2323.08 1428.05 2326.08 1428.05 2328.08 1428.05 2330.08 1428.05 2332.08 1428.05 2334.08 1428.05 2337.08 1428.05 2339.08 1428.05 2341.08 1428.05 2343.08 1587.05 2346.08 1587.05 2348.08 1428.05 2350.08 1428.05 2352.08 1428.05 2354.08 1428.05 2357.08 1428.05 2359.08 1428.05 2361.08 1428.05 2363.08 1428.05 2366.08 1428.05 2368.08 1268.04 2370.08 1268.04 2372.08 1268.04 2375.08 1268.04 2377.08 1268.04 2379.08 1268.04 2381.08 1268.04 2383.08 1268.04 2386.08 1268.04 2388.08 1268.04 2390.08 1268.04 2392.08 1109.04 2395.08 1109.04 2397.08 1109.04 2399.08 1109.04 2401.08 1109.04 2403.08 1109.04 2406.08 1109.04 2408.08 1109.04 2410.08 1109.04 2412.08 1109.04 2415.08 1109.04 2417.08 950.031 2419.08 950.031 2421.08 1109.04 2423.08 1109.04 2426.08 1109.04 2428.08 1109.04 2430.08 1109.04 2432.08 1109.04 2435.08 1109.04 2437.08 1109.04 2439.08 1109.04 2441.08 1268.04 2444.08 1268.04 2446.08 1268.04 2448.08 1268.04 2450.08 1268.04 2452.08 1268.04 2455.08 1268.04 2457.08 1268.04 2459.08 1268.04 2461.08 1268.04 2464.08 1268.04 2466.08 1428.05 2468.08 1428.05 2470.08 1428.05 2472.08 1428.05 2475.08 1428.05 2477.08 1428.05 2479.08 1428.05 2481.08 1428.05 2484.08 1428.05 2486.08 1428.05 2488.08 1428.05 2490.08 1587.05 2493.08 1587.05 2495.08 1428.05 2497.08 1428.05 2499.08 1428.05 2501.08 1428.05 2504.08 1428.05 2506.08 1428.05 2508.08 1428.05 2510.08 1428.05 2513.08 1428.05 2515.08 1268.04 2517.08 1268.04 2519.08 1268.04 2521.08 1268.04 2524.08 1268.04 2526.08 1268.04 2528.08 1268.04 2530.08 1268.04 2533.08 1268.04 2535.08 1268.04 2537.08 1268.04 2539.08 1109.04 2541.08 1109.04 2544.08 1109.04 2546.08 1109.04 2548.08 1109.04 2550.08 1109.04 2553.08 1109.04 2555.08 1109.04 2557.08 1109.04 2559.08 1109.04 2562.08 1109.04 2564.08 950.031 2566.08 950.031 2568.08 1109.04 2570.08 1109.04 2573.08 1109.04 2575.08 1109.04 2577.08 1109.04 2579.08 1109.04 2582.08 1109.04 2584.08 1109.04 2586.08 1109.04 2588.08 1268.04 2590.08 1268.04 2593.08 1268.04 2595.09 1268.04 2597.09 1268.04 2599.09 1268.04 2602.09 1268.04 2604.09 1268.04 2606.09 1268.04 2608.09 1268.04 2611.09 1268.04 2613.09 1428.05 2615.09 1428.05 2617.09 1428.05 2619.09 1428.05 2622.09 1428.05 2624.09 1428.05 2626.09 1428.05 2628.09 1428.05 2631.09 1428.05 2633.09 1428.05 2635.09 1428.05 2637.09 1587.05 2639.09 1587.05 2642.09 1428.05 2644.09 1428.05 2646.09 1428.05 2648.09 1428.05 2651.09 1428.05 2653.09 1428.05 2655.09 1428.05 2657.09 1428.05 2659.09 1428.05 2662.09 1268.04 2664.09 1268.04 2666.09 1268.04 2668.09 1268.04 2671.09 1268.04 2673.09 1268.04 2675.09 1268.04 2677.09 1268.04 2680.09 1268.04 2682.09 1268.04 2684.09 1268.04 2686.09 1109.04 2688.09 1109.04 2691.09 1109.04 2693.09 1109.04 2695.09 1109.04 2697.09 1109.04 2700.09 1109.04 2702.09 1109.04 2704.09 1109.04 2706.09 1109.04 2708.09 1109.04 2711.09 950.031 2713.09 950.031 2715.09 1109.04 2717.09 1109.04 2720.09 1109.04 2722.09 1109.04 2724.09 1109.04 2726.09 1109.04 2728.09 1109.04 2731.09 1109.04 2733.09 1109.04 2735.09 1268.04 2737.09 1268.04 2740.09 1268.04 2742.09 1268.04 2744.09 1268.04 2746.09 1268.04 2749.09 1268.04 2751.09 1268.04 2753.09 1268.04 2755.09 1268.04 2757.09 1268.04 2760.09 1428.05 2762.09 1428.05 2764.09 1428.05 2766.09 1428.05 2769.09 1428.05 2771.09 1428.05 2773.09 1428.05 2775.09 1428.05 2777.09 1428.05 2780.09 1428.05 2782.09 1428.05 2784.09 1587.05 2786.09 1587.05 2789.09 1428.05 2791.09 1428.05 2793.09 1428.05 2795.09 1428.05 2798.09 1428.05 2800.09 1428.05 2802.09 1428.05 2804.09 1428.05 2806.09 1428.05 2809.09 1268.04 2811.09 1268.04 2813.09 1268.04 2815.09 1268.04 2818.09 1268.04 2820.09 1268.04 2822.09 1268.04 2824.09 1268.04 2826.09 1268.04 2829.09 1268.04 2831.09 1268.04 2833.09 1109.04 2835.09 1109.04 2838.09 1109.04 2840.09 1109.04 2842.09 1109.04 2844.09 1109.04 2846.09 1109.04 2849.09 1109.04 2851.09 1109.04 2853.09 1109.04 2855.09 1109.04 2858.09 950.031 2860.09 950.031 2862.09 1109.04 2864.09 1109.04 2867.09 1109.04 2869.09 1109.04 2871.09 1109.04 2873.09 1109.04 2875.09 1109.04 2878.09 1109.04 2880.09 1109.04 2882.09 1268.04 2884.09 1268.04 2887.09 1268.04 2889.09 1268.04 2891.09 1268.04 2893.09 1268.04 2895.09 1268.04 2898.1 1268.04 2900.1 1268.04 2902.1 1268.04 2904.1 1268.04 2907.1 1428.05 2909.1 1428.05 2911.1 1428.05 2913.1 1428.05 2916.1 1428.05 2918.1 1428.05 2920.1 1428.05 2922.1 1428.05 2924.1 1428.05 2927.1 1428.05 2929.1 1428.05 2931.1 1587.05 2933.1 1587.05 2936.1 1428.05 2938.1 1428.05 2940.1 1428.05 2942.1 1428.05 2944.1 1428.05 2947.1 1428.05 2949.1 1428.05 2951.1 1428.05 2953.1 1428.05 2956.1 1268.04 2958.1 1268.04 2960.1 1268.04 2962.1 1268.04 2964.1 1268.04 2967.1 1268.04 2969.1 1268.04 2971.1 1268.04 2973.1 1268.04 2976.1 1268.04 2978.1 1268.04 2980.1 1109.04 2982.1 1109.04 2985.1 1109.04 2987.1 1109.04 2989.1 1109.04 2991.1 1109.04 2993.1 1109.04 2996.1 1109.04 2998.1 1109.04 3000.1 1109.04 3002.1 1109.04 3005.1 950.031 3007.1 950.031 3009.1 1109.04 3011.1 1109.04 3013.1 1109.04 3016.1 1109.04 3018.1 1109.04 3020.1 1109.04 3022.1 1109.04 3025.1 1109.04 3027.1 1109.04 3029.1 1268.04 3031.1 1268.04 3034.1 1268.04 3036.1 1268.04 3038.1 1268.04 3040.1 1268.04 3042.1 1268.04 3045.1 1268.04 3047.1 1268.04 3049.1 1268.04 3051.1 1268.04 3054.1 1428.05 3056.1 1428.05 3058.1 1428.05 3060.1 1428.05 3062.1 1428.05 3065.1 1428.05 3067.1 1428.05 3069.1 1428.05 3071.1 1428.05 3074.1 1428.05 3076.1 1428.05 3078.1 1587.05 3080.1 1587.05 3082.1 1428.05 3085.1 1428.05 3087.1 1428.05 3089.1 1428.05 3091.1 1428.05 3094.1 1428.05 3096.1 1428.05 3098.1 1428.05 3100.1 1428.05 3103.1 1268.04 3105.1 1268.04 3107.1 1268.04 3109.1 1268.04 3111.1 1268.04 3114.1 1268.04 3116.1 1268.04 3118.1 1268.04 3120.1 1268.04 3123.1 1268.04 3125.1 1268.04 3127.1 1109.04 3129.1 1109.04 3131.1 1109.04 3134.1 1109.04 3136.1 1109.04 3138.1 1109.04 3140.1 1109.04 3143.1 1109.04 3145.1 1109.04 3147.1 1109.04 3149.1 1109.04 3151.1 950.031 3154.1 950.031 3156.1 1109.04 3158.1 1109.04 3160.1 1109.04 3163.1 1109.04 3165.1 1109.04 3167.1 1109.04 3169.1 1109.04 3172.1 1109.04 3174.1 1109.04 3176.1 1268.04 3178.1 1268.04 3180.1 1268.04 3183.1 1268.04 3185.1 1268.04 3187.1 1268.04 3189.1 1268.04 3192.1 1268.04 3194.1 1268.04 3196.1 1268.04 3198.1 1268.04 3200.1 1428.05 3203.1 1428.05 3205.11 1428.05 3207.11 1428.05 3209.11 1428.05 3212.11 1428.05 3214.11 1428.05 3216.11 1428.05 3218.11 1428.05 3221.11 1428.05 3223.11 1428.05 3225.11 1587.05 3227.11 1587.05 3229.11 1428.05 3232.11 1428.05 3234.11 1428.05 3236.11 1428.05 3238.11 1428.05 3241.11 1428.05 3243.11 1428.05 3245.11 1428.05 3247.11 1428.05 3249.11 1268.04 3252.11 1268.04 3254.11 1268.04 3256.11 1268.04 3258.11 1268.04 3261.11 1268.04 3263.11 1268.04 3265.11 1268.04 3267.11 1268.04 3269.11 1268.04 3272.11 1268.04 3274.11 1109.04 3276.11 1109.04 3278.11 1109.04 3281.11 1109.04 3283.11 1109.04 3285.11 1109.04 3287.11 1109.04 3290.11 1109.04 3292.11 1109.04 3294.11 1109.04 3296.11 1109.04 3298.11 950.031 3301.11 950.031 3303.11 1109.04 3305.11 1109.04 3307.11 1109.04 3310.11 1109.04 3312.11 1109.04 3314.11 1109.04 3316.11 1109.04 3318.11 1109.04 3321.11 1109.04 3323.11 1268.04 3325.11 1268.04 3327.11 1268.04 3330.11 1268.04 3332.11 1268.04 3334.11 1268.04 3336.11 1268.04 3339.11 1268.04 3341.11 1268.04 3343.11 1268.04 3345.11 1268.04 3347.11 1428.05 3350.11 1428.05 3352.11 1428.05 3354.11 1428.05 3356.11 1428.05 3359.11 1428.05 3361.11 1428.05 3363.11 1428.05 3365.11 1428.05 3367.11 1428.05 3370.11 1428.05 3372.11 1587.05 3374.11 1587.05 3376.11 1428.05 3379.11 1428.05 3381.11 1428.05 3383.11 1428.05 3385.11 1428.05 3387.11 1428.05 3390.11 1428.05 3392.11 1428.05 3394.11 1428.05 3396.11 1268.04 3399.11 1268.04 3401.11 1268.04 3403.11 1268.04 3405.11 1268.04 3408.11 1268.04 3410.11 1268.04 3412.11 1268.04 3414.11 1268.04 3416.11 1268.04 3419.11 1268.04 3421.11 1109.04 3423.11 1109.04 3425.11 1109.04 3428.11 1109.04 3430.11 1109.04 3432.11 1109.04 3434.11 1109.04 3436.11 1109.04 3439.11 1109.04 3441.11 1109.04 3443.11 1109.04 3445.11 950.031 3448.11 950.031 3450.11 1109.04 3452.11 1109.04 3454.11 1109.04 3456.11 1109.04 3459.11 1109.04 3461.11 1109.04 3463.11 1109.04 3465.11 1109.04 3468.11 1109.04 3470.11 1268.04 3472.11 1268.04 3474.11 1268.04 3477.11 1268.04 3479.11 1268.04 3481.11 1268.04 3483.11 1268.04 3485.11 1268.04 3488.11 1268.04 3490.11 1268.04 3492.11 1268.04 3494.11 1428.05 3497.11 1428.05 3499.11 1428.05 3501.11 1428.05 3503.11 1428.05 3505.12 1428.05 3508.12 1428.05 3510.12 1428.05 3512.12 1428.05 3514.12 1428.05 3517.12 1428.05 3519.12 1587.05 3521.12 1587.05 3523.12 1428.05 3526.12 1428.05 3528.12 1428.05 3530.12 1428.05 3532.12 1428.05 3534.12 1428.05 3537.12 1428.05 3539.12 1428.05 3541.12 1428.05 3543.12 1268.04 3546.12 1268.04 3548.12 1268.04 3550.12 1268.04 3552.12 1268.04 3554.12 1268.04 3557.12 1268.04 3559.12 1268.04 3561.12 1268.04 3563.12 1268.04 3566.12 1268.04 3568.12 1109.04 3570.12 1109.04 3572.12 1109.04 3574.12 1109.04 3577.12 1109.04 3579.12 1109.04 3581.12 1109.04 3583.12 1109.04 3586.12 1109.04 3588.12 1109.04 3590.12 1109.04 3592.12 950.031 3595.12 950.031 3597.12 1109.04 3599.12 1109.04 3601.12 1109.04 3603.12 1109.04 3606.12 1109.04 3608.12 1109.04 3610.12 1109.04 3612.12 1109.04 3615 1109.04" stroke="#4472C4" stroke-width="10.3125" stroke-linecap="round" stroke-linejoin="round" stroke-miterlimit="10" fill="none"/></g><g><path d="M1388 1428 1391.05 1428 1393.05 1428 1395.05 1428 1397.05 1428 1399.05 1428 1402.05 1428 1404.05 1428 1406.05 1428 1408.05 1428 1411.05 1428 1413.05 1428 1415.05 1428 1417.05 1428 1419.05 1428 1422.05 1428 1424.05 1428 1426.05 1428 1428.05 1428 1431.05 1428 1433.05 1428 1435.05 1428 1437.05 1428 1439.05 1428 1442.05 1428 1444.05 1428 1446.05 1428 1448.05 1428 1451.05 1428 1453.05 1428 1455.05 1428 1457.05 1428 1460.05 1428 1462.05 1428 1464.05 1428 1466.05 1428 1468.05 1428 1471.05 1428 1473.05 1428 1475.05 1428 1477.05 1428 1480.05 1428 1482.05 1428 1484.05 1428 1486.05 1428 1488.05 1428 1491.05 1428 1493.05 1428 1495.05 1428 1497.05 1428 1500.05 1428 1502.05 1428 1504.05 1428 1506.05 1428 1508.05 1428 1511.05 1428 1513.05 1428 1515.05 1428 1517.05 1428 1520.05 1428 1522.05 1428 1524.05 1428 1526.05 1428 1529.05 1428 1531.05 1428 1533.05 1428 1535.05 1428 1537.05 1428 1540.05 1428 1542.05 1428 1544.05 1428 1546.05 1428 1549.05 1428 1551.05 1428 1553.05 1428 1555.05 1428 1557.05 1428 1560.05 1428 1562.05 1428 1564.05 1428 1566.05 1746 1569.05 1746 1571.05 1746 1573.05 1746 1575.05 1746 1578.05 1746 1580.05 1746 1582.05 1746 1584.05 1746 1586.05 1746 1589.05 1746 1591.05 1746 1593.05 1746 1595.05 1746 1598.05 1746 1600.05 1746 1602.05 1746 1604.05 1746 1606.05 1746 1609.05 1746 1611.05 1746 1613.05 1746 1615.05 1746 1618.05 1746 1620.05 1746 1622.05 1746 1624.05 1746 1626.05 1746 1629.05 1746 1631.05 1746 1633.05 1746 1635.05 1746 1638.05 1746 1640.05 1746 1642.05 1746 1644.05 1746 1647.05 1746 1649.05 1746 1651.05 1746 1653.05 1746 1655.05 1746 1658.05 1746 1660.05 1746 1662.05 1746 1664.05 1746 1667.05 1746 1669.05 1746 1671.05 1746 1673.05 1746 1675.06 1746 1678.06 1746 1680.06 1746 1682.06 1746 1684.06 1746 1687.06 1746 1689.06 1746 1691.06 1746 1693.06 1746 1696.06 1746 1698.06 1746 1700.06 1746 1702.06 1746 1704.06 1746 1707.06 1746 1709.06 1746 1711.06 1746 1713.06 1746 1716.06 1746 1718.06 1746 1720.06 1746 1722.06 1746 1724.06 1746 1727.06 1746 1729.06 1746 1731.06 1746 1733.06 1746 1736.06 1746 1738.06 1746 1740.06 1746 1742.06 1746 1744.06 1746 1747.06 1746 1749.06 1746 1751.06 1746 1753.06 1428 1756.06 1428 1758.06 1428 1760.06 1428 1762.06 1428 1765.06 1428 1767.06 1428 1769.06 1428 1771.06 1428 1773.06 1428 1776.06 1428 1778.06 1428 1780.06 1428 1782.06 1428 1785.06 1428 1787.06 1428 1789.06 1428 1791.06 1428 1793.06 1428 1796.06 1428 1798.06 1428 1800.06 1428 1802.06 1428 1805.06 1428 1807.06 1428 1809.06 1428 1811.06 1428 1813.06 1428 1816.06 1428 1818.06 1428 1820.06 1428 1822.06 1428 1825.06 1428 1827.06 1428 1829.06 1428 1831.06 1746 1834.06 1746 1836.06 1746 1838.06 1746 1840.06 1746 1842.06 1746 1845.06 1746 1847.06 1746 1849.06 1746 1851.06 1746 1854.06 1746 1856.06 1746 1858.06 1746 1860.06 1746 1862.06 1746 1865.06 1746 1867.06 1746 1869.06 1746 1871.06 1746 1874.06 1746 1876.06 1746 1878.06 1746 1880.06 1746 1883.06 1746 1885.06 1746 1887.06 1746 1889.06 1746 1891.06 1746 1894.06 1746 1896.06 1746 1898.06 1746 1900.06 1746 1903.06 1746 1905.06 1746 1907.06 1746 1909.06 1428 1911.06 1428 1914.06 1428 1916.06 1428 1918.06 1428 1920.06 1428 1923.06 1428 1925.06 1428 1927.06 1428 1929.06 1428 1931.06 1428 1934.06 1428 1936.06 1428 1938.06 1428 1940.06 1428 1943.06 1428 1945.06 1428 1947.06 1428 1949.06 1428 1952.06 1428 1954.06 1428 1956.06 1428 1958.06 1428 1960.06 1428 1963.06 1428 1965.06 1428 1967.06 1428 1969.06 1428 1972.06 1428 1974.06 1428 1976.06 1428 1978.06 1428 1980.06 1746 1983.07 1746 1985.07 1746 1987.07 1746 1989.07 1746 1992.07 1746 1994.07 1746 1996.07 1746 1998.07 1746 2001.07 1746 2003.07 1746 2005.07 1746 2007.07 1746 2009.07 1746 2012.07 1746 2014.07 1746 2016.07 1746 2018.07 1746 2021.07 1746 2023.07 1746 2025.07 1746 2027.07 1746 2029.07 1746 2032.07 1746 2034.07 1746 2036.07 1746 2038.07 1746 2041.07 1746 2043.07 1746 2045.07 1746 2047.07 1746 2049.07 1746 2052.07 1746 2054.07 1746 2056.07 1428 2058.07 1428 2061.07 1428 2063.07 1428 2065.07 1428 2067.07 1428 2070.07 1428 2072.07 1428 2074.07 1428 2076.07 1428 2078.07 1428 2081.07 1428 2083.07 1428 2085.07 1428 2087.07 1428 2090.07 1428 2092.07 1428 2094.07 1428 2096.07 1428 2098.07 1428 2101.07 1428 2103.07 1428 2105.07 1428 2107.07 1428 2110.07 1428 2112.07 1428 2114.07 1428 2116.07 1428 2118.07 1428 2121.07 1428 2123.07 1428 2125.07 1428 2127.07 1746 2130.07 1746 2132.07 1746 2134.07 1746 2136.07 1746 2139.07 1746 2141.07 1746 2143.07 1746 2145.07 1746 2147.07 1746 2150.07 1746 2152.07 1746 2154.07 1746 2156.07 1746 2159.07 1746 2161.07 1746 2163.07 1746 2165.07 1746 2167.07 1746 2170.07 1746 2172.07 1746 2174.07 1746 2176.07 1746 2179.07 1746 2181.07 1746 2183.07 1746 2185.07 1746 2188.07 1746 2190.07 1746 2192.07 1746 2194.07 1746 2196.07 1746 2199.07 1746 2201.07 1428 2203.07 1428 2205.07 1428 2208.07 1428 2210.07 1428 2212.07 1428 2214.07 1428 2216.07 1428 2219.07 1428 2221.07 1428 2223.07 1428 2225.07 1428 2228.07 1428 2230.07 1428 2232.07 1428 2234.07 1428 2236.07 1428 2239.07 1428 2241.07 1428 2243.07 1428 2245.07 1428 2248.07 1428 2250.07 1428 2252.07 1428 2254.07 1428 2257.07 1428 2259.07 1428 2261.07 1428 2263.07 1428 2265.07 1428 2268.07 1428 2270.07 1428 2272.07 1428 2274.07 1746 2277.07 1746 2279.07 1746 2281.07 1746 2283.07 1746 2285.07 1746 2288.08 1746 2290.08 1746 2292.08 1746 2294.08 1746 2297.08 1746 2299.08 1746 2301.08 1746 2303.08 1746 2306.08 1746 2308.08 1746 2310.08 1746 2312.08 1746 2314.08 1746 2317.08 1746 2319.08 1746 2321.08 1746 2323.08 1746 2326.08 1746 2328.08 1746 2330.08 1746 2332.08 1746 2334.08 1746 2337.08 1746 2339.08 1746 2341.08 1746 2343.08 1746 2346.08 1746 2348.08 1428 2350.08 1428 2352.08 1428 2354.08 1428 2357.08 1428 2359.08 1428 2361.08 1428 2363.08 1428 2366.08 1428 2368.08 1428 2370.08 1428 2372.08 1428 2375.08 1428 2377.08 1428 2379.08 1428 2381.08 1428 2383.08 1428 2386.08 1428 2388.08 1428 2390.08 1428 2392.08 1428 2395.08 1428 2397.08 1428 2399.08 1428 2401.08 1428 2403.08 1428 2406.08 1428 2408.08 1428 2410.08 1428 2412.08 1428 2415.08 1428 2417.08 1428 2419.08 1428 2421.08 1746 2423.08 1746 2426.08 1746 2428.08 1746 2430.08 1746 2432.08 1746 2435.08 1746 2437.08 1746 2439.08 1746 2441.08 1746 2444.08 1746 2446.08 1746 2448.08 1746 2450.08 1746 2452.08 1746 2455.08 1746 2457.08 1746 2459.08 1746 2461.08 1746 2464.08 1746 2466.08 1746 2468.08 1746 2470.08 1746 2472.08 1746 2475.08 1746 2477.08 1746 2479.08 1746 2481.08 1746 2484.08 1746 2486.08 1746 2488.08 1746 2490.08 1746 2493.08 1746 2495.08 1428 2497.08 1428 2499.08 1428 2501.08 1428 2504.08 1428 2506.08 1428 2508.08 1428 2510.08 1428 2513.08 1428 2515.08 1428 2517.08 1428 2519.08 1428 2521.08 1428 2524.08 1428 2526.08 1428 2528.08 1428 2530.08 1428 2533.08 1428 2535.08 1428 2537.08 1428 2539.08 1428 2541.08 1428 2544.08 1428 2546.08 1428 2548.08 1428 2550.08 1428 2553.08 1428 2555.08 1428 2557.08 1428 2559.08 1428 2562.08 1428 2564.08 1428 2566.08 1428 2568.08 1746 2570.08 1746 2573.08 1746 2575.08 1746 2577.08 1746 2579.08 1746 2582.08 1746 2584.08 1746 2586.08 1746 2588.08 1746 2590.08 1746 2593.08 1746 2595.09 1746 2597.09 1746 2599.09 1746 2602.09 1746 2604.09 1746 2606.09 1746 2608.09 1746 2611.09 1746 2613.09 1746 2615.09 1746 2617.09 1746 2619.09 1746 2622.09 1746 2624.09 1746 2626.09 1746 2628.09 1746 2631.09 1746 2633.09 1746 2635.09 1746 2637.09 1746 2639.09 1746 2642.09 1428 2644.09 1428 2646.09 1428 2648.09 1428 2651.09 1428 2653.09 1428 2655.09 1428 2657.09 1428 2659.09 1428 2662.09 1428 2664.09 1428 2666.09 1428 2668.09 1428 2671.09 1428 2673.09 1428 2675.09 1428 2677.09 1428 2680.09 1428 2682.09 1428 2684.09 1428 2686.09 1428 2688.09 1428 2691.09 1428 2693.09 1428 2695.09 1428 2697.09 1428 2700.09 1428 2702.09 1428 2704.09 1428 2706.09 1428 2708.09 1428 2711.09 1428 2713.09 1428 2715.09 1746 2717.09 1746 2720.09 1746 2722.09 1746 2724.09 1746 2726.09 1746 2728.09 1746 2731.09 1746 2733.09 1746 2735.09 1746 2737.09 1746 2740.09 1746 2742.09 1746 2744.09 1746 2746.09 1746 2749.09 1746 2751.09 1746 2753.09 1746 2755.09 1746 2757.09 1746 2760.09 1746 2762.09 1746 2764.09 1746 2766.09 1746 2769.09 1746 2771.09 1746 2773.09 1746 2775.09 1746 2777.09 1746 2780.09 1746 2782.09 1746 2784.09 1746 2786.09 1746 2789.09 1428 2791.09 1428 2793.09 1428 2795.09 1428 2798.09 1428 2800.09 1428 2802.09 1428 2804.09 1428 2806.09 1428 2809.09 1428 2811.09 1428 2813.09 1428 2815.09 1428 2818.09 1428 2820.09 1428 2822.09 1428 2824.09 1428 2826.09 1428 2829.09 1428 2831.09 1428 2833.09 1428 2835.09 1428 2838.09 1428 2840.09 1428 2842.09 1428 2844.09 1428 2846.09 1428 2849.09 1428 2851.09 1428 2853.09 1428 2855.09 1428 2858.09 1428 2860.09 1428 2862.09 1746 2864.09 1746 2867.09 1746 2869.09 1746 2871.09 1746 2873.09 1746 2875.09 1746 2878.09 1746 2880.09 1746 2882.09 1746 2884.09 1746 2887.09 1746 2889.09 1746 2891.09 1746 2893.09 1746 2895.09 1746 2898.1 1746 2900.1 1746 2902.1 1746 2904.1 1746 2907.1 1746 2909.1 1746 2911.1 1746 2913.1 1746 2916.1 1746 2918.1 1746 2920.1 1746 2922.1 1746 2924.1 1746 2927.1 1746 2929.1 1746 2931.1 1746 2933.1 1746 2936.1 1428 2938.1 1428 2940.1 1428 2942.1 1428 2944.1 1428 2947.1 1428 2949.1 1428 2951.1 1428 2953.1 1428 2956.1 1428 2958.1 1428 2960.1 1428 2962.1 1428 2964.1 1428 2967.1 1428 2969.1 1428 2971.1 1428 2973.1 1428 2976.1 1428 2978.1 1428 2980.1 1428 2982.1 1428 2985.1 1428 2987.1 1428 2989.1 1428 2991.1 1428 2993.1 1428 2996.1 1428 2998.1 1428 3000.1 1428 3002.1 1428 3005.1 1428 3007.1 1428 3009.1 1746 3011.1 1746 3013.1 1746 3016.1 1746 3018.1 1746 3020.1 1746 3022.1 1746 3025.1 1746 3027.1 1746 3029.1 1746 3031.1 1746 3034.1 1746 3036.1 1746 3038.1 1746 3040.1 1746 3042.1 1746 3045.1 1746 3047.1 1746 3049.1 1746 3051.1 1746 3054.1 1746 3056.1 1746 3058.1 1746 3060.1 1746 3062.1 1746 3065.1 1746 3067.1 1746 3069.1 1746 3071.1 1746 3074.1 1746 3076.1 1746 3078.1 1746 3080.1 1746 3082.1 1428 3085.1 1428 3087.1 1428 3089.1 1428 3091.1 1428 3094.1 1428 3096.1 1428 3098.1 1428 3100.1 1428 3103.1 1428 3105.1 1428 3107.1 1428 3109.1 1428 3111.1 1428 3114.1 1428 3116.1 1428 3118.1 1428 3120.1 1428 3123.1 1428 3125.1 1428 3127.1 1428 3129.1 1428 3131.1 1428 3134.1 1428 3136.1 1428 3138.1 1428 3140.1 1428 3143.1 1428 3145.1 1428 3147.1 1428 3149.1 1428 3151.1 1428 3154.1 1428 3156.1 1746 3158.1 1746 3160.1 1746 3163.1 1746 3165.1 1746 3167.1 1746 3169.1 1746 3172.1 1746 3174.1 1746 3176.1 1746 3178.1 1746 3180.1 1746 3183.1 1746 3185.1 1746 3187.1 1746 3189.1 1746 3192.1 1746 3194.1 1746 3196.1 1746 3198.1 1746 3200.1 1746 3203.1 1746 3205.11 1746 3207.11 1746 3209.11 1746 3212.11 1746 3214.11 1746 3216.11 1746 3218.11 1746 3221.11 1746 3223.11 1746 3225.11 1746 3227.11 1746 3229.11 1428 3232.11 1428 3234.11 1428 3236.11 1428 3238.11 1428 3241.11 1428 3243.11 1428 3245.11 1428 3247.11 1428 3249.11 1428 3252.11 1428 3254.11 1428 3256.11 1428 3258.11 1428 3261.11 1428 3263.11 1428 3265.11 1428 3267.11 1428 3269.11 1428 3272.11 1428 3274.11 1428 3276.11 1428 3278.11 1428 3281.11 1428 3283.11 1428 3285.11 1428 3287.11 1428 3290.11 1428 3292.11 1428 3294.11 1428 3296.11 1428 3298.11 1428 3301.11 1428 3303.11 1746 3305.11 1746 3307.11 1746 3310.11 1746 3312.11 1746 3314.11 1746 3316.11 1746 3318.11 1746 3321.11 1746 3323.11 1746 3325.11 1746 3327.11 1746 3330.11 1746 3332.11 1746 3334.11 1746 3336.11 1746 3339.11 1746 3341.11 1746 3343.11 1746 3345.11 1746 3347.11 1746 3350.11 1746 3352.11 1746 3354.11 1746 3356.11 1746 3359.11 1746 3361.11 1746 3363.11 1746 3365.11 1746 3367.11 1746 3370.11 1746 3372.11 1746 3374.11 1746 3376.11 1428 3379.11 1428 3381.11 1428 3383.11 1428 3385.11 1428 3387.11 1428 3390.11 1428 3392.11 1428 3394.11 1428 3396.11 1428 3399.11 1428 3401.11 1428 3403.11 1428 3405.11 1428 3408.11 1428 3410.11 1428 3412.11 1428 3414.11 1428 3416.11 1428 3419.11 1428 3421.11 1428 3423.11 1428 3425.11 1428 3428.11 1428 3430.11 1428 3432.11 1428 3434.11 1428 3436.11 1428 3439.11 1428 3441.11 1428 3443.11 1428 3445.11 1428 3448.11 1428 3450.11 1746 3452.11 1746 3454.11 1746 3456.11 1746 3459.11 1746 3461.11 1746 3463.11 1746 3465.11 1746 3468.11 1746 3470.11 1746 3472.11 1746 3474.11 1746 3477.11 1746 3479.11 1746 3481.11 1746 3483.11 1746 3485.11 1746 3488.11 1746 3490.11 1746 3492.11 1746 3494.11 1746 3497.11 1746 3499.11 1746 3501.11 1746 3503.11 1746 3505.12 1746 3508.12 1746 3510.12 1746 3512.12 1746 3514.12 1746 3517.12 1746 3519.12 1746 3521.12 1746 3523.12 1428 3526.12 1428 3528.12 1428 3530.12 1428 3532.12 1428 3534.12 1428 3537.12 1428 3539.12 1428 3541.12 1428 3543.12 1428 3546.12 1428 3548.12 1428 3550.12 1428 3552.12 1428 3554.12 1428 3557.12 1428 3559.12 1428 3561.12 1428 3563.12 1428 3566.12 1428 3568.12 1428 3570.12 1428 3572.12 1428 3574.12 1428 3577.12 1428 3579.12 1428 3581.12 1428 3583.12 1428 3586.12 1428 3588.12 1428 3590.12 1428 3592.12 1428 3595.12 1428 3597.12 1746 3599.12 1746 3601.12 1746 3603.12 1746 3606.12 1746 3608.12 1746 3610.12 1746 3612.12 1746 3615 1746" stroke="#70AD47" stroke-width="10.3125" stroke-linecap="round" stroke-linejoin="round" stroke-miterlimit="10" fill="none"/></g><g><text fill="#595959" font-family="Calibri,Calibri_MSFontService,sans-serif" font-weight="400" font-size="41" transform="matrix(1 0 0 1 1315.42 1917)">-2</text></g><g><text fill="#595959" font-family="Calibri,Calibri_MSFontService,sans-serif" font-weight="400" font-size="41" transform="matrix(1 0 0 1 1315.42 1758)">-1</text></g><g><text fill="#595959" font-family="Calibri,Calibri_MSFontService,sans-serif" font-weight="400" font-size="41" transform="matrix(1 0 0 1 1328.04 1598)">0</text></g><g><text fill="#595959" font-family="Calibri,Calibri_MSFontService,sans-serif" font-weight="400" font-size="41" transform="matrix(1 0 0 1 1328.04 1439)">1</text></g><g><text fill="#595959" font-family="Calibri,Calibri_MSFontService,sans-serif" font-weight="400" font-size="41" transform="matrix(1 0 0 1 1328.04 1280)">2</text></g><g><text fill="#595959" font-family="Calibri,Calibri_MSFontService,sans-serif" font-weight="400" font-size="41" transform="matrix(1 0 0 1 1328.04 1121)">3</text></g><g><text fill="#595959" font-family="Calibri,Calibri_MSFontService,sans-serif" font-weight="400" font-size="41" transform="matrix(1 0 0 1 1328.04 961)">4</text></g><g><text fill="#595959" font-family="Calibri,Calibri_MSFontService,sans-serif" font-weight="400" font-size="41" transform="matrix(1 0 0 1 1328.04 802)">5</text></g><g><text fill="#595959" font-family="Calibri,Calibri_MSFontService,sans-serif" font-weight="400" font-size="41" transform="matrix(1 0 0 1 1328.04 643)">6</text></g><g><text fill="#595959" font-family="Calibri,Calibri_MSFontService,sans-serif" font-weight="400" font-size="41" transform="matrix(1 0 0 1 1328.04 483)">7</text></g><g><text fill="#595959" font-family="Calibri,Calibri_MSFontService,sans-serif" font-weight="400" font-size="41" transform="matrix(1 0 0 1 1328.04 324)">8</text></g><g><text fill="#595959" font-family="Calibri,Calibri_MSFontService,sans-serif" font-weight="400" font-size="41" transform="matrix(6.12323e-17 -1 1 6.12323e-17 1402.15 1634)">0</text></g><g><text fill="#595959" font-family="Calibri,Calibri_MSFontService,sans-serif" font-weight="400" font-size="41" transform="matrix(6.12323e-17 -1 1 6.12323e-17 1453.36 1686)">0.23</text></g><g><text fill="#595959" font-family="Calibri,Calibri_MSFontService,sans-serif" font-weight="400" font-size="41" transform="matrix(6.12323e-17 -1 1 6.12323e-17 1504.56 1686)">0.46</text></g><g><text fill="#595959" font-family="Calibri,Calibri_MSFontService,sans-serif" font-weight="400" font-size="41" transform="matrix(6.12323e-17 -1 1 6.12323e-17 1555.77 1686)">0.69</text></g><g><text fill="#595959" font-family="Calibri,Calibri_MSFontService,sans-serif" font-weight="400" font-size="41" transform="matrix(6.12323e-17 -1 1 6.12323e-17 1606.97 1686)">0.92</text></g><g><text fill="#595959" font-family="Calibri,Calibri_MSFontService,sans-serif" font-weight="400" font-size="41" transform="matrix(6.12323e-17 -1 1 6.12323e-17 1658.18 1686)">1.15</text></g><g><text fill="#595959" font-family="Calibri,Calibri_MSFontService,sans-serif" font-weight="400" font-size="41" transform="matrix(6.12323e-17 -1 1 6.12323e-17 1709.39 1686)">1.38</text></g><g><text fill="#595959" font-family="Calibri,Calibri_MSFontService,sans-serif" font-weight="400" font-size="41" transform="matrix(6.12323e-17 -1 1 6.12323e-17 1760.59 1686)">1.61</text></g><g><text fill="#595959" font-family="Calibri,Calibri_MSFontService,sans-serif" font-weight="400" font-size="41" transform="matrix(6.12323e-17 -1 1 6.12323e-17 1811.8 1686)">1.84</text></g><g><text fill="#595959" font-family="Calibri,Calibri_MSFontService,sans-serif" font-weight="400" font-size="41" transform="matrix(6.12323e-17 -1 1 6.12323e-17 1863.01 1686)">2.07</text></g><g><text fill="#595959" font-family="Calibri,Calibri_MSFontService,sans-serif" font-weight="400" font-size="41" transform="matrix(6.12323e-17 -1 1 6.12323e-17 1914.21 1665)">2.3</text></g><g><text fill="#595959" font-family="Calibri,Calibri_MSFontService,sans-serif" font-weight="400" font-size="41" transform="matrix(6.12323e-17 -1 1 6.12323e-17 1965.42 1686)">2.53</text></g><g><text fill="#595959" font-family="Calibri,Calibri_MSFontService,sans-serif" font-weight="400" font-size="41" transform="matrix(6.12323e-17 -1 1 6.12323e-17 2016.62 1686)">2.76</text></g><g><text fill="#595959" font-family="Calibri,Calibri_MSFontService,sans-serif" font-weight="400" font-size="41" transform="matrix(6.12323e-17 -1 1 6.12323e-17 2067.83 1686)">2.99</text></g><g><text fill="#595959" font-family="Calibri,Calibri_MSFontService,sans-serif" font-weight="400" font-size="41" transform="matrix(6.12323e-17 -1 1 6.12323e-17 2119.04 1686)">3.22</text></g><g><text fill="#595959" font-family="Calibri,Calibri_MSFontService,sans-serif" font-weight="400" font-size="41" transform="matrix(6.12323e-17 -1 1 6.12323e-17 2170.24 1686)">3.45</text></g><g><text fill="#595959" font-family="Calibri,Calibri_MSFontService,sans-serif" font-weight="400" font-size="41" transform="matrix(6.12323e-17 -1 1 6.12323e-17 2221.45 1686)">3.68</text></g><g><text fill="#595959" font-family="Calibri,Calibri_MSFontService,sans-serif" font-weight="400" font-size="41" transform="matrix(6.12323e-17 -1 1 6.12323e-17 2272.65 1686)">3.91</text></g><g><text fill="#595959" font-family="Calibri,Calibri_MSFontService,sans-serif" font-weight="400" font-size="41" transform="matrix(6.12323e-17 -1 1 6.12323e-17 2323.86 1686)">4.14</text></g><g><text fill="#595959" font-family="Calibri,Calibri_MSFontService,sans-serif" font-weight="400" font-size="41" transform="matrix(6.12323e-17 -1 1 6.12323e-17 2375.07 1686)">4.37</text></g><g><text fill="#595959" font-family="Calibri,Calibri_MSFontService,sans-serif" font-weight="400" font-size="41" transform="matrix(6.12323e-17 -1 1 6.12323e-17 2426.27 1665)">4.6</text></g><g><text fill="#595959" font-family="Calibri,Calibri_MSFontService,sans-serif" font-weight="400" font-size="41" transform="matrix(6.12323e-17 -1 1 6.12323e-17 2477.48 1686)">4.83</text></g><g><text fill="#595959" font-family="Calibri,Calibri_MSFontService,sans-serif" font-weight="400" font-size="41" transform="matrix(6.12323e-17 -1 1 6.12323e-17 2528.69 1686)">5.06</text></g><g><text fill="#595959" font-family="Calibri,Calibri_MSFontService,sans-serif" font-weight="400" font-size="41" transform="matrix(6.12323e-17 -1 1 6.12323e-17 2579.89 1686)">5.29</text></g><g><text fill="#595959" font-family="Calibri,Calibri_MSFontService,sans-serif" font-weight="400" font-size="41" transform="matrix(6.12323e-17 -1 1 6.12323e-17 2631.1 1686)">5.52</text></g><g><text fill="#595959" font-family="Calibri,Calibri_MSFontService,sans-serif" font-weight="400" font-size="41" transform="matrix(6.12323e-17 -1 1 6.12323e-17 2682.3 1686)">5.75</text></g><g><text fill="#595959" font-family="Calibri,Calibri_MSFontService,sans-serif" font-weight="400" font-size="41" transform="matrix(6.12323e-17 -1 1 6.12323e-17 2733.51 1686)">5.98</text></g><g><text fill="#595959" font-family="Calibri,Calibri_MSFontService,sans-serif" font-weight="400" font-size="41" transform="matrix(6.12323e-17 -1 1 6.12323e-17 2784.72 1686)">6.21</text></g><g><text fill="#595959" font-family="Calibri,Calibri_MSFontService,sans-serif" font-weight="400" font-size="41" transform="matrix(6.12323e-17 -1 1 6.12323e-17 2835.92 1686)">6.44</text></g><g><text fill="#595959" font-family="Calibri,Calibri_MSFontService,sans-serif" font-weight="400" font-size="41" transform="matrix(6.12323e-17 -1 1 6.12323e-17 2887.13 1686)">6.67</text></g><g><text fill="#595959" font-family="Calibri,Calibri_MSFontService,sans-serif" font-weight="400" font-size="41" transform="matrix(6.12323e-17 -1 1 6.12323e-17 2938.33 1665)">6.9</text></g><g><text fill="#595959" font-family="Calibri,Calibri_MSFontService,sans-serif" font-weight="400" font-size="41" transform="matrix(6.12323e-17 -1 1 6.12323e-17 2989.54 1686)">7.13</text></g><g><text fill="#595959" font-family="Calibri,Calibri_MSFontService,sans-serif" font-weight="400" font-size="41" transform="matrix(6.12323e-17 -1 1 6.12323e-17 3040.75 1686)">7.36</text></g><g><text fill="#595959" font-family="Calibri,Calibri_MSFontService,sans-serif" font-weight="400" font-size="41" transform="matrix(6.12323e-17 -1 1 6.12323e-17 3091.95 1686)">7.59</text></g><g><text fill="#595959" font-family="Calibri,Calibri_MSFontService,sans-serif" font-weight="400" font-size="41" transform="matrix(6.12323e-17 -1 1 6.12323e-17 3143.16 1686)">7.82</text></g><g><text fill="#595959" font-family="Calibri,Calibri_MSFontService,sans-serif" font-weight="400" font-size="41" transform="matrix(6.12323e-17 -1 1 6.12323e-17 3194.36 1686)">8.05</text></g><g><text fill="#595959" font-family="Calibri,Calibri_MSFontService,sans-serif" font-weight="400" font-size="41" transform="matrix(6.12323e-17 -1 1 6.12323e-17 3245.57 1686)">8.28</text></g><g><text fill="#595959" font-family="Calibri,Calibri_MSFontService,sans-serif" font-weight="400" font-size="41" transform="matrix(6.12323e-17 -1 1 6.12323e-17 3296.78 1686)">8.51</text></g><g><text fill="#595959" font-family="Calibri,Calibri_MSFontService,sans-serif" font-weight="400" font-size="41" transform="matrix(6.12323e-17 -1 1 6.12323e-17 3347.98 1686)">8.74</text></g><g><text fill="#595959" font-family="Calibri,Calibri_MSFontService,sans-serif" font-weight="400" font-size="41" transform="matrix(6.12323e-17 -1 1 6.12323e-17 3399.19 1686)">8.97</text></g><g><text fill="#595959" font-family="Calibri,Calibri_MSFontService,sans-serif" font-weight="400" font-size="41" transform="matrix(6.12323e-17 -1 1 6.12323e-17 3450.4 1665)">9.2</text></g><g><text fill="#595959" font-family="Calibri,Calibri_MSFontService,sans-serif" font-weight="400" font-size="41" transform="matrix(6.12323e-17 -1 1 6.12323e-17 3501.6 1686)">9.43</text></g><g><text fill="#595959" font-family="Calibri,Calibri_MSFontService,sans-serif" font-weight="400" font-size="41" transform="matrix(6.12323e-17 -1 1 6.12323e-17 3552.81 1686)">9.66</text></g><g><text fill="#595959" font-family="Calibri,Calibri_MSFontService,sans-serif" font-weight="400" font-size="41" transform="matrix(6.12323e-17 -1 1 6.12323e-17 3604.01 1686)">9.89</text></g><g><text fill="#595959" font-family="Calibri,Calibri_MSFontService,sans-serif" font-weight="400" font-size="64" transform="matrix(1 0 0 1 2329.08 238)">Supervisor Scenario</text></g><g><path d="M3688 954 3776 954" stroke="#ED7D31" stroke-width="10.3125" stroke-linecap="round" stroke-linejoin="round" stroke-miterlimit="10" fill="none" fill-rule="evenodd"/></g><g><text fill="#595959" font-family="Calibri,Calibri_MSFontService,sans-serif" font-weight="400" font-size="41" transform="matrix(1 0 0 1 3784.8 966)">x</text></g><g><path d="M3688 1032 3776 1032" stroke="#A5A5A5" stroke-width="10.3125" stroke-linecap="round" stroke-linejoin="round" stroke-miterlimit="10" fill="none" fill-rule="evenodd"/></g><g><text fill="#595959" font-family="Calibri,Calibri_MSFontService,sans-serif" font-weight="400" font-size="41" transform="matrix(1 0 0 1 3784.8 1043)">r</text></g><g><path d="M3688 1109 3776 1109" stroke="#FFC000" stroke-width="10.3125" stroke-linecap="round" stroke-linejoin="round" stroke-miterlimit="10" fill="none" fill-rule="evenodd"/></g><g><text fill="#595959" font-family="Calibri,Calibri_MSFontService,sans-serif" font-weight="400" font-size="41" transform="matrix(1 0 0 1 3784.8 1121)">x_r</text></g><g><path d="M3688 1186 3776 1186" stroke="#4472C4" stroke-width="10.3125" stroke-linecap="round" stroke-linejoin="round" stroke-miterlimit="10" fill="none" fill-rule="evenodd"/></g><g><text fill="#595959" font-family="Calibri,Calibri_MSFontService,sans-serif" font-weight="400" font-size="41" transform="matrix(1 0 0 1 3784.8 1198)">u_r</text></g><g><path d="M3688 1264 3776 1264" stroke="#70AD47" stroke-width="10.3125" stroke-linecap="round" stroke-linejoin="round" stroke-miterlimit="10" fill="none" fill-rule="evenodd"/></g><g><text fill="#595959" font-family="Calibri,Calibri_MSFontService,sans-serif" font-weight="400" font-size="41" transform="matrix(1 0 0 1 3784.8 1275)">a_s</text></g><rect x="1286.5" y="143.5" width="2602" height="1813" stroke="#D9D9D9" stroke-width="3.4375" stroke-linejoin="round" stroke-miterlimit="10" fill="none"/></g></svg>