<svg width="2642" height="2071" xmlns="http://www.w3.org/2000/svg" xmlns:xlink="http://www.w3.org/1999/xlink" xml:space="preserve" overflow="hidden"><defs><clipPath id="clip0"><rect x="1127" y="73" width="2642" height="2071"/></clipPath><clipPath id="clip1"><rect x="1127" y="73" width="2640" height="2068"/></clipPath><clipPath id="clip2"><rect x="1127" y="73" width="2640" height="2068"/></clipPath><clipPath id="clip3"><rect x="1229" y="243" width="2491" height="1746"/></clipPath><clipPath id="clip4"><rect x="1229" y="243" width="2491" height="1746"/></clipPath><clipPath id="clip5"><rect x="1127" y="73" width="2640" height="2068"/></clipPath><clipPath id="clip6"><rect x="1127" y="73" width="2640" height="2068"/></clipPath><clipPath id="clip7"><rect x="1127" y="73" width="2640" height="2068"/></clipPath><clipPath id="clip8"><rect x="1127" y="73" width="2640" height="2068"/></clipPath><clipPath id="clip9"><rect x="1127" y="73" width="2640" height="2068"/></clipPath><clipPath id="clip10"><rect x="1127" y="73" width="2640" height="2068"/></clipPath><clipPath id="clip11"><rect x="1127" y="73" width="2640" height="2068"/></clipPath><clipPath id="clip12"><rect x="1127" y="73" width="2640" height="2068"/></clipPath><clipPath id="clip13"><rect x="1127" y="73" width="2640" height="2068"/></clipPath><clipPath id="clip14"><rect x="1127" y="73" width="2640" height="2068"/></clipPath><clipPath id="clip15"><rect x="1127" y="73" width="2640" height="2068"/></clipPath><clipPath id="clip16"><rect x="1127" y="73" width="2640" height="2068"/></clipPath><clipPath id="clip17"><rect x="1127" y="73" width="2640" height="2068"/></clipPath><clipPath id="clip18"><rect x="1127" y="73" width="2640" height="2068"/></clipPath><clipPath id="clip19"><rect x="1127" y="73" width="2640" height="2068"/></clipPath><clipPath id="clip20"><rect x="1127" y="73" width="2640" height="2068"/></clipPath><clipPath id="clip21"><rect x="1127" y="73" width="2640" height="2068"/></clipPath><clipPath id="clip22"><rect x="1127" y="73" width="2640" height="2068"/></clipPath><clipPath id="clip23"><rect x="1127" y="73" width="2640" height="2068"/></clipPath><clipPath id="clip24"><rect x="1127" y="73" width="2640" height="2068"/></clipPath><clipPath id="clip25"><rect x="1127" y="73" width="2640" height="2068"/></clipPath><clipPath id="clip26"><rect x="1127" y="73" width="2640" height="2068"/></clipPath><clipPath id="clip27"><rect x="1127" y="73" width="2640" height="2068"/></clipPath><clipPath id="clip28"><rect x="1127" y="73" width="2640" height="2068"/></clipPath><clipPath id="clip29"><rect x="1127" y="73" width="2640" height="2068"/></clipPath><clipPath id="clip30"><rect x="1127" y="73" width="2640" height="2068"/></clipPath><clipPath id="clip31"><rect x="1127" y="73" width="2640" height="2068"/></clipPath><clipPath id="clip32"><rect x="1127" y="73" width="2640" height="2068"/></clipPath><clipPath id="clip33"><rect x="1127" y="73" width="2640" height="2068"/></clipPath><clipPath id="clip34"><rect x="1127" y="73" width="2640" height="2068"/></clipPath><clipPath id="clip35"><rect x="1127" y="73" width="2640" height="2068"/></clipPath><clipPath id="clip36"><rect x="1127" y="73" width="2640" height="2068"/></clipPath><clipPath id="clip37"><rect x="1127" y="73" width="2640" height="2068"/></clipPath><clipPath id="clip38"><rect x="1127" y="73" width="2640" height="2068"/></clipPath><clipPath id="clip39"><rect x="1127" y="73" width="2640" height="2068"/></clipPath><clipPath id="clip40"><rect x="1127" y="73" width="2640" height="2068"/></clipPath><clipPath id="clip41"><rect x="1127" y="73" width="2640" height="2068"/></clipPath><clipPath id="clip42"><rect x="1127" y="73" width="2640" height="2068"/></clipPath><clipPath id="clip43"><rect x="1127" y="73" width="2640" height="2068"/></clipPath><clipPath id="clip44"><rect x="1127" y="73" width="2640" height="2068"/></clipPath><clipPath id="clip45"><rect x="1127" y="73" width="2640" height="2068"/></clipPath><clipPath id="clip46"><rect x="1127" y="73" width="2640" height="2068"/></clipPath><clipPath id="clip47"><rect x="1127" y="73" width="2640" height="2068"/></clipPath><clipPath id="clip48"><rect x="1127" y="73" width="2640" height="2068"/></clipPath><clipPath id="clip49"><rect x="1127" y="73" width="2640" height="2068"/></clipPath><clipPath id="clip50"><rect x="1127" y="73" width="2640" height="2068"/></clipPath><clipPath id="clip51"><rect x="1127" y="73" width="2640" height="2068"/></clipPath><clipPath id="clip52"><rect x="1127" y="73" width="2640" height="2068"/></clipPath><clipPath id="clip53"><rect x="1127" y="73" width="2640" height="2068"/></clipPath><clipPath id="clip54"><rect x="1127" y="73" width="2640" height="2068"/></clipPath><clipPath id="clip55"><rect x="1127" y="73" width="2640" height="2068"/></clipPath><clipPath id="clip56"><rect x="1127" y="73" width="2640" height="2068"/></clipPath><clipPath id="clip57"><rect x="1127" y="73" width="2640" height="2068"/></clipPath><clipPath id="clip58"><rect x="1127" y="73" width="2640" height="2068"/></clipPath><clipPath id="clip59"><rect x="1127" y="73" width="2640" height="2068"/></clipPath><clipPath id="clip60"><rect x="1127" y="73" width="2640" height="2068"/></clipPath><clipPath id="clip61"><rect x="1127" y="73" width="2640" height="2068"/></clipPath><clipPath id="clip62"><rect x="1127" y="73" width="2640" height="2068"/></clipPath><clipPath id="clip63"><rect x="1127" y="73" width="2640" height="2068"/></clipPath><clipPath id="clip64"><rect x="1127" y="73" width="2640" height="2068"/></clipPath><clipPath id="clip65"><rect x="1127" y="73" width="2640" height="2068"/></clipPath><clipPath id="clip66"><rect x="1127" y="73" width="2640" height="2068"/></clipPath><clipPath id="clip67"><rect x="1127" y="73" width="2640" height="2068"/></clipPath><clipPath id="clip68"><rect x="1127" y="73" width="2640" height="2068"/></clipPath></defs><g clip-path="url(#clip0)" transform="translate(-1127 -73)"><rect x="1128" y="73.9999" width="2639" height="2068" fill="#FFFFFF"/><g clip-path="url(#clip1)"><path d="M1229.5 1986.5 3717.5 1986.5M1229.5 1812.56 3717.5 1812.56M1229.5 1463.55 3717.5 1463.55M1229.5 1289.54 3717.5 1289.54M1229.5 1115.54 3717.5 1115.54M1229.5 940.531 3717.5 940.531M1229.5 766.525 3717.5 766.525M1229.5 592.52 3717.5 592.52M1229.5 418.514 3717.5 418.514M1229.5 243.5 3717.5 243.5" stroke="#D9D9D9" stroke-width="3.4375" stroke-linejoin="round" stroke-miterlimit="10" fill="none"/></g><g clip-path="url(#clip2)"><path d="M1229.5 1637.5 3717.5 1637.5" stroke="#D9D9D9" stroke-width="3.4375" stroke-linejoin="round" stroke-miterlimit="10" fill="none" fill-rule="evenodd"/></g><g clip-path="url(#clip3)"><path d="M1230 1638 1233.04 1638 1235.04 1638 1238.04 1638 1240.04 1638 1243.04 1638 1245.04 1638 1248.04 1638 1250.04 1638 1253.04 1638 1255.04 1638 1258.04 1636.05 1260.04 1634.05 1263.04 1633.05 1265.04 1631.05 1268.04 1629.05 1270.04 1628.05 1273.04 1626.05 1275.04 1624.05 1278.04 1623.05 1280.04 1621.05 1282.04 1620.05 1285.04 1616.05 1287.04 1613.05 1290.04 1610.05 1292.04 1607.05 1295.04 1603.05 1297.04 1600.05 1300.04 1597.05 1302.04 1594.05 1305.04 1591.05 1307.04 1588.05 1310.04 1585.05 1312.04 1580.05 1315.04 1576.05 1317.04 1571.05 1320.04 1566.05 1322.04 1562.05 1325.04 1557.05 1327.04 1553.05 1330.04 1549.05 1332.04 1544.05 1335.04 1540.05 1337.04 1536.05 1340.04 1530.05 1342.04 1524.05 1345.04 1518.05 1347.04 1512.05 1350.04 1507.05 1352.04 1501.05 1355.04 1495.05 1357.04 1490.05 1360.04 1484.05 1362.04 1479.05 1365.04 1474.05 1367.04 1466.05 1369.04 1459.05 1372.04 1453.05 1374.05 1446.05 1377.05 1439.05 1379.05 1432.05 1382.05 1425.05 1384.05 1419.05 1387.05 1412.05 1389.05 1406.05 1392.05 1400.05 1394.05 1391.05 1397.05 1383.05 1399.05 1376.05 1402.05 1368.04 1404.05 1360.04 1407.05 1352.04 1409.05 1345.04 1412.05 1337.04 1414.05 1330.04 1417.05 1322.04 1419.05 1315.04 1422.05 1306.04 1424.05 1297.04 1427.05 1288.04 1429.05 1280.04 1432.05 1271.04 1434.05 1263.04 1437.05 1254.04 1439.05 1246.04 1442.05 1237.04 1444.05 1229.04 1447.05 1221.04 1449.05 1217.04 1451.05 1212.04 1454.05 1208.04 1456.05 1203.04 1459.05 1199.04 1461.05 1195.04 1464.05 1190.04 1466.05 1186.04 1469.05 1182.04 1471.05 1178.04 1474.05 1174.04 1476.05 1171.04 1479.05 1169.04 1481.05 1167.04 1484.05 1164.04 1486.05 1162.04 1489.05 1160.04 1491.05 1158.04 1494.05 1156.04 1496.05 1153.04 1499.05 1151.04 1501.05 1149.04 1504.05 1149.04 1506.05 1149.04 1509.05 1148.04 1511.05 1148.04 1514.05 1148.04 1516.05 1147.04 1519.05 1147.04 1521.05 1147.04 1524.05 1146.04 1526.05 1146.04 1529.05 1146 1531.05 1147.04 1534.05 1149.04 1536.05 1150.04 1538.05 1151.04 1541.05 1153.04 1543.05 1154.04 1546.05 1155.04 1548.05 1157.04 1551.05 1158.04 1553.05 1159.04 1556.05 1161.04 1558.05 1164.04 1561.05 1167.04 1563.05 1170.04 1566.05 1173.04 1568.05 1176.04 1571.05 1178.04 1573.05 1181.04 1576.05 1184.04 1578.05 1187.04 1581.05 1190.04 1583.05 1192.04 1586.05 1197.04 1588.05 1201.04 1591.05 1206.04 1593.05 1210.04 1596.05 1214.04 1598.05 1218.04 1601.05 1223.04 1603.05 1227.04 1606.05 1231.04 1608.05 1235.04 1611.05 1239.04 1613.05 1245.04 1616.05 1250.04 1618.05 1256.04 1621.05 1262.04 1623.05 1267.04 1625.05 1273.04 1628.05 1278.04 1630.05 1283.04 1633.05 1289.04 1635.05 1294.04 1638.05 1299.04 1640.05 1301.04 1643.05 1302.04 1645.05 1304.04 1648.05 1305.04 1650.05 1307.04 1653.05 1309.04 1655.05 1310.04 1658.05 1312.04 1660.05 1313.04 1663.05 1315.04 1665.05 1316.04 1668.05 1316.04 1670.05 1316.04 1673.05 1315.04 1675.05 1315.04 1678.05 1315.04 1680.06 1315.04 1683.06 1314.04 1685.06 1314.04 1688.06 1314.04 1690.06 1314.04 1693.06 1313.04 1695.06 1311.04 1698.06 1309.04 1700.06 1307.04 1703.06 1306.04 1705.06 1304.04 1707.06 1302.04 1710.06 1300.04 1712.06 1298.04 1715.06 1296.04 1717.06 1294.04 1720.06 1293.04 1722.06 1289.04 1725.06 1286.04 1727.06 1282.04 1730.06 1279.04 1732.06 1275.04 1735.06 1272.04 1737.06 1269.04 1740.06 1265.04 1742.06 1262.04 1745.06 1259.04 1747.06 1256.04 1750.06 1256.04 1752.06 1256.04 1755.06 1257.04 1757.06 1257.04 1760.06 1257.04 1762.06 1258.04 1765.06 1258.04 1767.06 1258.04 1770.06 1259.04 1772.06 1259.04 1775.06 1259.04 1777.06 1261.04 1780.06 1263.04 1782.06 1265.04 1785.06 1267.04 1787.06 1269.04 1790.06 1271.04 1792.06 1273.04 1794.06 1275.04 1797.06 1277.04 1799.06 1279.04 1802.06 1281.04 1804.06 1284.04 1807.06 1288.04 1809.06 1291.04 1812.06 1295.04 1814.06 1298.04 1817.06 1302.04 1819.06 1305.04 1822.06 1308.04 1824.06 1312.04 1827.06 1315.04 1829.06 1318.04 1832.06 1318.04 1834.06 1317.04 1837.06 1317.04 1839.06 1317.04 1842.06 1317.04 1844.06 1316.04 1847.06 1316.04 1849.06 1316.04 1852.06 1316.04 1854.06 1315.04 1857.06 1315.04 1859.06 1313.04 1862.06 1311.04 1864.06 1309.04 1867.06 1307.04 1869.06 1305.04 1872.06 1303.04 1874.06 1301.04 1877.06 1300.04 1879.06 1298.04 1881.06 1296.04 1884.06 1294.04 1886.06 1291.04 1889.06 1287.04 1891.06 1284.04 1894.06 1280.04 1896.06 1277.04 1899.06 1273.04 1901.06 1270.04 1904.06 1267.04 1906.06 1264.04 1909.06 1260.04 1911.06 1257.04 1914.06 1257.04 1916.06 1258.04 1919.06 1258.04 1921.06 1258.04 1924.06 1259.04 1926.06 1259.04 1929.06 1259.04 1931.06 1260.04 1934.06 1260.04 1936.06 1260.04 1939.06 1261.04 1941.06 1263.04 1944.06 1265.04 1946.06 1267.04 1949.06 1269.04 1951.06 1270.04 1954.06 1272.04 1956.06 1274.04 1959.06 1276.04 1961.06 1278.04 1963.06 1280.04 1966.06 1282.04 1968.06 1285.04 1971.06 1289.04 1973.06 1292.04 1976.06 1296.04 1978.06 1299.04 1981.06 1303.04 1983.06 1306.04 1986.07 1309.04 1988.07 1313.04 1991.07 1316.04 1993.07 1319.04 1996.07 1319.04 1998.07 1318.04 2001.07 1318.04 2003.07 1318.04 2006.07 1318.04 2008.07 1317.04 2011.07 1317.04 2013.07 1317.04 2016.07 1316.04 2018.07 1316.04 2021.07 1316.04 2023.07 1314.04 2026.07 1312.04 2028.07 1310.04 2031.07 1308.04 2033.07 1306.04 2036.07 1304.04 2038.07 1302.04 2041.07 1300.04 2043.07 1299.04 2046.07 1297.04 2048.07 1295.04 2050.07 1291.04 2053.07 1288.04 2055.07 1284.04 2058.07 1281.04 2060.07 1278.04 2063.07 1274.04 2065.07 1271.04 2068.07 1268.04 2070.07 1264.04 2073.07 1261.04 2075.07 1258.04 2078.07 1258.04 2080.07 1258.04 2083.07 1259.04 2085.07 1259.04 2088.07 1259.04 2090.07 1260.04 2093.07 1260.04 2095.07 1260.04 2098.07 1261.04 2100.07 1261.04 2103.07 1261.04 2105.07 1263.04 2108.07 1265.04 2110.07 1267.04 2113.07 1269.04 2115.07 1271.04 2118.07 1273.04 2120.07 1275.04 2123.07 1277.04 2125.07 1279.04 2128.07 1280.04 2130.07 1282.04 2132.07 1286.04 2135.07 1289.04 2137.07 1293.04 2140.07 1296.04 2142.07 1300.04 2145.07 1303.04 2147.07 1306.04 2150.07 1310.04 2152.07 1313.04 2155.07 1316.04 2157.07 1320.04 2160.07 1319.04 2162.07 1319.04 2165.07 1319.04 2167.07 1318.04 2170.07 1318.04 2172.07 1318.04 2175.07 1317.04 2177.07 1317.04 2180.07 1317.04 2182.07 1317.04 2185.07 1316.04 2187.07 1314.04 2190.07 1312.04 2192.07 1310.04 2195.07 1308.04 2197.07 1306.04 2200.07 1305.04 2202.07 1303.04 2205.07 1301.04 2207.07 1299.04 2210.07 1297.04 2212.07 1295.04 2215.07 1292.04 2217.07 1288.04 2219.07 1285.04 2222.07 1281.04 2224.07 1278.04 2227.07 1275.04 2229.07 1271.04 2232.07 1268.04 2234.07 1265.04 2237.07 1261.04 2239.07 1258.04 2242.07 1258.04 2244.07 1259.04 2247.07 1259.04 2249.07 1259.04 2252.07 1260.04 2254.07 1260.04 2257.07 1260.04 2259.07 1261.04 2262.07 1261.04 2264.07 1261.04 2267.07 1261.04 2269.07 1263.04 2272.07 1265.04 2274.07 1267.04 2277.07 1269.04 2279.07 1271.04 2282.07 1273.04 2284.07 1275.04 2287.07 1277.04 2289.08 1279.04 2292.08 1281.04 2294.08 1283.04 2297.08 1286.04 2299.08 1290.04 2302.08 1293.04 2304.08 1297.04 2306.08 1300.04 2309.08 1303.04 2311.08 1307.04 2314.08 1310.04 2316.08 1313.04 2319.08 1317.04 2321.08 1320.04 2324.08 1319.04 2326.08 1319.04 2329.08 1319.04 2331.08 1319.04 2334.08 1318.04 2336.08 1318.04 2339.08 1318.04 2341.08 1317.04 2344.08 1317.04 2346.08 1317.04 2349.08 1317.04 2351.08 1315.04 2354.08 1313.04 2356.08 1311.04 2359.08 1309.04 2361.08 1307.04 2364.08 1305.04 2366.08 1303.04 2369.08 1301.04 2371.08 1299.04 2374.08 1297.04 2376.08 1295.04 2379.08 1292.04 2381.08 1288.04 2384.08 1285.04 2386.08 1282.04 2388.08 1278.04 2391.08 1275.04 2393.08 1271.04 2396.08 1268.04 2398.08 1265.04 2401.08 1262.04 2403.08 1258.04 2406.08 1259.04 2408.08 1259.04 2411.08 1259.04 2413.08 1260.04 2416.08 1260.04 2418.08 1260.04 2421.08 1260.04 2423.08 1261.04 2426.08 1261.04 2428.08 1261.04 2431.08 1262.04 2433.08 1264.04 2436.08 1266.04 2438.08 1268.04 2441.08 1270.04 2443.08 1272.04 2446.08 1273.04 2448.08 1275.04 2451.08 1277.04 2453.08 1279.04 2456.08 1281.04 2458.08 1283.04 2461.08 1286.04 2463.08 1290.04 2466.08 1293.04 2468.08 1297.04 2471.08 1300.04 2473.08 1304.04 2475.08 1307.04 2478.08 1310.04 2480.08 1313.04 2483.08 1317.04 2485.08 1320.04 2488.08 1320.04 2490.08 1319.04 2493.08 1319.04 2495.08 1319.04 2498.08 1318.04 2500.08 1318.04 2503.08 1318.04 2505.08 1318.04 2508.08 1317.04 2510.08 1317.04 2513.08 1317.04 2515.08 1315.04 2518.08 1313.04 2520.08 1311.04 2523.08 1309.04 2525.08 1307.04 2528.08 1305.04 2530.08 1303.04 2533.08 1301.04 2535.08 1299.04 2538.08 1297.04 2540.08 1296.04 2543.08 1292.04 2545.08 1289.04 2548.08 1285.04 2550.08 1282.04 2553.08 1278.04 2555.08 1275.04 2558.08 1271.04 2560.08 1268.04 2562.08 1265.04 2565.08 1262.04 2567.08 1258.04 2570.08 1259.04 2572.08 1259.04 2575.08 1259.04 2577.08 1260.04 2580.08 1260.04 2582.08 1260.04 2585.08 1261.04 2587.08 1261.04 2590.08 1261.04 2592.08 1261.04 2595.08 1262.04 2597.08 1264.04 2600.09 1266.04 2602.09 1268.04 2605.09 1270.04 2607.09 1272.04 2610.09 1274.04 2612.09 1275.04 2615.09 1277.04 2617.09 1279.04 2620.09 1281.04 2622.09 1283.04 2625.09 1286.04 2627.09 1290.04 2630.09 1293.04 2632.09 1297.04 2635.09 1300.04 2637.09 1304.04 2640.09 1307.04 2642.09 1310.04 2644.09 1314.04 2647.09 1317.04 2649.09 1320.04 2652.09 1320.04 2654.09 1319.04 2657.09 1319.04 2659.09 1319.04 2662.09 1318.04 2664.09 1318.04 2667.09 1318.04 2669.09 1318.04 2672.09 1317.04 2674.09 1317.04 2677.09 1317.04 2679.09 1315.04 2682.09 1313.04 2684.09 1311.04 2687.09 1309.04 2689.09 1307.04 2692.09 1305.04 2694.09 1303.04 2697.09 1301.04 2699.09 1299.04 2702.09 1297.04 2704.09 1296.04 2707.09 1292.04 2709.09 1289.04 2712.09 1285.04 2714.09 1282.04 2717.09 1278.04 2719.09 1275.04 2722.09 1272.04 2724.09 1268.04 2727.09 1265.04 2729.09 1262.04 2731.09 1259.04 2734.09 1259.04 2736.09 1259.04 2739.09 1259.04 2741.09 1260.04 2744.09 1260.04 2746.09 1260.04 2749.09 1261.04 2751.09 1261.04 2754.09 1261.04 2756.09 1261.04 2759.09 1262.04 2761.09 1264.04 2764.09 1266.04 2766.09 1268.04 2769.09 1270.04 2771.09 1272.04 2774.09 1274.04 2776.09 1275.04 2779.09 1277.04 2781.09 1279.04 2784.09 1281.04 2786.09 1283.04 2789.09 1286.04 2791.09 1290.04 2794.09 1293.04 2796.09 1297.04 2799.09 1300.04 2801.09 1304.04 2804.09 1307.04 2806.09 1310.04 2809.09 1314.04 2811.09 1317.04 2814.09 1320.04 2816.09 1320.04 2818.09 1319.04 2821.09 1319.04 2823.09 1319.04 2826.09 1318.04 2828.09 1318.04 2831.09 1318.04 2833.09 1318.04 2836.09 1317.04 2838.09 1317.04 2841.09 1317.04 2843.09 1315.04 2846.09 1313.04 2848.09 1311.04 2851.09 1309.04 2853.09 1307.04 2856.09 1305.04 2858.09 1303.04 2861.09 1301.04 2863.09 1299.04 2866.09 1297.04 2868.09 1296.04 2871.09 1292.04 2873.09 1289.04 2876.09 1285.04 2878.09 1282.04 2881.09 1278.04 2883.09 1275.04 2886.09 1272.04 2888.09 1268.04 2891.09 1265.04 2893.09 1262.04 2896.09 1259.04 2898.09 1259.04 2900.1 1259.04 2903.1 1259.04 2905.1 1260.04 2908.1 1260.04 2910.1 1260.04 2913.1 1261.04 2915.1 1261.04 2918.1 1261.04 2920.1 1261.04 2923.1 1262.04 2925.1 1264.04 2928.1 1266.04 2930.1 1268.04 2933.1 1270.04 2935.1 1272.04 2938.1 1274.04 2940.1 1275.04 2943.1 1277.04 2945.1 1279.04 2948.1 1281.04 2950.1 1283.04 2953.1 1286.04 2955.1 1290.04 2958.1 1293.04 2960.1 1297.04 2963.1 1300.04 2965.1 1304.04 2968.1 1307.04 2970.1 1310.04 2973.1 1314.04 2975.1 1317.04 2978.1 1320.04 2980.1 1320.04 2983.1 1319.04 2985.1 1319.04 2987.1 1319.04 2990.1 1319.04 2992.1 1318.04 2995.1 1318.04 2997.1 1318.04 3000.1 1317.04 3002.1 1317.04 3005.1 1317.04 3007.1 1315.04 3010.1 1313.04 3012.1 1311.04 3015.1 1309.04 3017.1 1307.04 3020.1 1305.04 3022.1 1303.04 3025.1 1301.04 3027.1 1299.04 3030.1 1298.04 3032.1 1296.04 3035.1 1292.04 3037.1 1289.04 3040.1 1285.04 3042.1 1282.04 3045.1 1278.04 3047.1 1275.04 3050.1 1272.04 3052.1 1268.04 3055.1 1265.04 3057.1 1262.04 3060.1 1259.04 3062.1 1259.04 3065.1 1259.04 3067.1 1259.04 3070.1 1260.04 3072.1 1260.04 3074.1 1260.04 3077.1 1261.04 3079.1 1261.04 3082.1 1261.04 3084.1 1261.04 3087.1 1262.04 3089.1 1264.04 3092.1 1266.04 3094.1 1268.04 3097.1 1270.04 3099.1 1272.04 3102.1 1274.04 3104.1 1275.04 3107.1 1277.04 3109.1 1279.04 3112.1 1281.04 3114.1 1283.04 3117.1 1286.04 3119.1 1290.04 3122.1 1293.04 3124.1 1297.04 3127.1 1300.04 3129.1 1304.04 3132.1 1307.04 3134.1 1310.04 3137.1 1314.04 3139.1 1317.04 3142.1 1320.04 3144.1 1320.04 3147.1 1319.04 3149.1 1319.04 3152.1 1319.04 3154.1 1319.04 3156.1 1318.04 3159.1 1318.04 3161.1 1318.04 3164.1 1317.04 3166.1 1317.04 3169.1 1317.04 3171.1 1315.04 3174.1 1313.04 3176.1 1311.04 3179.1 1309.04 3181.1 1307.04 3184.1 1305.04 3186.1 1303.04 3189.1 1301.04 3191.1 1299.04 3194.1 1298.04 3196.1 1296.04 3199.1 1292.04 3201.1 1289.04 3204.1 1285.04 3206.1 1282.04 3209.11 1278.04 3211.11 1275.04 3214.11 1272.04 3216.11 1268.04 3219.11 1265.04 3221.11 1262.04 3224.11 1259.04 3226.11 1259.04 3229.11 1259.04 3231.11 1259.04 3234.11 1260.04 3236.11 1260.04 3239.11 1260.04 3241.11 1261.04 3243.11 1261.04 3246.11 1261.04 3248.11 1261.04 3251.11 1262.04 3253.11 1264.04 3256.11 1266.04 3258.11 1268.04 3261.11 1270.04 3263.11 1272.04 3266.11 1274.04 3268.11 1275.04 3271.11 1277.04 3273.11 1279.04 3276.11 1281.04 3278.11 1283.04 3281.11 1286.04 3283.11 1290.04 3286.11 1293.04 3288.11 1297.04 3291.11 1300.04 3293.11 1304.04 3296.11 1307.04 3298.11 1310.04 3301.11 1314.04 3303.11 1317.04 3306.11 1320.04 3308.11 1320.04 3311.11 1319.04 3313.11 1319.04 3316.11 1319.04 3318.11 1319.04 3321.11 1318.04 3323.11 1318.04 3326.11 1318.04 3328.11 1317.04 3330.11 1317.04 3333.11 1317.04 3335.11 1315.04 3338.11 1313.04 3340.11 1311.04 3343.11 1309.04 3345.11 1307.04 3348.11 1305.04 3350.11 1303.04 3353.11 1301.04 3355.11 1299.04 3358.11 1298.04 3360.11 1296.04 3363.11 1292.04 3365.11 1289.04 3368.11 1285.04 3370.11 1282.04 3373.11 1278.04 3375.11 1275.04 3378.11 1272.04 3380.11 1268.04 3383.11 1265.04 3385.11 1262.04 3388.11 1259.04 3390.11 1259.04 3393.11 1259.04 3395.11 1259.04 3398.11 1260.04 3400.11 1260.04 3403.11 1260.04 3405.11 1261.04 3408.11 1261.04 3410.11 1261.04 3412.11 1261.04 3415.11 1262.04 3417.11 1264.04 3420.11 1266.04 3422.11 1268.04 3425.11 1270.04 3427.11 1272.04 3430.11 1274.04 3432.11 1275.04 3435.11 1277.04 3437.11 1279.04 3440.11 1281.04 3442.11 1283.04 3445.11 1286.04 3447.11 1290.04 3450.11 1293.04 3452.11 1297.04 3455.11 1300.04 3457.11 1304.04 3460.11 1307.04 3462.11 1310.04 3465.11 1314.04 3467.11 1317.04 3470.11 1320.04 3472.11 1320.04 3475.11 1319.04 3477.11 1319.04 3480.11 1319.04 3482.11 1319.04 3485.11 1318.04 3487.11 1318.04 3490.11 1318.04 3492.11 1317.04 3495.11 1317.04 3497.11 1317.04 3499.11 1315.04 3502.11 1313.04 3504.11 1311.04 3507.12 1309.04 3509.12 1307.04 3512.12 1305.04 3514.12 1303.04 3517.12 1301.04 3519.12 1299.04 3522.12 1298.04 3524.12 1296.04 3527.12 1292.04 3529.12 1289.04 3532.12 1285.04 3534.12 1282.04 3537.12 1278.04 3539.12 1275.04 3542.12 1272.04 3544.12 1268.04 3547.12 1265.04 3549.12 1262.04 3552.12 1259.04 3554.12 1259.04 3557.12 1259.04 3559.12 1259.04 3562.12 1260.04 3564.12 1260.04 3567.12 1260.04 3569.12 1261.04 3572.12 1261.04 3574.12 1261.04 3577.12 1261.04 3579.12 1262.04 3582.12 1264.04 3584.12 1266.04 3586.12 1268.04 3589.12 1270.04 3591.12 1272.04 3594.12 1274.04 3596.12 1275.04 3599.12 1277.04 3601.12 1279.04 3604.12 1281.04 3606.12 1283.04 3609.12 1286.04 3611.12 1290.04 3614.12 1293.04 3616.12 1297.04 3619.12 1300.04 3621.12 1304.04 3624.12 1307.04 3626.12 1310.04 3629.12 1314.04 3631.12 1317.04 3634.12 1320.04 3636.12 1320.04 3639.12 1319.04 3641.12 1319.04 3644.12 1319.04 3646.12 1319.04 3649.12 1318.04 3651.12 1318.04 3654.12 1318.04 3656.12 1317.04 3659.12 1317.04 3661.12 1317.04 3664.12 1315.04 3666.12 1313.04 3668.12 1311.04 3671.12 1309.04 3673.12 1307.04 3676.12 1305.04 3678.12 1303.04 3681.12 1301.04 3683.12 1299.04 3686.12 1298.04 3688.12 1296.04 3691.12 1292.04 3693.12 1289.04 3696.12 1285.04 3698.12 1282.04 3701.12 1278.04 3703.12 1275.04 3706.12 1272.04 3708.12 1268.04 3711.12 1265.04 3713.12 1262.04 3716 1259.04" stroke="#ED7D31" stroke-width="10.3125" stroke-linecap="round" stroke-linejoin="round" stroke-miterlimit="10" fill="none"/></g><g clip-path="url(#clip4)"><path d="M1230 1638.05 1233.04 1638.05 1235.04 1638.05 1238.04 1638.05 1240.04 1638.05 1243.04 1638.05 1245.04 1638.05 1248.04 1638.05 1250.04 1638.05 1253.04 1638.05 1255.04 1638.05 1258.04 1464.05 1260.04 1464.05 1263.04 1464.05 1265.04 1464.05 1268.04 1464.05 1270.04 1464.05 1273.04 1464.05 1275.04 1464.05 1278.04 1464.05 1280.04 1464.05 1282.04 1464.05 1285.04 1289.04 1287.04 1289.04 1290.04 1289.04 1292.04 1289.04 1295.04 1289.04 1297.04 1289.04 1300.04 1289.04 1302.04 1289.04 1305.04 1289.04 1307.04 1289.04 1310.04 1289.04 1312.04 1115.04 1315.04 1115.04 1317.04 1115.04 1320.04 1115.04 1322.04 1115.04 1325.04 1115.04 1327.04 1115.04 1330.04 1115.04 1332.04 1115.04 1335.04 1115.04 1337.04 1115.04 1340.04 941.031 1342.04 941.031 1345.04 941.031 1347.04 941.031 1350.04 941.031 1352.04 941.031 1355.04 941.031 1357.04 941.031 1360.04 941.031 1362.04 941.031 1365.04 941.031 1367.04 767.025 1369.04 767.025 1372.04 767.025 1374.05 767.025 1377.05 767.025 1379.05 767.025 1382.05 767.025 1384.05 767.025 1387.05 767.025 1389.05 767.025 1392.05 767.025 1394.05 592.019 1397.05 592.019 1399.05 592.019 1402.05 592.019 1404.05 592.019 1407.05 592.019 1409.05 592.019 1412.05 592.019 1414.05 592.019 1417.05 592.019 1419.05 592.019 1422.05 418 1424.05 418 1427.05 418 1429.05 592.019 1432.05 592.019 1434.05 592.019 1437.05 592.019 1439.05 592.019 1442.05 592.019 1444.05 592.019 1447.05 592.019 1449.05 767.025 1451.05 767.025 1454.05 767.025 1456.05 767.025 1459.05 767.025 1461.05 767.025 1464.05 767.025 1466.05 767.025 1469.05 767.025 1471.05 767.025 1474.05 767.025 1476.05 941.031 1479.05 941.031 1481.05 941.031 1484.05 941.031 1486.05 941.031 1489.05 941.031 1491.05 941.031 1494.05 941.031 1496.05 941.031 1499.05 941.031 1501.05 941.031 1504.05 1115.04 1506.05 1115.04 1509.05 1115.04 1511.05 1115.04 1514.05 1115.04 1516.05 1115.04 1519.05 1115.04 1521.05 1115.04 1524.05 1115.04 1526.05 1115.04 1529.05 1115.04 1531.05 1289.04 1534.05 1289.04 1536.05 1289.04 1538.05 1289.04 1541.05 1289.04 1543.05 1289.04 1546.05 1289.04 1548.05 1289.04 1551.05 1289.04 1553.05 1289.04 1556.05 1289.04 1558.05 1464.05 1561.05 1464.05 1563.05 1464.05 1566.05 1464.05 1568.05 1464.05 1571.05 1464.05 1573.05 1464.05 1576.05 1464.05 1578.05 1464.05 1581.05 1464.05 1583.05 1464.05 1586.05 1638.05 1588.05 1638.05 1591.05 1638.05 1593.05 1638.05 1596.05 1638.05 1598.05 1638.05 1601.05 1638.05 1603.05 1638.05 1606.05 1638.05 1608.05 1638.05 1611.05 1638.05 1613.05 1812 1616.05 1812 1618.05 1812 1621.05 1812 1623.05 1812 1625.05 1812 1628.05 1812 1630.05 1812 1633.05 1812 1635.05 1812 1638.05 1638.05 1640.05 1464.05 1643.05 1464.05 1645.05 1464.05 1648.05 1464.05 1650.05 1464.05 1653.05 1464.05 1655.05 1464.05 1658.05 1464.05 1660.05 1464.05 1663.05 1464.05 1665.05 1464.05 1668.05 1289.04 1670.05 1289.04 1673.05 1289.04 1675.05 1289.04 1678.05 1289.04 1680.06 1289.04 1683.06 1289.04 1685.06 1289.04 1688.06 1289.04 1690.06 1289.04 1693.06 1289.04 1695.06 1115.04 1698.06 1115.04 1700.06 1115.04 1703.06 1115.04 1705.06 1115.04 1707.06 1115.04 1710.06 1115.04 1712.06 1115.04 1715.06 1115.04 1717.06 1115.04 1720.06 1115.04 1722.06 941.031 1725.06 1115.04 1727.06 1115.04 1730.06 1115.04 1732.06 1115.04 1735.06 1115.04 1737.06 1115.04 1740.06 1115.04 1742.06 1115.04 1745.06 1115.04 1747.06 1115.04 1750.06 1289.04 1752.06 1289.04 1755.06 1289.04 1757.06 1289.04 1760.06 1289.04 1762.06 1289.04 1765.06 1289.04 1767.06 1289.04 1770.06 1289.04 1772.06 1289.04 1775.06 1289.04 1777.06 1464.05 1780.06 1464.05 1782.06 1464.05 1785.06 1464.05 1787.06 1464.05 1790.06 1464.05 1792.06 1464.05 1794.06 1464.05 1797.06 1464.05 1799.06 1464.05 1802.06 1464.05 1804.06 1638.05 1807.06 1638.05 1809.06 1638.05 1812.06 1464.05 1814.06 1464.05 1817.06 1464.05 1819.06 1464.05 1822.06 1464.05 1824.06 1464.05 1827.06 1464.05 1829.06 1464.05 1832.06 1289.04 1834.06 1289.04 1837.06 1289.04 1839.06 1289.04 1842.06 1289.04 1844.06 1289.04 1847.06 1289.04 1849.06 1289.04 1852.06 1289.04 1854.06 1289.04 1857.06 1289.04 1859.06 1115.04 1862.06 1115.04 1864.06 1115.04 1867.06 1115.04 1869.06 1115.04 1872.06 1115.04 1874.06 1115.04 1877.06 1115.04 1879.06 1115.04 1881.06 1115.04 1884.06 1115.04 1886.06 941.031 1889.06 941.031 1891.06 1115.04 1894.06 1115.04 1896.06 1115.04 1899.06 1115.04 1901.06 1115.04 1904.06 1115.04 1906.06 1115.04 1909.06 1115.04 1911.06 1115.04 1914.06 1289.04 1916.06 1289.04 1919.06 1289.04 1921.06 1289.04 1924.06 1289.04 1926.06 1289.04 1929.06 1289.04 1931.06 1289.04 1934.06 1289.04 1936.06 1289.04 1939.06 1289.04 1941.06 1464.05 1944.06 1464.05 1946.06 1464.05 1949.06 1464.05 1951.06 1464.05 1954.06 1464.05 1956.06 1464.05 1959.06 1464.05 1961.06 1464.05 1963.06 1464.05 1966.06 1464.05 1968.06 1638.05 1971.06 1638.05 1973.06 1638.05 1976.06 1464.05 1978.06 1464.05 1981.06 1464.05 1983.06 1464.05 1986.07 1464.05 1988.07 1464.05 1991.07 1464.05 1993.07 1464.05 1996.07 1289.04 1998.07 1289.04 2001.07 1289.04 2003.07 1289.04 2006.07 1289.04 2008.07 1289.04 2011.07 1289.04 2013.07 1289.04 2016.07 1289.04 2018.07 1289.04 2021.07 1289.04 2023.07 1115.04 2026.07 1115.04 2028.07 1115.04 2031.07 1115.04 2033.07 1115.04 2036.07 1115.04 2038.07 1115.04 2041.07 1115.04 2043.07 1115.04 2046.07 1115.04 2048.07 1115.04 2050.07 941.031 2053.07 941.031 2055.07 1115.04 2058.07 1115.04 2060.07 1115.04 2063.07 1115.04 2065.07 1115.04 2068.07 1115.04 2070.07 1115.04 2073.07 1115.04 2075.07 1115.04 2078.07 1289.04 2080.07 1289.04 2083.07 1289.04 2085.07 1289.04 2088.07 1289.04 2090.07 1289.04 2093.07 1289.04 2095.07 1289.04 2098.07 1289.04 2100.07 1289.04 2103.07 1289.04 2105.07 1464.05 2108.07 1464.05 2110.07 1464.05 2113.07 1464.05 2115.07 1464.05 2118.07 1464.05 2120.07 1464.05 2123.07 1464.05 2125.07 1464.05 2128.07 1464.05 2130.07 1464.05 2132.07 1638.05 2135.07 1638.05 2137.07 1464.05 2140.07 1464.05 2142.07 1464.05 2145.07 1464.05 2147.07 1464.05 2150.07 1464.05 2152.07 1464.05 2155.07 1464.05 2157.07 1464.05 2160.07 1289.04 2162.07 1289.04 2165.07 1289.04 2167.07 1289.04 2170.07 1289.04 2172.07 1289.04 2175.07 1289.04 2177.07 1289.04 2180.07 1289.04 2182.07 1289.04 2185.07 1289.04 2187.07 1115.04 2190.07 1115.04 2192.07 1115.04 2195.07 1115.04 2197.07 1115.04 2200.07 1115.04 2202.07 1115.04 2205.07 1115.04 2207.07 1115.04 2210.07 1115.04 2212.07 1115.04 2215.07 941.031 2217.07 941.031 2219.07 1115.04 2222.07 1115.04 2224.07 1115.04 2227.07 1115.04 2229.07 1115.04 2232.07 1115.04 2234.07 1115.04 2237.07 1115.04 2239.07 1115.04 2242.07 1289.04 2244.07 1289.04 2247.07 1289.04 2249.07 1289.04 2252.07 1289.04 2254.07 1289.04 2257.07 1289.04 2259.07 1289.04 2262.07 1289.04 2264.07 1289.04 2267.07 1289.04 2269.07 1464.05 2272.07 1464.05 2274.07 1464.05 2277.07 1464.05 2279.07 1464.05 2282.07 1464.05 2284.07 1464.05 2287.07 1464.05 2289.08 1464.05 2292.08 1464.05 2294.08 1464.05 2297.08 1638.05 2299.08 1638.05 2302.08 1464.05 2304.08 1464.05 2306.08 1464.05 2309.08 1464.05 2311.08 1464.05 2314.08 1464.05 2316.08 1464.05 2319.08 1464.05 2321.08 1464.05 2324.08 1289.04 2326.08 1289.04 2329.08 1289.04 2331.08 1289.04 2334.08 1289.04 2336.08 1289.04 2339.08 1289.04 2341.08 1289.04 2344.08 1289.04 2346.08 1289.04 2349.08 1289.04 2351.08 1115.04 2354.08 1115.04 2356.08 1115.04 2359.08 1115.04 2361.08 1115.04 2364.08 1115.04 2366.08 1115.04 2369.08 1115.04 2371.08 1115.04 2374.08 1115.04 2376.08 1115.04 2379.08 941.031 2381.08 941.031 2384.08 1115.04 2386.08 1115.04 2388.08 1115.04 2391.08 1115.04 2393.08 1115.04 2396.08 1115.04 2398.08 1115.04 2401.08 1115.04 2403.08 1115.04 2406.08 1289.04 2408.08 1289.04 2411.08 1289.04 2413.08 1289.04 2416.08 1289.04 2418.08 1289.04 2421.08 1289.04 2423.08 1289.04 2426.08 1289.04 2428.08 1289.04 2431.08 1289.04 2433.08 1464.05 2436.08 1464.05 2438.08 1464.05 2441.08 1464.05 2443.08 1464.05 2446.08 1464.05 2448.08 1464.05 2451.08 1464.05 2453.08 1464.05 2456.08 1464.05 2458.08 1464.05 2461.08 1638.05 2463.08 1638.05 2466.08 1464.05 2468.08 1464.05 2471.08 1464.05 2473.08 1464.05 2475.08 1464.05 2478.08 1464.05 2480.08 1464.05 2483.08 1464.05 2485.08 1464.05 2488.08 1289.04 2490.08 1289.04 2493.08 1289.04 2495.08 1289.04 2498.08 1289.04 2500.08 1289.04 2503.08 1289.04 2505.08 1289.04 2508.08 1289.04 2510.08 1289.04 2513.08 1289.04 2515.08 1115.04 2518.08 1115.04 2520.08 1115.04 2523.08 1115.04 2525.08 1115.04 2528.08 1115.04 2530.08 1115.04 2533.08 1115.04 2535.08 1115.04 2538.08 1115.04 2540.08 1115.04 2543.08 941.031 2545.08 941.031 2548.08 1115.04 2550.08 1115.04 2553.08 1115.04 2555.08 1115.04 2558.08 1115.04 2560.08 1115.04 2562.08 1115.04 2565.08 1115.04 2567.08 1115.04 2570.08 1289.04 2572.08 1289.04 2575.08 1289.04 2577.08 1289.04 2580.08 1289.04 2582.08 1289.04 2585.08 1289.04 2587.08 1289.04 2590.08 1289.04 2592.08 1289.04 2595.08 1289.04 2597.08 1464.05 2600.09 1464.05 2602.09 1464.05 2605.09 1464.05 2607.09 1464.05 2610.09 1464.05 2612.09 1464.05 2615.09 1464.05 2617.09 1464.05 2620.09 1464.05 2622.09 1464.05 2625.09 1638.05 2627.09 1638.05 2630.09 1464.05 2632.09 1464.05 2635.09 1464.05 2637.09 1464.05 2640.09 1464.05 2642.09 1464.05 2644.09 1464.05 2647.09 1464.05 2649.09 1464.05 2652.09 1289.04 2654.09 1289.04 2657.09 1289.04 2659.09 1289.04 2662.09 1289.04 2664.09 1289.04 2667.09 1289.04 2669.09 1289.04 2672.09 1289.04 2674.09 1289.04 2677.09 1289.04 2679.09 1115.04 2682.09 1115.04 2684.09 1115.04 2687.09 1115.04 2689.09 1115.04 2692.09 1115.04 2694.09 1115.04 2697.09 1115.04 2699.09 1115.04 2702.09 1115.04 2704.09 1115.04 2707.09 941.031 2709.09 941.031 2712.09 1115.04 2714.09 1115.04 2717.09 1115.04 2719.09 1115.04 2722.09 1115.04 2724.09 1115.04 2727.09 1115.04 2729.09 1115.04 2731.09 1115.04 2734.09 1289.04 2736.09 1289.04 2739.09 1289.04 2741.09 1289.04 2744.09 1289.04 2746.09 1289.04 2749.09 1289.04 2751.09 1289.04 2754.09 1289.04 2756.09 1289.04 2759.09 1289.04 2761.09 1464.05 2764.09 1464.05 2766.09 1464.05 2769.09 1464.05 2771.09 1464.05 2774.09 1464.05 2776.09 1464.05 2779.09 1464.05 2781.09 1464.05 2784.09 1464.05 2786.09 1464.05 2789.09 1638.05 2791.09 1638.05 2794.09 1464.05 2796.09 1464.05 2799.09 1464.05 2801.09 1464.05 2804.09 1464.05 2806.09 1464.05 2809.09 1464.05 2811.09 1464.05 2814.09 1464.05 2816.09 1289.04 2818.09 1289.04 2821.09 1289.04 2823.09 1289.04 2826.09 1289.04 2828.09 1289.04 2831.09 1289.04 2833.09 1289.04 2836.09 1289.04 2838.09 1289.04 2841.09 1289.04 2843.09 1115.04 2846.09 1115.04 2848.09 1115.04 2851.09 1115.04 2853.09 1115.04 2856.09 1115.04 2858.09 1115.04 2861.09 1115.04 2863.09 1115.04 2866.09 1115.04 2868.09 1115.04 2871.09 941.031 2873.09 941.031 2876.09 1115.04 2878.09 1115.04 2881.09 1115.04 2883.09 1115.04 2886.09 1115.04 2888.09 1115.04 2891.09 1115.04 2893.09 1115.04 2896.09 1115.04 2898.09 1289.04 2900.1 1289.04 2903.1 1289.04 2905.1 1289.04 2908.1 1289.04 2910.1 1289.04 2913.1 1289.04 2915.1 1289.04 2918.1 1289.04 2920.1 1289.04 2923.1 1289.04 2925.1 1464.05 2928.1 1464.05 2930.1 1464.05 2933.1 1464.05 2935.1 1464.05 2938.1 1464.05 2940.1 1464.05 2943.1 1464.05 2945.1 1464.05 2948.1 1464.05 2950.1 1464.05 2953.1 1638.05 2955.1 1638.05 2958.1 1464.05 2960.1 1464.05 2963.1 1464.05 2965.1 1464.05 2968.1 1464.05 2970.1 1464.05 2973.1 1464.05 2975.1 1464.05 2978.1 1464.05 2980.1 1289.04 2983.1 1289.04 2985.1 1289.04 2987.1 1289.04 2990.1 1289.04 2992.1 1289.04 2995.1 1289.04 2997.1 1289.04 3000.1 1289.04 3002.1 1289.04 3005.1 1289.04 3007.1 1115.04 3010.1 1115.04 3012.1 1115.04 3015.1 1115.04 3017.1 1115.04 3020.1 1115.04 3022.1 1115.04 3025.1 1115.04 3027.1 1115.04 3030.1 1115.04 3032.1 1115.04 3035.1 941.031 3037.1 941.031 3040.1 1115.04 3042.1 1115.04 3045.1 1115.04 3047.1 1115.04 3050.1 1115.04 3052.1 1115.04 3055.1 1115.04 3057.1 1115.04 3060.1 1115.04 3062.1 1289.04 3065.1 1289.04 3067.1 1289.04 3070.1 1289.04 3072.1 1289.04 3074.1 1289.04 3077.1 1289.04 3079.1 1289.04 3082.1 1289.04 3084.1 1289.04 3087.1 1289.04 3089.1 1464.05 3092.1 1464.05 3094.1 1464.05 3097.1 1464.05 3099.1 1464.05 3102.1 1464.05 3104.1 1464.05 3107.1 1464.05 3109.1 1464.05 3112.1 1464.05 3114.1 1464.05 3117.1 1638.05 3119.1 1638.05 3122.1 1464.05 3124.1 1464.05 3127.1 1464.05 3129.1 1464.05 3132.1 1464.05 3134.1 1464.05 3137.1 1464.05 3139.1 1464.05 3142.1 1464.05 3144.1 1289.04 3147.1 1289.04 3149.1 1289.04 3152.1 1289.04 3154.1 1289.04 3156.1 1289.04 3159.1 1289.04 3161.1 1289.04 3164.1 1289.04 3166.1 1289.04 3169.1 1289.04 3171.1 1115.04 3174.1 1115.04 3176.1 1115.04 3179.1 1115.04 3181.1 1115.04 3184.1 1115.04 3186.1 1115.04 3189.1 1115.04 3191.1 1115.04 3194.1 1115.04 3196.1 1115.04 3199.1 941.031 3201.1 941.031 3204.1 1115.04 3206.1 1115.04 3209.11 1115.04 3211.11 1115.04 3214.11 1115.04 3216.11 1115.04 3219.11 1115.04 3221.11 1115.04 3224.11 1115.04 3226.11 1289.04 3229.11 1289.04 3231.11 1289.04 3234.11 1289.04 3236.11 1289.04 3239.11 1289.04 3241.11 1289.04 3243.11 1289.04 3246.11 1289.04 3248.11 1289.04 3251.11 1289.04 3253.11 1464.05 3256.11 1464.05 3258.11 1464.05 3261.11 1464.05 3263.11 1464.05 3266.11 1464.05 3268.11 1464.05 3271.11 1464.05 3273.11 1464.05 3276.11 1464.05 3278.11 1464.05 3281.11 1638.05 3283.11 1638.05 3286.11 1464.05 3288.11 1464.05 3291.11 1464.05 3293.11 1464.05 3296.11 1464.05 3298.11 1464.05 3301.11 1464.05 3303.11 1464.05 3306.11 1464.05 3308.11 1289.04 3311.11 1289.04 3313.11 1289.04 3316.11 1289.04 3318.11 1289.04 3321.11 1289.04 3323.11 1289.04 3326.11 1289.04 3328.11 1289.04 3330.11 1289.04 3333.11 1289.04 3335.11 1115.04 3338.11 1115.04 3340.11 1115.04 3343.11 1115.04 3345.11 1115.04 3348.11 1115.04 3350.11 1115.04 3353.11 1115.04 3355.11 1115.04 3358.11 1115.04 3360.11 1115.04 3363.11 941.031 3365.11 941.031 3368.11 1115.04 3370.11 1115.04 3373.11 1115.04 3375.11 1115.04 3378.11 1115.04 3380.11 1115.04 3383.11 1115.04 3385.11 1115.04 3388.11 1115.04 3390.11 1289.04 3393.11 1289.04 3395.11 1289.04 3398.11 1289.04 3400.11 1289.04 3403.11 1289.04 3405.11 1289.04 3408.11 1289.04 3410.11 1289.04 3412.11 1289.04 3415.11 1289.04 3417.11 1464.05 3420.11 1464.05 3422.11 1464.05 3425.11 1464.05 3427.11 1464.05 3430.11 1464.05 3432.11 1464.05 3435.11 1464.05 3437.11 1464.05 3440.11 1464.05 3442.11 1464.05 3445.11 1638.05 3447.11 1638.05 3450.11 1464.05 3452.11 1464.05 3455.11 1464.05 3457.11 1464.05 3460.11 1464.05 3462.11 1464.05 3465.11 1464.05 3467.11 1464.05 3470.11 1464.05 3472.11 1289.04 3475.11 1289.04 3477.11 1289.04 3480.11 1289.04 3482.11 1289.04 3485.11 1289.04 3487.11 1289.04 3490.11 1289.04 3492.11 1289.04 3495.11 1289.04 3497.11 1289.04 3499.11 1115.04 3502.11 1115.04 3504.11 1115.04 3507.12 1115.04 3509.12 1115.04 3512.12 1115.04 3514.12 1115.04 3517.12 1115.04 3519.12 1115.04 3522.12 1115.04 3524.12 1115.04 3527.12 941.031 3529.12 941.031 3532.12 1115.04 3534.12 1115.04 3537.12 1115.04 3539.12 1115.04 3542.12 1115.04 3544.12 1115.04 3547.12 1115.04 3549.12 1115.04 3552.12 1115.04 3554.12 1289.04 3557.12 1289.04 3559.12 1289.04 3562.12 1289.04 3564.12 1289.04 3567.12 1289.04 3569.12 1289.04 3572.12 1289.04 3574.12 1289.04 3577.12 1289.04 3579.12 1289.04 3582.12 1464.05 3584.12 1464.05 3586.12 1464.05 3589.12 1464.05 3591.12 1464.05 3594.12 1464.05 3596.12 1464.05 3599.12 1464.05 3601.12 1464.05 3604.12 1464.05 3606.12 1464.05 3609.12 1638.05 3611.12 1638.05 3614.12 1464.05 3616.12 1464.05 3619.12 1464.05 3621.12 1464.05 3624.12 1464.05 3626.12 1464.05 3629.12 1464.05 3631.12 1464.05 3634.12 1464.05 3636.12 1289.04 3639.12 1289.04 3641.12 1289.04 3644.12 1289.04 3646.12 1289.04 3649.12 1289.04 3651.12 1289.04 3654.12 1289.04 3656.12 1289.04 3659.12 1289.04 3661.12 1289.04 3664.12 1115.04 3666.12 1115.04 3668.12 1115.04 3671.12 1115.04 3673.12 1115.04 3676.12 1115.04 3678.12 1115.04 3681.12 1115.04 3683.12 1115.04 3686.12 1115.04 3688.12 1115.04 3691.12 941.031 3693.12 941.031 3696.12 1115.04 3698.12 1115.04 3701.12 1115.04 3703.12 1115.04 3706.12 1115.04 3708.12 1115.04 3711.12 1115.04 3713.12 1115.04 3716 1115.04" stroke="#4472C4" stroke-width="10.3125" stroke-linecap="round" stroke-linejoin="round" stroke-miterlimit="10" fill="none"/></g><g clip-path="url(#clip5)"><text fill="#595959" font-family="Calibri,Calibri_MSFontService,sans-serif" font-weight="400" font-size="41" transform="matrix(1 0 0 1 1157.29 1998)">-2</text></g><g clip-path="url(#clip6)"><text fill="#595959" font-family="Calibri,Calibri_MSFontService,sans-serif" font-weight="400" font-size="41" transform="matrix(1 0 0 1 1157.29 1824)">-1</text></g><g clip-path="url(#clip7)"><text fill="#595959" font-family="Calibri,Calibri_MSFontService,sans-serif" font-weight="400" font-size="41" transform="matrix(1 0 0 1 1169.92 1649)">0</text></g><g clip-path="url(#clip8)"><text fill="#595959" font-family="Calibri,Calibri_MSFontService,sans-serif" font-weight="400" font-size="41" transform="matrix(1 0 0 1 1169.92 1475)">1</text></g><g clip-path="url(#clip9)"><text fill="#595959" font-family="Calibri,Calibri_MSFontService,sans-serif" font-weight="400" font-size="41" transform="matrix(1 0 0 1 1169.92 1301)">2</text></g><g clip-path="url(#clip10)"><text fill="#595959" font-family="Calibri,Calibri_MSFontService,sans-serif" font-weight="400" font-size="41" transform="matrix(1 0 0 1 1169.92 1127)">3</text></g><g clip-path="url(#clip11)"><text fill="#595959" font-family="Calibri,Calibri_MSFontService,sans-serif" font-weight="400" font-size="41" transform="matrix(1 0 0 1 1169.92 952)">4</text></g><g clip-path="url(#clip12)"><text fill="#595959" font-family="Calibri,Calibri_MSFontService,sans-serif" font-weight="400" font-size="41" transform="matrix(1 0 0 1 1169.92 778)">5</text></g><g clip-path="url(#clip13)"><text fill="#595959" font-family="Calibri,Calibri_MSFontService,sans-serif" font-weight="400" font-size="41" transform="matrix(1 0 0 1 1169.92 604)">6</text></g><g clip-path="url(#clip14)"><text fill="#595959" font-family="Calibri,Calibri_MSFontService,sans-serif" font-weight="400" font-size="41" transform="matrix(1 0 0 1 1169.92 430)">7</text></g><g clip-path="url(#clip15)"><text fill="#595959" font-family="Calibri,Calibri_MSFontService,sans-serif" font-weight="400" font-size="41" transform="matrix(1 0 0 1 1169.92 255)">8</text></g><g clip-path="url(#clip16)"><text fill="#595959" font-family="Calibri,Calibri_MSFontService,sans-serif" font-weight="400" font-size="41" transform="matrix(6.12323e-17 -1 1 6.12323e-17 1244.15 1741)">time</text></g><g clip-path="url(#clip17)"><text fill="#595959" font-family="Calibri,Calibri_MSFontService,sans-serif" font-weight="400" font-size="41" transform="matrix(6.12323e-17 -1 1 6.12323e-17 1296.35 1716)">0.2</text></g><g clip-path="url(#clip18)"><text fill="#595959" font-family="Calibri,Calibri_MSFontService,sans-serif" font-weight="400" font-size="41" transform="matrix(6.12323e-17 -1 1 6.12323e-17 1348.55 1737)">0.41</text></g><g clip-path="url(#clip19)"><text fill="#595959" font-family="Calibri,Calibri_MSFontService,sans-serif" font-weight="400" font-size="41" transform="matrix(6.12323e-17 -1 1 6.12323e-17 1400.74 1737)">0.62</text></g><g clip-path="url(#clip20)"><text fill="#595959" font-family="Calibri,Calibri_MSFontService,sans-serif" font-weight="400" font-size="41" transform="matrix(6.12323e-17 -1 1 6.12323e-17 1452.94 1737)">0.83</text></g><g clip-path="url(#clip21)"><text fill="#595959" font-family="Calibri,Calibri_MSFontService,sans-serif" font-weight="400" font-size="41" transform="matrix(6.12323e-17 -1 1 6.12323e-17 1505.13 1737)">1.04</text></g><g clip-path="url(#clip22)"><text fill="#595959" font-family="Calibri,Calibri_MSFontService,sans-serif" font-weight="400" font-size="41" transform="matrix(6.12323e-17 -1 1 6.12323e-17 1557.33 1737)">1.25</text></g><g clip-path="url(#clip23)"><text fill="#595959" font-family="Calibri,Calibri_MSFontService,sans-serif" font-weight="400" font-size="41" transform="matrix(6.12323e-17 -1 1 6.12323e-17 1609.52 1737)">1.46</text></g><g clip-path="url(#clip24)"><text fill="#595959" font-family="Calibri,Calibri_MSFontService,sans-serif" font-weight="400" font-size="41" transform="matrix(6.12323e-17 -1 1 6.12323e-17 1661.72 1737)">1.67</text></g><g clip-path="url(#clip25)"><text fill="#595959" font-family="Calibri,Calibri_MSFontService,sans-serif" font-weight="400" font-size="41" transform="matrix(6.12323e-17 -1 1 6.12323e-17 1713.92 1737)">1.88</text></g><g clip-path="url(#clip26)"><text fill="#595959" font-family="Calibri,Calibri_MSFontService,sans-serif" font-weight="400" font-size="41" transform="matrix(6.12323e-17 -1 1 6.12323e-17 1766.11 1737)">2.09</text></g><g clip-path="url(#clip27)"><text fill="#595959" font-family="Calibri,Calibri_MSFontService,sans-serif" font-weight="400" font-size="41" transform="matrix(6.12323e-17 -1 1 6.12323e-17 1818.31 1716)">2.3</text></g><g clip-path="url(#clip28)"><text fill="#595959" font-family="Calibri,Calibri_MSFontService,sans-serif" font-weight="400" font-size="41" transform="matrix(6.12323e-17 -1 1 6.12323e-17 1870.5 1737)">2.51</text></g><g clip-path="url(#clip29)"><text fill="#595959" font-family="Calibri,Calibri_MSFontService,sans-serif" font-weight="400" font-size="41" transform="matrix(6.12323e-17 -1 1 6.12323e-17 1922.7 1737)">2.72</text></g><g clip-path="url(#clip30)"><text fill="#595959" font-family="Calibri,Calibri_MSFontService,sans-serif" font-weight="400" font-size="41" transform="matrix(6.12323e-17 -1 1 6.12323e-17 1974.9 1737)">2.93</text></g><g clip-path="url(#clip31)"><text fill="#595959" font-family="Calibri,Calibri_MSFontService,sans-serif" font-weight="400" font-size="41" transform="matrix(6.12323e-17 -1 1 6.12323e-17 2027.09 1737)">3.14</text></g><g clip-path="url(#clip32)"><text fill="#595959" font-family="Calibri,Calibri_MSFontService,sans-serif" font-weight="400" font-size="41" transform="matrix(6.12323e-17 -1 1 6.12323e-17 2079.29 1737)">3.35</text></g><g clip-path="url(#clip33)"><text fill="#595959" font-family="Calibri,Calibri_MSFontService,sans-serif" font-weight="400" font-size="41" transform="matrix(6.12323e-17 -1 1 6.12323e-17 2131.48 1737)">3.56</text></g><g clip-path="url(#clip34)"><text fill="#595959" font-family="Calibri,Calibri_MSFontService,sans-serif" font-weight="400" font-size="41" transform="matrix(6.12323e-17 -1 1 6.12323e-17 2183.68 1737)">3.77</text></g><g clip-path="url(#clip35)"><text fill="#595959" font-family="Calibri,Calibri_MSFontService,sans-serif" font-weight="400" font-size="41" transform="matrix(6.12323e-17 -1 1 6.12323e-17 2235.87 1737)">3.98</text></g><g clip-path="url(#clip36)"><text fill="#595959" font-family="Calibri,Calibri_MSFontService,sans-serif" font-weight="400" font-size="41" transform="matrix(6.12323e-17 -1 1 6.12323e-17 2288.07 1737)">4.19</text></g><g clip-path="url(#clip37)"><text fill="#595959" font-family="Calibri,Calibri_MSFontService,sans-serif" font-weight="400" font-size="41" transform="matrix(6.12323e-17 -1 1 6.12323e-17 2340.27 1716)">4.4</text></g><g clip-path="url(#clip38)"><text fill="#595959" font-family="Calibri,Calibri_MSFontService,sans-serif" font-weight="400" font-size="41" transform="matrix(6.12323e-17 -1 1 6.12323e-17 2392.46 1737)">4.61</text></g><g clip-path="url(#clip39)"><text fill="#595959" font-family="Calibri,Calibri_MSFontService,sans-serif" font-weight="400" font-size="41" transform="matrix(6.12323e-17 -1 1 6.12323e-17 2444.66 1737)">4.82</text></g><g clip-path="url(#clip40)"><text fill="#595959" font-family="Calibri,Calibri_MSFontService,sans-serif" font-weight="400" font-size="41" transform="matrix(6.12323e-17 -1 1 6.12323e-17 2496.85 1737)">5.03</text></g><g clip-path="url(#clip41)"><text fill="#595959" font-family="Calibri,Calibri_MSFontService,sans-serif" font-weight="400" font-size="41" transform="matrix(6.12323e-17 -1 1 6.12323e-17 2549.05 1737)">5.24</text></g><g clip-path="url(#clip42)"><text fill="#595959" font-family="Calibri,Calibri_MSFontService,sans-serif" font-weight="400" font-size="41" transform="matrix(6.12323e-17 -1 1 6.12323e-17 2601.24 1737)">5.45</text></g><g clip-path="url(#clip43)"><text fill="#595959" font-family="Calibri,Calibri_MSFontService,sans-serif" font-weight="400" font-size="41" transform="matrix(6.12323e-17 -1 1 6.12323e-17 2653.44 1737)">5.66</text></g><g clip-path="url(#clip44)"><text fill="#595959" font-family="Calibri,Calibri_MSFontService,sans-serif" font-weight="400" font-size="41" transform="matrix(6.12323e-17 -1 1 6.12323e-17 2705.64 1737)">5.87</text></g><g clip-path="url(#clip45)"><text fill="#595959" font-family="Calibri,Calibri_MSFontService,sans-serif" font-weight="400" font-size="41" transform="matrix(6.12323e-17 -1 1 6.12323e-17 2757.83 1737)">6.08</text></g><g clip-path="url(#clip46)"><text fill="#595959" font-family="Calibri,Calibri_MSFontService,sans-serif" font-weight="400" font-size="41" transform="matrix(6.12323e-17 -1 1 6.12323e-17 2810.03 1737)">6.29</text></g><g clip-path="url(#clip47)"><text fill="#595959" font-family="Calibri,Calibri_MSFontService,sans-serif" font-weight="400" font-size="41" transform="matrix(6.12323e-17 -1 1 6.12323e-17 2862.22 1716)">6.5</text></g><g clip-path="url(#clip48)"><text fill="#595959" font-family="Calibri,Calibri_MSFontService,sans-serif" font-weight="400" font-size="41" transform="matrix(6.12323e-17 -1 1 6.12323e-17 2914.42 1737)">6.71</text></g><g clip-path="url(#clip49)"><text fill="#595959" font-family="Calibri,Calibri_MSFontService,sans-serif" font-weight="400" font-size="41" transform="matrix(6.12323e-17 -1 1 6.12323e-17 2966.61 1737)">6.92</text></g><g clip-path="url(#clip50)"><text fill="#595959" font-family="Calibri,Calibri_MSFontService,sans-serif" font-weight="400" font-size="41" transform="matrix(6.12323e-17 -1 1 6.12323e-17 3018.81 1737)">7.13</text></g><g clip-path="url(#clip51)"><text fill="#595959" font-family="Calibri,Calibri_MSFontService,sans-serif" font-weight="400" font-size="41" transform="matrix(6.12323e-17 -1 1 6.12323e-17 3071.01 1737)">7.34</text></g><g clip-path="url(#clip52)"><text fill="#595959" font-family="Calibri,Calibri_MSFontService,sans-serif" font-weight="400" font-size="41" transform="matrix(6.12323e-17 -1 1 6.12323e-17 3123.2 1737)">7.55</text></g><g clip-path="url(#clip53)"><text fill="#595959" font-family="Calibri,Calibri_MSFontService,sans-serif" font-weight="400" font-size="41" transform="matrix(6.12323e-17 -1 1 6.12323e-17 3175.4 1737)">7.76</text></g><g clip-path="url(#clip54)"><text fill="#595959" font-family="Calibri,Calibri_MSFontService,sans-serif" font-weight="400" font-size="41" transform="matrix(6.12323e-17 -1 1 6.12323e-17 3227.59 1737)">7.97</text></g><g clip-path="url(#clip55)"><text fill="#595959" font-family="Calibri,Calibri_MSFontService,sans-serif" font-weight="400" font-size="41" transform="matrix(6.12323e-17 -1 1 6.12323e-17 3279.79 1737)">8.18</text></g><g clip-path="url(#clip56)"><text fill="#595959" font-family="Calibri,Calibri_MSFontService,sans-serif" font-weight="400" font-size="41" transform="matrix(6.12323e-17 -1 1 6.12323e-17 3331.98 1737)">8.39</text></g><g clip-path="url(#clip57)"><text fill="#595959" font-family="Calibri,Calibri_MSFontService,sans-serif" font-weight="400" font-size="41" transform="matrix(6.12323e-17 -1 1 6.12323e-17 3384.18 1716)">8.6</text></g><g clip-path="url(#clip58)"><text fill="#595959" font-family="Calibri,Calibri_MSFontService,sans-serif" font-weight="400" font-size="41" transform="matrix(6.12323e-17 -1 1 6.12323e-17 3436.38 1737)">8.81</text></g><g clip-path="url(#clip59)"><text fill="#595959" font-family="Calibri,Calibri_MSFontService,sans-serif" font-weight="400" font-size="41" transform="matrix(6.12323e-17 -1 1 6.12323e-17 3488.57 1737)">9.02</text></g><g clip-path="url(#clip60)"><text fill="#595959" font-family="Calibri,Calibri_MSFontService,sans-serif" font-weight="400" font-size="41" transform="matrix(6.12323e-17 -1 1 6.12323e-17 3540.77 1737)">9.23</text></g><g clip-path="url(#clip61)"><text fill="#595959" font-family="Calibri,Calibri_MSFontService,sans-serif" font-weight="400" font-size="41" transform="matrix(6.12323e-17 -1 1 6.12323e-17 3592.96 1737)">9.44</text></g><g clip-path="url(#clip62)"><text fill="#595959" font-family="Calibri,Calibri_MSFontService,sans-serif" font-weight="400" font-size="41" transform="matrix(6.12323e-17 -1 1 6.12323e-17 3645.16 1737)">9.65</text></g><g clip-path="url(#clip63)"><text fill="#595959" font-family="Calibri,Calibri_MSFontService,sans-serif" font-weight="400" font-size="41" transform="matrix(6.12323e-17 -1 1 6.12323e-17 3697.35 1737)">9.86</text></g><g clip-path="url(#clip64)"><text fill="#595959" font-family="Calibri,Calibri_MSFontService,sans-serif" font-weight="400" font-size="64" transform="matrix(1 0 0 1 1769.9 169)">Reference Output for Synchronous Clocked Scenario</text></g><g clip-path="url(#clip65)"><path d="M2305 2075 2393 2075" stroke="#ED7D31" stroke-width="10.3125" stroke-linecap="round" stroke-linejoin="round" stroke-miterlimit="10" fill="none" fill-rule="evenodd"/></g><g clip-path="url(#clip66)"><text fill="#595959" font-family="Calibri,Calibri_MSFontService,sans-serif" font-weight="400" font-size="41" transform="matrix(1 0 0 1 2402.16 2087)">x</text></g><g clip-path="url(#clip67)"><path d="M2452 2075 2540 2075" stroke="#4472C4" stroke-width="10.3125" stroke-linecap="round" stroke-linejoin="round" stroke-miterlimit="10" fill="none" fill-rule="evenodd"/></g><g clip-path="url(#clip68)"><text fill="#595959" font-family="Calibri,Calibri_MSFontService,sans-serif" font-weight="400" font-size="41" transform="matrix(1 0 0 1 2549.67 2087)">u_r</text></g><rect x="1128.5" y="74.5001" width="2639" height="2068" stroke="#D9D9D9" stroke-width="3.4375" stroke-linejoin="round" stroke-miterlimit="10" fill="none"/></g></svg>