<svg width="2605" height="1816" xmlns="http://www.w3.org/2000/svg" xmlns:xlink="http://www.w3.org/1999/xlink" xml:space="preserve" overflow="hidden"><defs><clipPath id="clip0"><rect x="1285" y="142" width="2605" height="1816"/></clipPath><clipPath id="clip1"><rect x="1285" y="142" width="2602" height="1813"/></clipPath><clipPath id="clip2"><rect x="1285" y="142" width="2602" height="1813"/></clipPath><clipPath id="clip3"><rect x="1387" y="312" width="2453" height="1596"/></clipPath><clipPath id="clip4"><rect x="1387" y="312" width="2453" height="1596"/></clipPath><clipPath id="clip5"><rect x="1387" y="312" width="2453" height="1596"/></clipPath><clipPath id="clip6"><rect x="1387" y="312" width="2453" height="1596"/></clipPath><clipPath id="clip7"><rect x="1387" y="312" width="2453" height="1596"/></clipPath><clipPath id="clip8"><rect x="1285" y="142" width="2602" height="1813"/></clipPath><clipPath id="clip9"><rect x="1285" y="142" width="2602" height="1813"/></clipPath><clipPath id="clip10"><rect x="1285" y="142" width="2602" height="1813"/></clipPath><clipPath id="clip11"><rect x="1285" y="142" width="2602" height="1813"/></clipPath><clipPath id="clip12"><rect x="1285" y="142" width="2602" height="1813"/></clipPath><clipPath id="clip13"><rect x="1285" y="142" width="2602" height="1813"/></clipPath><clipPath id="clip14"><rect x="1285" y="142" width="2602" height="1813"/></clipPath><clipPath id="clip15"><rect x="1285" y="142" width="2602" height="1813"/></clipPath><clipPath id="clip16"><rect x="1285" y="142" width="2602" height="1813"/></clipPath><clipPath id="clip17"><rect x="1285" y="142" width="2602" height="1813"/></clipPath><clipPath id="clip18"><rect x="1285" y="142" width="2602" height="1813"/></clipPath><clipPath id="clip19"><rect x="1285" y="142" width="2602" height="1813"/></clipPath><clipPath id="clip20"><rect x="1285" y="142" width="2602" height="1813"/></clipPath><clipPath id="clip21"><rect x="1285" y="142" width="2602" height="1813"/></clipPath><clipPath id="clip22"><rect x="1285" y="142" width="2602" height="1813"/></clipPath><clipPath id="clip23"><rect x="1285" y="142" width="2602" height="1813"/></clipPath><clipPath id="clip24"><rect x="1285" y="142" width="2602" height="1813"/></clipPath><clipPath id="clip25"><rect x="1285" y="142" width="2602" height="1813"/></clipPath><clipPath id="clip26"><rect x="1285" y="142" width="2602" height="1813"/></clipPath><clipPath id="clip27"><rect x="1285" y="142" width="2602" height="1813"/></clipPath><clipPath id="clip28"><rect x="1285" y="142" width="2602" height="1813"/></clipPath><clipPath id="clip29"><rect x="1285" y="142" width="2602" height="1813"/></clipPath><clipPath id="clip30"><rect x="1285" y="142" width="2602" height="1813"/></clipPath><clipPath id="clip31"><rect x="1285" y="142" width="2602" height="1813"/></clipPath><clipPath id="clip32"><rect x="1285" y="142" width="2602" height="1813"/></clipPath><clipPath id="clip33"><rect x="1285" y="142" width="2602" height="1813"/></clipPath><clipPath id="clip34"><rect x="1285" y="142" width="2602" height="1813"/></clipPath><clipPath id="clip35"><rect x="1285" y="142" width="2602" height="1813"/></clipPath><clipPath id="clip36"><rect x="1285" y="142" width="2602" height="1813"/></clipPath><clipPath id="clip37"><rect x="1285" y="142" width="2602" height="1813"/></clipPath><clipPath id="clip38"><rect x="1285" y="142" width="2602" height="1813"/></clipPath><clipPath id="clip39"><rect x="1285" y="142" width="2602" height="1813"/></clipPath><clipPath id="clip40"><rect x="1285" y="142" width="2602" height="1813"/></clipPath><clipPath id="clip41"><rect x="1285" y="142" width="2602" height="1813"/></clipPath><clipPath id="clip42"><rect x="1285" y="142" width="2602" height="1813"/></clipPath><clipPath id="clip43"><rect x="1285" y="142" width="2602" height="1813"/></clipPath><clipPath id="clip44"><rect x="1285" y="142" width="2602" height="1813"/></clipPath><clipPath id="clip45"><rect x="1285" y="142" width="2602" height="1813"/></clipPath><clipPath id="clip46"><rect x="1285" y="142" width="2602" height="1813"/></clipPath><clipPath id="clip47"><rect x="1285" y="142" width="2602" height="1813"/></clipPath><clipPath id="clip48"><rect x="1285" y="142" width="2602" height="1813"/></clipPath><clipPath id="clip49"><rect x="1285" y="142" width="2602" height="1813"/></clipPath><clipPath id="clip50"><rect x="1285" y="142" width="2602" height="1813"/></clipPath><clipPath id="clip51"><rect x="1285" y="142" width="2602" height="1813"/></clipPath><clipPath id="clip52"><rect x="1285" y="142" width="2602" height="1813"/></clipPath><clipPath id="clip53"><rect x="1285" y="142" width="2602" height="1813"/></clipPath><clipPath id="clip54"><rect x="1285" y="142" width="2602" height="1813"/></clipPath><clipPath id="clip55"><rect x="1285" y="142" width="2602" height="1813"/></clipPath><clipPath id="clip56"><rect x="1285" y="142" width="2602" height="1813"/></clipPath><clipPath id="clip57"><rect x="1285" y="142" width="2602" height="1813"/></clipPath><clipPath id="clip58"><rect x="1285" y="142" width="2602" height="1813"/></clipPath><clipPath id="clip59"><rect x="1285" y="142" width="2602" height="1813"/></clipPath><clipPath id="clip60"><rect x="1285" y="142" width="2602" height="1813"/></clipPath><clipPath id="clip61"><rect x="1285" y="142" width="2602" height="1813"/></clipPath><clipPath id="clip62"><rect x="1285" y="142" width="2602" height="1813"/></clipPath><clipPath id="clip63"><rect x="1285" y="142" width="2602" height="1813"/></clipPath><clipPath id="clip64"><rect x="1285" y="142" width="2602" height="1813"/></clipPath><clipPath id="clip65"><rect x="1285" y="142" width="2602" height="1813"/></clipPath><clipPath id="clip66"><rect x="1285" y="142" width="2602" height="1813"/></clipPath><clipPath id="clip67"><rect x="1285" y="142" width="2602" height="1813"/></clipPath></defs><g clip-path="url(#clip0)" transform="translate(-1285 -142)"><rect x="1286" y="143" width="2602" height="1813" fill="#FFFFFF"/><g clip-path="url(#clip1)"><path d="M1387.5 1905.5 3837.5 1905.5M1387.5 1746.56 3837.5 1746.56M1387.5 1427.55 3837.5 1427.55M1387.5 1268.54 3837.5 1268.54M1387.5 1109.54 3837.5 1109.54M1387.5 949.531 3837.5 949.531M1387.5 790.526 3837.5 790.526M1387.5 631.521 3837.5 631.521M1387.5 471.516 3837.5 471.516M1387.5 312.5 3837.5 312.5" stroke="#D9D9D9" stroke-width="3.4375" stroke-linejoin="round" stroke-miterlimit="10" fill="none"/></g><g clip-path="url(#clip2)"><path d="M1387.5 1586.5 3837.5 1586.5" stroke="#D9D9D9" stroke-width="3.4375" stroke-linejoin="round" stroke-miterlimit="10" fill="none" fill-rule="evenodd"/></g><g clip-path="url(#clip3)"><path d="M1388 1587 1391.05 1587 1393.05 1587 1396.05 1587 1398.05 1587 1401.05 1587 1403.05 1587 1406.05 1587 1408.05 1587 1410.05 1587 1413.05 1587 1415.05 1585.05 1418.05 1584.05 1420.05 1582.05 1423.05 1581.05 1425.05 1579.05 1428.05 1578.05 1430.05 1576.05 1432.05 1575.05 1435.05 1573.05 1437.05 1572.05 1440.05 1570.05 1442.05 1567.05 1445.05 1564.05 1447.05 1561.05 1450.05 1558.05 1452.05 1555.05 1454.05 1553.05 1457.05 1550.05 1459.05 1547.05 1462.05 1544.05 1464.05 1541.05 1467.05 1539.05 1469.05 1534.05 1472.05 1530.05 1474.05 1526.05 1477.05 1522.05 1479.05 1518.05 1481.05 1513.05 1484.05 1509.05 1486.05 1505.05 1489.05 1501.05 1491.05 1498.05 1494.05 1494.05 1496.05 1488.05 1499.05 1483.05 1501.05 1478.05 1503.05 1472.05 1506.05 1467.05 1508.05 1462.05 1511.05 1457.05 1513.05 1452.05 1516.05 1447.05 1518.05 1442.05 1521.05 1437.05 1523.05 1430.05 1525.05 1424.05 1528.05 1418.05 1530.05 1411.05 1533.05 1405.05 1535.05 1399.05 1538.05 1393.05 1540.05 1387.05 1543.05 1381.05 1545.05 1375.05 1547.05 1369.04 1550.05 1362.04 1552.05 1354.04 1555.05 1347.04 1557.05 1340.04 1560.05 1333.04 1562.05 1326.04 1565.05 1319.04 1567.05 1312.04 1570.05 1305.04 1572.05 1299.04 1574.05 1292.04 1577.05 1284.04 1579.05 1276.04 1582.05 1268.04 1584.05 1260.04 1587.05 1252.04 1589.05 1244.04 1592.05 1236.04 1594.05 1229.04 1596.05 1221.04 1599.05 1213.04 1601.05 1206.04 1604.05 1202.04 1606.05 1198.04 1609.05 1194.04 1611.05 1190.04 1614.05 1186.04 1616.05 1182.04 1618.05 1178.04 1621.05 1174.04 1623.05 1170.04 1626.05 1166.04 1628.05 1163.04 1631.05 1160.04 1633.05 1158.04 1636.05 1156.04 1638.05 1154.04 1640.05 1152.04 1643.05 1150.04 1645.05 1148.04 1648.05 1146.04 1650.05 1144.04 1653.05 1142.04 1655.05 1140.04 1658.05 1140.04 1660.05 1140.04 1663.05 1139.04 1665.05 1139.04 1667.05 1139.04 1670.05 1138.04 1672.05 1138.04 1675.06 1138.04 1677.06 1138.04 1680.06 1137.04 1682.06 1137 1685.06 1138.04 1687.06 1140.04 1689.06 1141.04 1692.06 1142.04 1694.06 1143.04 1697.06 1145.04 1699.06 1146.04 1702.06 1147.04 1704.06 1148.04 1707.06 1150.04 1709.06 1151.04 1711.06 1154.04 1714.06 1156.04 1716.06 1159.04 1719.06 1162.04 1721.06 1164.04 1724.06 1167.04 1726.06 1170.04 1729.06 1172.04 1731.06 1175.04 1734.06 1177.04 1736.06 1180.04 1738.06 1184.04 1741.06 1188.04 1743.06 1192.04 1746.06 1196.04 1748.06 1200.04 1751.06 1204.04 1753.06 1207.04 1756.06 1211.04 1758.06 1215.04 1760.06 1219.04 1763.06 1222.04 1765.06 1228.04 1768.06 1233.04 1770.06 1238.04 1773.06 1243.04 1775.06 1248.04 1778.06 1253.04 1780.06 1258.04 1782.06 1263.04 1785.06 1268.04 1787.06 1272.04 1790.06 1277.04 1792.06 1279.04 1795.06 1280.04 1797.06 1282.04 1800.06 1283.04 1802.06 1285.04 1804.06 1286.04 1807.06 1287.04 1809.06 1289.04 1812.06 1290.04 1814.06 1292.04 1817.06 1293.04 1819.06 1293.04 1822.06 1292.04 1824.06 1292.04 1827.06 1292.04 1829.06 1292.04 1831.06 1291.04 1834.06 1291.04 1836.06 1291.04 1839.06 1291.04 1841.06 1291.04 1844.06 1290.04 1846.06 1289.04 1849.06 1287.04 1851.06 1285.04 1853.06 1283.04 1856.06 1281.04 1858.06 1280.04 1861.06 1278.04 1863.06 1276.04 1866.06 1275.04 1868.06 1273.04 1871.06 1271.04 1873.06 1268.04 1875.06 1265.04 1878.06 1262.04 1880.06 1259.04 1883.06 1256.04 1885.06 1253.04 1888.06 1250.04 1890.06 1247.04 1893.06 1244.04 1895.06 1241.04 1898.06 1238.04 1900.06 1238.04 1902.06 1238.04 1905.06 1239.04 1907.06 1239.04 1910.06 1239.04 1912.06 1240.04 1915.06 1240.04 1917.06 1240.04 1920.06 1240.04 1922.06 1241.04 1924.06 1241.04 1927.06 1243.04 1929.06 1245.04 1932.06 1246.04 1934.06 1248.04 1937.06 1250.04 1939.06 1252.04 1942.06 1254.04 1944.06 1255.04 1946.06 1257.04 1949.06 1259.04 1951.06 1260.04 1954.06 1264.04 1956.06 1267.04 1959.06 1270.04 1961.06 1273.04 1964.06 1276.04 1966.06 1280.04 1968.06 1283.04 1971.06 1286.04 1973.06 1289.04 1976.06 1292.04 1978.06 1295.04 1981.07 1294.04 1983.07 1294.04 1986.07 1294.04 1988.07 1294.04 1991.07 1293.04 1993.07 1293.04 1995.07 1293.04 1998.07 1293.04 2000.07 1292.04 2003.07 1292.04 2005.07 1292.04 2008.07 1290.04 2010.07 1288.04 2013.07 1286.04 2015.07 1285.04 2017.07 1283.04 2020.07 1281.04 2022.07 1279.04 2025.07 1278.04 2027.07 1276.04 2030.07 1274.04 2032.07 1273.04 2035.07 1270.04 2037.07 1266.04 2039.07 1263.04 2042.07 1260.04 2044.07 1257.04 2047.07 1254.04 2049.07 1251.04 2052.07 1248.04 2054.07 1245.04 2057.07 1242.04 2059.07 1239.04 2061.07 1239.04 2064.07 1240.04 2066.07 1240.04 2069.07 1240.04 2071.07 1240.04 2074.07 1241.04 2076.07 1241.04 2079.07 1241.04 2081.07 1241.04 2084.07 1242.04 2086.07 1242.04 2088.07 1244.04 2091.07 1246.04 2093.07 1248.04 2096.07 1249.04 2098.07 1251.04 2101.07 1253.04 2103.07 1255.04 2106.07 1256.04 2108.07 1258.04 2110.07 1260.04 2113.07 1261.04 2115.07 1265.04 2118.07 1268.04 2120.07 1271.04 2123.07 1274.04 2125.07 1277.04 2128.07 1280.04 2130.07 1284.04 2132.07 1287.04 2135.07 1290.04 2137.07 1293.04 2140.07 1296.04 2142.07 1295.04 2145.07 1295.04 2147.07 1295.04 2150.07 1294.04 2152.07 1294.04 2155.07 1294.04 2157.07 1294.04 2159.07 1293.04 2162.07 1293.04 2164.07 1293.04 2167.07 1293.04 2169.07 1291.04 2172.07 1289.04 2174.07 1287.04 2177.07 1285.04 2179.07 1284.04 2181.07 1282.04 2184.07 1280.04 2186.07 1278.04 2189.07 1277.04 2191.07 1275.04 2194.07 1273.04 2196.07 1270.04 2199.07 1267.04 2201.07 1264.04 2203.07 1261.04 2206.07 1258.04 2208.07 1254.04 2211.07 1251.04 2213.07 1248.04 2216.07 1245.04 2218.07 1242.04 2221.07 1240.04 2223.07 1240.04 2225.07 1240.04 2228.07 1240.04 2230.07 1241.04 2233.07 1241.04 2235.07 1241.04 2238.07 1242.04 2240.07 1242.04 2243.07 1242.04 2245.07 1242.04 2248.07 1243.04 2250.07 1244.04 2252.07 1246.04 2255.07 1248.04 2257.07 1250.04 2260.07 1252.04 2262.07 1253.04 2265.07 1255.04 2267.07 1257.04 2270.07 1259.04 2272.07 1260.04 2274.07 1262.04 2277.07 1265.04 2279.07 1268.04 2282.07 1272.04 2284.07 1275.04 2287.08 1278.04 2289.08 1281.04 2292.08 1284.04 2294.08 1287.04 2296.08 1290.04 2299.08 1293.04 2301.08 1296.04 2304.08 1296.04 2306.08 1295.04 2309.08 1295.04 2311.08 1295.04 2314.08 1295.04 2316.08 1294.04 2318.08 1294.04 2321.08 1294.04 2323.08 1294.04 2326.08 1293.04 2328.08 1293.04 2331.08 1291.04 2333.08 1289.04 2336.08 1288.04 2338.08 1286.04 2341.08 1284.04 2343.08 1282.04 2345.08 1281.04 2348.08 1279.04 2350.08 1277.04 2353.08 1275.04 2355.08 1274.04 2358.08 1271.04 2360.08 1267.04 2363.08 1264.04 2365.08 1261.04 2367.08 1258.04 2370.08 1255.04 2372.08 1252.04 2375.08 1249.04 2377.08 1246.04 2380.08 1243.04 2382.08 1240.04 2385.08 1240.04 2387.08 1240.04 2389.08 1241.04 2392.08 1241.04 2394.08 1241.04 2397.08 1242.04 2399.08 1242.04 2402.08 1242.04 2404.08 1242.04 2407.08 1243.04 2409.08 1243.04 2412.08 1245.04 2414.08 1247.04 2416.08 1248.04 2419.08 1250.04 2421.08 1252.04 2424.08 1254.04 2426.08 1255.04 2429.08 1257.04 2431.08 1259.04 2434.08 1261.04 2436.08 1262.04 2438.08 1265.04 2441.08 1269.04 2443.08 1272.04 2446.08 1275.04 2448.08 1278.04 2451.08 1281.04 2453.08 1284.04 2456.08 1287.04 2458.08 1290.04 2460.08 1293.04 2463.08 1296.04 2465.08 1296.04 2468.08 1296.04 2470.08 1295.04 2473.08 1295.04 2475.08 1295.04 2478.08 1295.04 2480.08 1294.04 2482.08 1294.04 2485.08 1294.04 2487.08 1294.04 2490.08 1293.04 2492.08 1291.04 2495.08 1290.04 2497.08 1288.04 2500.08 1286.04 2502.08 1284.04 2505.08 1282.04 2507.08 1281.04 2509.08 1279.04 2512.08 1277.04 2514.08 1276.04 2517.08 1274.04 2519.08 1271.04 2522.08 1268.04 2524.08 1264.04 2527.08 1261.04 2529.08 1258.04 2531.08 1255.04 2534.08 1252.04 2536.08 1249.04 2539.08 1246.04 2541.08 1243.04 2544.08 1240.04 2546.08 1240.04 2549.08 1241.04 2551.08 1241.04 2553.08 1241.04 2556.08 1241.04 2558.08 1242.04 2561.08 1242.04 2563.08 1242.04 2566.08 1243.04 2568.08 1243.04 2571.08 1243.04 2573.08 1245.04 2576.08 1247.04 2578.08 1248.04 2580.08 1250.04 2583.08 1252.04 2585.08 1254.04 2588.08 1256.04 2590.08 1257.04 2593.08 1259.04 2595.09 1261.04 2598.09 1262.04 2600.09 1266.04 2602.09 1269.04 2605.09 1272.04 2607.09 1275.04 2610.09 1278.04 2612.09 1281.04 2615.09 1284.04 2617.09 1287.04 2620.09 1290.04 2622.09 1293.04 2624.09 1296.04 2627.09 1296.04 2629.09 1296.04 2632.09 1295.04 2634.09 1295.04 2637.09 1295.04 2639.09 1295.04 2642.09 1294.04 2644.09 1294.04 2646.09 1294.04 2649.09 1294.04 2651.09 1293.04 2654.09 1292.04 2656.09 1290.04 2659.09 1288.04 2661.09 1286.04 2664.09 1284.04 2666.09 1283.04 2669.09 1281.04 2671.09 1279.04 2673.09 1277.04 2676.09 1276.04 2678.09 1274.04 2681.09 1271.04 2683.09 1268.04 2686.09 1264.04 2688.09 1261.04 2691.09 1258.04 2693.09 1255.04 2695.09 1252.04 2698.09 1249.04 2700.09 1246.04 2703.09 1243.04 2705.09 1240.04 2708.09 1240.04 2710.09 1241.04 2713.09 1241.04 2715.09 1241.04 2717.09 1242.04 2720.09 1242.04 2722.09 1242.04 2725.09 1242.04 2727.09 1243.04 2730.09 1243.04 2732.09 1243.04 2735.09 1245.04 2737.09 1247.04 2739.09 1249.04 2742.09 1250.04 2744.09 1252.04 2747.09 1254.04 2749.09 1256.04 2752.09 1257.04 2754.09 1259.04 2757.09 1261.04 2759.09 1262.04 2762.09 1266.04 2764.09 1269.04 2766.09 1272.04 2769.09 1275.04 2771.09 1278.04 2774.09 1281.04 2776.09 1284.04 2779.09 1287.04 2781.09 1290.04 2784.09 1293.04 2786.09 1296.04 2788.09 1296.04 2791.09 1296.04 2793.09 1296.04 2796.09 1295.04 2798.09 1295.04 2801.09 1295.04 2803.09 1294.04 2806.09 1294.04 2808.09 1294.04 2810.09 1294.04 2813.09 1293.04 2815.09 1292.04 2818.09 1290.04 2820.09 1288.04 2823.09 1286.04 2825.09 1284.04 2828.09 1283.04 2830.09 1281.04 2833.09 1279.04 2835.09 1277.04 2837.09 1276.04 2840.09 1274.04 2842.09 1271.04 2845.09 1268.04 2847.09 1264.04 2850.09 1261.04 2852.09 1258.04 2855.09 1255.04 2857.09 1252.04 2859.09 1249.04 2862.09 1246.04 2864.09 1243.04 2867.09 1240.04 2869.09 1240.04 2872.09 1241.04 2874.09 1241.04 2877.09 1241.04 2879.09 1242.04 2881.09 1242.04 2884.09 1242.04 2886.09 1242.04 2889.09 1243.04 2891.09 1243.04 2894.09 1243.04 2896.1 1245.04 2899.1 1247.04 2901.1 1249.04 2903.1 1250.04 2906.1 1252.04 2908.1 1254.04 2911.1 1256.04 2913.1 1257.04 2916.1 1259.04 2918.1 1261.04 2921.1 1262.04 2923.1 1266.04 2926.1 1269.04 2928.1 1272.04 2930.1 1275.04 2933.1 1278.04 2935.1 1281.04 2938.1 1284.04 2940.1 1288.04 2943.1 1290.04 2945.1 1293.04 2948.1 1296.04 2950.1 1296.04 2952.1 1296.04 2955.1 1296.04 2957.1 1295.04 2960.1 1295.04 2962.1 1295.04 2965.1 1294.04 2967.1 1294.04 2970.1 1294.04 2972.1 1294.04 2974.1 1293.04 2977.1 1292.04 2979.1 1290.04 2982.1 1288.04 2984.1 1286.04 2987.1 1284.04 2989.1 1283.04 2992.1 1281.04 2994.1 1279.04 2996.1 1278.04 2999.1 1276.04 3001.1 1274.04 3004.1 1271.04 3006.1 1268.04 3009.1 1265.04 3011.1 1261.04 3014.1 1258.04 3016.1 1255.04 3019.1 1252.04 3021.1 1249.04 3023.1 1246.04 3026.1 1243.04 3028.1 1240.04 3031.1 1240.04 3033.1 1241.04 3036.1 1241.04 3038.1 1241.04 3041.1 1242.04 3043.1 1242.04 3045.1 1242.04 3048.1 1242.04 3050.1 1243.04 3053.1 1243.04 3055.1 1243.04 3058.1 1245.04 3060.1 1247.04 3063.1 1249.04 3065.1 1250.04 3067.1 1252.04 3070.1 1254.04 3072.1 1256.04 3075.1 1257.04 3077.1 1259.04 3080.1 1261.04 3082.1 1262.04 3085.1 1266.04 3087.1 1269.04 3090.1 1272.04 3092.1 1275.04 3094.1 1278.04 3097.1 1281.04 3099.1 1284.04 3102.1 1288.04 3104.1 1291.04 3107.1 1293.04 3109.1 1296.04 3112.1 1296.04 3114.1 1296.04 3116.1 1296.04 3119.1 1295.04 3121.1 1295.04 3124.1 1295.04 3126.1 1295.04 3129.1 1294.04 3131.1 1294.04 3134.1 1294.04 3136.1 1293.04 3138.1 1292.04 3141.1 1290.04 3143.1 1288.04 3146.1 1286.04 3148.1 1284.04 3151.1 1283.04 3153.1 1281.04 3156.1 1279.04 3158.1 1278.04 3160.1 1276.04 3163.1 1274.04 3165.1 1271.04 3168.1 1268.04 3170.1 1265.04 3173.1 1261.04 3175.1 1258.04 3178.1 1255.04 3180.1 1252.04 3183.1 1249.04 3185.1 1246.04 3187.1 1243.04 3190.1 1240.04 3192.1 1241.04 3195.1 1241.04 3197.1 1241.04 3200.1 1241.04 3202.1 1242.04 3205.11 1242.04 3207.11 1242.04 3209.11 1242.04 3212.11 1243.04 3214.11 1243.04 3217.11 1243.04 3219.11 1245.04 3222.11 1247.04 3224.11 1249.04 3227.11 1250.04 3229.11 1252.04 3231.11 1254.04 3234.11 1256.04 3236.11 1257.04 3239.11 1259.04 3241.11 1261.04 3244.11 1262.04 3246.11 1266.04 3249.11 1269.04 3251.11 1272.04 3254.11 1275.04 3256.11 1278.04 3258.11 1281.04 3261.11 1285.04 3263.11 1288.04 3266.11 1291.04 3268.11 1293.04 3271.11 1296.04 3273.11 1296.04 3276.11 1296.04 3278.11 1296.04 3280.11 1295.04 3283.11 1295.04 3285.11 1295.04 3288.11 1295.04 3290.11 1294.04 3293.11 1294.04 3295.11 1294.04 3298.11 1293.04 3300.11 1292.04 3302.11 1290.04 3305.11 1288.04 3307.11 1286.04 3310.11 1284.04 3312.11 1283.04 3315.11 1281.04 3317.11 1279.04 3320.11 1278.04 3322.11 1276.04 3324.11 1274.04 3327.11 1271.04 3329.11 1268.04 3332.11 1265.04 3334.11 1261.04 3337.11 1258.04 3339.11 1255.04 3342.11 1252.04 3344.11 1249.04 3347.11 1246.04 3349.11 1243.04 3351.11 1240.04 3354.11 1241.04 3356.11 1241.04 3359.11 1241.04 3361.11 1241.04 3364.11 1242.04 3366.11 1242.04 3369.11 1242.04 3371.11 1242.04 3373.11 1243.04 3376.11 1243.04 3378.11 1243.04 3381.11 1245.04 3383.11 1247.04 3386.11 1249.04 3388.11 1250.04 3391.11 1252.04 3393.11 1254.04 3395.11 1256.04 3398.11 1257.04 3400.11 1259.04 3403.11 1261.04 3405.11 1262.04 3408.11 1266.04 3410.11 1269.04 3413.11 1272.04 3415.11 1275.04 3417.11 1278.04 3420.11 1281.04 3422.11 1285.04 3425.11 1288.04 3427.11 1291.04 3430.11 1293.04 3432.11 1296.04 3435.11 1296.04 3437.11 1296.04 3440.11 1296.04 3442.11 1295.04 3444.11 1295.04 3447.11 1295.04 3449.11 1295.04 3452.11 1294.04 3454.11 1294.04 3457.11 1294.04 3459.11 1293.04 3462.11 1292.04 3464.11 1290.04 3466.11 1288.04 3469.11 1286.04 3471.11 1284.04 3474.11 1283.04 3476.11 1281.04 3479.11 1279.04 3481.11 1278.04 3484.11 1276.04 3486.11 1274.04 3488.11 1271.04 3491.11 1268.04 3493.11 1265.04 3496.11 1261.04 3498.11 1258.04 3501.11 1255.04 3503.11 1252.04 3506.12 1249.04 3508.12 1246.04 3511.12 1243.04 3513.12 1240.04 3515.12 1241.04 3518.12 1241.04 3520.12 1241.04 3523.12 1241.04 3525.12 1242.04 3528.12 1242.04 3530.12 1242.04 3533.12 1242.04 3535.12 1243.04 3537.12 1243.04 3540.12 1243.04 3542.12 1245.04 3545.12 1247.04 3547.12 1249.04 3550.12 1250.04 3552.12 1252.04 3555.12 1254.04 3557.12 1256.04 3559.12 1257.04 3562.12 1259.04 3564.12 1261.04 3567.12 1262.04 3569.12 1266.04 3572.12 1269.04 3574.12 1272.04 3577.12 1275.04 3579.12 1278.04 3581.12 1281.04 3584.12 1285.04 3586.12 1288.04 3589.12 1291.04 3591.12 1293.04 3594.12 1296.04 3596.12 1296.04 3599.12 1296.04 3601.12 1296.04 3604.12 1295.04 3606.12 1295.04 3608.12 1295.04 3611.12 1295.04 3613.12 1294.04 3616.12 1294.04 3618.12 1294.04 3621.12 1293.04 3623.12 1292.04 3626.12 1290.04 3628.12 1288.04 3630.12 1286.04 3633.12 1284.04 3635.12 1283.04 3638.12 1281.04 3640.12 1279.04 3643.12 1278.04 3645.12 1276.04 3648.12 1274.04 3650.12 1271.04 3652.12 1268.04 3655.12 1265.04 3657.12 1261.04 3660.12 1258.04 3662.12 1255.04 3665.12 1252.04 3667.12 1249.04 3670.12 1246.04 3672.12 1243.04 3675.12 1240.04 3677.12 1241.04 3679.12 1241.04 3682.12 1241.04 3684.12 1241.04 3687.12 1242.04 3689.12 1242.04 3692.12 1242.04 3694.12 1242.04 3697.12 1243.04 3699.12 1243.04 3701.12 1243.04 3704.12 1245.04 3706.12 1247.04 3709.12 1249.04 3711.12 1250.04 3714.12 1252.04 3716.12 1254.04 3719.12 1256.04 3721.12 1257.04 3723.12 1259.04 3726.12 1261.04 3728.12 1262.04 3731.12 1266.04 3733.12 1269.04 3736.12 1272.04 3738.12 1275.04 3741.12 1278.04 3743.12 1281.04 3745.12 1285.04 3748.12 1288.04 3750.12 1291.04 3753.12 1293.04 3755.12 1296.04 3758.12 1296.04 3760.12 1296.04 3763.12 1296.04 3765.12 1295.04 3768.12 1295.04 3770.12 1295.04 3772.12 1295.04 3775.12 1294.04 3777.12 1294.04 3780.12 1294.04 3782.12 1293.04 3785.12 1292.04 3787.12 1290.04 3790.12 1288.04 3792.12 1286.04 3794.12 1284.04 3797.12 1283.04 3799.12 1281.04 3802.12 1279.04 3804.12 1278.04 3807.12 1276.04 3809.12 1274.04 3812.12 1271.04 3814.12 1268.04 3816.13 1265.04 3819.13 1261.04 3821.13 1258.04 3824.13 1255.04 3826.13 1252.04 3829.13 1249.04 3831.13 1246.04 3834.13 1243.04 3836 1240.04" stroke="#ED7D31" stroke-width="10.3125" stroke-linecap="round" stroke-linejoin="round" stroke-miterlimit="10" fill="none"/></g><g clip-path="url(#clip4)"><path d="M1388 1587 1391.05 1587 1393.05 1587 1396.05 1587 1398.05 1587 1401.05 1587 1403.05 1587 1406.05 1587 1408.05 1587 1410.05 1587 1413.05 1587 1415.05 1587 1418.05 1587 1420.05 1587 1423.05 1587 1425.05 1587 1428.05 1587 1430.05 1587 1432.05 1587 1435.05 1587 1437.05 1587 1440.05 1587 1442.05 1587 1445.05 1587 1447.05 1587 1450.05 1587 1452.05 1587 1454.05 1587 1457.05 1587 1459.05 1587 1462.05 1587 1464.05 1587 1467.05 1587 1469.05 1587 1472.05 1587 1474.05 1587 1477.05 1587 1479.05 1587 1481.05 1587 1484.05 1587 1486.05 1587 1489.05 1587 1491.05 1587 1494.05 1587 1496.05 1587 1499.05 1587 1501.05 1587 1503.05 1587 1506.05 1587 1508.05 1587 1511.05 1587 1513.05 1587 1516.05 1587 1518.05 1587 1521.05 1587 1523.05 1587 1525.05 1587 1528.05 1587 1530.05 1587 1533.05 1587 1535.05 1587 1538.05 1587 1540.05 1587 1543.05 1587 1545.05 1587 1547.05 1587 1550.05 1587 1552.05 1587 1555.05 1587 1557.05 1587 1560.05 1587 1562.05 1587 1565.05 1587 1567.05 1587 1570.05 1587 1572.05 1587 1574.05 1587 1577.05 1587 1579.05 1587 1582.05 1587 1584.05 1587 1587.05 1587 1589.05 1587 1592.05 1587 1594.05 1587 1596.05 1587 1599.05 1587 1601.05 1587 1604.05 1587 1606.05 1587 1609.05 1587 1611.05 1587 1614.05 1587 1616.05 1587 1618.05 1587 1621.05 1587 1623.05 1587 1626.05 1587 1628.05 1587 1631.05 1587 1633.05 1587 1636.05 1587 1638.05 1587 1640.05 1587 1643.05 1587 1645.05 1587 1648.05 1587 1650.05 1587 1653.05 1587 1655.05 1587 1658.05 1587 1660.05 1587 1663.05 1587 1665.05 1587 1667.05 1587 1670.05 1587 1672.05 1587 1675.06 1587 1677.06 1587 1680.06 1587 1682.06 1587 1685.06 1587 1687.06 1587 1689.06 1587 1692.06 1587 1694.06 1587 1697.06 1587 1699.06 1587 1702.06 1587 1704.06 1587 1707.06 1587 1709.06 1587 1711.06 1587 1714.06 1587 1716.06 1587 1719.06 1587 1721.06 1587 1724.06 1587 1726.06 1587 1729.06 1587 1731.06 1587 1734.06 1587 1736.06 1587 1738.06 1587 1741.06 1587 1743.06 1587 1746.06 1587 1748.06 1587 1751.06 1587 1753.06 1587 1756.06 1587 1758.06 1587 1760.06 1587 1763.06 1587 1765.06 1587 1768.06 1587 1770.06 1587 1773.06 1587 1775.06 1587 1778.06 1587 1780.06 1587 1782.06 1587 1785.06 1587 1787.06 1587 1790.06 1587 1792.06 1587 1795.06 1587 1797.06 1587 1800.06 1587 1802.06 1587 1804.06 1587 1807.06 1587 1809.06 1587 1812.06 1587 1814.06 1587 1817.06 1587 1819.06 1587 1822.06 1587 1824.06 1587 1827.06 1587 1829.06 1587 1831.06 1587 1834.06 1587 1836.06 1587 1839.06 1587 1841.06 1587 1844.06 1587 1846.06 1587 1849.06 1587 1851.06 1587 1853.06 1587 1856.06 1587 1858.06 1587 1861.06 1587 1863.06 1587 1866.06 1587 1868.06 1587 1871.06 1587 1873.06 1587 1875.06 1587 1878.06 1587 1880.06 1587 1883.06 1587 1885.06 1587 1888.06 1587 1890.06 1587 1893.06 1587 1895.06 1587 1898.06 1587 1900.06 1587 1902.06 1587 1905.06 1587 1907.06 1587 1910.06 1587 1912.06 1587 1915.06 1587 1917.06 1587 1920.06 1587 1922.06 1587 1924.06 1587 1927.06 1587 1929.06 1587 1932.06 1587 1934.06 1587 1937.06 1587 1939.06 1587 1942.06 1587 1944.06 1587 1946.06 1587 1949.06 1587 1951.06 1587 1954.06 1587 1956.06 1587 1959.06 1587 1961.06 1587 1964.06 1587 1966.06 1587 1968.06 1587 1971.06 1587 1973.06 1587 1976.06 1587 1978.06 1587 1981.07 1587 1983.07 1587 1986.07 1587 1988.07 1587 1991.07 1587 1993.07 1587 1995.07 1587 1998.07 1587 2000.07 1587 2003.07 1587 2005.07 1587 2008.07 1587 2010.07 1587 2013.07 1587 2015.07 1587 2017.07 1587 2020.07 1587 2022.07 1587 2025.07 1587 2027.07 1587 2030.07 1587 2032.07 1587 2035.07 1587 2037.07 1587 2039.07 1587 2042.07 1587 2044.07 1587 2047.07 1587 2049.07 1587 2052.07 1587 2054.07 1587 2057.07 1587 2059.07 1587 2061.07 1587 2064.07 1587 2066.07 1587 2069.07 1587 2071.07 1587 2074.07 1587 2076.07 1587 2079.07 1587 2081.07 1587 2084.07 1587 2086.07 1587 2088.07 1587 2091.07 1587 2093.07 1587 2096.07 1587 2098.07 1587 2101.07 1587 2103.07 1587 2106.07 1587 2108.07 1587 2110.07 1587 2113.07 1587 2115.07 1587 2118.07 1587 2120.07 1587 2123.07 1587 2125.07 1587 2128.07 1587 2130.07 1587 2132.07 1587 2135.07 1587 2137.07 1587 2140.07 1587 2142.07 1587 2145.07 1587 2147.07 1587 2150.07 1587 2152.07 1587 2155.07 1587 2157.07 1587 2159.07 1587 2162.07 1587 2164.07 1587 2167.07 1587 2169.07 1587 2172.07 1587 2174.07 1587 2177.07 1587 2179.07 1587 2181.07 1587 2184.07 1587 2186.07 1587 2189.07 1587 2191.07 1587 2194.07 1587 2196.07 1587 2199.07 1587 2201.07 1587 2203.07 1587 2206.07 1587 2208.07 1587 2211.07 1587 2213.07 1587 2216.07 1587 2218.07 1587 2221.07 1587 2223.07 1587 2225.07 1587 2228.07 1587 2230.07 1587 2233.07 1587 2235.07 1587 2238.07 1587 2240.07 1587 2243.07 1587 2245.07 1587 2248.07 1587 2250.07 1587 2252.07 1587 2255.07 1587 2257.07 1587 2260.07 1587 2262.07 1587 2265.07 1587 2267.07 1587 2270.07 1587 2272.07 1587 2274.07 1587 2277.07 1587 2279.07 1587 2282.07 1587 2284.07 1587 2287.08 1587 2289.08 1587 2292.08 1587 2294.08 1587 2296.08 1587 2299.08 1587 2301.08 1587 2304.08 1587 2306.08 1587 2309.08 1587 2311.08 1587 2314.08 1587 2316.08 1587 2318.08 1587 2321.08 1587 2323.08 1587 2326.08 1587 2328.08 1587 2331.08 1587 2333.08 1587 2336.08 1587 2338.08 1587 2341.08 1587 2343.08 1587 2345.08 1587 2348.08 1587 2350.08 1587 2353.08 1587 2355.08 1587 2358.08 1587 2360.08 1587 2363.08 1587 2365.08 1587 2367.08 1587 2370.08 1587 2372.08 1587 2375.08 1587 2377.08 1587 2380.08 1587 2382.08 1587 2385.08 1587 2387.08 1587 2389.08 1587 2392.08 1587 2394.08 1587 2397.08 1587 2399.08 1587 2402.08 1587 2404.08 1587 2407.08 1587 2409.08 1587 2412.08 1587 2414.08 1587 2416.08 1587 2419.08 1587 2421.08 1587 2424.08 1587 2426.08 1587 2429.08 1587 2431.08 1587 2434.08 1587 2436.08 1587 2438.08 1587 2441.08 1587 2443.08 1587 2446.08 1587 2448.08 1587 2451.08 1587 2453.08 1587 2456.08 1587 2458.08 1587 2460.08 1587 2463.08 1587 2465.08 1587 2468.08 1587 2470.08 1587 2473.08 1587 2475.08 1587 2478.08 1587 2480.08 1587 2482.08 1587 2485.08 1587 2487.08 1587 2490.08 1587 2492.08 1587 2495.08 1587 2497.08 1587 2500.08 1587 2502.08 1587 2505.08 1587 2507.08 1587 2509.08 1587 2512.08 1587 2514.08 1587 2517.08 1587 2519.08 1587 2522.08 1587 2524.08 1587 2527.08 1587 2529.08 1587 2531.08 1587 2534.08 1587 2536.08 1587 2539.08 1587 2541.08 1587 2544.08 1587 2546.08 1587 2549.08 1587 2551.08 1587 2553.08 1587 2556.08 1587 2558.08 1587 2561.08 1587 2563.08 1587 2566.08 1587 2568.08 1587 2571.08 1587 2573.08 1587 2576.08 1587 2578.08 1587 2580.08 1587 2583.08 1587 2585.08 1587 2588.08 1587 2590.08 1587 2593.08 1587 2595.09 1587 2598.09 1587 2600.09 1587 2602.09 1587 2605.09 1587 2607.09 1587 2610.09 1587 2612.09 1587 2615.09 1587 2617.09 1587 2620.09 1587 2622.09 1587 2624.09 1587 2627.09 1587 2629.09 1587 2632.09 1587 2634.09 1587 2637.09 1587 2639.09 1587 2642.09 1587 2644.09 1587 2646.09 1587 2649.09 1587 2651.09 1587 2654.09 1587 2656.09 1587 2659.09 1587 2661.09 1587 2664.09 1587 2666.09 1587 2669.09 1587 2671.09 1587 2673.09 1587 2676.09 1587 2678.09 1587 2681.09 1587 2683.09 1587 2686.09 1587 2688.09 1587 2691.09 1587 2693.09 1587 2695.09 1587 2698.09 1587 2700.09 1587 2703.09 1587 2705.09 1587 2708.09 1587 2710.09 1587 2713.09 1587 2715.09 1587 2717.09 1587 2720.09 1587 2722.09 1587 2725.09 1587 2727.09 1587 2730.09 1587 2732.09 1587 2735.09 1587 2737.09 1587 2739.09 1587 2742.09 1587 2744.09 1587 2747.09 1587 2749.09 1587 2752.09 1587 2754.09 1587 2757.09 1587 2759.09 1587 2762.09 1587 2764.09 1587 2766.09 1587 2769.09 1587 2771.09 1587 2774.09 1587 2776.09 1587 2779.09 1587 2781.09 1587 2784.09 1587 2786.09 1587 2788.09 1587 2791.09 1587 2793.09 1587 2796.09 1587 2798.09 1587 2801.09 1587 2803.09 1587 2806.09 1587 2808.09 1587 2810.09 1587 2813.09 1587 2815.09 1587 2818.09 1587 2820.09 1587 2823.09 1587 2825.09 1587 2828.09 1587 2830.09 1587 2833.09 1587 2835.09 1587 2837.09 1587 2840.09 1587 2842.09 1587 2845.09 1587 2847.09 1587 2850.09 1587 2852.09 1587 2855.09 1587 2857.09 1587 2859.09 1587 2862.09 1587 2864.09 1587 2867.09 1587 2869.09 1587 2872.09 1587 2874.09 1587 2877.09 1587 2879.09 1587 2881.09 1587 2884.09 1587 2886.09 1587 2889.09 1587 2891.09 1587 2894.09 1587 2896.1 1587 2899.1 1587 2901.1 1587 2903.1 1587 2906.1 1587 2908.1 1587 2911.1 1587 2913.1 1587 2916.1 1587 2918.1 1587 2921.1 1587 2923.1 1587 2926.1 1587 2928.1 1587 2930.1 1587 2933.1 1587 2935.1 1587 2938.1 1587 2940.1 1587 2943.1 1587 2945.1 1587 2948.1 1587 2950.1 1587 2952.1 1587 2955.1 1587 2957.1 1587 2960.1 1587 2962.1 1587 2965.1 1587 2967.1 1587 2970.1 1587 2972.1 1587 2974.1 1587 2977.1 1587 2979.1 1587 2982.1 1587 2984.1 1587 2987.1 1587 2989.1 1587 2992.1 1587 2994.1 1587 2996.1 1587 2999.1 1587 3001.1 1587 3004.1 1587 3006.1 1587 3009.1 1587 3011.1 1587 3014.1 1587 3016.1 1587 3019.1 1587 3021.1 1587 3023.1 1587 3026.1 1587 3028.1 1587 3031.1 1587 3033.1 1587 3036.1 1587 3038.1 1587 3041.1 1587 3043.1 1587 3045.1 1587 3048.1 1587 3050.1 1587 3053.1 1587 3055.1 1587 3058.1 1587 3060.1 1587 3063.1 1587 3065.1 1587 3067.1 1587 3070.1 1587 3072.1 1587 3075.1 1587 3077.1 1587 3080.1 1587 3082.1 1587 3085.1 1587 3087.1 1587 3090.1 1587 3092.1 1587 3094.1 1587 3097.1 1587 3099.1 1587 3102.1 1587 3104.1 1587 3107.1 1587 3109.1 1587 3112.1 1587 3114.1 1587 3116.1 1587 3119.1 1587 3121.1 1587 3124.1 1587 3126.1 1587 3129.1 1587 3131.1 1587 3134.1 1587 3136.1 1587 3138.1 1587 3141.1 1587 3143.1 1587 3146.1 1587 3148.1 1587 3151.1 1587 3153.1 1587 3156.1 1587 3158.1 1587 3160.1 1587 3163.1 1587 3165.1 1587 3168.1 1587 3170.1 1587 3173.1 1587 3175.1 1587 3178.1 1587 3180.1 1587 3183.1 1587 3185.1 1587 3187.1 1587 3190.1 1587 3192.1 1587 3195.1 1587 3197.1 1587 3200.1 1587 3202.1 1587 3205.11 1587 3207.11 1587 3209.11 1587 3212.11 1587 3214.11 1587 3217.11 1587 3219.11 1587 3222.11 1587 3224.11 1587 3227.11 1587 3229.11 1587 3231.11 1587 3234.11 1587 3236.11 1587 3239.11 1587 3241.11 1587 3244.11 1587 3246.11 1587 3249.11 1587 3251.11 1587 3254.11 1587 3256.11 1587 3258.11 1587 3261.11 1587 3263.11 1587 3266.11 1587 3268.11 1587 3271.11 1587 3273.11 1587 3276.11 1587 3278.11 1587 3280.11 1587 3283.11 1587 3285.11 1587 3288.11 1587 3290.11 1587 3293.11 1587 3295.11 1587 3298.11 1587 3300.11 1587 3302.11 1587 3305.11 1587 3307.11 1587 3310.11 1587 3312.11 1587 3315.11 1587 3317.11 1587 3320.11 1587 3322.11 1587 3324.11 1587 3327.11 1587 3329.11 1587 3332.11 1587 3334.11 1587 3337.11 1587 3339.11 1587 3342.11 1587 3344.11 1587 3347.11 1587 3349.11 1587 3351.11 1587 3354.11 1587 3356.11 1587 3359.11 1587 3361.11 1587 3364.11 1587 3366.11 1587 3369.11 1587 3371.11 1587 3373.11 1587 3376.11 1587 3378.11 1587 3381.11 1587 3383.11 1587 3386.11 1587 3388.11 1587 3391.11 1587 3393.11 1587 3395.11 1587 3398.11 1587 3400.11 1587 3403.11 1587 3405.11 1587 3408.11 1587 3410.11 1587 3413.11 1587 3415.11 1587 3417.11 1587 3420.11 1587 3422.11 1587 3425.11 1587 3427.11 1587 3430.11 1587 3432.11 1587 3435.11 1587 3437.11 1587 3440.11 1587 3442.11 1587 3444.11 1587 3447.11 1587 3449.11 1587 3452.11 1587 3454.11 1587 3457.11 1587 3459.11 1587 3462.11 1587 3464.11 1587 3466.11 1587 3469.11 1587 3471.11 1587 3474.11 1587 3476.11 1587 3479.11 1587 3481.11 1587 3484.11 1587 3486.11 1587 3488.11 1587 3491.11 1587 3493.11 1587 3496.11 1587 3498.11 1587 3501.11 1587 3503.11 1587 3506.12 1587 3508.12 1587 3511.12 1587 3513.12 1587 3515.12 1587 3518.12 1587 3520.12 1587 3523.12 1587 3525.12 1587 3528.12 1587 3530.12 1587 3533.12 1587 3535.12 1587 3537.12 1587 3540.12 1587 3542.12 1587 3545.12 1587 3547.12 1587 3550.12 1587 3552.12 1587 3555.12 1587 3557.12 1587 3559.12 1587 3562.12 1587 3564.12 1587 3567.12 1587 3569.12 1587 3572.12 1587 3574.12 1587 3577.12 1587 3579.12 1587 3581.12 1587 3584.12 1587 3586.12 1587 3589.12 1587 3591.12 1587 3594.12 1587 3596.12 1587 3599.12 1587 3601.12 1587 3604.12 1587 3606.12 1587 3608.12 1587 3611.12 1587 3613.12 1587 3616.12 1587 3618.12 1587 3621.12 1587 3623.12 1587 3626.12 1587 3628.12 1587 3630.12 1587 3633.12 1587 3635.12 1587 3638.12 1587 3640.12 1587 3643.12 1587 3645.12 1587 3648.12 1587 3650.12 1587 3652.12 1587 3655.12 1587 3657.12 1587 3660.12 1587 3662.12 1587 3665.12 1587 3667.12 1587 3670.12 1587 3672.12 1587 3675.12 1587 3677.12 1587 3679.12 1587 3682.12 1587 3684.12 1587 3687.12 1587 3689.12 1587 3692.12 1587 3694.12 1587 3697.12 1587 3699.12 1587 3701.12 1587 3704.12 1587 3706.12 1587 3709.12 1587 3711.12 1587 3714.12 1587 3716.12 1587 3719.12 1587 3721.12 1587 3723.12 1587 3726.12 1587 3728.12 1587 3731.12 1587 3733.12 1587 3736.12 1587 3738.12 1587 3741.12 1587 3743.12 1587 3745.12 1587 3748.12 1587 3750.12 1587 3753.12 1587 3755.12 1587 3758.12 1587 3760.12 1587 3763.12 1587 3765.12 1587 3768.12 1587 3770.12 1587 3772.12 1587 3775.12 1587 3777.12 1587 3780.12 1587 3782.12 1587 3785.12 1587 3787.12 1587 3790.12 1587 3792.12 1587 3794.12 1587 3797.12 1587 3799.12 1587 3802.12 1587 3804.12 1587 3807.12 1587 3809.12 1587 3812.12 1587 3814.12 1587 3816.13 1587 3819.13 1587 3821.13 1587 3824.13 1587 3826.13 1587 3829.13 1587 3831.13 1587 3834.13 1587 3836 1587" stroke="#A5A5A5" stroke-width="10.3125" stroke-linecap="round" stroke-linejoin="round" stroke-miterlimit="10" fill="none"/></g><g clip-path="url(#clip5)"><path d="M1388 1587 1391.05 1587 1393.05 1587 1396.05 1587 1398.05 1587 1401.05 1587 1403.05 1587 1406.05 1587 1408.05 1587 1410.05 1587 1413.05 1587 1415.05 1585.05 1418.05 1584.05 1420.05 1582.05 1423.05 1581.05 1425.05 1579.05 1428.05 1578.05 1430.05 1576.05 1432.05 1575.05 1435.05 1573.05 1437.05 1572.05 1440.05 1570.05 1442.05 1567.05 1445.05 1564.05 1447.05 1561.05 1450.05 1558.05 1452.05 1555.05 1454.05 1553.05 1457.05 1550.05 1459.05 1547.05 1462.05 1544.05 1464.05 1541.05 1467.05 1539.05 1469.05 1534.05 1472.05 1530.05 1474.05 1526.05 1477.05 1522.05 1479.05 1518.05 1481.05 1513.05 1484.05 1509.05 1486.05 1505.05 1489.05 1501.05 1491.05 1498.05 1494.05 1494.05 1496.05 1488.05 1499.05 1483.05 1501.05 1478.05 1503.05 1472.05 1506.05 1467.05 1508.05 1462.05 1511.05 1457.05 1513.05 1452.05 1516.05 1447.05 1518.05 1442.05 1521.05 1437.05 1523.05 1430.05 1525.05 1424.05 1528.05 1418.05 1530.05 1411.05 1533.05 1405.05 1535.05 1399.05 1538.05 1393.05 1540.05 1387.05 1543.05 1381.05 1545.05 1375.05 1547.05 1369.04 1550.05 1362.04 1552.05 1354.04 1555.05 1347.04 1557.05 1340.04 1560.05 1333.04 1562.05 1326.04 1565.05 1319.04 1567.05 1312.04 1570.05 1305.04 1572.05 1299.04 1574.05 1292.04 1577.05 1284.04 1579.05 1276.04 1582.05 1268.04 1584.05 1260.04 1587.05 1252.04 1589.05 1244.04 1592.05 1236.04 1594.05 1229.04 1596.05 1221.04 1599.05 1213.04 1601.05 1206.04 1604.05 1202.04 1606.05 1198.04 1609.05 1194.04 1611.05 1190.04 1614.05 1186.04 1616.05 1182.04 1618.05 1178.04 1621.05 1174.04 1623.05 1170.04 1626.05 1166.04 1628.05 1163.04 1631.05 1160.04 1633.05 1158.04 1636.05 1156.04 1638.05 1154.04 1640.05 1152.04 1643.05 1150.04 1645.05 1148.04 1648.05 1146.04 1650.05 1144.04 1653.05 1142.04 1655.05 1140.04 1658.05 1140.04 1660.05 1140.04 1663.05 1139.04 1665.05 1139.04 1667.05 1139.04 1670.05 1138.04 1672.05 1138.04 1675.06 1138.04 1677.06 1138.04 1680.06 1137.04 1682.06 1137 1685.06 1138.04 1687.06 1140.04 1689.06 1141.04 1692.06 1142.04 1694.06 1143.04 1697.06 1145.04 1699.06 1146.04 1702.06 1147.04 1704.06 1148.04 1707.06 1150.04 1709.06 1151.04 1711.06 1154.04 1714.06 1156.04 1716.06 1159.04 1719.06 1162.04 1721.06 1164.04 1724.06 1167.04 1726.06 1170.04 1729.06 1172.04 1731.06 1175.04 1734.06 1177.04 1736.06 1180.04 1738.06 1184.04 1741.06 1188.04 1743.06 1192.04 1746.06 1196.04 1748.06 1200.04 1751.06 1204.04 1753.06 1207.04 1756.06 1211.04 1758.06 1215.04 1760.06 1219.04 1763.06 1222.04 1765.06 1228.04 1768.06 1233.04 1770.06 1238.04 1773.06 1243.04 1775.06 1248.04 1778.06 1253.04 1780.06 1258.04 1782.06 1263.04 1785.06 1268.04 1787.06 1272.04 1790.06 1277.04 1792.06 1279.04 1795.06 1280.04 1797.06 1282.04 1800.06 1283.04 1802.06 1285.04 1804.06 1286.04 1807.06 1287.04 1809.06 1289.04 1812.06 1290.04 1814.06 1292.04 1817.06 1293.04 1819.06 1293.04 1822.06 1292.04 1824.06 1292.04 1827.06 1292.04 1829.06 1292.04 1831.06 1291.04 1834.06 1291.04 1836.06 1291.04 1839.06 1291.04 1841.06 1291.04 1844.06 1290.04 1846.06 1289.04 1849.06 1287.04 1851.06 1285.04 1853.06 1283.04 1856.06 1281.04 1858.06 1280.04 1861.06 1278.04 1863.06 1276.04 1866.06 1275.04 1868.06 1273.04 1871.06 1271.04 1873.06 1268.04 1875.06 1265.04 1878.06 1262.04 1880.06 1259.04 1883.06 1256.04 1885.06 1253.04 1888.06 1250.04 1890.06 1247.04 1893.06 1244.04 1895.06 1241.04 1898.06 1238.04 1900.06 1238.04 1902.06 1238.04 1905.06 1239.04 1907.06 1239.04 1910.06 1239.04 1912.06 1240.04 1915.06 1240.04 1917.06 1240.04 1920.06 1240.04 1922.06 1241.04 1924.06 1241.04 1927.06 1243.04 1929.06 1245.04 1932.06 1246.04 1934.06 1248.04 1937.06 1250.04 1939.06 1252.04 1942.06 1254.04 1944.06 1255.04 1946.06 1257.04 1949.06 1259.04 1951.06 1260.04 1954.06 1264.04 1956.06 1267.04 1959.06 1270.04 1961.06 1273.04 1964.06 1276.04 1966.06 1280.04 1968.06 1283.04 1971.06 1286.04 1973.06 1289.04 1976.06 1292.04 1978.06 1295.04 1981.07 1294.04 1983.07 1294.04 1986.07 1294.04 1988.07 1294.04 1991.07 1293.04 1993.07 1293.04 1995.07 1293.04 1998.07 1293.04 2000.07 1292.04 2003.07 1292.04 2005.07 1292.04 2008.07 1290.04 2010.07 1288.04 2013.07 1286.04 2015.07 1285.04 2017.07 1283.04 2020.07 1281.04 2022.07 1279.04 2025.07 1278.04 2027.07 1276.04 2030.07 1274.04 2032.07 1273.04 2035.07 1270.04 2037.07 1266.04 2039.07 1263.04 2042.07 1260.04 2044.07 1257.04 2047.07 1254.04 2049.07 1251.04 2052.07 1248.04 2054.07 1245.04 2057.07 1242.04 2059.07 1239.04 2061.07 1239.04 2064.07 1240.04 2066.07 1240.04 2069.07 1240.04 2071.07 1240.04 2074.07 1241.04 2076.07 1241.04 2079.07 1241.04 2081.07 1241.04 2084.07 1242.04 2086.07 1242.04 2088.07 1244.04 2091.07 1246.04 2093.07 1248.04 2096.07 1249.04 2098.07 1251.04 2101.07 1253.04 2103.07 1255.04 2106.07 1256.04 2108.07 1258.04 2110.07 1260.04 2113.07 1261.04 2115.07 1265.04 2118.07 1268.04 2120.07 1271.04 2123.07 1274.04 2125.07 1277.04 2128.07 1280.04 2130.07 1284.04 2132.07 1287.04 2135.07 1290.04 2137.07 1293.04 2140.07 1296.04 2142.07 1295.04 2145.07 1295.04 2147.07 1295.04 2150.07 1294.04 2152.07 1294.04 2155.07 1294.04 2157.07 1294.04 2159.07 1293.04 2162.07 1293.04 2164.07 1293.04 2167.07 1293.04 2169.07 1291.04 2172.07 1289.04 2174.07 1287.04 2177.07 1285.04 2179.07 1284.04 2181.07 1282.04 2184.07 1280.04 2186.07 1278.04 2189.07 1277.04 2191.07 1275.04 2194.07 1273.04 2196.07 1270.04 2199.07 1267.04 2201.07 1264.04 2203.07 1261.04 2206.07 1258.04 2208.07 1254.04 2211.07 1251.04 2213.07 1248.04 2216.07 1245.04 2218.07 1242.04 2221.07 1240.04 2223.07 1240.04 2225.07 1240.04 2228.07 1240.04 2230.07 1241.04 2233.07 1241.04 2235.07 1241.04 2238.07 1242.04 2240.07 1242.04 2243.07 1242.04 2245.07 1242.04 2248.07 1243.04 2250.07 1244.04 2252.07 1246.04 2255.07 1248.04 2257.07 1250.04 2260.07 1252.04 2262.07 1253.04 2265.07 1255.04 2267.07 1257.04 2270.07 1259.04 2272.07 1260.04 2274.07 1262.04 2277.07 1265.04 2279.07 1268.04 2282.07 1272.04 2284.07 1275.04 2287.08 1278.04 2289.08 1281.04 2292.08 1284.04 2294.08 1287.04 2296.08 1290.04 2299.08 1293.04 2301.08 1296.04 2304.08 1296.04 2306.08 1295.04 2309.08 1295.04 2311.08 1295.04 2314.08 1295.04 2316.08 1294.04 2318.08 1294.04 2321.08 1294.04 2323.08 1294.04 2326.08 1293.04 2328.08 1293.04 2331.08 1291.04 2333.08 1289.04 2336.08 1288.04 2338.08 1286.04 2341.08 1284.04 2343.08 1282.04 2345.08 1281.04 2348.08 1279.04 2350.08 1277.04 2353.08 1275.04 2355.08 1274.04 2358.08 1271.04 2360.08 1267.04 2363.08 1264.04 2365.08 1261.04 2367.08 1258.04 2370.08 1255.04 2372.08 1252.04 2375.08 1249.04 2377.08 1246.04 2380.08 1243.04 2382.08 1240.04 2385.08 1240.04 2387.08 1240.04 2389.08 1241.04 2392.08 1241.04 2394.08 1241.04 2397.08 1242.04 2399.08 1242.04 2402.08 1242.04 2404.08 1242.04 2407.08 1243.04 2409.08 1243.04 2412.08 1245.04 2414.08 1247.04 2416.08 1248.04 2419.08 1250.04 2421.08 1252.04 2424.08 1254.04 2426.08 1255.04 2429.08 1257.04 2431.08 1259.04 2434.08 1261.04 2436.08 1262.04 2438.08 1265.04 2441.08 1269.04 2443.08 1272.04 2446.08 1275.04 2448.08 1278.04 2451.08 1281.04 2453.08 1284.04 2456.08 1287.04 2458.08 1290.04 2460.08 1293.04 2463.08 1296.04 2465.08 1296.04 2468.08 1296.04 2470.08 1295.04 2473.08 1295.04 2475.08 1295.04 2478.08 1295.04 2480.08 1294.04 2482.08 1294.04 2485.08 1294.04 2487.08 1294.04 2490.08 1293.04 2492.08 1291.04 2495.08 1290.04 2497.08 1288.04 2500.08 1286.04 2502.08 1284.04 2505.08 1282.04 2507.08 1281.04 2509.08 1279.04 2512.08 1277.04 2514.08 1276.04 2517.08 1274.04 2519.08 1271.04 2522.08 1268.04 2524.08 1264.04 2527.08 1261.04 2529.08 1258.04 2531.08 1255.04 2534.08 1252.04 2536.08 1249.04 2539.08 1246.04 2541.08 1243.04 2544.08 1240.04 2546.08 1240.04 2549.08 1241.04 2551.08 1241.04 2553.08 1241.04 2556.08 1241.04 2558.08 1242.04 2561.08 1242.04 2563.08 1242.04 2566.08 1243.04 2568.08 1243.04 2571.08 1243.04 2573.08 1245.04 2576.08 1247.04 2578.08 1248.04 2580.08 1250.04 2583.08 1252.04 2585.08 1254.04 2588.08 1256.04 2590.08 1257.04 2593.08 1259.04 2595.09 1261.04 2598.09 1262.04 2600.09 1266.04 2602.09 1269.04 2605.09 1272.04 2607.09 1275.04 2610.09 1278.04 2612.09 1281.04 2615.09 1284.04 2617.09 1287.04 2620.09 1290.04 2622.09 1293.04 2624.09 1296.04 2627.09 1296.04 2629.09 1296.04 2632.09 1295.04 2634.09 1295.04 2637.09 1295.04 2639.09 1295.04 2642.09 1294.04 2644.09 1294.04 2646.09 1294.04 2649.09 1294.04 2651.09 1293.04 2654.09 1292.04 2656.09 1290.04 2659.09 1288.04 2661.09 1286.04 2664.09 1284.04 2666.09 1283.04 2669.09 1281.04 2671.09 1279.04 2673.09 1277.04 2676.09 1276.04 2678.09 1274.04 2681.09 1271.04 2683.09 1268.04 2686.09 1264.04 2688.09 1261.04 2691.09 1258.04 2693.09 1255.04 2695.09 1252.04 2698.09 1249.04 2700.09 1246.04 2703.09 1243.04 2705.09 1240.04 2708.09 1240.04 2710.09 1241.04 2713.09 1241.04 2715.09 1241.04 2717.09 1242.04 2720.09 1242.04 2722.09 1242.04 2725.09 1242.04 2727.09 1243.04 2730.09 1243.04 2732.09 1243.04 2735.09 1245.04 2737.09 1247.04 2739.09 1249.04 2742.09 1250.04 2744.09 1252.04 2747.09 1254.04 2749.09 1256.04 2752.09 1257.04 2754.09 1259.04 2757.09 1261.04 2759.09 1262.04 2762.09 1266.04 2764.09 1269.04 2766.09 1272.04 2769.09 1275.04 2771.09 1278.04 2774.09 1281.04 2776.09 1284.04 2779.09 1287.04 2781.09 1290.04 2784.09 1293.04 2786.09 1296.04 2788.09 1296.04 2791.09 1296.04 2793.09 1296.04 2796.09 1295.04 2798.09 1295.04 2801.09 1295.04 2803.09 1294.04 2806.09 1294.04 2808.09 1294.04 2810.09 1294.04 2813.09 1293.04 2815.09 1292.04 2818.09 1290.04 2820.09 1288.04 2823.09 1286.04 2825.09 1284.04 2828.09 1283.04 2830.09 1281.04 2833.09 1279.04 2835.09 1277.04 2837.09 1276.04 2840.09 1274.04 2842.09 1271.04 2845.09 1268.04 2847.09 1264.04 2850.09 1261.04 2852.09 1258.04 2855.09 1255.04 2857.09 1252.04 2859.09 1249.04 2862.09 1246.04 2864.09 1243.04 2867.09 1240.04 2869.09 1240.04 2872.09 1241.04 2874.09 1241.04 2877.09 1241.04 2879.09 1242.04 2881.09 1242.04 2884.09 1242.04 2886.09 1242.04 2889.09 1243.04 2891.09 1243.04 2894.09 1243.04 2896.1 1245.04 2899.1 1247.04 2901.1 1249.04 2903.1 1250.04 2906.1 1252.04 2908.1 1254.04 2911.1 1256.04 2913.1 1257.04 2916.1 1259.04 2918.1 1261.04 2921.1 1262.04 2923.1 1266.04 2926.1 1269.04 2928.1 1272.04 2930.1 1275.04 2933.1 1278.04 2935.1 1281.04 2938.1 1284.04 2940.1 1288.04 2943.1 1290.04 2945.1 1293.04 2948.1 1296.04 2950.1 1296.04 2952.1 1296.04 2955.1 1296.04 2957.1 1295.04 2960.1 1295.04 2962.1 1295.04 2965.1 1294.04 2967.1 1294.04 2970.1 1294.04 2972.1 1294.04 2974.1 1293.04 2977.1 1292.04 2979.1 1290.04 2982.1 1288.04 2984.1 1286.04 2987.1 1284.04 2989.1 1283.04 2992.1 1281.04 2994.1 1279.04 2996.1 1278.04 2999.1 1276.04 3001.1 1274.04 3004.1 1271.04 3006.1 1268.04 3009.1 1265.04 3011.1 1261.04 3014.1 1258.04 3016.1 1255.04 3019.1 1252.04 3021.1 1249.04 3023.1 1246.04 3026.1 1243.04 3028.1 1240.04 3031.1 1240.04 3033.1 1241.04 3036.1 1241.04 3038.1 1241.04 3041.1 1242.04 3043.1 1242.04 3045.1 1242.04 3048.1 1242.04 3050.1 1243.04 3053.1 1243.04 3055.1 1243.04 3058.1 1245.04 3060.1 1247.04 3063.1 1249.04 3065.1 1250.04 3067.1 1252.04 3070.1 1254.04 3072.1 1256.04 3075.1 1257.04 3077.1 1259.04 3080.1 1261.04 3082.1 1262.04 3085.1 1266.04 3087.1 1269.04 3090.1 1272.04 3092.1 1275.04 3094.1 1278.04 3097.1 1281.04 3099.1 1284.04 3102.1 1288.04 3104.1 1291.04 3107.1 1293.04 3109.1 1296.04 3112.1 1296.04 3114.1 1296.04 3116.1 1296.04 3119.1 1295.04 3121.1 1295.04 3124.1 1295.04 3126.1 1295.04 3129.1 1294.04 3131.1 1294.04 3134.1 1294.04 3136.1 1293.04 3138.1 1292.04 3141.1 1290.04 3143.1 1288.04 3146.1 1286.04 3148.1 1284.04 3151.1 1283.04 3153.1 1281.04 3156.1 1279.04 3158.1 1278.04 3160.1 1276.04 3163.1 1274.04 3165.1 1271.04 3168.1 1268.04 3170.1 1265.04 3173.1 1261.04 3175.1 1258.04 3178.1 1255.04 3180.1 1252.04 3183.1 1249.04 3185.1 1246.04 3187.1 1243.04 3190.1 1240.04 3192.1 1241.04 3195.1 1241.04 3197.1 1241.04 3200.1 1241.04 3202.1 1242.04 3205.11 1242.04 3207.11 1242.04 3209.11 1242.04 3212.11 1243.04 3214.11 1243.04 3217.11 1243.04 3219.11 1245.04 3222.11 1247.04 3224.11 1249.04 3227.11 1250.04 3229.11 1252.04 3231.11 1254.04 3234.11 1256.04 3236.11 1257.04 3239.11 1259.04 3241.11 1261.04 3244.11 1262.04 3246.11 1266.04 3249.11 1269.04 3251.11 1272.04 3254.11 1275.04 3256.11 1278.04 3258.11 1281.04 3261.11 1285.04 3263.11 1288.04 3266.11 1291.04 3268.11 1293.04 3271.11 1296.04 3273.11 1296.04 3276.11 1296.04 3278.11 1296.04 3280.11 1295.04 3283.11 1295.04 3285.11 1295.04 3288.11 1295.04 3290.11 1294.04 3293.11 1294.04 3295.11 1294.04 3298.11 1293.04 3300.11 1292.04 3302.11 1290.04 3305.11 1288.04 3307.11 1286.04 3310.11 1284.04 3312.11 1283.04 3315.11 1281.04 3317.11 1279.04 3320.11 1278.04 3322.11 1276.04 3324.11 1274.04 3327.11 1271.04 3329.11 1268.04 3332.11 1265.04 3334.11 1261.04 3337.11 1258.04 3339.11 1255.04 3342.11 1252.04 3344.11 1249.04 3347.11 1246.04 3349.11 1243.04 3351.11 1240.04 3354.11 1241.04 3356.11 1241.04 3359.11 1241.04 3361.11 1241.04 3364.11 1242.04 3366.11 1242.04 3369.11 1242.04 3371.11 1242.04 3373.11 1243.04 3376.11 1243.04 3378.11 1243.04 3381.11 1245.04 3383.11 1247.04 3386.11 1249.04 3388.11 1250.04 3391.11 1252.04 3393.11 1254.04 3395.11 1256.04 3398.11 1257.04 3400.11 1259.04 3403.11 1261.04 3405.11 1262.04 3408.11 1266.04 3410.11 1269.04 3413.11 1272.04 3415.11 1275.04 3417.11 1278.04 3420.11 1281.04 3422.11 1285.04 3425.11 1288.04 3427.11 1291.04 3430.11 1293.04 3432.11 1296.04 3435.11 1296.04 3437.11 1296.04 3440.11 1296.04 3442.11 1295.04 3444.11 1295.04 3447.11 1295.04 3449.11 1295.04 3452.11 1294.04 3454.11 1294.04 3457.11 1294.04 3459.11 1293.04 3462.11 1292.04 3464.11 1290.04 3466.11 1288.04 3469.11 1286.04 3471.11 1284.04 3474.11 1283.04 3476.11 1281.04 3479.11 1279.04 3481.11 1278.04 3484.11 1276.04 3486.11 1274.04 3488.11 1271.04 3491.11 1268.04 3493.11 1265.04 3496.11 1261.04 3498.11 1258.04 3501.11 1255.04 3503.11 1252.04 3506.12 1249.04 3508.12 1246.04 3511.12 1243.04 3513.12 1240.04 3515.12 1241.04 3518.12 1241.04 3520.12 1241.04 3523.12 1241.04 3525.12 1242.04 3528.12 1242.04 3530.12 1242.04 3533.12 1242.04 3535.12 1243.04 3537.12 1243.04 3540.12 1243.04 3542.12 1245.04 3545.12 1247.04 3547.12 1249.04 3550.12 1250.04 3552.12 1252.04 3555.12 1254.04 3557.12 1256.04 3559.12 1257.04 3562.12 1259.04 3564.12 1261.04 3567.12 1262.04 3569.12 1266.04 3572.12 1269.04 3574.12 1272.04 3577.12 1275.04 3579.12 1278.04 3581.12 1281.04 3584.12 1285.04 3586.12 1288.04 3589.12 1291.04 3591.12 1293.04 3594.12 1296.04 3596.12 1296.04 3599.12 1296.04 3601.12 1296.04 3604.12 1295.04 3606.12 1295.04 3608.12 1295.04 3611.12 1295.04 3613.12 1294.04 3616.12 1294.04 3618.12 1294.04 3621.12 1293.04 3623.12 1292.04 3626.12 1290.04 3628.12 1288.04 3630.12 1286.04 3633.12 1284.04 3635.12 1283.04 3638.12 1281.04 3640.12 1279.04 3643.12 1278.04 3645.12 1276.04 3648.12 1274.04 3650.12 1271.04 3652.12 1268.04 3655.12 1265.04 3657.12 1261.04 3660.12 1258.04 3662.12 1255.04 3665.12 1252.04 3667.12 1249.04 3670.12 1246.04 3672.12 1243.04 3675.12 1240.04 3677.12 1241.04 3679.12 1241.04 3682.12 1241.04 3684.12 1241.04 3687.12 1242.04 3689.12 1242.04 3692.12 1242.04 3694.12 1242.04 3697.12 1243.04 3699.12 1243.04 3701.12 1243.04 3704.12 1245.04 3706.12 1247.04 3709.12 1249.04 3711.12 1250.04 3714.12 1252.04 3716.12 1254.04 3719.12 1256.04 3721.12 1257.04 3723.12 1259.04 3726.12 1261.04 3728.12 1262.04 3731.12 1266.04 3733.12 1269.04 3736.12 1272.04 3738.12 1275.04 3741.12 1278.04 3743.12 1281.04 3745.12 1285.04 3748.12 1288.04 3750.12 1291.04 3753.12 1293.04 3755.12 1296.04 3758.12 1296.04 3760.12 1296.04 3763.12 1296.04 3765.12 1295.04 3768.12 1295.04 3770.12 1295.04 3772.12 1295.04 3775.12 1294.04 3777.12 1294.04 3780.12 1294.04 3782.12 1293.04 3785.12 1292.04 3787.12 1290.04 3790.12 1288.04 3792.12 1286.04 3794.12 1284.04 3797.12 1283.04 3799.12 1281.04 3802.12 1279.04 3804.12 1278.04 3807.12 1276.04 3809.12 1274.04 3812.12 1271.04 3814.12 1268.04 3816.13 1265.04 3819.13 1261.04 3821.13 1258.04 3824.13 1255.04 3826.13 1252.04 3829.13 1249.04 3831.13 1246.04 3834.13 1243.04 3836 1240.04" stroke="#FFC000" stroke-width="10.3125" stroke-linecap="round" stroke-linejoin="round" stroke-miterlimit="10" fill="none"/></g><g clip-path="url(#clip6)"><path d="M1388 1587.05 1391.05 1587.05 1393.05 1587.05 1396.05 1587.05 1398.05 1587.05 1401.05 1587.05 1403.05 1587.05 1406.05 1587.05 1408.05 1587.05 1410.05 1587.05 1413.05 1587.05 1415.05 1428.05 1418.05 1428.05 1420.05 1428.05 1423.05 1428.05 1425.05 1428.05 1428.05 1428.05 1430.05 1428.05 1432.05 1428.05 1435.05 1428.05 1437.05 1428.05 1440.05 1428.05 1442.05 1268.04 1445.05 1268.04 1447.05 1268.04 1450.05 1268.04 1452.05 1268.04 1454.05 1268.04 1457.05 1268.04 1459.05 1268.04 1462.05 1268.04 1464.05 1268.04 1467.05 1268.04 1469.05 1109.04 1472.05 1109.04 1474.05 1109.04 1477.05 1109.04 1479.05 1109.04 1481.05 1109.04 1484.05 1109.04 1486.05 1109.04 1489.05 1109.04 1491.05 1109.04 1494.05 1109.04 1496.05 950.031 1499.05 950.031 1501.05 950.031 1503.05 950.031 1506.05 950.031 1508.05 950.031 1511.05 950.031 1513.05 950.031 1516.05 950.031 1518.05 950.031 1521.05 950.031 1523.05 790.026 1525.05 790.026 1528.05 790.026 1530.05 790.026 1533.05 790.026 1535.05 790.026 1538.05 790.026 1540.05 790.026 1543.05 790.026 1545.05 790.026 1547.05 790.026 1550.05 631.021 1552.05 631.021 1555.05 631.021 1557.05 631.021 1560.05 631.021 1562.05 631.021 1565.05 631.021 1567.05 631.021 1570.05 631.021 1572.05 631.021 1574.05 631.021 1577.05 472 1579.05 472 1582.05 472 1584.05 631.021 1587.05 631.021 1589.05 631.021 1592.05 631.021 1594.05 631.021 1596.05 631.021 1599.05 631.021 1601.05 631.021 1604.05 790.026 1606.05 790.026 1609.05 790.026 1611.05 790.026 1614.05 790.026 1616.05 790.026 1618.05 790.026 1621.05 790.026 1623.05 790.026 1626.05 790.026 1628.05 790.026 1631.05 950.031 1633.05 950.031 1636.05 950.031 1638.05 950.031 1640.05 950.031 1643.05 950.031 1645.05 950.031 1648.05 950.031 1650.05 950.031 1653.05 950.031 1655.05 950.031 1658.05 1109.04 1660.05 1109.04 1663.05 1109.04 1665.05 1109.04 1667.05 1109.04 1670.05 1109.04 1672.05 1109.04 1675.06 1109.04 1677.06 1109.04 1680.06 1109.04 1682.06 1109.04 1685.06 1268.04 1687.06 1268.04 1689.06 1268.04 1692.06 1268.04 1694.06 1268.04 1697.06 1268.04 1699.06 1268.04 1702.06 1268.04 1704.06 1268.04 1707.06 1268.04 1709.06 1268.04 1711.06 1428.05 1714.06 1428.05 1716.06 1428.05 1719.06 1428.05 1721.06 1428.05 1724.06 1428.05 1726.06 1428.05 1729.06 1428.05 1731.06 1428.05 1734.06 1428.05 1736.06 1428.05 1738.06 1587.05 1741.06 1587.05 1743.06 1587.05 1746.06 1587.05 1748.06 1587.05 1751.06 1587.05 1753.06 1587.05 1756.06 1587.05 1758.06 1587.05 1760.06 1587.05 1763.06 1587.05 1765.06 1746 1768.06 1746 1770.06 1746 1773.06 1746 1775.06 1746 1778.06 1746 1780.06 1746 1782.06 1746 1785.06 1746 1787.06 1746 1790.06 1587.05 1792.06 1428.05 1795.06 1428.05 1797.06 1428.05 1800.06 1428.05 1802.06 1428.05 1804.06 1428.05 1807.06 1428.05 1809.06 1428.05 1812.06 1428.05 1814.06 1428.05 1817.06 1428.05 1819.06 1268.04 1822.06 1268.04 1824.06 1268.04 1827.06 1268.04 1829.06 1268.04 1831.06 1268.04 1834.06 1268.04 1836.06 1268.04 1839.06 1268.04 1841.06 1268.04 1844.06 1268.04 1846.06 1109.04 1849.06 1109.04 1851.06 1109.04 1853.06 1109.04 1856.06 1109.04 1858.06 1109.04 1861.06 1109.04 1863.06 1109.04 1866.06 1109.04 1868.06 1109.04 1871.06 1109.04 1873.06 950.031 1875.06 1109.04 1878.06 1109.04 1880.06 1109.04 1883.06 1109.04 1885.06 1109.04 1888.06 1109.04 1890.06 1109.04 1893.06 1109.04 1895.06 1109.04 1898.06 1109.04 1900.06 1268.04 1902.06 1268.04 1905.06 1268.04 1907.06 1268.04 1910.06 1268.04 1912.06 1268.04 1915.06 1268.04 1917.06 1268.04 1920.06 1268.04 1922.06 1268.04 1924.06 1268.04 1927.06 1428.05 1929.06 1428.05 1932.06 1428.05 1934.06 1428.05 1937.06 1428.05 1939.06 1428.05 1942.06 1428.05 1944.06 1428.05 1946.06 1428.05 1949.06 1428.05 1951.06 1428.05 1954.06 1587.05 1956.06 1587.05 1959.06 1587.05 1961.06 1428.05 1964.06 1428.05 1966.06 1428.05 1968.06 1428.05 1971.06 1428.05 1973.06 1428.05 1976.06 1428.05 1978.06 1428.05 1981.07 1268.04 1983.07 1268.04 1986.07 1268.04 1988.07 1268.04 1991.07 1268.04 1993.07 1268.04 1995.07 1268.04 1998.07 1268.04 2000.07 1268.04 2003.07 1268.04 2005.07 1268.04 2008.07 1109.04 2010.07 1109.04 2013.07 1109.04 2015.07 1109.04 2017.07 1109.04 2020.07 1109.04 2022.07 1109.04 2025.07 1109.04 2027.07 1109.04 2030.07 1109.04 2032.07 1109.04 2035.07 950.031 2037.07 950.031 2039.07 1109.04 2042.07 1109.04 2044.07 1109.04 2047.07 1109.04 2049.07 1109.04 2052.07 1109.04 2054.07 1109.04 2057.07 1109.04 2059.07 1109.04 2061.07 1268.04 2064.07 1268.04 2066.07 1268.04 2069.07 1268.04 2071.07 1268.04 2074.07 1268.04 2076.07 1268.04 2079.07 1268.04 2081.07 1268.04 2084.07 1268.04 2086.07 1268.04 2088.07 1428.05 2091.07 1428.05 2093.07 1428.05 2096.07 1428.05 2098.07 1428.05 2101.07 1428.05 2103.07 1428.05 2106.07 1428.05 2108.07 1428.05 2110.07 1428.05 2113.07 1428.05 2115.07 1587.05 2118.07 1587.05 2120.07 1587.05 2123.07 1428.05 2125.07 1428.05 2128.07 1428.05 2130.07 1428.05 2132.07 1428.05 2135.07 1428.05 2137.07 1428.05 2140.07 1428.05 2142.07 1268.04 2145.07 1268.04 2147.07 1268.04 2150.07 1268.04 2152.07 1268.04 2155.07 1268.04 2157.07 1268.04 2159.07 1268.04 2162.07 1268.04 2164.07 1268.04 2167.07 1268.04 2169.07 1109.04 2172.07 1109.04 2174.07 1109.04 2177.07 1109.04 2179.07 1109.04 2181.07 1109.04 2184.07 1109.04 2186.07 1109.04 2189.07 1109.04 2191.07 1109.04 2194.07 1109.04 2196.07 950.031 2199.07 950.031 2201.07 1109.04 2203.07 1109.04 2206.07 1109.04 2208.07 1109.04 2211.07 1109.04 2213.07 1109.04 2216.07 1109.04 2218.07 1109.04 2221.07 1109.04 2223.07 1268.04 2225.07 1268.04 2228.07 1268.04 2230.07 1268.04 2233.07 1268.04 2235.07 1268.04 2238.07 1268.04 2240.07 1268.04 2243.07 1268.04 2245.07 1268.04 2248.07 1268.04 2250.07 1428.05 2252.07 1428.05 2255.07 1428.05 2257.07 1428.05 2260.07 1428.05 2262.07 1428.05 2265.07 1428.05 2267.07 1428.05 2270.07 1428.05 2272.07 1428.05 2274.07 1428.05 2277.07 1587.05 2279.07 1587.05 2282.07 1428.05 2284.07 1428.05 2287.08 1428.05 2289.08 1428.05 2292.08 1428.05 2294.08 1428.05 2296.08 1428.05 2299.08 1428.05 2301.08 1428.05 2304.08 1268.04 2306.08 1268.04 2309.08 1268.04 2311.08 1268.04 2314.08 1268.04 2316.08 1268.04 2318.08 1268.04 2321.08 1268.04 2323.08 1268.04 2326.08 1268.04 2328.08 1268.04 2331.08 1109.04 2333.08 1109.04 2336.08 1109.04 2338.08 1109.04 2341.08 1109.04 2343.08 1109.04 2345.08 1109.04 2348.08 1109.04 2350.08 1109.04 2353.08 1109.04 2355.08 1109.04 2358.08 950.031 2360.08 950.031 2363.08 1109.04 2365.08 1109.04 2367.08 1109.04 2370.08 1109.04 2372.08 1109.04 2375.08 1109.04 2377.08 1109.04 2380.08 1109.04 2382.08 1109.04 2385.08 1268.04 2387.08 1268.04 2389.08 1268.04 2392.08 1268.04 2394.08 1268.04 2397.08 1268.04 2399.08 1268.04 2402.08 1268.04 2404.08 1268.04 2407.08 1268.04 2409.08 1268.04 2412.08 1428.05 2414.08 1428.05 2416.08 1428.05 2419.08 1428.05 2421.08 1428.05 2424.08 1428.05 2426.08 1428.05 2429.08 1428.05 2431.08 1428.05 2434.08 1428.05 2436.08 1428.05 2438.08 1587.05 2441.08 1587.05 2443.08 1428.05 2446.08 1428.05 2448.08 1428.05 2451.08 1428.05 2453.08 1428.05 2456.08 1428.05 2458.08 1428.05 2460.08 1428.05 2463.08 1428.05 2465.08 1268.04 2468.08 1268.04 2470.08 1268.04 2473.08 1268.04 2475.08 1268.04 2478.08 1268.04 2480.08 1268.04 2482.08 1268.04 2485.08 1268.04 2487.08 1268.04 2490.08 1268.04 2492.08 1109.04 2495.08 1109.04 2497.08 1109.04 2500.08 1109.04 2502.08 1109.04 2505.08 1109.04 2507.08 1109.04 2509.08 1109.04 2512.08 1109.04 2514.08 1109.04 2517.08 1109.04 2519.08 950.031 2522.08 950.031 2524.08 1109.04 2527.08 1109.04 2529.08 1109.04 2531.08 1109.04 2534.08 1109.04 2536.08 1109.04 2539.08 1109.04 2541.08 1109.04 2544.08 1109.04 2546.08 1268.04 2549.08 1268.04 2551.08 1268.04 2553.08 1268.04 2556.08 1268.04 2558.08 1268.04 2561.08 1268.04 2563.08 1268.04 2566.08 1268.04 2568.08 1268.04 2571.08 1268.04 2573.08 1428.05 2576.08 1428.05 2578.08 1428.05 2580.08 1428.05 2583.08 1428.05 2585.08 1428.05 2588.08 1428.05 2590.08 1428.05 2593.08 1428.05 2595.09 1428.05 2598.09 1428.05 2600.09 1587.05 2602.09 1587.05 2605.09 1428.05 2607.09 1428.05 2610.09 1428.05 2612.09 1428.05 2615.09 1428.05 2617.09 1428.05 2620.09 1428.05 2622.09 1428.05 2624.09 1428.05 2627.09 1268.04 2629.09 1268.04 2632.09 1268.04 2634.09 1268.04 2637.09 1268.04 2639.09 1268.04 2642.09 1268.04 2644.09 1268.04 2646.09 1268.04 2649.09 1268.04 2651.09 1268.04 2654.09 1109.04 2656.09 1109.04 2659.09 1109.04 2661.09 1109.04 2664.09 1109.04 2666.09 1109.04 2669.09 1109.04 2671.09 1109.04 2673.09 1109.04 2676.09 1109.04 2678.09 1109.04 2681.09 950.031 2683.09 950.031 2686.09 1109.04 2688.09 1109.04 2691.09 1109.04 2693.09 1109.04 2695.09 1109.04 2698.09 1109.04 2700.09 1109.04 2703.09 1109.04 2705.09 1109.04 2708.09 1268.04 2710.09 1268.04 2713.09 1268.04 2715.09 1268.04 2717.09 1268.04 2720.09 1268.04 2722.09 1268.04 2725.09 1268.04 2727.09 1268.04 2730.09 1268.04 2732.09 1268.04 2735.09 1428.05 2737.09 1428.05 2739.09 1428.05 2742.09 1428.05 2744.09 1428.05 2747.09 1428.05 2749.09 1428.05 2752.09 1428.05 2754.09 1428.05 2757.09 1428.05 2759.09 1428.05 2762.09 1587.05 2764.09 1587.05 2766.09 1428.05 2769.09 1428.05 2771.09 1428.05 2774.09 1428.05 2776.09 1428.05 2779.09 1428.05 2781.09 1428.05 2784.09 1428.05 2786.09 1428.05 2788.09 1268.04 2791.09 1268.04 2793.09 1268.04 2796.09 1268.04 2798.09 1268.04 2801.09 1268.04 2803.09 1268.04 2806.09 1268.04 2808.09 1268.04 2810.09 1268.04 2813.09 1268.04 2815.09 1109.04 2818.09 1109.04 2820.09 1109.04 2823.09 1109.04 2825.09 1109.04 2828.09 1109.04 2830.09 1109.04 2833.09 1109.04 2835.09 1109.04 2837.09 1109.04 2840.09 1109.04 2842.09 950.031 2845.09 950.031 2847.09 1109.04 2850.09 1109.04 2852.09 1109.04 2855.09 1109.04 2857.09 1109.04 2859.09 1109.04 2862.09 1109.04 2864.09 1109.04 2867.09 1109.04 2869.09 1268.04 2872.09 1268.04 2874.09 1268.04 2877.09 1268.04 2879.09 1268.04 2881.09 1268.04 2884.09 1268.04 2886.09 1268.04 2889.09 1268.04 2891.09 1268.04 2894.09 1268.04 2896.1 1428.05 2899.1 1428.05 2901.1 1428.05 2903.1 1428.05 2906.1 1428.05 2908.1 1428.05 2911.1 1428.05 2913.1 1428.05 2916.1 1428.05 2918.1 1428.05 2921.1 1428.05 2923.1 1587.05 2926.1 1587.05 2928.1 1428.05 2930.1 1428.05 2933.1 1428.05 2935.1 1428.05 2938.1 1428.05 2940.1 1428.05 2943.1 1428.05 2945.1 1428.05 2948.1 1428.05 2950.1 1268.04 2952.1 1268.04 2955.1 1268.04 2957.1 1268.04 2960.1 1268.04 2962.1 1268.04 2965.1 1268.04 2967.1 1268.04 2970.1 1268.04 2972.1 1268.04 2974.1 1268.04 2977.1 1109.04 2979.1 1109.04 2982.1 1109.04 2984.1 1109.04 2987.1 1109.04 2989.1 1109.04 2992.1 1109.04 2994.1 1109.04 2996.1 1109.04 2999.1 1109.04 3001.1 1109.04 3004.1 950.031 3006.1 950.031 3009.1 1109.04 3011.1 1109.04 3014.1 1109.04 3016.1 1109.04 3019.1 1109.04 3021.1 1109.04 3023.1 1109.04 3026.1 1109.04 3028.1 1109.04 3031.1 1268.04 3033.1 1268.04 3036.1 1268.04 3038.1 1268.04 3041.1 1268.04 3043.1 1268.04 3045.1 1268.04 3048.1 1268.04 3050.1 1268.04 3053.1 1268.04 3055.1 1268.04 3058.1 1428.05 3060.1 1428.05 3063.1 1428.05 3065.1 1428.05 3067.1 1428.05 3070.1 1428.05 3072.1 1428.05 3075.1 1428.05 3077.1 1428.05 3080.1 1428.05 3082.1 1428.05 3085.1 1587.05 3087.1 1587.05 3090.1 1428.05 3092.1 1428.05 3094.1 1428.05 3097.1 1428.05 3099.1 1428.05 3102.1 1428.05 3104.1 1428.05 3107.1 1428.05 3109.1 1428.05 3112.1 1268.04 3114.1 1268.04 3116.1 1268.04 3119.1 1268.04 3121.1 1268.04 3124.1 1268.04 3126.1 1268.04 3129.1 1268.04 3131.1 1268.04 3134.1 1268.04 3136.1 1268.04 3138.1 1109.04 3141.1 1109.04 3143.1 1109.04 3146.1 1109.04 3148.1 1109.04 3151.1 1109.04 3153.1 1109.04 3156.1 1109.04 3158.1 1109.04 3160.1 1109.04 3163.1 1109.04 3165.1 950.031 3168.1 950.031 3170.1 1109.04 3173.1 1109.04 3175.1 1109.04 3178.1 1109.04 3180.1 1109.04 3183.1 1109.04 3185.1 1109.04 3187.1 1109.04 3190.1 1109.04 3192.1 1268.04 3195.1 1268.04 3197.1 1268.04 3200.1 1268.04 3202.1 1268.04 3205.11 1268.04 3207.11 1268.04 3209.11 1268.04 3212.11 1268.04 3214.11 1268.04 3217.11 1268.04 3219.11 1428.05 3222.11 1428.05 3224.11 1428.05 3227.11 1428.05 3229.11 1428.05 3231.11 1428.05 3234.11 1428.05 3236.11 1428.05 3239.11 1428.05 3241.11 1428.05 3244.11 1428.05 3246.11 1587.05 3249.11 1587.05 3251.11 1428.05 3254.11 1428.05 3256.11 1428.05 3258.11 1428.05 3261.11 1428.05 3263.11 1428.05 3266.11 1428.05 3268.11 1428.05 3271.11 1428.05 3273.11 1268.04 3276.11 1268.04 3278.11 1268.04 3280.11 1268.04 3283.11 1268.04 3285.11 1268.04 3288.11 1268.04 3290.11 1268.04 3293.11 1268.04 3295.11 1268.04 3298.11 1268.04 3300.11 1109.04 3302.11 1109.04 3305.11 1109.04 3307.11 1109.04 3310.11 1109.04 3312.11 1109.04 3315.11 1109.04 3317.11 1109.04 3320.11 1109.04 3322.11 1109.04 3324.11 1109.04 3327.11 950.031 3329.11 950.031 3332.11 1109.04 3334.11 1109.04 3337.11 1109.04 3339.11 1109.04 3342.11 1109.04 3344.11 1109.04 3347.11 1109.04 3349.11 1109.04 3351.11 1109.04 3354.11 1268.04 3356.11 1268.04 3359.11 1268.04 3361.11 1268.04 3364.11 1268.04 3366.11 1268.04 3369.11 1268.04 3371.11 1268.04 3373.11 1268.04 3376.11 1268.04 3378.11 1268.04 3381.11 1428.05 3383.11 1428.05 3386.11 1428.05 3388.11 1428.05 3391.11 1428.05 3393.11 1428.05 3395.11 1428.05 3398.11 1428.05 3400.11 1428.05 3403.11 1428.05 3405.11 1428.05 3408.11 1587.05 3410.11 1587.05 3413.11 1428.05 3415.11 1428.05 3417.11 1428.05 3420.11 1428.05 3422.11 1428.05 3425.11 1428.05 3427.11 1428.05 3430.11 1428.05 3432.11 1428.05 3435.11 1268.04 3437.11 1268.04 3440.11 1268.04 3442.11 1268.04 3444.11 1268.04 3447.11 1268.04 3449.11 1268.04 3452.11 1268.04 3454.11 1268.04 3457.11 1268.04 3459.11 1268.04 3462.11 1109.04 3464.11 1109.04 3466.11 1109.04 3469.11 1109.04 3471.11 1109.04 3474.11 1109.04 3476.11 1109.04 3479.11 1109.04 3481.11 1109.04 3484.11 1109.04 3486.11 1109.04 3488.11 950.031 3491.11 950.031 3493.11 1109.04 3496.11 1109.04 3498.11 1109.04 3501.11 1109.04 3503.11 1109.04 3506.12 1109.04 3508.12 1109.04 3511.12 1109.04 3513.12 1109.04 3515.12 1268.04 3518.12 1268.04 3520.12 1268.04 3523.12 1268.04 3525.12 1268.04 3528.12 1268.04 3530.12 1268.04 3533.12 1268.04 3535.12 1268.04 3537.12 1268.04 3540.12 1268.04 3542.12 1428.05 3545.12 1428.05 3547.12 1428.05 3550.12 1428.05 3552.12 1428.05 3555.12 1428.05 3557.12 1428.05 3559.12 1428.05 3562.12 1428.05 3564.12 1428.05 3567.12 1428.05 3569.12 1587.05 3572.12 1587.05 3574.12 1428.05 3577.12 1428.05 3579.12 1428.05 3581.12 1428.05 3584.12 1428.05 3586.12 1428.05 3589.12 1428.05 3591.12 1428.05 3594.12 1428.05 3596.12 1268.04 3599.12 1268.04 3601.12 1268.04 3604.12 1268.04 3606.12 1268.04 3608.12 1268.04 3611.12 1268.04 3613.12 1268.04 3616.12 1268.04 3618.12 1268.04 3621.12 1268.04 3623.12 1109.04 3626.12 1109.04 3628.12 1109.04 3630.12 1109.04 3633.12 1109.04 3635.12 1109.04 3638.12 1109.04 3640.12 1109.04 3643.12 1109.04 3645.12 1109.04 3648.12 1109.04 3650.12 950.031 3652.12 950.031 3655.12 1109.04 3657.12 1109.04 3660.12 1109.04 3662.12 1109.04 3665.12 1109.04 3667.12 1109.04 3670.12 1109.04 3672.12 1109.04 3675.12 1109.04 3677.12 1268.04 3679.12 1268.04 3682.12 1268.04 3684.12 1268.04 3687.12 1268.04 3689.12 1268.04 3692.12 1268.04 3694.12 1268.04 3697.12 1268.04 3699.12 1268.04 3701.12 1268.04 3704.12 1428.05 3706.12 1428.05 3709.12 1428.05 3711.12 1428.05 3714.12 1428.05 3716.12 1428.05 3719.12 1428.05 3721.12 1428.05 3723.12 1428.05 3726.12 1428.05 3728.12 1428.05 3731.12 1587.05 3733.12 1587.05 3736.12 1428.05 3738.12 1428.05 3741.12 1428.05 3743.12 1428.05 3745.12 1428.05 3748.12 1428.05 3750.12 1428.05 3753.12 1428.05 3755.12 1428.05 3758.12 1268.04 3760.12 1268.04 3763.12 1268.04 3765.12 1268.04 3768.12 1268.04 3770.12 1268.04 3772.12 1268.04 3775.12 1268.04 3777.12 1268.04 3780.12 1268.04 3782.12 1268.04 3785.12 1109.04 3787.12 1109.04 3790.12 1109.04 3792.12 1109.04 3794.12 1109.04 3797.12 1109.04 3799.12 1109.04 3802.12 1109.04 3804.12 1109.04 3807.12 1109.04 3809.12 1109.04 3812.12 950.031 3814.12 950.031 3816.13 1109.04 3819.13 1109.04 3821.13 1109.04 3824.13 1109.04 3826.13 1109.04 3829.13 1109.04 3831.13 1109.04 3834.13 1109.04 3836 1109.04" stroke="#4472C4" stroke-width="10.3125" stroke-linecap="round" stroke-linejoin="round" stroke-miterlimit="10" fill="none"/></g><g clip-path="url(#clip7)"><path d="M1388 1428 1391.05 1428 1393.05 1428 1396.05 1428 1398.05 1428 1401.05 1428 1403.05 1428 1406.05 1428 1408.05 1428 1410.05 1428 1413.05 1428 1415.05 1428 1418.05 1428 1420.05 1428 1423.05 1428 1425.05 1428 1428.05 1428 1430.05 1428 1432.05 1428 1435.05 1428 1437.05 1428 1440.05 1428 1442.05 1428 1445.05 1428 1447.05 1428 1450.05 1428 1452.05 1428 1454.05 1428 1457.05 1428 1459.05 1428 1462.05 1428 1464.05 1428 1467.05 1428 1469.05 1428 1472.05 1428 1474.05 1428 1477.05 1428 1479.05 1428 1481.05 1428 1484.05 1428 1486.05 1428 1489.05 1428 1491.05 1428 1494.05 1428 1496.05 1428 1499.05 1428 1501.05 1428 1503.05 1428 1506.05 1428 1508.05 1428 1511.05 1428 1513.05 1428 1516.05 1428 1518.05 1428 1521.05 1428 1523.05 1428 1525.05 1428 1528.05 1428 1530.05 1428 1533.05 1428 1535.05 1428 1538.05 1428 1540.05 1428 1543.05 1428 1545.05 1428 1547.05 1428 1550.05 1428 1552.05 1428 1555.05 1428 1557.05 1428 1560.05 1428 1562.05 1428 1565.05 1428 1567.05 1428 1570.05 1428 1572.05 1428 1574.05 1428 1577.05 1428 1579.05 1428 1582.05 1428 1584.05 1746 1587.05 1746 1589.05 1746 1592.05 1746 1594.05 1746 1596.05 1746 1599.05 1746 1601.05 1746 1604.05 1746 1606.05 1746 1609.05 1746 1611.05 1746 1614.05 1746 1616.05 1746 1618.05 1746 1621.05 1746 1623.05 1746 1626.05 1746 1628.05 1746 1631.05 1746 1633.05 1746 1636.05 1746 1638.05 1746 1640.05 1746 1643.05 1746 1645.05 1746 1648.05 1746 1650.05 1746 1653.05 1746 1655.05 1746 1658.05 1746 1660.05 1746 1663.05 1746 1665.05 1746 1667.05 1746 1670.05 1746 1672.05 1746 1675.06 1746 1677.06 1746 1680.06 1746 1682.06 1746 1685.06 1746 1687.06 1746 1689.06 1746 1692.06 1746 1694.06 1746 1697.06 1746 1699.06 1746 1702.06 1746 1704.06 1746 1707.06 1746 1709.06 1746 1711.06 1746 1714.06 1746 1716.06 1746 1719.06 1746 1721.06 1746 1724.06 1746 1726.06 1746 1729.06 1746 1731.06 1746 1734.06 1746 1736.06 1746 1738.06 1746 1741.06 1746 1743.06 1746 1746.06 1746 1748.06 1746 1751.06 1746 1753.06 1746 1756.06 1746 1758.06 1746 1760.06 1746 1763.06 1746 1765.06 1746 1768.06 1746 1770.06 1746 1773.06 1746 1775.06 1746 1778.06 1746 1780.06 1746 1782.06 1746 1785.06 1746 1787.06 1746 1790.06 1428 1792.06 1428 1795.06 1428 1797.06 1428 1800.06 1428 1802.06 1428 1804.06 1428 1807.06 1428 1809.06 1428 1812.06 1428 1814.06 1428 1817.06 1428 1819.06 1428 1822.06 1428 1824.06 1428 1827.06 1428 1829.06 1428 1831.06 1428 1834.06 1428 1836.06 1428 1839.06 1428 1841.06 1428 1844.06 1428 1846.06 1428 1849.06 1428 1851.06 1428 1853.06 1428 1856.06 1428 1858.06 1428 1861.06 1428 1863.06 1428 1866.06 1428 1868.06 1428 1871.06 1428 1873.06 1428 1875.06 1746 1878.06 1746 1880.06 1746 1883.06 1746 1885.06 1746 1888.06 1746 1890.06 1746 1893.06 1746 1895.06 1746 1898.06 1746 1900.06 1746 1902.06 1746 1905.06 1746 1907.06 1746 1910.06 1746 1912.06 1746 1915.06 1746 1917.06 1746 1920.06 1746 1922.06 1746 1924.06 1746 1927.06 1746 1929.06 1746 1932.06 1746 1934.06 1746 1937.06 1746 1939.06 1746 1942.06 1746 1944.06 1746 1946.06 1746 1949.06 1746 1951.06 1746 1954.06 1746 1956.06 1746 1959.06 1746 1961.06 1428 1964.06 1428 1966.06 1428 1968.06 1428 1971.06 1428 1973.06 1428 1976.06 1428 1978.06 1428 1981.07 1428 1983.07 1428 1986.07 1428 1988.07 1428 1991.07 1428 1993.07 1428 1995.07 1428 1998.07 1428 2000.07 1428 2003.07 1428 2005.07 1428 2008.07 1428 2010.07 1428 2013.07 1428 2015.07 1428 2017.07 1428 2020.07 1428 2022.07 1428 2025.07 1428 2027.07 1428 2030.07 1428 2032.07 1428 2035.07 1428 2037.07 1428 2039.07 1746 2042.07 1746 2044.07 1746 2047.07 1746 2049.07 1746 2052.07 1746 2054.07 1746 2057.07 1746 2059.07 1746 2061.07 1746 2064.07 1746 2066.07 1746 2069.07 1746 2071.07 1746 2074.07 1746 2076.07 1746 2079.07 1746 2081.07 1746 2084.07 1746 2086.07 1746 2088.07 1746 2091.07 1746 2093.07 1746 2096.07 1746 2098.07 1746 2101.07 1746 2103.07 1746 2106.07 1746 2108.07 1746 2110.07 1746 2113.07 1746 2115.07 1746 2118.07 1746 2120.07 1746 2123.07 1428 2125.07 1428 2128.07 1428 2130.07 1428 2132.07 1428 2135.07 1428 2137.07 1428 2140.07 1428 2142.07 1428 2145.07 1428 2147.07 1428 2150.07 1428 2152.07 1428 2155.07 1428 2157.07 1428 2159.07 1428 2162.07 1428 2164.07 1428 2167.07 1428 2169.07 1428 2172.07 1428 2174.07 1428 2177.07 1428 2179.07 1428 2181.07 1428 2184.07 1428 2186.07 1428 2189.07 1428 2191.07 1428 2194.07 1428 2196.07 1428 2199.07 1428 2201.07 1746 2203.07 1746 2206.07 1746 2208.07 1746 2211.07 1746 2213.07 1746 2216.07 1746 2218.07 1746 2221.07 1746 2223.07 1746 2225.07 1746 2228.07 1746 2230.07 1746 2233.07 1746 2235.07 1746 2238.07 1746 2240.07 1746 2243.07 1746 2245.07 1746 2248.07 1746 2250.07 1746 2252.07 1746 2255.07 1746 2257.07 1746 2260.07 1746 2262.07 1746 2265.07 1746 2267.07 1746 2270.07 1746 2272.07 1746 2274.07 1746 2277.07 1746 2279.07 1746 2282.07 1428 2284.07 1428 2287.08 1428 2289.08 1428 2292.08 1428 2294.08 1428 2296.08 1428 2299.08 1428 2301.08 1428 2304.08 1428 2306.08 1428 2309.08 1428 2311.08 1428 2314.08 1428 2316.08 1428 2318.08 1428 2321.08 1428 2323.08 1428 2326.08 1428 2328.08 1428 2331.08 1428 2333.08 1428 2336.08 1428 2338.08 1428 2341.08 1428 2343.08 1428 2345.08 1428 2348.08 1428 2350.08 1428 2353.08 1428 2355.08 1428 2358.08 1428 2360.08 1428 2363.08 1746 2365.08 1746 2367.08 1746 2370.08 1746 2372.08 1746 2375.08 1746 2377.08 1746 2380.08 1746 2382.08 1746 2385.08 1746 2387.08 1746 2389.08 1746 2392.08 1746 2394.08 1746 2397.08 1746 2399.08 1746 2402.08 1746 2404.08 1746 2407.08 1746 2409.08 1746 2412.08 1746 2414.08 1746 2416.08 1746 2419.08 1746 2421.08 1746 2424.08 1746 2426.08 1746 2429.08 1746 2431.08 1746 2434.08 1746 2436.08 1746 2438.08 1746 2441.08 1746 2443.08 1428 2446.08 1428 2448.08 1428 2451.08 1428 2453.08 1428 2456.08 1428 2458.08 1428 2460.08 1428 2463.08 1428 2465.08 1428 2468.08 1428 2470.08 1428 2473.08 1428 2475.08 1428 2478.08 1428 2480.08 1428 2482.08 1428 2485.08 1428 2487.08 1428 2490.08 1428 2492.08 1428 2495.08 1428 2497.08 1428 2500.08 1428 2502.08 1428 2505.08 1428 2507.08 1428 2509.08 1428 2512.08 1428 2514.08 1428 2517.08 1428 2519.08 1428 2522.08 1428 2524.08 1746 2527.08 1746 2529.08 1746 2531.08 1746 2534.08 1746 2536.08 1746 2539.08 1746 2541.08 1746 2544.08 1746 2546.08 1746 2549.08 1746 2551.08 1746 2553.08 1746 2556.08 1746 2558.08 1746 2561.08 1746 2563.08 1746 2566.08 1746 2568.08 1746 2571.08 1746 2573.08 1746 2576.08 1746 2578.08 1746 2580.08 1746 2583.08 1746 2585.08 1746 2588.08 1746 2590.08 1746 2593.08 1746 2595.09 1746 2598.09 1746 2600.09 1746 2602.09 1746 2605.09 1428 2607.09 1428 2610.09 1428 2612.09 1428 2615.09 1428 2617.09 1428 2620.09 1428 2622.09 1428 2624.09 1428 2627.09 1428 2629.09 1428 2632.09 1428 2634.09 1428 2637.09 1428 2639.09 1428 2642.09 1428 2644.09 1428 2646.09 1428 2649.09 1428 2651.09 1428 2654.09 1428 2656.09 1428 2659.09 1428 2661.09 1428 2664.09 1428 2666.09 1428 2669.09 1428 2671.09 1428 2673.09 1428 2676.09 1428 2678.09 1428 2681.09 1428 2683.09 1428 2686.09 1746 2688.09 1746 2691.09 1746 2693.09 1746 2695.09 1746 2698.09 1746 2700.09 1746 2703.09 1746 2705.09 1746 2708.09 1746 2710.09 1746 2713.09 1746 2715.09 1746 2717.09 1746 2720.09 1746 2722.09 1746 2725.09 1746 2727.09 1746 2730.09 1746 2732.09 1746 2735.09 1746 2737.09 1746 2739.09 1746 2742.09 1746 2744.09 1746 2747.09 1746 2749.09 1746 2752.09 1746 2754.09 1746 2757.09 1746 2759.09 1746 2762.09 1746 2764.09 1746 2766.09 1428 2769.09 1428 2771.09 1428 2774.09 1428 2776.09 1428 2779.09 1428 2781.09 1428 2784.09 1428 2786.09 1428 2788.09 1428 2791.09 1428 2793.09 1428 2796.09 1428 2798.09 1428 2801.09 1428 2803.09 1428 2806.09 1428 2808.09 1428 2810.09 1428 2813.09 1428 2815.09 1428 2818.09 1428 2820.09 1428 2823.09 1428 2825.09 1428 2828.09 1428 2830.09 1428 2833.09 1428 2835.09 1428 2837.09 1428 2840.09 1428 2842.09 1428 2845.09 1428 2847.09 1746 2850.09 1746 2852.09 1746 2855.09 1746 2857.09 1746 2859.09 1746 2862.09 1746 2864.09 1746 2867.09 1746 2869.09 1746 2872.09 1746 2874.09 1746 2877.09 1746 2879.09 1746 2881.09 1746 2884.09 1746 2886.09 1746 2889.09 1746 2891.09 1746 2894.09 1746 2896.1 1746 2899.1 1746 2901.1 1746 2903.1 1746 2906.1 1746 2908.1 1746 2911.1 1746 2913.1 1746 2916.1 1746 2918.1 1746 2921.1 1746 2923.1 1746 2926.1 1746 2928.1 1428 2930.1 1428 2933.1 1428 2935.1 1428 2938.1 1428 2940.1 1428 2943.1 1428 2945.1 1428 2948.1 1428 2950.1 1428 2952.1 1428 2955.1 1428 2957.1 1428 2960.1 1428 2962.1 1428 2965.1 1428 2967.1 1428 2970.1 1428 2972.1 1428 2974.1 1428 2977.1 1428 2979.1 1428 2982.1 1428 2984.1 1428 2987.1 1428 2989.1 1428 2992.1 1428 2994.1 1428 2996.1 1428 2999.1 1428 3001.1 1428 3004.1 1428 3006.1 1428 3009.1 1746 3011.1 1746 3014.1 1746 3016.1 1746 3019.1 1746 3021.1 1746 3023.1 1746 3026.1 1746 3028.1 1746 3031.1 1746 3033.1 1746 3036.1 1746 3038.1 1746 3041.1 1746 3043.1 1746 3045.1 1746 3048.1 1746 3050.1 1746 3053.1 1746 3055.1 1746 3058.1 1746 3060.1 1746 3063.1 1746 3065.1 1746 3067.1 1746 3070.1 1746 3072.1 1746 3075.1 1746 3077.1 1746 3080.1 1746 3082.1 1746 3085.1 1746 3087.1 1746 3090.1 1428 3092.1 1428 3094.1 1428 3097.1 1428 3099.1 1428 3102.1 1428 3104.1 1428 3107.1 1428 3109.1 1428 3112.1 1428 3114.1 1428 3116.1 1428 3119.1 1428 3121.1 1428 3124.1 1428 3126.1 1428 3129.1 1428 3131.1 1428 3134.1 1428 3136.1 1428 3138.1 1428 3141.1 1428 3143.1 1428 3146.1 1428 3148.1 1428 3151.1 1428 3153.1 1428 3156.1 1428 3158.1 1428 3160.1 1428 3163.1 1428 3165.1 1428 3168.1 1428 3170.1 1746 3173.1 1746 3175.1 1746 3178.1 1746 3180.1 1746 3183.1 1746 3185.1 1746 3187.1 1746 3190.1 1746 3192.1 1746 3195.1 1746 3197.1 1746 3200.1 1746 3202.1 1746 3205.11 1746 3207.11 1746 3209.11 1746 3212.11 1746 3214.11 1746 3217.11 1746 3219.11 1746 3222.11 1746 3224.11 1746 3227.11 1746 3229.11 1746 3231.11 1746 3234.11 1746 3236.11 1746 3239.11 1746 3241.11 1746 3244.11 1746 3246.11 1746 3249.11 1746 3251.11 1428 3254.11 1428 3256.11 1428 3258.11 1428 3261.11 1428 3263.11 1428 3266.11 1428 3268.11 1428 3271.11 1428 3273.11 1428 3276.11 1428 3278.11 1428 3280.11 1428 3283.11 1428 3285.11 1428 3288.11 1428 3290.11 1428 3293.11 1428 3295.11 1428 3298.11 1428 3300.11 1428 3302.11 1428 3305.11 1428 3307.11 1428 3310.11 1428 3312.11 1428 3315.11 1428 3317.11 1428 3320.11 1428 3322.11 1428 3324.11 1428 3327.11 1428 3329.11 1428 3332.11 1746 3334.11 1746 3337.11 1746 3339.11 1746 3342.11 1746 3344.11 1746 3347.11 1746 3349.11 1746 3351.11 1746 3354.11 1746 3356.11 1746 3359.11 1746 3361.11 1746 3364.11 1746 3366.11 1746 3369.11 1746 3371.11 1746 3373.11 1746 3376.11 1746 3378.11 1746 3381.11 1746 3383.11 1746 3386.11 1746 3388.11 1746 3391.11 1746 3393.11 1746 3395.11 1746 3398.11 1746 3400.11 1746 3403.11 1746 3405.11 1746 3408.11 1746 3410.11 1746 3413.11 1428 3415.11 1428 3417.11 1428 3420.11 1428 3422.11 1428 3425.11 1428 3427.11 1428 3430.11 1428 3432.11 1428 3435.11 1428 3437.11 1428 3440.11 1428 3442.11 1428 3444.11 1428 3447.11 1428 3449.11 1428 3452.11 1428 3454.11 1428 3457.11 1428 3459.11 1428 3462.11 1428 3464.11 1428 3466.11 1428 3469.11 1428 3471.11 1428 3474.11 1428 3476.11 1428 3479.11 1428 3481.11 1428 3484.11 1428 3486.11 1428 3488.11 1428 3491.11 1428 3493.11 1746 3496.11 1746 3498.11 1746 3501.11 1746 3503.11 1746 3506.12 1746 3508.12 1746 3511.12 1746 3513.12 1746 3515.12 1746 3518.12 1746 3520.12 1746 3523.12 1746 3525.12 1746 3528.12 1746 3530.12 1746 3533.12 1746 3535.12 1746 3537.12 1746 3540.12 1746 3542.12 1746 3545.12 1746 3547.12 1746 3550.12 1746 3552.12 1746 3555.12 1746 3557.12 1746 3559.12 1746 3562.12 1746 3564.12 1746 3567.12 1746 3569.12 1746 3572.12 1746 3574.12 1428 3577.12 1428 3579.12 1428 3581.12 1428 3584.12 1428 3586.12 1428 3589.12 1428 3591.12 1428 3594.12 1428 3596.12 1428 3599.12 1428 3601.12 1428 3604.12 1428 3606.12 1428 3608.12 1428 3611.12 1428 3613.12 1428 3616.12 1428 3618.12 1428 3621.12 1428 3623.12 1428 3626.12 1428 3628.12 1428 3630.12 1428 3633.12 1428 3635.12 1428 3638.12 1428 3640.12 1428 3643.12 1428 3645.12 1428 3648.12 1428 3650.12 1428 3652.12 1428 3655.12 1746 3657.12 1746 3660.12 1746 3662.12 1746 3665.12 1746 3667.12 1746 3670.12 1746 3672.12 1746 3675.12 1746 3677.12 1746 3679.12 1746 3682.12 1746 3684.12 1746 3687.12 1746 3689.12 1746 3692.12 1746 3694.12 1746 3697.12 1746 3699.12 1746 3701.12 1746 3704.12 1746 3706.12 1746 3709.12 1746 3711.12 1746 3714.12 1746 3716.12 1746 3719.12 1746 3721.12 1746 3723.12 1746 3726.12 1746 3728.12 1746 3731.12 1746 3733.12 1746 3736.12 1428 3738.12 1428 3741.12 1428 3743.12 1428 3745.12 1428 3748.12 1428 3750.12 1428 3753.12 1428 3755.12 1428 3758.12 1428 3760.12 1428 3763.12 1428 3765.12 1428 3768.12 1428 3770.12 1428 3772.12 1428 3775.12 1428 3777.12 1428 3780.12 1428 3782.12 1428 3785.12 1428 3787.12 1428 3790.12 1428 3792.12 1428 3794.12 1428 3797.12 1428 3799.12 1428 3802.12 1428 3804.12 1428 3807.12 1428 3809.12 1428 3812.12 1428 3814.12 1428 3816.13 1746 3819.13 1746 3821.13 1746 3824.13 1746 3826.13 1746 3829.13 1746 3831.13 1746 3834.13 1746 3836 1746" stroke="#70AD47" stroke-width="10.3125" stroke-linecap="round" stroke-linejoin="round" stroke-miterlimit="10" fill="none"/></g><g clip-path="url(#clip8)"><text fill="#595959" font-family="Calibri,Calibri_MSFontService,sans-serif" font-weight="400" font-size="41" transform="matrix(1 0 0 1 1315.42 1917)">-2</text></g><g clip-path="url(#clip9)"><text fill="#595959" font-family="Calibri,Calibri_MSFontService,sans-serif" font-weight="400" font-size="41" transform="matrix(1 0 0 1 1315.42 1758)">-1</text></g><g clip-path="url(#clip10)"><text fill="#595959" font-family="Calibri,Calibri_MSFontService,sans-serif" font-weight="400" font-size="41" transform="matrix(1 0 0 1 1328.04 1598)">0</text></g><g clip-path="url(#clip11)"><text fill="#595959" font-family="Calibri,Calibri_MSFontService,sans-serif" font-weight="400" font-size="41" transform="matrix(1 0 0 1 1328.04 1439)">1</text></g><g clip-path="url(#clip12)"><text fill="#595959" font-family="Calibri,Calibri_MSFontService,sans-serif" font-weight="400" font-size="41" transform="matrix(1 0 0 1 1328.04 1280)">2</text></g><g clip-path="url(#clip13)"><text fill="#595959" font-family="Calibri,Calibri_MSFontService,sans-serif" font-weight="400" font-size="41" transform="matrix(1 0 0 1 1328.04 1121)">3</text></g><g clip-path="url(#clip14)"><text fill="#595959" font-family="Calibri,Calibri_MSFontService,sans-serif" font-weight="400" font-size="41" transform="matrix(1 0 0 1 1328.04 961)">4</text></g><g clip-path="url(#clip15)"><text fill="#595959" font-family="Calibri,Calibri_MSFontService,sans-serif" font-weight="400" font-size="41" transform="matrix(1 0 0 1 1328.04 802)">5</text></g><g clip-path="url(#clip16)"><text fill="#595959" font-family="Calibri,Calibri_MSFontService,sans-serif" font-weight="400" font-size="41" transform="matrix(1 0 0 1 1328.04 643)">6</text></g><g clip-path="url(#clip17)"><text fill="#595959" font-family="Calibri,Calibri_MSFontService,sans-serif" font-weight="400" font-size="41" transform="matrix(1 0 0 1 1328.04 483)">7</text></g><g clip-path="url(#clip18)"><text fill="#595959" font-family="Calibri,Calibri_MSFontService,sans-serif" font-weight="400" font-size="41" transform="matrix(1 0 0 1 1328.04 324)">8</text></g><g clip-path="url(#clip19)"><text fill="#595959" font-family="Calibri,Calibri_MSFontService,sans-serif" font-weight="400" font-size="41" transform="matrix(6.12323e-17 -1 1 6.12323e-17 1402.26 1634)">0</text></g><g clip-path="url(#clip20)"><text fill="#595959" font-family="Calibri,Calibri_MSFontService,sans-serif" font-weight="400" font-size="41" transform="matrix(6.12323e-17 -1 1 6.12323e-17 1453.66 1686)">0.21</text></g><g clip-path="url(#clip21)"><text fill="#595959" font-family="Calibri,Calibri_MSFontService,sans-serif" font-weight="400" font-size="41" transform="matrix(6.12323e-17 -1 1 6.12323e-17 1505.07 1686)">0.42</text></g><g clip-path="url(#clip22)"><text fill="#595959" font-family="Calibri,Calibri_MSFontService,sans-serif" font-weight="400" font-size="41" transform="matrix(6.12323e-17 -1 1 6.12323e-17 1556.47 1686)">0.63</text></g><g clip-path="url(#clip23)"><text fill="#595959" font-family="Calibri,Calibri_MSFontService,sans-serif" font-weight="400" font-size="41" transform="matrix(6.12323e-17 -1 1 6.12323e-17 1607.87 1686)">0.84</text></g><g clip-path="url(#clip24)"><text fill="#595959" font-family="Calibri,Calibri_MSFontService,sans-serif" font-weight="400" font-size="41" transform="matrix(6.12323e-17 -1 1 6.12323e-17 1659.27 1686)">1.05</text></g><g clip-path="url(#clip25)"><text fill="#595959" font-family="Calibri,Calibri_MSFontService,sans-serif" font-weight="400" font-size="41" transform="matrix(6.12323e-17 -1 1 6.12323e-17 1710.68 1686)">1.26</text></g><g clip-path="url(#clip26)"><text fill="#595959" font-family="Calibri,Calibri_MSFontService,sans-serif" font-weight="400" font-size="41" transform="matrix(6.12323e-17 -1 1 6.12323e-17 1762.08 1686)">1.47</text></g><g clip-path="url(#clip27)"><text fill="#595959" font-family="Calibri,Calibri_MSFontService,sans-serif" font-weight="400" font-size="41" transform="matrix(6.12323e-17 -1 1 6.12323e-17 1813.48 1686)">1.68</text></g><g clip-path="url(#clip28)"><text fill="#595959" font-family="Calibri,Calibri_MSFontService,sans-serif" font-weight="400" font-size="41" transform="matrix(6.12323e-17 -1 1 6.12323e-17 1864.88 1686)">1.89</text></g><g clip-path="url(#clip29)"><text fill="#595959" font-family="Calibri,Calibri_MSFontService,sans-serif" font-weight="400" font-size="41" transform="matrix(6.12323e-17 -1 1 6.12323e-17 1916.29 1665)">2.1</text></g><g clip-path="url(#clip30)"><text fill="#595959" font-family="Calibri,Calibri_MSFontService,sans-serif" font-weight="400" font-size="41" transform="matrix(6.12323e-17 -1 1 6.12323e-17 1967.69 1686)">2.31</text></g><g clip-path="url(#clip31)"><text fill="#595959" font-family="Calibri,Calibri_MSFontService,sans-serif" font-weight="400" font-size="41" transform="matrix(6.12323e-17 -1 1 6.12323e-17 2019.09 1686)">2.52</text></g><g clip-path="url(#clip32)"><text fill="#595959" font-family="Calibri,Calibri_MSFontService,sans-serif" font-weight="400" font-size="41" transform="matrix(6.12323e-17 -1 1 6.12323e-17 2070.49 1686)">2.73</text></g><g clip-path="url(#clip33)"><text fill="#595959" font-family="Calibri,Calibri_MSFontService,sans-serif" font-weight="400" font-size="41" transform="matrix(6.12323e-17 -1 1 6.12323e-17 2121.9 1686)">2.94</text></g><g clip-path="url(#clip34)"><text fill="#595959" font-family="Calibri,Calibri_MSFontService,sans-serif" font-weight="400" font-size="41" transform="matrix(6.12323e-17 -1 1 6.12323e-17 2173.3 1686)">3.15</text></g><g clip-path="url(#clip35)"><text fill="#595959" font-family="Calibri,Calibri_MSFontService,sans-serif" font-weight="400" font-size="41" transform="matrix(6.12323e-17 -1 1 6.12323e-17 2224.7 1686)">3.36</text></g><g clip-path="url(#clip36)"><text fill="#595959" font-family="Calibri,Calibri_MSFontService,sans-serif" font-weight="400" font-size="41" transform="matrix(6.12323e-17 -1 1 6.12323e-17 2276.1 1686)">3.57</text></g><g clip-path="url(#clip37)"><text fill="#595959" font-family="Calibri,Calibri_MSFontService,sans-serif" font-weight="400" font-size="41" transform="matrix(6.12323e-17 -1 1 6.12323e-17 2327.5 1686)">3.78</text></g><g clip-path="url(#clip38)"><text fill="#595959" font-family="Calibri,Calibri_MSFontService,sans-serif" font-weight="400" font-size="41" transform="matrix(6.12323e-17 -1 1 6.12323e-17 2378.91 1686)">3.99</text></g><g clip-path="url(#clip39)"><text fill="#595959" font-family="Calibri,Calibri_MSFontService,sans-serif" font-weight="400" font-size="41" transform="matrix(6.12323e-17 -1 1 6.12323e-17 2430.31 1665)">4.2</text></g><g clip-path="url(#clip40)"><text fill="#595959" font-family="Calibri,Calibri_MSFontService,sans-serif" font-weight="400" font-size="41" transform="matrix(6.12323e-17 -1 1 6.12323e-17 2481.71 1686)">4.41</text></g><g clip-path="url(#clip41)"><text fill="#595959" font-family="Calibri,Calibri_MSFontService,sans-serif" font-weight="400" font-size="41" transform="matrix(6.12323e-17 -1 1 6.12323e-17 2533.11 1686)">4.62</text></g><g clip-path="url(#clip42)"><text fill="#595959" font-family="Calibri,Calibri_MSFontService,sans-serif" font-weight="400" font-size="41" transform="matrix(6.12323e-17 -1 1 6.12323e-17 2584.52 1686)">4.83</text></g><g clip-path="url(#clip43)"><text fill="#595959" font-family="Calibri,Calibri_MSFontService,sans-serif" font-weight="400" font-size="41" transform="matrix(6.12323e-17 -1 1 6.12323e-17 2635.92 1686)">5.04</text></g><g clip-path="url(#clip44)"><text fill="#595959" font-family="Calibri,Calibri_MSFontService,sans-serif" font-weight="400" font-size="41" transform="matrix(6.12323e-17 -1 1 6.12323e-17 2687.32 1686)">5.25</text></g><g clip-path="url(#clip45)"><text fill="#595959" font-family="Calibri,Calibri_MSFontService,sans-serif" font-weight="400" font-size="41" transform="matrix(6.12323e-17 -1 1 6.12323e-17 2738.72 1686)">5.46</text></g><g clip-path="url(#clip46)"><text fill="#595959" font-family="Calibri,Calibri_MSFontService,sans-serif" font-weight="400" font-size="41" transform="matrix(6.12323e-17 -1 1 6.12323e-17 2790.13 1686)">5.67</text></g><g clip-path="url(#clip47)"><text fill="#595959" font-family="Calibri,Calibri_MSFontService,sans-serif" font-weight="400" font-size="41" transform="matrix(6.12323e-17 -1 1 6.12323e-17 2841.53 1686)">5.88</text></g><g clip-path="url(#clip48)"><text fill="#595959" font-family="Calibri,Calibri_MSFontService,sans-serif" font-weight="400" font-size="41" transform="matrix(6.12323e-17 -1 1 6.12323e-17 2892.93 1686)">6.09</text></g><g clip-path="url(#clip49)"><text fill="#595959" font-family="Calibri,Calibri_MSFontService,sans-serif" font-weight="400" font-size="41" transform="matrix(6.12323e-17 -1 1 6.12323e-17 2944.33 1665)">6.3</text></g><g clip-path="url(#clip50)"><text fill="#595959" font-family="Calibri,Calibri_MSFontService,sans-serif" font-weight="400" font-size="41" transform="matrix(6.12323e-17 -1 1 6.12323e-17 2995.74 1686)">6.51</text></g><g clip-path="url(#clip51)"><text fill="#595959" font-family="Calibri,Calibri_MSFontService,sans-serif" font-weight="400" font-size="41" transform="matrix(6.12323e-17 -1 1 6.12323e-17 3047.14 1686)">6.72</text></g><g clip-path="url(#clip52)"><text fill="#595959" font-family="Calibri,Calibri_MSFontService,sans-serif" font-weight="400" font-size="41" transform="matrix(6.12323e-17 -1 1 6.12323e-17 3098.54 1686)">6.93</text></g><g clip-path="url(#clip53)"><text fill="#595959" font-family="Calibri,Calibri_MSFontService,sans-serif" font-weight="400" font-size="41" transform="matrix(6.12323e-17 -1 1 6.12323e-17 3149.94 1686)">7.14</text></g><g clip-path="url(#clip54)"><text fill="#595959" font-family="Calibri,Calibri_MSFontService,sans-serif" font-weight="400" font-size="41" transform="matrix(6.12323e-17 -1 1 6.12323e-17 3201.35 1686)">7.35</text></g><g clip-path="url(#clip55)"><text fill="#595959" font-family="Calibri,Calibri_MSFontService,sans-serif" font-weight="400" font-size="41" transform="matrix(6.12323e-17 -1 1 6.12323e-17 3252.75 1686)">7.56</text></g><g clip-path="url(#clip56)"><text fill="#595959" font-family="Calibri,Calibri_MSFontService,sans-serif" font-weight="400" font-size="41" transform="matrix(6.12323e-17 -1 1 6.12323e-17 3304.15 1686)">7.77</text></g><g clip-path="url(#clip57)"><text fill="#595959" font-family="Calibri,Calibri_MSFontService,sans-serif" font-weight="400" font-size="41" transform="matrix(6.12323e-17 -1 1 6.12323e-17 3355.55 1686)">7.98</text></g><g clip-path="url(#clip58)"><text fill="#595959" font-family="Calibri,Calibri_MSFontService,sans-serif" font-weight="400" font-size="41" transform="matrix(6.12323e-17 -1 1 6.12323e-17 3406.96 1686)">8.19</text></g><g clip-path="url(#clip59)"><text fill="#595959" font-family="Calibri,Calibri_MSFontService,sans-serif" font-weight="400" font-size="41" transform="matrix(6.12323e-17 -1 1 6.12323e-17 3458.36 1665)">8.4</text></g><g clip-path="url(#clip60)"><text fill="#595959" font-family="Calibri,Calibri_MSFontService,sans-serif" font-weight="400" font-size="41" transform="matrix(6.12323e-17 -1 1 6.12323e-17 3509.76 1686)">8.61</text></g><g clip-path="url(#clip61)"><text fill="#595959" font-family="Calibri,Calibri_MSFontService,sans-serif" font-weight="400" font-size="41" transform="matrix(6.12323e-17 -1 1 6.12323e-17 3561.16 1686)">8.82</text></g><g clip-path="url(#clip62)"><text fill="#595959" font-family="Calibri,Calibri_MSFontService,sans-serif" font-weight="400" font-size="41" transform="matrix(6.12323e-17 -1 1 6.12323e-17 3612.57 1686)">9.03</text></g><g clip-path="url(#clip63)"><text fill="#595959" font-family="Calibri,Calibri_MSFontService,sans-serif" font-weight="400" font-size="41" transform="matrix(6.12323e-17 -1 1 6.12323e-17 3663.97 1686)">9.24</text></g><g clip-path="url(#clip64)"><text fill="#595959" font-family="Calibri,Calibri_MSFontService,sans-serif" font-weight="400" font-size="41" transform="matrix(6.12323e-17 -1 1 6.12323e-17 3715.37 1686)">9.45</text></g><g clip-path="url(#clip65)"><text fill="#595959" font-family="Calibri,Calibri_MSFontService,sans-serif" font-weight="400" font-size="41" transform="matrix(6.12323e-17 -1 1 6.12323e-17 3766.77 1686)">9.66</text></g><g clip-path="url(#clip66)"><text fill="#595959" font-family="Calibri,Calibri_MSFontService,sans-serif" font-weight="400" font-size="41" transform="matrix(6.12323e-17 -1 1 6.12323e-17 3818.18 1686)">9.87</text></g><g clip-path="url(#clip67)"><text fill="#595959" font-family="Calibri,Calibri_MSFontService,sans-serif" font-weight="400" font-size="64" transform="matrix(1 0 0 1 2329.08 238)">Supervisor Scenario</text></g><rect x="1286.5" y="143.5" width="2602" height="1813" stroke="#D9D9D9" stroke-width="3.4375" stroke-linejoin="round" stroke-miterlimit="10" fill="none"/></g></svg>