<?xml version="1.0" encoding="UTF-8" standalone="no"?><!DOCTYPE svg PUBLIC "-//W3C//DTD SVG 1.1//EN" "http://www.w3.org/Graphics/SVG/1.1/DTD/svg11.dtd"><svg width="100%" height="100%" viewBox="0 0 14 14" version="1.1" xmlns="http://www.w3.org/2000/svg" xmlns:xlink="http://www.w3.org/1999/xlink" xml:space="preserve" xmlns:serif="http://www.serif.com/" style="fill-rule:evenodd;clip-rule:evenodd;stroke-linejoin:round;stroke-miterlimit:2;"><path d="M12.798,3.174c0.269,-0.268 0.269,-0.704 0,-0.973c-0.268,-0.268 -0.704,-0.268 -0.973,0l-4.124,4.125l-0.746,-0.746c-0.09,-0.09 -0.215,-0.141 -0.343,-0.141c-0.269,-0 -0.486,0.217 -0.486,0.485l0,0.625l2.327,2.327l0.625,-0c0.268,-0 0.485,-0.217 0.485,-0.486c0,-0.129 -0.051,-0.253 -0.142,-0.344l-0.745,-0.745l4.124,-4.124l-0.002,-0.003Zm-4.844,6.419l-2.545,-2.545c-0.918,-0.08 -1.831,0.251 -2.488,0.908l-0.172,0.172c-0.479,0.479 -0.747,1.128 -0.747,1.804c-0,0.147 0.152,0.241 0.283,0.177l1.098,-0.548c0.107,-0.054 0.204,0.088 0.116,0.17l-2.715,2.44c-0.099,0.09 -0.157,0.219 -0.157,0.354c-0,0.262 0.213,0.475 0.475,0.475l3.722,0c0.834,0 1.631,-0.331 2.222,-0.919c0.657,-0.658 0.986,-1.571 0.908,-2.488Z" style="fill:#b9b9b9;fill-rule:nonzero;"/></svg>