<?xml version="1.0" encoding="UTF-8" standalone="no"?><!DOCTYPE svg PUBLIC "-//W3C//DTD SVG 1.1//EN" "http://www.w3.org/Graphics/SVG/1.1/DTD/svg11.dtd"><svg width="100%" height="100%" viewBox="0 0 14 14" version="1.1" xmlns="http://www.w3.org/2000/svg" xmlns:xlink="http://www.w3.org/1999/xlink" xml:space="preserve" xmlns:serif="http://www.serif.com/" style="fill-rule:evenodd;clip-rule:evenodd;stroke-linejoin:round;stroke-miterlimit:2;"><g id="checkers"><rect x="1" y="-1" width="1" height="1" style="fill:#f00;"/><rect x="3" y="-1" width="1" height="1" style="fill:#f00;"/><rect x="5" y="-1" width="1" height="1" style="fill:#f00;"/><rect x="7" y="-1" width="1" height="1" style="fill:#f00;"/><rect x="9" y="-1" width="1" height="1" style="fill:#f00;"/><rect x="11" y="-1" width="1" height="1" style="fill:#f00;"/><rect x="13" y="-1" width="1" height="1" style="fill:#f00;"/><rect x="0" y="0" width="1" height="1" style="fill:#f00;"/><rect x="2" y="0" width="1" height="1" style="fill:#f00;"/><rect x="4" y="0" width="1" height="1" style="fill:#f00;"/><rect x="6" y="0" width="1" height="1" style="fill:#f00;"/><rect x="8" y="0" width="1" height="1" style="fill:#f00;"/><rect x="10" y="0" width="1" height="1" style="fill:#f00;"/><rect x="12" y="0" width="1" height="1" style="fill:#f00;"/><rect x="14" y="0" width="1" height="1" style="fill:#f00;"/><rect x="-1" y="1" width="1" height="1" style="fill:#f00;"/><rect x="1" y="1" width="1" height="1" style="fill:#f00;"/><rect x="3" y="1" width="1" height="1" style="fill:#f00;"/><rect x="5" y="1" width="1" height="1" style="fill:#f00;"/><rect x="7" y="1" width="1" height="1" style="fill:#f00;"/><rect x="9" y="1" width="1" height="1" style="fill:#f00;"/><rect x="11" y="1" width="1" height="1" style="fill:#f00;"/><rect x="13" y="1" width="1" height="1" style="fill:#f00;"/><rect x="0" y="2" width="1" height="1" style="fill:#f00;"/><rect x="2" y="2" width="1" height="1" style="fill:#f00;"/><rect x="4" y="2" width="1" height="1" style="fill:#f00;"/><rect x="6" y="2" width="1" height="1" style="fill:#f00;"/><rect x="8" y="2" width="1" height="1" style="fill:#f00;"/><rect x="10" y="2" width="1" height="1" style="fill:#f00;"/><rect x="12" y="2" width="1" height="1" style="fill:#f00;"/><rect x="14" y="2" width="1" height="1" style="fill:#f00;"/><rect x="-1" y="3" width="1" height="1" style="fill:#f00;"/><rect x="1" y="3" width="1" height="1" style="fill:#f00;"/><rect x="3" y="3" width="1" height="1" style="fill:#f00;"/><rect x="5" y="3" width="1" height="1" style="fill:#f00;"/><rect x="7" y="3" width="1" height="1" style="fill:#f00;"/><rect x="9" y="3" width="1" height="1" style="fill:#f00;"/><rect x="11" y="3" width="1" height="1" style="fill:#f00;"/><rect x="13" y="3" width="1" height="1" style="fill:#f00;"/><rect x="0" y="4" width="1" height="1" style="fill:#f00;"/><rect x="2" y="4" width="1" height="1" style="fill:#f00;"/><rect x="4" y="4" width="1" height="1" style="fill:#f00;"/><rect x="6" y="4" width="1" height="1" style="fill:#f00;"/><rect x="8" y="4" width="1" height="1" style="fill:#f00;"/><rect x="10" y="4" width="1" height="1" style="fill:#f00;"/><rect x="12" y="4" width="1" height="1" style="fill:#f00;"/><rect x="14" y="4" width="1" height="1" style="fill:#f00;"/><rect x="-1" y="5" width="1" height="1" style="fill:#f00;"/><rect x="1" y="5" width="1" height="1" style="fill:#f00;"/><rect x="3" y="5" width="1" height="1" style="fill:#f00;"/><rect x="5" y="5" width="1" height="1" style="fill:#f00;"/><rect x="7" y="5" width="1" height="1" style="fill:#f00;"/><rect x="9" y="5" width="1" height="1" style="fill:#f00;"/><rect x="11" y="5" width="1" height="1" style="fill:#f00;"/><rect x="13" y="5" width="1" height="1" style="fill:#f00;"/><rect x="0" y="6" width="1" height="1" style="fill:#f00;"/><rect x="2" y="6" width="1" height="1" style="fill:#f00;"/><rect x="4" y="6" width="1" height="1" style="fill:#f00;"/><rect x="6" y="6" width="1" height="1" style="fill:#f00;"/><rect x="8" y="6" width="1" height="1" style="fill:#f00;"/><rect x="10" y="6" width="1" height="1" style="fill:#f00;"/><rect x="12" y="6" width="1" height="1" style="fill:#f00;"/><rect x="14" y="6" width="1" height="1" style="fill:#f00;"/><rect x="-1" y="7" width="1" height="1" style="fill:#f00;"/><rect x="1" y="7" width="1" height="1" style="fill:#f00;"/><rect x="3" y="7" width="1" height="1" style="fill:#f00;"/><rect x="5" y="7" width="1" height="1" style="fill:#f00;"/><rect x="7" y="7" width="1" height="1" style="fill:#f00;"/><rect x="9" y="7" width="1" height="1" style="fill:#f00;"/><rect x="11" y="7" width="1" height="1" style="fill:#f00;"/><rect x="13" y="7" width="1" height="1" style="fill:#f00;"/><rect x="0" y="8" width="1" height="1" style="fill:#f00;"/><rect x="2" y="8" width="1" height="1" style="fill:#f00;"/><rect x="4" y="8" width="1" height="1" style="fill:#f00;"/><rect x="6" y="8" width="1" height="1" style="fill:#f00;"/><rect x="8" y="8" width="1" height="1" style="fill:#f00;"/><rect x="10" y="8" width="1" height="1" style="fill:#f00;"/><rect x="12" y="8" width="1" height="1" style="fill:#f00;"/><rect x="14" y="8" width="1" height="1" style="fill:#f00;"/><rect x="-1" y="9" width="1" height="1" style="fill:#f00;"/><rect x="1" y="9" width="1" height="1" style="fill:#f00;"/><rect x="3" y="9" width="1" height="1" style="fill:#f00;"/><rect x="5" y="9" width="1" height="1" style="fill:#f00;"/><rect x="7" y="9" width="1" height="1" style="fill:#f00;"/><rect x="9" y="9" width="1" height="1" style="fill:#f00;"/><rect x="11" y="9" width="1" height="1" style="fill:#f00;"/><rect x="13" y="9" width="1" height="1" style="fill:#f00;"/><rect x="0" y="10" width="1" height="1" style="fill:#f00;"/><rect x="2" y="10" width="1" height="1" style="fill:#f00;"/><rect x="4" y="10" width="1" height="1" style="fill:#f00;"/><rect x="6" y="10" width="1" height="1" style="fill:#f00;"/><rect x="8" y="10" width="1" height="1" style="fill:#f00;"/><rect x="10" y="10" width="1" height="1" style="fill:#f00;"/><rect x="12" y="10" width="1" height="1" style="fill:#f00;"/><rect x="14" y="10" width="1" height="1" style="fill:#f00;"/><rect x="-1" y="11" width="1" height="1" style="fill:#f00;"/><rect x="1" y="11" width="1" height="1" style="fill:#f00;"/><rect x="3" y="11" width="1" height="1" style="fill:#f00;"/><rect x="5" y="11" width="1" height="1" style="fill:#f00;"/><rect x="7" y="11" width="1" height="1" style="fill:#f00;"/><rect x="9" y="11" width="1" height="1" style="fill:#f00;"/><rect x="11" y="11" width="1" height="1" style="fill:#f00;"/><rect x="13" y="11" width="1" height="1" style="fill:#f00;"/><rect x="0" y="12" width="1" height="1" style="fill:#f00;"/><rect x="2" y="12" width="1" height="1" style="fill:#f00;"/><rect x="4" y="12" width="1" height="1" style="fill:#f00;"/><rect x="6" y="12" width="1" height="1" style="fill:#f00;"/><rect x="8" y="12" width="1" height="1" style="fill:#f00;"/><rect x="10" y="12" width="1" height="1" style="fill:#f00;"/><rect x="12" y="12" width="1" height="1" style="fill:#f00;"/><rect x="14" y="12" width="1" height="1" style="fill:#f00;"/><rect x="-1" y="13" width="1" height="1" style="fill:#f00;"/><rect x="1" y="13" width="1" height="1" style="fill:#f00;"/><rect x="3" y="13" width="1" height="1" style="fill:#f00;"/><rect x="5" y="13" width="1" height="1" style="fill:#f00;"/><rect x="7" y="13" width="1" height="1" style="fill:#f00;"/><rect x="9" y="13" width="1" height="1" style="fill:#f00;"/><rect x="11" y="13" width="1" height="1" style="fill:#f00;"/><rect x="13" y="13" width="1" height="1" style="fill:#f00;"/><rect x="0" y="14" width="1" height="1" style="fill:#f00;"/><rect x="2" y="14" width="1" height="1" style="fill:#f00;"/><rect x="4" y="14" width="1" height="1" style="fill:#f00;"/><rect x="6" y="14" width="1" height="1" style="fill:#f00;"/><rect x="8" y="14" width="1" height="1" style="fill:#f00;"/><rect x="10" y="14" width="1" height="1" style="fill:#f00;"/><rect x="12" y="14" width="1" height="1" style="fill:#f00;"/><rect x="14" y="14" width="1" height="1" style="fill:#f00;"/></g></svg>