<?xml version="1.0" encoding="UTF-8" standalone="no"?><!DOCTYPE svg PUBLIC "-//W3C//DTD SVG 1.1//EN" "http://www.w3.org/Graphics/SVG/1.1/DTD/svg11.dtd"><svg width="100%" height="100%" viewBox="0 0 32 32" version="1.1" xmlns="http://www.w3.org/2000/svg" xmlns:xlink="http://www.w3.org/1999/xlink" xml:space="preserve" xmlns:serif="http://www.serif.com/" style="fill-rule:evenodd;clip-rule:evenodd;stroke-linejoin:round;stroke-miterlimit:2;"><g id="hammer"><path d="M21.295,15.072c-1.077,0.183 -2.223,-0.138 -3.056,-0.97l-1.455,-1.456c-0.573,-0.573 -0.894,-1.344 -0.894,-2.154l-0,-0.462l-3.045,-1.662c-0.202,-0.111 -0.328,-0.328 -0.317,-0.561c0.012,-0.233 0.149,-0.44 0.363,-0.535l1.803,-0.802c0.703,-0.31 1.463,-0.47 2.235,-0.47l0.691,-0c1.402,-0 2.75,0.535 3.77,1.494l1.704,1.604c0.924,0.871 1.268,2.127 1.016,3.285l0.603,0.607l0.306,-0.305c0.359,-0.359 0.94,-0.359 1.295,-0l0.917,0.916c0.359,0.359 0.359,0.94 -0,1.295l-3.362,3.362c-0.359,0.359 -0.939,0.359 -1.295,-0l-0.916,-0.917c-0.359,-0.359 -0.359,-0.94 -0,-1.295l0.305,-0.306l-0.668,-0.668Zm-14.748,5.332l8.919,-7.429c0.133,0.187 0.286,0.367 0.451,0.535l1.455,1.455c0.229,0.229 0.474,0.428 0.733,0.6l-7.452,8.946c-0.554,0.664 -1.375,1.046 -2.239,1.046c-1.611,0 -2.914,-1.306 -2.914,-2.914c-0,-0.864 0.386,-1.685 1.047,-2.239Z" style="fill:#cfcfcf;fill-rule:nonzero;"/></g></svg>