<?xml version="1.0" encoding="UTF-8" standalone="no"?><!DOCTYPE svg PUBLIC "-//W3C//DTD SVG 1.1//EN" "http://www.w3.org/Graphics/SVG/1.1/DTD/svg11.dtd"><svg width="100%" height="100%" viewBox="0 0 32 32" version="1.1" xmlns="http://www.w3.org/2000/svg" xmlns:xlink="http://www.w3.org/1999/xlink" xml:space="preserve" xmlns:serif="http://www.serif.com/" style="fill-rule:evenodd;clip-rule:evenodd;stroke-linejoin:round;stroke-miterlimit:2;"><g id="side-bar"><path d="M26,10l0,12c0,0.355 -0.11,0.7 -0.296,1c-0.362,0.584 -1.013,1 -1.704,1l-16,0c-1.046,0 -2,-0.954 -2,-2l0.001,-12c-0,-1.046 0.954,-2 2,-2l16,0.001c1.046,-0 1.999,0.953 1.999,1.999Zm-12.604,13.001l10.604,-0c0.495,-0 1.001,-0.506 1.001,-1.001l-0,-12c-0,-0.495 -0.505,-1 -1,-1l-10.604,-0l-0.001,14.001Z" style="fill:#cfcfcf;"/></g></svg>