<?xml version="1.0" encoding="UTF-8" standalone="no"?><!DOCTYPE svg PUBLIC "-//W3C//DTD SVG 1.1//EN" "http://www.w3.org/Graphics/SVG/1.1/DTD/svg11.dtd"><svg width="100%" height="100%" viewBox="0 0 32 32" version="1.1" xmlns="http://www.w3.org/2000/svg" xmlns:xlink="http://www.w3.org/1999/xlink" xml:space="preserve" xmlns:serif="http://www.serif.com/" style="fill-rule:evenodd;clip-rule:evenodd;stroke-linecap:round;stroke-linejoin:round;stroke-miterlimit:1.5;"><g id="info"><path d="M15.15,11.15c-0,-0.631 0.519,-1.15 1.15,-1.15c0.631,0 1.15,0.519 1.15,1.15c0,0.631 -0.519,1.15 -1.15,1.15c-0.631,0 -1.15,-0.519 -1.15,-1.15Zm-1.15,3.45c0,-0.424 0.343,-0.767 0.767,-0.767l1.533,0c0.424,0 0.767,0.343 0.767,0.767l-0,5.367l0.766,-0c0.424,-0 0.767,0.342 0.767,0.766c0,0.424 -0.343,0.767 -0.767,0.767l-3.066,-0c-0.424,-0 -0.767,-0.343 -0.767,-0.767c0,-0.424 0.343,-0.766 0.767,-0.766l0.766,-0l0,-4.6l-0.766,-0c-0.424,-0 -0.767,-0.343 -0.767,-0.767Z" style="fill:#333;fill-rule:nonzero;"/><circle cx="16" cy="16" r="9.5" style="fill:none;stroke:#333;stroke-width:1.22px;"/></g></svg>